<?xml version="1.0" encoding="utf-8"?>
<!-- Generator: Adobe Illustrator 23.0.1, SVG Export Plug-In . SVG Version: 6.00 Build 0)  -->
<svg version="1.1" id="Layer_1" xmlns="http://www.w3.org/2000/svg" xmlns:xlink="http://www.w3.org/1999/xlink" x="0px" y="0px"
	 viewBox="0 0 100 100" style="enable-background:new 0 0 100 100;" xml:space="preserve">
<path d="M50,5C25.19,5,5,25.19,5,50c0,6.94,1.58,13.52,4.4,19.4C6.68,72.11,5,75.86,5,80c0,8.27,6.73,15,15,15
	c4.14,0,7.89-1.68,10.6-4.4C36.48,93.42,43.06,95,50,95c24.81,0,45-20.19,45-45S74.81,5,50,5z M20,91c-6.07,0-11-4.93-11-11
	s4.93-11,11-11s11,4.93,11,11S26.07,91,20,91z M50,91c-6.03,0-11.76-1.32-16.93-3.67C34.3,85.16,35,82.66,35,80
	c0-8.27-6.73-15-15-15c-2.66,0-5.16,0.7-7.33,1.93C10.32,61.76,9,56.03,9,50C9,27.39,27.39,9,50,9s41,18.39,41,41S72.61,91,50,91z
	 M56.64,50.46C58.69,48.63,60,45.97,60,43c0-5.51-4.49-10-10-10s-10,4.49-10,10c0,2.97,1.31,5.63,3.36,7.46
	C37.85,52.99,34,58.55,34,65c0,1.1,0.9,2,2,2h28c1.1,0,2-0.9,2-2C66,58.55,62.15,52.99,56.64,50.46z M50,37c3.31,0,6,2.69,6,6
	s-2.69,6-6,6s-6-2.69-6-6S46.69,37,50,37z M38.17,63c0.95-5.67,5.89-10,11.83-10s10.88,4.33,11.83,10H38.17z M27,80c0,1.1-0.9,2-2,2
	h-3v3c0,1.1-0.9,2-2,2s-2-0.9-2-2v-3h-3c-1.1,0-2-0.9-2-2c0-1.1,0.9-2,2-2h3v-3c0-1.1,0.9-2,2-2s2,0.9,2,2v3h3
	C26.1,78,27,78.9,27,80z"/>
</svg>
