<svg xmlns="http://www.w3.org/2000/svg" width="28.538" height="25.431" viewBox="0 0 28.538 25.431">
  <g id="Group_351" data-name="Group 351" transform="translate(-1.65 -2.65)">
    <path id="Path_714" data-name="Path 714" d="M15.919,2.65a17.116,17.116,0,0,1,4.735.507A5.117,5.117,0,0,1,23.13,5.934a5.012,5.012,0,0,0,.393.707,1.68,1.68,0,0,0,1.084.5,5.586,5.586,0,0,1,5.58,5.579v8.25A7.116,7.116,0,0,1,23.08,28.08H8.758A7.116,7.116,0,0,1,1.65,20.973v-8.25A5.586,5.586,0,0,1,7.23,7.144a1.684,1.684,0,0,0,1.085-.5,5.031,5.031,0,0,0,.391-.706,5.112,5.112,0,0,1,2.476-2.777A17.128,17.128,0,0,1,15.919,2.65ZM23.08,25.88a4.913,4.913,0,0,0,4.908-4.908v-8.25a3.383,3.383,0,0,0-3.38-3.379A3.853,3.853,0,0,1,21.9,8.129a5.268,5.268,0,0,1-.74-1.212c-.348-.7-.742-1.485-1.322-1.716a15.179,15.179,0,0,0-3.921-.351A15.19,15.19,0,0,0,12,5.2c-.579.231-.973,1.019-1.32,1.715a5.263,5.263,0,0,1-.74,1.212A3.858,3.858,0,0,1,7.23,9.344a3.383,3.383,0,0,0-3.38,3.379v8.25A4.913,4.913,0,0,0,8.758,25.88Z" transform="translate(0 0)"/>
    <path id="Path_715" data-name="Path 715" d="M17.508,10.6H17.5a1.1,1.1,0,0,1,0-2.2h.013a1.1,1.1,0,0,1,0,2.2Z" transform="translate(6.247 2.436)"/>
    <path id="Path_716" data-name="Path 716" d="M13.347,8.849a5.626,5.626,0,1,1-5.626,5.626A5.632,5.632,0,0,1,13.347,8.849Zm0,9.052a3.426,3.426,0,1,0-3.426-3.426A3.43,3.43,0,0,0,13.347,17.9Z" transform="translate(2.572 2.626)"/>
  </g>
</svg>
