<?xml version="1.0" encoding="UTF-8" standalone="no"?>
<!DOCTYPE svg PUBLIC "-//W3C//DTD SVG 1.1//EN" "http://www.w3.org/Graphics/SVG/1.1/DTD/svg11.dtd">
<svg width="100%" height="100%" viewBox="0 0 2084 2084" version="1.1" xmlns="http://www.w3.org/2000/svg" xmlns:xlink="http://www.w3.org/1999/xlink" xml:space="preserve" xmlns:serif="http://www.serif.com/" style="fill-rule:evenodd;clip-rule:evenodd;stroke-linejoin:round;stroke-miterlimit:2;">
    <g transform="matrix(1,0,0,1,-4582,0)">
        <g id="Artboard3" transform="matrix(1,0,0,1,-0.666667,0)">
            <rect x="4582.67" y="0" width="2083.33" height="2083.33" style="fill:none;"/>
            <g transform="matrix(4.02894,0,0,4.02894,4613.88,4.65253)">
                <g>
                    <g>
                        <g>
                            <g>
                                <g>
                                    <path d="M321.554,259.348C282.494,259.348 250.83,227.684 250.83,188.624L250.83,165.978C250.83,159.538 256.05,154.32 262.488,154.32L392.278,154.32L392.278,188.624C392.278,227.684 360.614,259.348 321.554,259.348Z" style="fill:rgb(35,87,137);fill-rule:nonzero;"/>
                                </g>
                                <g>
                                    <path d="M321.554,263.348C280.35,263.348 246.83,229.826 246.83,188.624L246.83,165.978C246.83,157.344 253.854,150.32 262.488,150.32L392.28,150.32C394.488,150.32 396.28,152.112 396.28,154.32L396.28,188.624C396.28,229.828 362.758,263.348 321.554,263.348ZM262.488,158.32C258.266,158.32 254.83,161.756 254.83,165.978L254.83,188.624C254.83,225.416 284.762,255.348 321.554,255.348C358.346,255.348 388.278,225.416 388.278,188.624L388.278,158.32L262.488,158.32Z" style="fill:rgb(35,87,137);fill-rule:nonzero;"/>
                                </g>
                                <g>
                                    <path d="M381.79,196.32L381.79,190.68C381.79,157.712 354.822,130.986 321.554,130.986C288.286,130.986 261.318,157.712 261.318,190.68L261.318,196.32C250.858,196.108 242.56,204.44 242.56,214.512C242.56,225.268 251.95,233.774 262.91,232.616C269.126,259.026 293.016,278.702 321.556,278.702C350.098,278.702 373.986,259.024 380.202,232.616C391.146,233.774 400.55,225.282 400.55,214.512C400.548,204.436 392.244,196.108 381.79,196.32Z" style="fill:rgb(255,212,190);fill-rule:nonzero;"/>
                                </g>
                                <g>
                                    <path d="M352.826,226.916C348.622,226.916 345.212,223.508 345.212,219.302L345.212,211.18C345.212,206.976 348.62,203.566 352.826,203.566C357.03,203.566 360.44,206.974 360.44,211.18L360.44,219.302C360.44,223.508 357.032,226.916 352.826,226.916Z" style="fill:rgb(35,87,137);fill-rule:nonzero;"/>
                                </g>
                                <g>
                                    <path d="M290.266,226.916C286.062,226.916 282.652,223.508 282.652,219.302L282.652,211.18C282.652,206.976 286.06,203.566 290.266,203.566C294.47,203.566 297.88,206.974 297.88,211.18L297.88,219.302C297.88,223.508 294.472,226.916 290.266,226.916Z" style="fill:rgb(35,87,137);fill-rule:nonzero;"/>
                                </g>
                                <g>
                                    <path d="M321.554,282.702C292.65,282.702 267.728,263.942 259.844,236.692C254.704,236.44 249.764,234.438 245.912,230.972C241.24,226.768 238.56,220.768 238.56,214.512C238.56,208.524 240.926,202.908 245.22,198.7C248.564,195.422 252.762,193.324 257.318,192.6L257.318,190.68C257.318,155.558 286.134,126.986 321.554,126.986C356.974,126.986 385.79,155.56 385.79,190.68L385.79,192.598C390.346,193.322 394.542,195.422 397.888,198.7C402.182,202.908 404.548,208.524 404.548,214.512C404.548,220.768 401.868,226.768 397.198,230.97C393.344,234.436 388.406,236.44 383.264,236.692C375.38,263.942 350.458,282.702 321.554,282.702ZM262.912,228.616C264.746,228.616 266.372,229.878 266.802,231.7C272.76,257.02 295.276,274.702 321.554,274.702C347.832,274.702 370.346,257.018 376.304,231.7C376.766,229.738 378.608,228.41 380.62,228.638C384.766,229.074 388.764,227.796 391.846,225.022C394.834,222.334 396.548,218.504 396.548,214.512C396.548,210.692 395.036,207.106 392.288,204.414C389.512,201.694 385.828,200.266 381.872,200.318C380.766,200.34 379.758,199.928 378.992,199.176C378.224,198.424 377.79,197.394 377.79,196.318L377.79,190.678C377.79,159.968 352.564,134.984 321.554,134.984C290.544,134.984 265.318,159.968 265.318,190.678L265.318,196.318C265.318,197.394 264.884,198.422 264.116,199.176C263.348,199.928 262.214,200.346 261.238,200.318C257.222,200.234 253.596,201.694 250.818,204.412C248.072,207.104 246.56,210.69 246.56,214.51C246.56,218.502 248.274,222.334 251.264,225.022C254.34,227.79 258.316,229.08 262.488,228.636C262.628,228.622 262.772,228.616 262.912,228.616Z" style="fill:rgb(35,87,137);fill-rule:nonzero;"/>
                                </g>
                                <g>
                                    <path d="M289.272,186.142L371.47,186.142C382.962,186.142 392.28,176.826 392.28,165.332L392.28,147.35C392.28,126.97 375.758,110.448 355.378,110.448L295.424,110.448C275.044,110.448 258.522,126.97 258.522,147.35L258.522,155.388C258.52,172.374 272.288,186.142 289.272,186.142Z" style="fill:rgb(35,87,137);fill-rule:nonzero;"/>
                                </g>
                                <g>
                                    <path d="M371.47,190.142L289.272,190.142C270.11,190.142 254.52,174.552 254.52,155.39L254.52,147.35C254.52,124.796 272.87,106.448 295.422,106.448L355.376,106.448C377.928,106.448 396.278,124.796 396.278,147.35L396.278,165.332C396.28,179.012 385.15,190.142 371.47,190.142ZM295.424,114.448C277.282,114.448 262.522,129.208 262.522,147.35L262.522,155.39C262.522,170.14 274.522,182.142 289.274,182.142L371.472,182.142C380.74,182.142 388.28,174.6 388.28,165.332L388.28,147.35C388.28,129.208 373.52,114.448 355.378,114.448L295.424,114.448Z" style="fill:rgb(35,87,137);fill-rule:nonzero;"/>
                                </g>
                                <g>
                                    <path d="M321.528,251.532C319.058,251.532 316.898,251.24 314.92,250.64C311.644,249.644 308.768,247.964 306.602,245.778C305.436,244.602 305.444,242.702 306.62,241.536C307.798,240.37 309.694,240.376 310.864,241.554C312.33,243.034 314.338,244.192 316.666,244.9C318.066,245.326 319.656,245.532 321.528,245.532C323.4,245.532 324.988,245.324 326.39,244.9C328.716,244.192 330.724,243.034 332.194,241.554C333.36,240.38 335.262,240.37 336.436,241.538C337.612,242.704 337.62,244.604 336.452,245.78C334.284,247.964 331.41,249.644 328.136,250.64C326.158,251.24 323.998,251.532 321.528,251.532Z" style="fill:rgb(35,87,137);fill-rule:nonzero;"/>
                                </g>
                            </g>
                            <g>
                                <g>
                                    <path d="M197.916,206.618L197.916,201.682C197.916,172.834 174.318,149.45 145.21,149.45C116.1,149.45 92.504,172.836 92.504,201.682L92.504,206.618C83.352,206.432 76.09,213.724 76.09,222.536C76.09,231.946 84.306,239.39 93.896,238.376C99.336,261.486 120.238,278.702 145.21,278.702C170.184,278.702 191.086,261.484 196.524,238.376C206.1,239.388 214.33,231.96 214.33,222.536C214.328,213.718 207.062,206.432 197.916,206.618Z" style="fill:rgb(255,212,190);fill-rule:nonzero;"/>
                                </g>
                                <g>
                                    <path d="M172.572,235.432C168.156,235.432 164.578,231.852 164.578,227.438L164.578,218.91C164.578,214.494 168.158,210.916 172.572,210.916C176.988,210.916 180.566,214.496 180.566,218.91L180.566,227.438C180.566,231.854 176.986,235.432 172.572,235.432Z" style="fill:rgb(35,87,137);fill-rule:nonzero;"/>
                                </g>
                                <g>
                                    <path d="M117.832,235.432C113.416,235.432 109.838,231.852 109.838,227.438L109.838,218.91C109.838,214.494 113.418,210.916 117.832,210.916C122.248,210.916 125.826,214.496 125.826,218.91L125.826,227.438C125.826,231.854 122.246,235.432 117.832,235.432Z" style="fill:rgb(35,87,137);fill-rule:nonzero;"/>
                                </g>
                                <g>
                                    <path d="M145.208,282.702C119.812,282.702 97.898,266.296 90.83,242.422C86.346,242.122 82.052,240.338 78.686,237.308C74.492,233.536 72.088,228.15 72.088,222.536C72.088,217.16 74.212,212.12 78.066,208.342C80.964,205.502 84.576,203.648 88.502,202.938L88.502,201.68C88.502,170.674 113.942,145.448 145.21,145.448C176.478,145.448 201.918,170.674 201.918,201.68L201.918,202.938C205.844,203.646 209.454,205.5 212.354,208.342C216.208,212.12 218.33,217.16 218.33,222.536C218.33,228.152 215.926,233.536 211.734,237.308C208.366,240.338 204.072,242.122 199.588,242.422C192.518,266.296 170.604,282.702 145.208,282.702ZM93.896,234.376C95.73,234.376 97.356,235.636 97.786,237.46C102.946,259.388 122.448,274.702 145.208,274.702C167.968,274.702 187.468,259.388 192.628,237.46C193.09,235.5 194.942,234.168 196.942,234.4C200.436,234.762 203.79,233.692 206.38,231.362C208.924,229.072 210.328,225.938 210.328,222.536C210.328,219.328 209.058,216.316 206.752,214.056C204.42,211.77 201.326,210.55 197.998,210.616C196.952,210.642 195.884,210.226 195.118,209.474C194.35,208.722 193.916,207.692 193.916,206.616L193.916,201.68C193.916,175.086 172.066,153.448 145.208,153.448C118.35,153.448 96.5,175.084 96.5,201.68L96.5,206.616C96.5,207.692 96.066,208.72 95.298,209.474C94.53,210.226 93.484,210.648 92.418,210.616C89.104,210.528 85.994,211.772 83.662,214.056C81.356,216.316 80.086,219.328 80.086,222.536C80.086,225.886 81.526,229.104 84.036,231.362C86.624,233.692 89.98,234.76 93.472,234.4C93.614,234.384 93.756,234.376 93.896,234.376Z" style="fill:rgb(35,87,137);fill-rule:nonzero;"/>
                                </g>
                                <g>
                                    <path d="M151.186,177.984C147.872,177.984 145.186,175.298 145.186,171.984C145.186,170.116 144.418,169.234 141.37,166.718C138.11,164.032 133.186,159.972 133.186,152.196C133.186,144.422 138.112,140.362 141.372,137.678C144.418,135.166 145.186,134.286 145.186,132.422C145.186,129.108 147.872,126.422 151.186,126.422C154.5,126.422 157.186,129.108 157.186,132.422C157.186,140.196 152.26,144.254 149.002,146.94C145.954,149.452 145.186,150.332 145.186,152.196C145.186,154.064 145.954,154.946 149.002,157.46C152.262,160.148 157.186,164.208 157.186,171.984C157.186,175.298 154.5,177.984 151.186,177.984Z" style="fill:rgb(35,87,137);fill-rule:nonzero;"/>
                                </g>
                                <g>
                                    <circle cx="145.554" cy="250.594" r="17.654" style="fill:rgb(250,135,67);"/>
                                </g>
                                <g>
                                    <path d="M145.554,257.342C141.834,257.342 138.808,254.314 138.808,250.594C138.808,246.874 141.836,243.848 145.554,243.848C149.274,243.848 152.3,246.874 152.3,250.594C152.3,254.314 149.274,257.342 145.554,257.342Z" style="fill:rgb(35,87,137);fill-rule:nonzero;"/>
                                </g>
                                <g>
                                    <path d="M145.554,272.248C133.614,272.248 123.9,262.534 123.9,250.594C123.9,238.654 133.614,228.94 145.554,228.94C157.494,228.94 167.206,238.654 167.206,250.594C167.208,262.534 157.494,272.248 145.554,272.248ZM145.554,236.94C138.024,236.94 131.9,243.066 131.9,250.594C131.9,258.124 138.026,264.248 145.554,264.248C153.082,264.248 159.206,258.122 159.206,250.594C159.208,243.066 153.082,236.94 145.554,236.94Z" style="fill:rgb(35,87,137);fill-rule:nonzero;"/>
                                </g>
                            </g>
                        </g>
                        <g>
                            <g>
                                <g>
                                    <path d="M241.106,427.04L241.106,309.286L281.07,309.286C299.89,309.286 315.148,324.544 315.148,343.364L315.148,352.998C315.148,393.89 281.998,427.04 241.106,427.04Z" style="fill:rgb(224,235,252);fill-rule:nonzero;"/>
                                </g>
                                <g>
                                    <path d="M235.53,427.04L235.53,309.286L195.566,309.286C176.746,309.286 161.488,324.544 161.488,343.364L161.488,352.998C161.488,393.89 194.638,427.04 235.53,427.04Z" style="fill:rgb(224,235,252);fill-rule:nonzero;"/>
                                </g>
                            </g>
                            <g>
                                <g>
                                    <path d="M241.108,431.04C238.9,431.04 237.108,429.248 237.108,427.04L237.108,309.286C237.108,307.078 238.9,305.286 241.108,305.286L281.07,305.286C302.066,305.286 319.148,322.368 319.148,343.364L319.148,352.998C319.148,396.03 284.138,431.04 241.108,431.04ZM245.108,313.286L245.108,422.926C281.876,420.848 311.15,390.278 311.15,352.998L311.15,343.364C311.15,326.78 297.658,313.286 281.072,313.286L245.108,313.286Z" style="fill:rgb(35,87,137);fill-rule:nonzero;"/>
                                </g>
                                <g>
                                    <path d="M235.53,431.04C192.498,431.04 157.488,396.03 157.488,352.998L157.488,343.364C157.488,322.368 174.57,305.286 195.566,305.286L235.528,305.286C237.736,305.286 239.528,307.078 239.528,309.286L239.528,427.04C239.53,429.248 237.738,431.04 235.53,431.04ZM195.566,313.286C178.98,313.286 165.488,326.78 165.488,343.364L165.488,352.998C165.488,390.278 194.762,420.848 231.53,422.926L231.53,313.286L195.566,313.286Z" style="fill:rgb(35,87,137);fill-rule:nonzero;"/>
                                </g>
                            </g>
                            <g>
                                <path d="M300.358,359.538L300.358,353.728C300.358,319.772 272.582,292.246 238.318,292.246C204.054,292.246 176.278,319.772 176.278,353.728L176.278,359.538C165.506,359.32 156.958,367.902 156.958,378.276C156.958,389.354 166.628,398.116 177.916,396.922C184.318,424.124 208.924,444.388 238.318,444.388C267.714,444.388 292.318,424.12 298.72,396.922C309.992,398.114 319.678,389.368 319.678,378.276C319.678,367.896 311.124,359.32 300.358,359.538Z" style="fill:rgb(255,212,190);fill-rule:nonzero;"/>
                            </g>
                            <g>
                                <path d="M238.332,416.31C233.58,416.31 229.15,414.592 226.18,411.598C225.014,410.422 225.022,408.522 226.198,407.356C227.376,406.19 229.272,406.196 230.442,407.374C232.264,409.212 235.216,410.31 238.332,410.31C241.468,410.31 244.33,409.24 246.18,407.374C247.35,406.196 249.246,406.19 250.424,407.356C251.6,408.522 251.608,410.422 250.442,411.598C247.47,414.592 243.056,416.31 238.332,416.31Z" style="fill:rgb(35,87,137);fill-rule:nonzero;"/>
                            </g>
                            <g>
                                <path d="M270.528,391.052C266.198,391.052 262.686,387.542 262.686,383.21L262.686,374.846C262.686,370.516 266.196,367.004 270.528,367.004C274.858,367.004 278.37,370.514 278.37,374.846L278.37,383.21C278.37,387.54 274.858,391.052 270.528,391.052Z" style="fill:rgb(35,87,137);fill-rule:nonzero;"/>
                            </g>
                            <g>
                                <path d="M206.094,391.052C201.764,391.052 198.252,387.542 198.252,383.21L198.252,374.846C198.252,370.516 201.762,367.004 206.094,367.004C210.424,367.004 213.936,370.514 213.936,374.846L213.936,383.21C213.936,387.54 210.424,391.052 206.094,391.052Z" style="fill:rgb(35,87,137);fill-rule:nonzero;"/>
                            </g>
                            <g>
                                <path d="M238.318,448.388C208.574,448.388 182.93,429.066 174.85,401.004C169.554,400.764 164.46,398.71 160.49,395.138C155.702,390.832 152.958,384.684 152.958,378.276C152.958,372.14 155.382,366.386 159.782,362.074C163.234,358.692 167.57,356.536 172.276,355.808L172.276,353.728C172.276,317.622 201.902,288.246 238.318,288.246C274.734,288.246 304.36,317.622 304.36,353.728L304.36,355.808C309.068,356.536 313.402,358.692 316.854,362.074C321.254,366.386 323.678,372.14 323.678,378.276C323.678,384.686 320.934,390.832 316.148,395.138C312.18,398.71 307.084,400.764 301.786,401.004C293.708,429.066 268.064,448.388 238.318,448.388ZM177.92,392.92C179.754,392.92 181.38,394.18 181.808,396.004C187.962,422.136 211.198,440.388 238.318,440.388C265.44,440.388 288.676,422.138 294.826,396.004C295.288,394.044 297.156,392.714 299.14,392.944C303.466,393.402 307.598,392.068 310.796,389.192C313.898,386.4 315.676,382.422 315.676,378.276C315.676,374.308 314.106,370.584 311.254,367.79C308.446,365.04 304.73,363.536 300.76,363.536C300.624,363.536 300.486,363.538 300.358,363.54C299.314,363.54 298.308,363.13 297.56,362.398C296.792,361.646 296.358,360.616 296.358,359.54L296.358,353.732C296.358,322.036 270.32,296.25 238.316,296.25C206.312,296.25 180.274,322.036 180.274,353.732L180.274,359.54C180.274,360.616 179.84,361.644 179.072,362.398C178.304,363.15 177.272,363.564 176.192,363.54C172.188,363.492 168.262,364.966 165.38,367.79C162.526,370.584 160.956,374.31 160.956,378.278C160.956,382.424 162.736,386.402 165.838,389.194C169.036,392.07 173.168,393.4 177.492,392.946C177.636,392.928 177.78,392.92 177.92,392.92Z" style="fill:rgb(35,87,137);fill-rule:nonzero;"/>
                            </g>
                            <g>
                                <g>
                                    <path d="M271.066,407.368C270.884,407.368 270.702,407.352 270.516,407.322L244.478,402.938C242.688,402.636 241.48,400.94 241.78,399.148C242.082,397.356 243.774,396.144 245.57,396.45L271.608,400.834C273.398,401.136 274.606,402.832 274.306,404.624C274.036,406.23 272.642,407.368 271.066,407.368Z" style="fill:white;fill-rule:nonzero;"/>
                                </g>
                            </g>
                            <g>
                                <g>
                                    <path d="M205.556,407.368C205.738,407.368 205.92,407.352 206.106,407.322L232.144,402.938C233.934,402.636 235.142,400.94 234.842,399.148C234.54,397.356 232.848,396.144 231.052,396.45L205.014,400.834C203.224,401.136 202.016,402.832 202.316,404.624C202.586,406.23 203.978,407.368 205.556,407.368Z" style="fill:white;fill-rule:nonzero;"/>
                                </g>
                            </g>
                        </g>
                    </g>
                </g>
            </g>
            <g transform="matrix(1.03158,0,0,1.03158,-226.695,-71.8953)">
                <path d="M5650.12,150.704L5638.24,150.629C5384.46,150.629 5154.55,253.641 4988.08,420.107C4821.61,586.573 4718.6,816.488 4718.6,1070.27C4718.6,1324.06 4821.61,1553.97 4988.08,1720.44C5154.55,1886.9 5384.46,1989.91 5638.24,1989.91C5892.03,1989.91 6121.94,1886.9 6288.41,1720.44C6454.88,1553.97 6557.89,1324.06 6557.89,1070.27L6557.81,1058.39C6554.66,809.33 6452.28,583.976 6288.41,420.107C6124.54,256.238 5899.19,153.858 5650.12,150.704ZM5627.58,244.764C5404,247.596 5201.7,339.517 5054.6,486.623C4905.16,636.06 4812.67,842.449 4812.67,1070.27C4812.67,1298.09 4905.16,1504.48 5054.6,1653.92C5204.03,1803.36 5410.42,1895.85 5638.24,1895.85C5866.07,1895.85 6072.46,1803.36 6221.89,1653.92C6371.33,1504.48 6463.82,1298.09 6463.82,1070.27L6463.75,1059.61C6460.92,836.024 6369,633.729 6221.89,486.623C6072.46,337.186 5866.07,244.697 5638.24,244.697L5627.58,244.764Z" style="fill:url(#_Linear1);"/>
            </g>
            <g transform="matrix(4.02894,0,0,4.02894,4613.88,4.65253)">
                <path d="M499.944,241.968L423.204,241.968C419.532,241.968 417.45,246.172 419.674,249.094L458.042,299.452C459.818,301.782 463.324,301.782 465.1,299.452L503.47,249.094C505.698,246.174 503.616,241.968 499.944,241.968Z" style="fill:rgb(35,87,137);fill-rule:nonzero;"/>
            </g>
        </g>
    </g>
    <defs>
        <linearGradient id="_Linear1" x1="0" y1="0" x2="1" y2="0" gradientUnits="userSpaceOnUse" gradientTransform="matrix(-719.17,1995.16,-1995.16,-719.17,6510.85,951.52)"><stop offset="0" style="stop-color:rgb(35,87,137);stop-opacity:1"/><stop offset="0.18" style="stop-color:rgb(107,165,170);stop-opacity:1"/><stop offset="1" style="stop-color:rgb(107,165,170);stop-opacity:1"/></linearGradient>
    </defs>
</svg>
