<svg width="8" height="6" viewBox="0 0 8 6" fill="none" xmlns="http://www.w3.org/2000/svg">
    <path
        d="M7.33322 1.11378C7.20831 0.989616 7.03934 0.919922 6.86322 0.919922C6.68709 0.919922 6.51813 0.989616 6.39322 1.11378L3.99988 3.47378L1.63988 1.11378C1.51498 0.989616 1.34601 0.919922 1.16988 0.919922C0.993761 0.919922 0.824793 0.989616 0.699884 1.11378C0.637399 1.17576 0.587802 1.24949 0.553957 1.33073C0.520111 1.41197 0.502686 1.49911 0.502686 1.58712C0.502686 1.67512 0.520111 1.76226 0.553957 1.8435C0.587802 1.92474 0.637399 1.99847 0.699884 2.06045L3.52655 4.88712C3.58853 4.9496 3.66226 4.9992 3.7435 5.03304C3.82474 5.06689 3.91188 5.08431 3.99988 5.08431C4.08789 5.08431 4.17503 5.06689 4.25627 5.03304C4.33751 4.9992 4.41124 4.9496 4.47322 4.88712L7.33322 2.06045C7.3957 1.99847 7.4453 1.92474 7.47915 1.8435C7.51299 1.76226 7.53042 1.67512 7.53042 1.58712C7.53042 1.49911 7.51299 1.41197 7.47915 1.33073C7.4453 1.24949 7.3957 1.17576 7.33322 1.11378Z"
        fill="#6A6A9F" />
</svg>
