<svg xmlns="http://www.w3.org/2000/svg" width="11.542" height="11.542" viewBox="0 0 11.542 11.542">
  <g transform="translate(-196.9 -303.23)">
    <path id="Path_688" data-name="Path 688" d="M2.128,5.618a.436.436,0,0,0,0,.617l3.49,3.49a.436.436,0,0,0,.617-.617L3.489,6.362H9.416a3.054,3.054,0,0,1,3.054,3.054v3.49a.436.436,0,0,0,.872,0V9.416A3.926,3.926,0,0,0,9.416,5.49H3.489L6.234,2.745a.436.436,0,1,0-.617-.617Z" transform="translate(195 301.33)" fill="#1e2022" fill-rule="evenodd"/>
    <path id="Path_688_-_Outline" data-name="Path 688 - Outline" d="M5.926,1.9a.536.536,0,0,1,.379.915L3.731,5.39H9.416a4.031,4.031,0,0,1,4.026,4.026v3.49a.536.536,0,0,1-1.072,0V9.416A2.957,2.957,0,0,0,9.416,6.462H3.731L6.305,9.037a.536.536,0,0,1-.758.758l-3.49-3.49a.537.537,0,0,1,0-.758l3.49-3.49A.533.533,0,0,1,5.926,1.9Zm6.98,11.342a.337.337,0,0,0,.336-.336V9.416A3.83,3.83,0,0,0,9.416,5.59H3.248L6.164,2.674A.336.336,0,0,0,5.688,2.2L2.2,5.688a.337.337,0,0,0,0,.475l3.49,3.49a.336.336,0,0,0,.476-.476L3.248,6.262H9.416a3.157,3.157,0,0,1,3.154,3.154v3.49A.337.337,0,0,0,12.906,13.242Z" transform="translate(195 301.33)" fill="#1e2022"/>
  </g>
</svg>
