<svg width="20" height="20" viewBox="0 0 20 20" fill="none" xmlns="http://www.w3.org/2000/svg">
    <path
        d="M10.1098 13.3898L6.22984 17.2698C6.00035 17.5002 5.72763 17.683 5.42732 17.8078C5.12701 17.9325 4.80502 17.9967 4.47984 17.9967C4.15465 17.9967 3.83266 17.9325 3.53236 17.8078C3.23205 17.683 2.95932 17.5002 2.72984 17.2698C2.49824 17.041 2.31436 16.7685 2.18886 16.4681C2.06336 16.1677 1.99874 15.8454 1.99874 15.5198C1.99874 15.1943 2.06336 14.872 2.18886 14.5715C2.31436 14.2711 2.49824 13.9986 2.72984 13.7698L6.60984 9.88984C6.79814 9.70153 6.90393 9.44614 6.90393 9.17984C6.90393 8.91354 6.79814 8.65814 6.60984 8.46984C6.42153 8.28153 6.16614 8.17575 5.89984 8.17575C5.63353 8.17575 5.37814 8.28153 5.18984 8.46984L1.30984 12.3598C0.528193 13.2106 0.105457 14.3305 0.129911 15.4856C0.154365 16.6407 0.624118 17.7417 1.44107 18.5586C2.25802 19.3756 3.359 19.8453 4.51408 19.8698C5.66917 19.8942 6.78904 19.4715 7.63984 18.6898L11.5298 14.8098C11.6231 14.7166 11.697 14.6059 11.7475 14.4841C11.798 14.3623 11.8239 14.2317 11.8239 14.0998C11.8239 13.968 11.798 13.8374 11.7475 13.7156C11.697 13.5938 11.6231 13.4831 11.5298 13.3898C11.4366 13.2966 11.3259 13.2226 11.2041 13.1722C11.0823 13.1217 10.9517 13.0957 10.8198 13.0957C10.688 13.0957 10.5574 13.1217 10.4356 13.1722C10.3138 13.2226 10.2031 13.2966 10.1098 13.3898ZM6.82984 13.1698C6.92328 13.2625 7.03409 13.3358 7.15593 13.3856C7.27777 13.4354 7.40823 13.4606 7.53984 13.4598C7.67144 13.4606 7.80191 13.4354 7.92374 13.3856C8.04558 13.3358 8.1564 13.2625 8.24984 13.1698L13.1698 8.24984C13.3581 8.06153 13.4639 7.80614 13.4639 7.53984C13.4639 7.27354 13.3581 7.01814 13.1698 6.82984C12.9815 6.64153 12.7261 6.53575 12.4598 6.53575C12.1935 6.53575 11.9381 6.64153 11.7498 6.82984L6.82984 11.7498C6.73611 11.8428 6.66171 11.9534 6.61095 12.0753C6.56018 12.1971 6.53404 12.3278 6.53404 12.4598C6.53404 12.5919 6.56018 12.7226 6.61095 12.8444C6.66171 12.9663 6.73611 13.0769 6.82984 13.1698ZM14.8098 11.5298L18.6898 7.63984C19.4715 6.78904 19.8942 5.66917 19.8698 4.51408C19.8453 3.359 19.3756 2.25802 18.5586 1.44107C17.7417 0.624118 16.6407 0.154365 15.4856 0.129911C14.3305 0.105457 13.2106 0.528193 12.3598 1.30984L8.46984 5.18984C8.3766 5.28308 8.30264 5.39377 8.25218 5.51559C8.20172 5.63741 8.17575 5.76798 8.17575 5.89984C8.17575 6.0317 8.20172 6.16226 8.25218 6.28409C8.30264 6.40591 8.3766 6.5166 8.46984 6.60984C8.56308 6.70308 8.67377 6.77704 8.79559 6.8275C8.91741 6.87796 9.04798 6.90393 9.17984 6.90393C9.3117 6.90393 9.44226 6.87796 9.56409 6.8275C9.68591 6.77704 9.7966 6.70308 9.88984 6.60984L13.7698 2.72984C13.9993 2.49944 14.272 2.31663 14.5724 2.19189C14.8727 2.06715 15.1947 2.00294 15.5198 2.00294C15.845 2.00294 16.167 2.06715 16.4673 2.19189C16.7676 2.31663 17.0403 2.49944 17.2698 2.72984C17.5014 2.95864 17.6853 3.23115 17.8108 3.53155C17.9363 3.83195 18.0009 4.15427 18.0009 4.47984C18.0009 4.8054 17.9363 5.12772 17.8108 5.42813C17.6853 5.72853 17.5014 6.00103 17.2698 6.22984L13.3898 10.1098C13.2961 10.2028 13.2217 10.3134 13.1709 10.4353C13.1202 10.5571 13.094 10.6878 13.094 10.8198C13.094 10.9518 13.1202 11.0826 13.1709 11.2044C13.2217 11.3263 13.2961 11.4369 13.3898 11.5298C13.4828 11.6236 13.5934 11.698 13.7153 11.7487C13.8371 11.7995 13.9678 11.8256 14.0998 11.8256C14.2318 11.8256 14.3626 11.7995 14.4844 11.7487C14.6063 11.698 14.7169 11.6236 14.8098 11.5298Z"
        fill="white" />
</svg>
