<svg xmlns="http://www.w3.org/2000/svg" width="17.418" height="17.418" viewBox="0 0 17.418 17.418">
  <g id="Group_785" data-name="Group 785" transform="translate(-0.25 -0.25)">
    <path id="Path_8009" data-name="Path 8009" d="M8.959.25A20.717,20.717,0,0,1,13.338.6,5.179,5.179,0,0,1,16,1.918,5.179,5.179,0,0,1,17.316,4.58a20.72,20.72,0,0,1,.352,4.379,20.721,20.721,0,0,1-.352,4.379A5.179,5.179,0,0,1,16,16a5.179,5.179,0,0,1-2.662,1.316,20.72,20.72,0,0,1-4.379.352,20.721,20.721,0,0,1-4.379-.352A5.179,5.179,0,0,1,1.918,16,5.179,5.179,0,0,1,.6,13.338,20.717,20.717,0,0,1,.25,8.959,20.717,20.717,0,0,1,.6,4.58,5.179,5.179,0,0,1,1.918,1.918,5.179,5.179,0,0,1,4.58.6,20.717,20.717,0,0,1,8.959.25Zm0,15.918a19.363,19.363,0,0,0,4.053-.316,3.778,3.778,0,0,0,1.927-.912,3.778,3.778,0,0,0,.912-1.927,19.364,19.364,0,0,0,.316-4.053,19.363,19.363,0,0,0-.316-4.053,3.779,3.779,0,0,0-.912-1.927,3.778,3.778,0,0,0-1.927-.912A19.36,19.36,0,0,0,8.959,1.75a19.36,19.36,0,0,0-4.053.316,3.779,3.779,0,0,0-1.927.912,3.779,3.779,0,0,0-.912,1.927A19.36,19.36,0,0,0,1.75,8.959a19.36,19.36,0,0,0,.316,4.053,3.778,3.778,0,0,0,.912,1.927,3.779,3.779,0,0,0,1.927.912A19.364,19.364,0,0,0,8.959,16.168Z" fill="#e41616"/>
    <path id="Path_8010" data-name="Path 8010" d="M10.618,14.985a4.341,4.341,0,0,1-3.075-1.266l0,0A4.368,4.368,0,0,1,10.618,6.25a1.5,1.5,0,0,1,1.44.718,1.557,1.557,0,0,1,.072,1.1l.525-.525A.75.75,0,1,1,13.716,8.6l-.513.513a1.531,1.531,0,0,1,1.069.074,1.488,1.488,0,0,1,.714,1.43A4.373,4.373,0,0,1,10.618,14.985Zm-1.3-1.81a2.87,2.87,0,0,0,4.167-2.558q0-.017,0-.032a5.128,5.128,0,0,0-1.143.525A30.888,30.888,0,0,0,9.319,13.176Zm1.3-5.426a2.87,2.87,0,0,0-2.545,4.193A30.621,30.621,0,0,0,10.141,8.9a5.011,5.011,0,0,0,.523-1.153Z" transform="translate(-1.659 -1.659)" fill="#e41616"/>
  </g>
</svg>
