<svg width="21" height="21" viewBox="0 0 21 21" fill="none" xmlns="http://www.w3.org/2000/svg">
    <path
        d="M10.041 0.919922C8.06321 0.919922 6.12981 1.48295 4.48532 2.53781C2.84083 3.59268 1.5591 5.09199 0.802225 6.84616C0.0453485 8.60033 -0.152685 10.5306 0.233167 12.3928C0.61902 14.255 1.57143 15.9656 2.96995 17.3081C4.36848 18.6507 6.15031 19.565 8.09012 19.9355C10.0299 20.3059 12.0406 20.1158 13.8679 19.3892C15.6951 18.6626 17.2569 17.4321 18.3557 15.8534C19.4545 14.2747 20.041 12.4186 20.041 10.5199C20.041 9.25923 19.7824 8.01089 19.2798 6.84616C18.7773 5.68144 18.0407 4.62314 17.1121 3.7317C16.1835 2.84025 15.0811 2.13312 13.8679 1.65068C12.6546 1.16823 11.3542 0.919922 10.041 0.919922ZM10.041 18.1999C7.91929 18.1999 5.88446 17.3908 4.38417 15.9505C2.88387 14.5102 2.04102 12.5568 2.04102 10.5199C2.03881 8.81433 2.63404 7.15757 3.73102 5.81592L14.941 16.5775C13.5435 17.6306 11.8177 18.202 10.041 18.1999ZM16.351 15.2239L5.14102 4.46232C6.53857 3.40922 8.26437 2.8378 10.041 2.83992C12.1628 2.83992 14.1976 3.64906 15.6979 5.08934C17.1982 6.52962 18.041 8.48306 18.041 10.5199C18.0432 12.2255 17.448 13.8823 16.351 15.2239Z"
        fill="#6A6A9F" />
</svg>
