<svg width="13" height="18" viewBox="0 0 13 18" fill="none" xmlns="http://www.w3.org/2000/svg">
    <path
        d="M9.89804 0H2.69947C1.98353 0 1.29691 0.284407 0.790662 0.790655C0.284414 1.2969 7.09322e-06 1.98352 7.09322e-06 2.69946V17.0966C-0.000622392 17.2552 0.0406562 17.4111 0.119663 17.5485C0.198671 17.686 0.312601 17.8002 0.449918 17.8794C0.586708 17.9584 0.741877 18 0.899828 18C1.05778 18 1.21295 17.9584 1.34974 17.8794L6.29876 15.018L11.2478 17.8794C11.3849 17.9572 11.5401 17.9975 11.6977 17.9964C11.8553 17.9975 12.0105 17.9572 12.1476 17.8794C12.2849 17.8002 12.3988 17.686 12.4778 17.5485C12.5569 17.4111 12.5981 17.2552 12.5975 17.0966V2.69946C12.5975 1.98352 12.3131 1.2969 11.8068 0.790655C11.3006 0.284407 10.614 0 9.89804 0ZM10.7979 15.5399L6.74867 13.2004C6.61188 13.1214 6.45671 13.0798 6.29876 13.0798C6.1408 13.0798 5.98564 13.1214 5.84885 13.2004L1.79965 15.5399V2.69946C1.79965 2.46082 1.89445 2.23194 2.0632 2.06319C2.23195 1.89444 2.46082 1.79964 2.69947 1.79964H9.89804C10.1367 1.79964 10.3656 1.89444 10.5343 2.06319C10.7031 2.23194 10.7979 2.46082 10.7979 2.69946V15.5399Z"
        fill="#6A6A9F" />
</svg>
