<svg xmlns="http://www.w3.org/2000/svg" width="17.48" height="23.038" viewBox="0 0 17.48 23.038">
  <g id="Path" transform="translate(0.5 0.5)" fill="#f63e02" stroke-miterlimit="10">
    <path d="M 14.57877063751221 22.28789901733398 C 14.07655048370361 22.28789901733398 13.58768081665039 22.11400985717773 13.20219039916992 21.79825019836426 L 8.487860679626465 17.94756889343262 C 8.418610572814941 17.89102935791016 8.330630302429199 17.8598804473877 8.240150451660156 17.8598804473877 C 8.149670600891113 17.8598804473877 8.061690330505371 17.89102935791016 7.992400646209717 17.94760894775391 L 3.277840375900269 21.79846954345703 C 2.892170429229736 22.11394882202148 2.403560400009155 22.28776931762695 1.902170419692993 22.28779983520508 C 1.262690424919128 22.28784942626953 0.6607304811477661 22.01189041137695 0.2506404519081116 21.53068923950195 C -0.07224954664707184 21.15115928649902 -0.2499995529651642 20.66987037658691 -0.2499995529651642 20.1753101348877 L -0.2499995529651642 4.345649719238281 C -0.2499995529651642 1.811599493026733 1.852360486984253 -0.2500004768371582 4.436500549316406 -0.2500004768371582 L 12.04261016845703 -0.2500004768371582 C 14.62741088867188 -0.2500004768371582 16.73030090332031 1.811599493026733 16.73030090332031 4.345649719238281 L 16.73030090332031 20.1753101348877 C 16.73030090332031 21.34020042419434 15.76513004302979 22.28789901733398 14.57877063751221 22.28789901733398 Z M 8.239700317382812 15.49700927734375 C 8.889460563659668 15.49700927734375 9.522520065307617 15.72165966033936 10.02226066589355 16.12957954406738 L 14.32877063751221 19.64820671081543 L 14.32877063751221 4.345649719238281 C 14.32877063751221 3.114339590072632 13.30320072174072 2.112589597702026 12.04261016845703 2.112589597702026 L 4.436500549316406 2.112589597702026 C 3.176560401916504 2.112589597702026 2.151530504226685 3.114339590072632 2.151530504226685 4.345649719238281 L 2.151530504226685 19.64820671081543 L 6.457950592041016 16.1296501159668 C 6.957100391387939 15.72169971466064 7.589880466461182 15.49700927734375 8.239700317382812 15.49700927734375 Z" stroke="none"/>
    <path d="M 14.57877063751221 22.03789901733398 C 15.62728023529053 22.03789901733398 16.48030090332031 21.20234870910645 16.48030090332031 20.1753101348877 L 16.48030090332031 4.345649719238281 C 16.48030090332031 1.949459552764893 14.4895601272583 -4.913330258204951e-07 12.04261016845703 -4.913330258204951e-07 L 4.436500549316406 -4.913330258204951e-07 C 1.9902104139328 -4.913330258204951e-07 4.516601563864242e-07 1.949459552764893 4.516601563864242e-07 4.345649719238281 L 4.516601563864242e-07 20.1753101348877 C 4.516601563864242e-07 20.61055946350098 0.1565904468297958 21.03433036804199 0.4409204423427582 21.3685302734375 C 0.803430438041687 21.79389953613281 1.33603048324585 22.03783988952637 1.902150392532349 22.03779983520508 C 2.34600043296814 22.03776931762695 2.778400421142578 21.88401985168457 3.119690418243408 21.60484886169434 L 7.834290504455566 17.75395011901855 C 7.948090553283691 17.66103935241699 8.092240333557129 17.6098804473877 8.240150451660156 17.6098804473877 C 8.388060569763184 17.6098804473877 8.532210350036621 17.66103935241699 8.646010398864746 17.75395011901855 L 13.36061000823975 21.60484886169434 C 13.70153999328613 21.88410949707031 14.13416004180908 22.03789901733398 14.57877063751221 22.03789901733398 M 8.239700317382812 15.74700927734375 C 7.647370338439941 15.74700927734375 7.070780277252197 15.95165920257568 6.616130352020264 16.32324981689453 L 1.901530504226685 20.1753101348877 L 1.901530504226685 4.345649719238281 C 1.901530504226685 2.976479530334473 3.038710355758667 1.862589478492737 4.436500549316406 1.862589478492737 L 12.04261016845703 1.862589478492737 C 13.44105052947998 1.862589478492737 14.57877063751221 2.976479530334473 14.57877063751221 4.345649719238281 L 14.57877063751221 20.1753101348877 L 9.864170074462891 16.32324981689453 C 9.408940315246582 15.95165920257568 8.832030296325684 15.74700927734375 8.239700317382812 15.74700927734375 M 14.57877063751221 22.53789901733398 C 14.01895999908447 22.53789901733398 13.47382068634033 22.34391021728516 13.04378032684326 21.99164962768555 L 8.329710006713867 18.14118957519531 C 8.281030654907227 18.10144805908203 8.199360847473145 18.10137748718262 8.150500297546387 18.14126014709473 L 3.435990333557129 21.99209022521973 C 3.00592041015625 22.34387969970703 2.461110353469849 22.53775978088379 1.902180433273315 22.53779983520508 C 1.189350485801697 22.53784942626953 0.5180404782295227 22.22987937927246 0.06037045270204544 21.69285011291504 C -0.3010895550251007 21.26799011230469 -0.4999995529651642 20.72916984558105 -0.4999995529651642 20.1753101348877 L -0.4999995529651642 4.345649719238281 C -0.4999995529651642 1.673749566078186 1.714500427246094 -0.5000004768371582 4.436500549316406 -0.5000004768371582 L 12.04261016845703 -0.5000004768371582 C 14.76526069641113 -0.5000004768371582 16.98030090332031 1.673749566078186 16.98030090332031 4.345649719238281 L 16.98030090332031 20.1753101348877 C 16.98030090332031 21.47805023193359 15.90298080444336 22.53789901733398 14.57877063751221 22.53789901733398 Z M 8.239700317382812 15.24700927734375 C 8.946910858154297 15.24700927734375 9.636110305786133 15.49166965484619 10.18034076690674 15.93590927124023 L 14.07877063751221 19.12111473083496 L 14.07877063751221 4.345649719238281 C 14.07877063751221 3.25218939781189 13.16535091400146 2.362589597702026 12.04261016845703 2.362589597702026 L 4.436500549316406 2.362589597702026 C 3.314410448074341 2.362589597702026 2.401530504226685 3.25218939781189 2.401530504226685 4.345649719238281 L 2.401530504226685 19.12111282348633 L 6.299770355224609 15.93605995178223 C 6.843410491943359 15.49173927307129 7.5323805809021 15.24700927734375 8.239700317382812 15.24700927734375 Z" stroke="none" fill="#f63e02"/>
  </g>
</svg>
