<svg xmlns="http://www.w3.org/2000/svg" width="19.5" height="21.5" viewBox="0 0 19.5 21.5">
  <g id="Group_540" data-name="Group 540" transform="translate(-2 -1)">
    <path id="Path_899" data-name="Path 899" d="M20.667,9.9H2.843a.75.75,0,0,1,0-1.5H20.667a.75.75,0,0,1,0,1.5Z" fill="#858585" fill-rule="evenodd"/>
    <path id="Path_900" data-name="Path 900" d="M16.2,13.81a.754.754,0,0,1-.754-.75.746.746,0,0,1,.745-.75H16.2a.75.75,0,0,1,0,1.5Z" fill="#858585" fill-rule="evenodd"/>
    <path id="Path_901" data-name="Path 901" d="M11.764,13.81a.754.754,0,0,1-.754-.75.746.746,0,0,1,.745-.75h.009a.75.75,0,0,1,0,1.5Z" fill="#858585" fill-rule="evenodd"/>
    <path id="Path_902" data-name="Path 902" d="M7.317,13.81a.755.755,0,0,1-.755-.75.747.747,0,0,1,.746-.75h.009a.75.75,0,0,1,0,1.5Z" fill="#858585" fill-rule="evenodd"/>
    <path id="Path_903" data-name="Path 903" d="M16.2,17.7a.754.754,0,0,1-.754-.75.746.746,0,0,1,.745-.75H16.2a.75.75,0,0,1,0,1.5Z" fill="#858585" fill-rule="evenodd"/>
    <path id="Path_904" data-name="Path 904" d="M11.764,17.7a.754.754,0,0,1-.754-.75.746.746,0,0,1,.745-.75h.009a.75.75,0,1,1,0,1.5Z" fill="#858585" fill-rule="evenodd"/>
    <path id="Path_905" data-name="Path 905" d="M7.317,17.7a.755.755,0,0,1-.755-.75.747.747,0,0,1,.746-.75h.009a.75.75,0,0,1,0,1.5Z" fill="#858585" fill-rule="evenodd"/>
    <path id="Path_906" data-name="Path 906" d="M15.793,5.791a.75.75,0,0,1-.75-.75V1.75a.75.75,0,0,1,1.5,0V5.041A.75.75,0,0,1,15.793,5.791Z" fill="#858585" fill-rule="evenodd"/>
    <path id="Path_907" data-name="Path 907" d="M7.715,5.791a.75.75,0,0,1-.75-.75V1.75a.75.75,0,0,1,1.5,0V5.041A.75.75,0,0,1,7.715,5.791Z" fill="#858585" fill-rule="evenodd"/>
    <g id="Group_539" data-name="Group 539">
      <path id="Path_908" data-name="Path 908" d="M7.521,4.079C4.928,4.079,3.5,5.462,3.5,7.973v9.049C3.5,19.588,4.928,21,7.521,21h8.458C18.572,21,20,19.614,20,17.1V7.973a3.865,3.865,0,0,0-.987-2.855,4.162,4.162,0,0,0-3.025-1.039ZM15.979,22.5H7.521C4.116,22.5,2,20.4,2,17.022V7.973C2,4.645,4.116,2.579,7.521,2.579h8.467a5.614,5.614,0,0,1,4.087,1.479A5.372,5.372,0,0,1,21.5,7.975V17.1C21.5,20.43,19.384,22.5,15.979,22.5Z" fill="#858585" fill-rule="evenodd"/>
    </g>
  </g>
</svg>
