<svg xmlns="http://www.w3.org/2000/svg" width="39.091" height="34.833" viewBox="0 0 39.091 34.833">
  <g id="Group_840" data-name="Group 840" transform="translate(-1.25 -2.25)">
    <path id="Path_848" data-name="Path 848" d="M20.8,2.25c1.425,0,4.911.068,6.485.695,1.861.741,2.745,2.51,3.39,3.8a6.859,6.859,0,0,0,.539.971,2.311,2.311,0,0,0,1.491.691,7.647,7.647,0,0,1,7.639,7.637V27.35a9.744,9.744,0,0,1-9.733,9.733H10.983A9.744,9.744,0,0,1,1.25,27.35V16.045A7.647,7.647,0,0,1,8.89,8.408a2.316,2.316,0,0,0,1.493-.692,6.885,6.885,0,0,0,.538-.969c.645-1.292,1.528-3.061,3.389-3.8C15.885,2.317,19.37,2.25,20.8,2.25Zm9.813,31.833a6.74,6.74,0,0,0,6.733-6.733V16.045A4.644,4.644,0,0,0,32.7,11.408,5.273,5.273,0,0,1,29,9.746a7.214,7.214,0,0,1-1.013-1.659c-.477-.955-1.018-2.038-1.816-2.355A20.8,20.8,0,0,0,20.8,5.25a20.82,20.82,0,0,0-5.378.482c-.8.317-1.337,1.4-1.813,2.354a7.206,7.206,0,0,1-1.013,1.66,5.279,5.279,0,0,1-3.7,1.662A4.644,4.644,0,0,0,4.25,16.045V27.35a6.74,6.74,0,0,0,6.733,6.733Z" transform="translate(0 0)"/>
    <path id="Path_849" data-name="Path 849" d="M17.513,11H17.5a1.5,1.5,0,1,1,0-3h.018a1.5,1.5,0,0,1,0,3Z" transform="translate(14.02 5.468)"/>
    <path id="Path_850" data-name="Path 850" d="M15.023,8.449a7.7,7.7,0,1,1-7.7,7.7A7.71,7.71,0,0,1,15.023,8.449Zm0,12.4a4.7,4.7,0,1,0-4.7-4.7A4.707,4.707,0,0,0,15.023,20.852Z" transform="translate(5.772 5.895)"/>
  </g>
</svg>
