<svg xmlns="http://www.w3.org/2000/svg" width="20.5" height="18.317" viewBox="0 0 20.5 18.317">
  <g id="Group_610" data-name="Group 610" transform="translate(-1.75 -2.75)">
    <path id="Path_955" data-name="Path 955" d="M15.04,4.051c1.01.4,1.319,1.8,1.732,2.252a1.939,1.939,0,0,0,1.331.6,3.147,3.147,0,0,1,3.147,3.146v5.795a4.221,4.221,0,0,1-4.22,4.22H6.97a4.22,4.22,0,0,1-4.22-4.22V10.052A3.147,3.147,0,0,1,5.9,6.906a1.942,1.942,0,0,0,1.331-.6c.413-.45.721-1.85,1.731-2.252A15.482,15.482,0,0,1,15.04,4.051Z" fill="none" stroke="#fff" stroke-linecap="round" stroke-linejoin="round" stroke-width="2" fill-rule="evenodd"/>
    <path id="Path_956" data-name="Path 956" d="M17.5,9.5H17.5" fill="none" stroke="#fff" stroke-linecap="round" stroke-linejoin="round" stroke-width="2"/>
    <path id="Path_957" data-name="Path 957" d="M15.179,13.128A3.179,3.179,0,1,0,12,16.307,3.179,3.179,0,0,0,15.179,13.128Z" fill="none" stroke="#fff" stroke-linecap="round" stroke-linejoin="round" stroke-width="2" fill-rule="evenodd"/>
  </g>
</svg>
