<svg width="14" height="14" viewBox="0 0 14 14" fill="none" xmlns="http://www.w3.org/2000/svg">
    <path
        d="M9.47338 4.52525C9.41141 4.46277 9.33768 4.41317 9.25644 4.37933C9.1752 4.34548 9.08806 4.32806 9.00005 4.32806C8.91204 4.32806 8.82491 4.34548 8.74367 4.37933C8.66243 4.41317 8.58869 4.46277 8.52672 4.52525L7.00005 6.05859L5.47339 4.52525C5.34785 4.39972 5.17759 4.32919 5.00005 4.32919C4.82252 4.32919 4.65225 4.39972 4.52672 4.52525C4.40118 4.65079 4.33066 4.82105 4.33066 4.99859C4.33066 5.17612 4.40118 5.34639 4.52672 5.47192L6.06005 6.99859L4.52672 8.52526C4.46423 8.58723 4.41464 8.66096 4.38079 8.7422C4.34695 8.82344 4.32952 8.91058 4.32952 8.99859C4.32952 9.0866 4.34695 9.17373 4.38079 9.25497C4.41464 9.33621 4.46423 9.40995 4.52672 9.47192C4.58869 9.53441 4.66243 9.584 4.74367 9.61785C4.82491 9.6517 4.91204 9.66912 5.00005 9.66912C5.08806 9.66912 5.1752 9.6517 5.25644 9.61785C5.33768 9.584 5.41141 9.53441 5.47339 9.47192L7.00005 7.93859L8.52672 9.47192C8.58869 9.53441 8.66243 9.584 8.74367 9.61785C8.82491 9.6517 8.91204 9.66912 9.00005 9.66912C9.08806 9.66912 9.1752 9.6517 9.25644 9.61785C9.33768 9.584 9.41141 9.53441 9.47338 9.47192C9.53587 9.40995 9.58547 9.33621 9.61931 9.25497C9.65316 9.17373 9.67058 9.0866 9.67058 8.99859C9.67058 8.91058 9.65316 8.82344 9.61931 8.7422C9.58547 8.66096 9.53587 8.58723 9.47338 8.52526L7.94005 6.99859L9.47338 5.47192C9.53587 5.40995 9.58547 5.33621 9.61931 5.25497C9.65316 5.17373 9.67058 5.0866 9.67058 4.99859C9.67058 4.91058 9.65316 4.82344 9.61931 4.7422C9.58547 4.66096 9.53587 4.58723 9.47338 4.52525ZM11.7134 2.28525C11.0984 1.64852 10.3628 1.14064 9.54941 0.791245C8.73606 0.441852 7.86126 0.257944 6.97606 0.250252C6.09086 0.24256 5.213 0.411238 4.39369 0.746444C3.57438 1.08165 2.83004 1.57667 2.20409 2.20262C1.57813 2.82857 1.08311 3.57292 0.747908 4.39223C0.412702 5.21154 0.244024 6.0894 0.251717 6.9746C0.259409 7.85979 0.443317 8.73459 0.79271 9.54795C1.1421 10.3613 1.64998 11.0969 2.28672 11.7119C2.9017 12.3487 3.63733 12.8565 4.45069 13.2059C5.26405 13.5553 6.13885 13.7392 7.02404 13.7469C7.90924 13.7546 8.7871 13.5859 9.60641 13.2507C10.4257 12.9155 11.1701 12.4205 11.796 11.7946C12.422 11.1686 12.917 10.4243 13.2522 9.60495C13.5874 8.78564 13.7561 7.90778 13.7484 7.02258C13.7407 6.13738 13.5568 5.26258 13.2074 4.44922C12.858 3.63586 12.3501 2.90023 11.7134 2.28525ZM10.7734 10.7719C9.90141 11.6449 8.75374 12.1885 7.52591 12.3101C6.29808 12.4318 5.06606 12.124 4.03973 11.4391C3.01341 10.7542 2.25629 9.73473 1.89737 8.55424C1.53844 7.37376 1.59992 6.10535 2.07133 4.96511C2.54273 3.82487 3.3949 2.88335 4.48265 2.30096C5.57039 1.71857 6.82641 1.53134 8.03672 1.77117C9.24703 2.011 10.3367 2.66305 11.1202 3.61623C11.9037 4.56941 12.3324 5.76475 12.3334 6.99859C12.3358 7.69945 12.1991 8.39382 11.9313 9.04151C11.6636 9.6892 11.27 10.2774 10.7734 10.7719Z"
        fill="#6A6A9F" />
</svg>
