<svg xmlns="http://www.w3.org/2000/svg" width="18.869" height="18.493" viewBox="0 0 18.869 18.493">
  <g id="Group_848" data-name="Group 848" transform="translate(-3.014 -3.302)">
    <path id="Path_8052" data-name="Path 8052" d="M9.369,14.456a15.729,15.729,0,0,1,4.9.59c2.043.695,2.472,1.95,2.472,2.881s-.431,2.185-2.482,2.873a15.915,15.915,0,0,1-4.888.579,15.734,15.734,0,0,1-4.9-.59C2.429,20.1,2,18.839,2,17.908s.431-2.185,2.483-2.873A15.92,15.92,0,0,1,9.369,14.456Zm0,5.423a14.554,14.554,0,0,0,4.411-.5c1.459-.489,1.459-1.188,1.459-1.45,0-1.629-3.192-1.971-5.87-1.971a14.559,14.559,0,0,0-4.41.5C3.5,16.947,3.5,17.645,3.5,17.908s0,.967,1.455,1.461A14.58,14.58,0,0,0,9.369,19.88Z" transform="translate(1.015 0.416)" fill="#130f26"/>
    <path id="Path_8053" data-name="Path 8053" d="M9.551,11.986H9.523a4.977,4.977,0,0,1-4.963-5,4.992,4.992,0,1,1,4.992,5Zm0-8.486A3.5,3.5,0,0,0,6.06,6.993a3.477,3.477,0,0,0,3.466,3.493h.026a3.493,3.493,0,0,0,0-6.986Z" transform="translate(0.832 1.302)" fill="#130f26"/>
    <g id="Group_849" data-name="Group 849" transform="translate(7.898 0.132)">
      <path id="Path_8057" data-name="Path 8057" d="M13.235,13.946a.748.748,0,0,1-.53-.22L9.575,10.6a.75.75,0,0,1,1.061-1.061l3.129,3.129a.75.75,0,0,1-.53,1.28Z" fill="#130f26"/>
      <path id="Path_8058" data-name="Path 8058" d="M10.106,13.946a.75.75,0,0,1-.53-1.28L12.7,9.536A.75.75,0,0,1,13.766,10.6l-3.129,3.129A.748.748,0,0,1,10.106,13.946Z" transform="translate(0)" fill="#130f26"/>
    </g>
  </g>
</svg>
