<svg width="16" height="16" viewBox="0 0 16 16" fill="none" xmlns="http://www.w3.org/2000/svg">
    <path
        d="M14.2502 1.74936C13.45 0.949397 12.3649 0.5 11.2335 0.5C10.1021 0.5 9.01695 0.949397 8.21682 1.74936L1.75015 8.21602C1.34444 8.61004 1.02111 9.08079 0.798971 9.60089C0.576828 10.121 0.460302 10.6801 0.456169 11.2456C0.452035 11.8111 0.560378 12.3719 0.774895 12.8952C0.989413 13.4184 1.30582 13.8939 1.70573 14.2938C2.10564 14.6937 2.58106 15.0101 3.10435 15.2246C3.62765 15.4391 4.18836 15.5475 4.7539 15.5433C5.31944 15.5392 5.87852 15.4227 6.39862 15.2005C6.91872 14.9784 7.38946 14.6551 7.78348 14.2494L14.2502 7.78269C15.0501 6.98256 15.4995 5.89745 15.4995 4.76602C15.4995 3.63459 15.0501 2.54948 14.2502 1.74936ZM6.60015 13.0744C6.10351 13.5438 5.44604 13.8053 4.76265 13.8053C4.07926 13.8053 3.42179 13.5438 2.92515 13.0744C2.44018 12.5858 2.16803 11.9253 2.16803 11.2369C2.16803 10.5484 2.44018 9.88794 2.92515 9.39935L5.57515 6.74935L9.25015 10.4244L6.60015 13.0744ZM13.0752 6.59935L10.4252 9.24935L6.75015 5.57435L9.40015 2.92436C9.89267 2.46295 10.5453 2.21114 11.2201 2.22215C11.8949 2.23315 12.539 2.50611 13.0162 2.98333C13.4934 3.46054 13.7664 4.10461 13.7774 4.77941C13.7884 5.4542 13.5366 6.10683 13.0752 6.59935Z"
        fill="#E56B6E" />
</svg>
