<svg xmlns="http://www.w3.org/2000/svg" width="25.483" height="25.483" viewBox="0 0 25.483 25.483">
  <g id="Iconly_Light_Chat" data-name="Iconly/Light/Chat" transform="translate(6.259 -8.75)">
    <g id="Chat" transform="translate(-5 10)">
      <path id="Stroke_4" data-name="Stroke 4" d="M19.61,19.608a11.494,11.494,0,0,1-12.963,2.3,4.65,4.65,0,0,0-1.632-.457c-1.363.008-3.06,1.33-3.942.449s.441-2.58.441-3.952a4.588,4.588,0,0,0-.449-1.624A11.49,11.49,0,1,1,19.61,19.608Z" transform="translate(0 0)" fill="none" stroke="#000" stroke-linecap="round" stroke-linejoin="round" stroke-miterlimit="10" stroke-width="2.5"/>
      <path id="Stroke_11" data-name="Stroke 11" d="M.5.5h.01" transform="translate(15.517 11.461)" fill="none" stroke="#000" stroke-linecap="round" stroke-linejoin="round" stroke-miterlimit="10" stroke-width="2.5"/>
      <path id="Stroke_13" data-name="Stroke 13" d="M.5.5h.01" transform="translate(10.912 11.461)" fill="none" stroke="#000" stroke-linecap="round" stroke-linejoin="round" stroke-miterlimit="10" stroke-width="2.5"/>
      <path id="Stroke_15" data-name="Stroke 15" d="M.5.5h.01" transform="translate(6.306 11.461)" fill="none" stroke="#000" stroke-linecap="round" stroke-linejoin="round" stroke-miterlimit="10" stroke-width="2.5"/>
    </g>
  </g>
</svg>
