<svg width="12" height="9" viewBox="0 0 12 9" fill="none" xmlns="http://www.w3.org/2000/svg">
    <path
        d="M10.7989 0.721849C10.7292 0.651552 10.6463 0.595757 10.5549 0.55768C10.4635 0.519604 10.3654 0.5 10.2664 0.5C10.1674 0.5 10.0694 0.519604 9.97801 0.55768C9.88661 0.595757 9.80366 0.651552 9.73394 0.721849L4.14644 6.31685L1.79894 3.96185C1.72655 3.89192 1.64109 3.83693 1.54745 3.80003C1.45381 3.76313 1.35382 3.74503 1.25318 3.74677C1.15255 3.74851 1.05324 3.77006 0.960932 3.81018C0.868623 3.8503 0.785121 3.90821 0.715192 3.9806C0.645263 4.05299 0.590277 4.13845 0.553374 4.23209C0.516471 4.32573 0.498374 4.42572 0.500115 4.52636C0.501856 4.62699 0.523402 4.7263 0.563522 4.81861C0.603642 4.91092 0.661551 4.99442 0.733942 5.06435L3.61394 7.94435C3.68366 8.01465 3.76661 8.07044 3.85801 8.10852C3.9494 8.14659 4.04743 8.1662 4.14644 8.1662C4.24545 8.1662 4.34348 8.14659 4.43487 8.10852C4.52627 8.07044 4.60922 8.01465 4.67894 7.94435L10.7989 1.82435C10.8751 1.75412 10.9358 1.66888 10.9774 1.574C11.0189 1.47913 11.0404 1.37668 11.0404 1.2731C11.0404 1.16952 11.0189 1.06707 10.9774 0.972194C10.9358 0.877319 10.8751 0.79208 10.7989 0.721849Z"
        fill="#023AFF" />
</svg>
