<?xml version="1.0" encoding="UTF-8" standalone="no"?>
<!DOCTYPE svg PUBLIC "-//W3C//DTD SVG 1.1//EN" "http://www.w3.org/Graphics/SVG/1.1/DTD/svg11.dtd">
<svg width="100%" height="100%" viewBox="0 0 2084 2084" version="1.1" xmlns="http://www.w3.org/2000/svg" xmlns:xlink="http://www.w3.org/1999/xlink" xml:space="preserve" xmlns:serif="http://www.serif.com/" style="fill-rule:evenodd;clip-rule:evenodd;stroke-linejoin:round;stroke-miterlimit:2;">
    <g transform="matrix(1,0,0,1,-6873,0)">
        <g id="Artboard4" transform="matrix(1,0,0,1,-0.666667,0)">
            <rect x="6873.67" y="0" width="2083.33" height="2083.33" style="fill:none;"/>
            <g transform="matrix(3.56081,0,0,3.56081,6995.43,149.095)">
                <g transform="matrix(1,0,0,1,2.34029,-5.33441)">
                    <path d="M496,80L496,96L400,96L400,80C400,53.52 421.52,32 448,32C474.48,32 496,53.52 496,80Z" style="fill:rgb(250,135,67);fill-rule:nonzero;"/>
                </g>
                <g transform="matrix(1,0,0,1,2.34029,-5.33441)">
                    <rect x="416" y="96" width="64" height="48" style="fill:rgb(204,209,217);fill-rule:nonzero;"/>
                </g>
                <g transform="matrix(1,0,0,1,2.34029,-5.33441)">
                    <path d="M448,304C428.32,304 411.44,319.84 403.92,342.48L400,335.36L400,144L496,144L496,368C496,332.64 474.48,304 448,304Z" style="fill:rgb(178,178,199);fill-rule:nonzero;"/>
                </g>
                <g transform="matrix(1,0,0,1,2.34029,-5.33441)">
                    <rect x="216" y="16" width="112" height="32" style="fill:rgb(250,135,67);fill-rule:nonzero;"/>
                </g>
                <g transform="matrix(1,0,0,1,2.34029,-5.33441)">
                    <path d="M352,112L192,112L192,48L352,48L352,112Z" style="fill:rgb(204,209,217);fill-rule:nonzero;"/>
                </g>
                <g transform="matrix(1,0,0,1,2.34029,-5.33441)">
                    <path d="M344,248C328,290.56 307.84,331.44 283.76,370L280,376L352,376L352,480C352,453.52 330.48,432 304,432C301.04,432 298.16,432.32 295.44,432.8C291.92,409.76 272.08,392 248,392C245.28,392 242.56,392.24 240,392.72L240,272L176,272L176,112L368,112L368,268.24C365.2,261.52 362.56,254.8 360,248L344,248Z" style="fill:rgb(230,233,237);fill-rule:nonzero;"/>
                </g>
                <g transform="matrix(1,0,0,1,2.34029,-5.33441)">
                    <rect x="208" y="144" width="128" height="32" style="fill:rgb(178,178,199);fill-rule:nonzero;"/>
                </g>
                <g transform="matrix(1,0,0,1,2.34029,-5.33441)">
                    <rect x="208" y="208" width="128" height="32" style="fill:rgb(178,178,199);fill-rule:nonzero;"/>
                </g>
                <g transform="matrix(1,0,0,1,2.34029,-5.33441)">
                    <path d="M48,304L112,304L112,400.72C89.28,404.48 72,424.24 72,448L72,448.72C69.44,448.32 66.72,448 64,448C58.4,448 53.04,448.96 48,450.72L48,304Z" style="fill:rgb(170,178,189);fill-rule:nonzero;"/>
                </g>
                <g transform="matrix(1,0,0,1,2.34029,-5.33441)">
                    <path d="M112,400.72L112,272L240,272L240,392.72C218.88,396.24 202.48,413.44 200.24,434.88C195.2,433.04 189.76,432 184,432C177.76,432 171.76,433.2 166.24,435.44C160.72,415.04 142.16,400 120,400C117.28,400 114.56,400.24 112,400.72Z" style="fill:rgb(204,209,217);fill-rule:nonzero;"/>
                </g>
                <g transform="matrix(1,0,0,1,2.34029,-5.33441)">
                    <path d="M352,480L352,496L16,496C16,475.12 29.36,457.28 48,450.72C53.04,448.96 58.4,448 64,448C66.72,448 69.44,448.32 72,448.72L72,448C72,424.24 89.28,404.48 112,400.72C114.56,400.24 117.28,400 120,400C142.16,400 160.72,415.04 166.24,435.44C171.76,433.2 177.76,432 184,432C189.76,432 195.2,433.04 200.24,434.88C202.48,413.44 218.88,396.24 240,392.72C242.56,392.24 245.28,392 248,392C272.08,392 291.92,409.76 295.44,432.8C298.16,432.32 301.04,432 304,432C330.48,432 352,453.52 352,480Z" style="fill:rgb(107,165,170);fill-rule:nonzero;"/>
                </g>
                <g transform="matrix(1,0,0,1,2.34029,-5.33441)">
                    <path d="M448,432C423.52,432 403.36,407.6 400.4,376L424,376L420.24,370C414.64,360.96 409.2,351.84 403.92,342.56L403.92,342.48C411.44,319.84 428.32,304 448,304C474.48,304 496,332.64 496,368C496,403.36 474.48,432 448,432Z" style="fill:rgb(107,165,170);fill-rule:nonzero;"/>
                </g>
                <g transform="matrix(1,0,0,1,2.34029,-5.33441)">
                    <path d="M400,335.36L403.92,342.48L403.92,342.56C409.2,351.84 414.64,360.96 420.24,370L424,376L280,376L283.76,370C307.84,331.44 328,290.56 344,248L360,248C362.56,254.8 365.2,261.52 368,268.24L368,268.32C378.32,292.08 380.08,295.84 400,335.28L400,335.36Z" style="fill:rgb(107,165,170);fill-rule:nonzero;"/>
                </g>
                <g transform="matrix(1,0,0,1,2.34029,-5.33441)">
                    <rect x="136" y="296" width="16" height="16" style="fill:rgb(35,87,137);fill-rule:nonzero;"/>
                    <rect x="168" y="296" width="16" height="16" style="fill:rgb(35,87,137);fill-rule:nonzero;"/>
                    <rect x="200" y="296" width="16" height="16" style="fill:rgb(35,87,137);fill-rule:nonzero;"/>
                    <rect x="168" y="328" width="16" height="16" style="fill:rgb(35,87,137);fill-rule:nonzero;"/>
                    <rect x="200" y="328" width="16" height="16" style="fill:rgb(35,87,137);fill-rule:nonzero;"/>
                    <rect x="136" y="328" width="16" height="16" style="fill:rgb(35,87,137);fill-rule:nonzero;"/>
                    <rect x="200" y="360" width="16" height="16" style="fill:rgb(35,87,137);fill-rule:nonzero;"/>
                    <rect x="136" y="360" width="16" height="16" style="fill:rgb(35,87,137);fill-rule:nonzero;"/>
                    <rect x="168" y="360" width="16" height="16" style="fill:rgb(35,87,137);fill-rule:nonzero;"/>
                    <rect x="72" y="360" width="16" height="16" style="fill:rgb(35,87,137);fill-rule:nonzero;"/>
                    <rect x="72" y="328" width="16" height="16" style="fill:rgb(35,87,137);fill-rule:nonzero;"/>
                    <path d="M344,136L200,136L200,184L344,184L344,136ZM328,168L216,168L216,152L328,152L328,168Z" style="fill:rgb(35,87,137);fill-rule:nonzero;"/>
                    <rect x="456" y="168" width="16" height="16" style="fill:rgb(35,87,137);fill-rule:nonzero;"/>
                    <rect x="424" y="168" width="16" height="16" style="fill:rgb(35,87,137);fill-rule:nonzero;"/>
                    <rect x="456" y="200" width="16" height="16" style="fill:rgb(35,87,137);fill-rule:nonzero;"/>
                    <rect x="424" y="200" width="16" height="16" style="fill:rgb(35,87,137);fill-rule:nonzero;"/>
                    <rect x="424" y="232" width="16" height="16" style="fill:rgb(35,87,137);fill-rule:nonzero;"/>
                    <rect x="456" y="232" width="16" height="16" style="fill:rgb(35,87,137);fill-rule:nonzero;"/>
                    <rect x="456" y="264" width="16" height="16" style="fill:rgb(35,87,137);fill-rule:nonzero;"/>
                    <rect x="424" y="264" width="16" height="16" style="fill:rgb(35,87,137);fill-rule:nonzero;"/>
                    <path d="M504,104L504,80C504,49.128 478.872,24 448,24C417.128,24 392,49.128 392,80L392,104L408,104L408,136L392,136L392,302.096C386.296,290.312 381.008,278.344 376,266.256L376,104L360,104L360,40L336,40L336,8L208,8L208,40L184,40L184,104L168,104L168,264L104,264L104,296L40,296L40,445.48C21.112,454.496 8,473.72 8,496L8,504L504,504L504,488L456,488L456,439.176C483.088,434.16 504,404.2 504,368L504,136L488,136L488,104L504,104ZM408,80C408,57.944 425.944,40 448,40C470.056,40 488,57.944 488,80L488,88L408,88L408,80ZM424,104L440,104L440,136L424,136L424,104ZM360,368L360,340.28L380.44,326.656L371.568,313.344L360,321.056L360,304L344,304L344,340.688L333.656,330.344L322.344,341.656L344,363.312L344,368L294.392,368C316.072,332.48 334.584,294.848 349.528,256L354.48,256C369.416,294.848 387.936,332.48 409.616,368L360,368ZM224,24L320,24L320,40L224,40L224,24ZM200,56L344,56L344,104L328,104L328,72L312,72L312,104L296,104L296,72L280,72L280,104L264,104L264,72L248,72L248,104L232,104L232,72L216,72L216,104L200,104L200,56ZM184,120L360,120L360,240L344,240L344,200L200,200L200,248L335.376,248C319.8,288.968 300.208,328.576 277,365.72L265.568,384L344,384L344,440.8C333.312,429.8 318.232,423.16 301.624,424.056C294.664,400.76 272.832,384 248,384L248,264L184,264L184,120ZM328,216L328,232L216,232L216,216L328,216ZM120,280L232,280L232,386.456C213.712,391.888 199.208,406.256 194.056,424.928C186.464,423.52 178.672,423.736 171.232,425.48C162.416,405.424 142.384,392 120,392L120,280ZM56,312L104,312L104,394.36C98.216,396.088 92.832,398.728 88,402.112L88,392L72,392L72,408L80.912,408C72.304,416.408 66.36,427.528 64.568,440L64,440C61.28,440 58.624,440.264 56,440.64L56,312ZM64,456C66.08,456 68.272,456.2 70.696,456.608L80,457.48L80,448C80,425.944 97.944,408 120,408C137.984,408 153.84,420.144 158.56,437.512L160.912,446.176L169.24,442.848C178.28,439.256 188.176,439.032 197.568,442.408L207.16,445.872L208.232,435.728C210.392,415.36 227.488,400 248,400C267.6,400 284.576,414.616 287.496,434L288.728,442.168L296.84,440.68C299.368,440.224 301.704,440 304,440C326.056,440 344,457.944 344,480L344,488L24.808,488C28.52,469.768 44.68,456 64,456ZM360,488L360,384L393.4,384C398.496,413.048 417.16,434.968 440,439.192L440,488L360,488ZM448,424C430.152,424 414.688,407.312 409.704,384L438.424,384L427,365.72C422.08,357.848 417.424,349.808 412.832,341.728C419.808,323.608 433.28,312 448,312C470.056,312 488,337.128 488,368C488,398.872 470.056,424 448,424ZM448,296C432.56,296 418.32,304.168 408,317.744L408,152L488,152L488,317.712C477.824,304.336 463.664,296 448,296ZM472,136L456,136L456,104L472,104L472,136Z" style="fill:rgb(35,87,137);fill-rule:nonzero;"/>
                </g>
            </g>
        </g>
    </g>
</svg>
