<svg xmlns="http://www.w3.org/2000/svg" width="12.754" height="12.754" viewBox="0 0 12.754 12.754">
  <g id="Group_838" data-name="Group 838" transform="translate(-0.5 -0.5)">
    <path id="Path_8043" data-name="Path 8043" d="M6.877,1a17.221,17.221,0,0,1,3.128.213,3.5,3.5,0,0,1,1.7.722c.744.656,1.045,1.841,1.045,4.23a8.03,8.03,0,0,1-.51,3.41,1.774,1.774,0,0,1-.689.77,2.346,2.346,0,0,1-1.2.272,2.763,2.763,0,0,0-1.6.426,2.871,2.871,0,0,0-.8.89l-.075.119a2.3,2.3,0,0,1-.376.5.84.84,0,0,1-.618.2.84.84,0,0,1-.618-.2,2.3,2.3,0,0,1-.375-.5l-.075-.119a2.871,2.871,0,0,0-.8-.89,2.763,2.763,0,0,0-1.6-.426,2.3,2.3,0,0,1-1.2-.278,1.818,1.818,0,0,1-.693-.785A8.019,8.019,0,0,1,1,6.165c0-2.359.3-3.547,1.046-4.21a3.509,3.509,0,0,1,1.7-.734A16.744,16.744,0,0,1,6.877,1Z" fill="none" stroke="#1e2022" stroke-linecap="round" stroke-linejoin="round" stroke-width="1"/>
    <circle id="Ellipse_36" data-name="Ellipse 36" cx="0.696" cy="0.696" r="0.696" transform="translate(4 5.486)" fill="#1e2022"/>
    <circle id="Ellipse_37" data-name="Ellipse 37" cx="0.696" cy="0.696" r="0.696" transform="translate(6.181 5.486)" fill="#1e2022"/>
    <circle id="Ellipse_38" data-name="Ellipse 38" cx="0.696" cy="0.696" r="0.696" transform="translate(8.362 5.486)" fill="#1e2022"/>
  </g>
</svg>
