<svg xmlns="http://www.w3.org/2000/svg" width="17.849" height="13.765" viewBox="0 0 17.849 13.765">
  <g id="Group_409" data-name="Group 409" transform="translate(-1 -4)">
    <path id="Path_735" data-name="Path 735" d="M17.752,10.853a.615.615,0,0,1-.084-1.224,1.739,1.739,0,0,0,.039-3.438.615.615,0,1,1,.2-1.213,2.969,2.969,0,0,1-.07,5.87A.6.6,0,0,1,17.752,10.853Z" transform="translate(-2.908 -0.175)" fill="#1e2022" fill-rule="evenodd"/>
    <g id="Group_368" data-name="Group 368" transform="translate(15.739 12.199)">
      <path id="Path_736" data-name="Path 736" d="M20.522,17.715a.615.615,0,0,1-.219-1.19c.556-.212.556-.445.556-.557,0-.359-.457-.61-1.357-.744a.615.615,0,1,1,.183-1.217c1.986.3,2.4,1.231,2.4,1.961a1.8,1.8,0,0,1-1.348,1.707A.622.622,0,0,1,20.522,17.715Z" transform="translate(-18.978 -14.002)" fill="#1e2022" fill-rule="evenodd"/>
    </g>
    <path id="Path_737" data-name="Path 737" d="M10.678,15.644c-1.948,0-4.27.239-4.27,1.379s2.323,1.39,4.27,1.39,4.27-.239,4.27-1.376S12.626,15.644,10.678,15.644Zm0,4c-1.36,0-5.5,0-5.5-2.619s4.14-2.609,5.5-2.609,5.5,0,5.5,2.623C16.177,19.642,12.182,19.642,10.678,19.642Z" transform="translate(-0.753 -1.877)" fill="#1e2022" fill-rule="evenodd"/>
    <path id="Path_738" data-name="Path 738" d="M11.064,5.23A2.518,2.518,0,0,0,8.548,7.746a2.5,2.5,0,0,0,2.495,2.516l.02.615v-.615a2.516,2.516,0,1,0,0-5.032Zm0,6.262h-.022A3.734,3.734,0,0,1,7.319,7.743a3.745,3.745,0,1,1,3.745,3.748Z" transform="translate(-1.139)" fill="#1e2022" fill-rule="evenodd"/>
    <path id="Path_739" data-name="Path 739" d="M5.3,10.853a.6.6,0,0,1-.085-.006,2.969,2.969,0,0,1-.069-5.87.615.615,0,1,1,.2,1.213,1.739,1.739,0,0,0,.039,3.438A.615.615,0,0,1,5.3,10.853Z" transform="translate(-0.3 -0.175)" fill="#1e2022" fill-rule="evenodd"/>
    <path id="Path_740" data-name="Path 740" d="M2.568,17.715a.622.622,0,0,1-.219-.04A1.8,1.8,0,0,1,1,15.968c0-.73.417-1.663,2.4-1.961a.615.615,0,1,1,.182,1.217c-.9.134-1.357.385-1.357.744,0,.112,0,.345.557.557a.615.615,0,0,1-.219,1.19Z" transform="translate(0 -1.802)" fill="#1e2022" fill-rule="evenodd"/>
  </g>
</svg>
