<svg xmlns="http://www.w3.org/2000/svg" width="11.342" height="13.343" viewBox="0 0 11.342 13.343">
  <g id="Group_320" data-name="Group 320" transform="translate(-3 -2)">
    <path id="Path_682" data-name="Path 682" d="M4.89,6.1a.857.857,0,0,0-.859.855v7.527a.857.857,0,0,0,.859.855h5.5a.857.857,0,0,0,.859-.855V9.236a.853.853,0,0,0-.252-.6L8.709,6.354A.861.861,0,0,0,8.1,6.1ZM3,6.959A1.886,1.886,0,0,1,4.89,5.077H8.1a1.9,1.9,0,0,1,1.337.551l2.288,2.278a1.877,1.877,0,0,1,.554,1.331v5.249a1.886,1.886,0,0,1-1.89,1.882H4.89A1.886,1.886,0,0,1,3,14.486Z" transform="translate(0 -1.024)" fill="#1e2022" fill-rule="evenodd"/>
    <path id="Path_683" data-name="Path 683" d="M7.121,2.513A.514.514,0,0,1,7.637,2H10.5a1.9,1.9,0,0,1,1.337.551l3.319,3.3a1.877,1.877,0,0,1,.554,1.331v4.907a.516.516,0,0,1-1.031,0V7.186a.853.853,0,0,0-.252-.6l-3.319-3.3a.861.861,0,0,0-.608-.251H7.637A.514.514,0,0,1,7.121,2.513Z" transform="translate(-1.372)" fill="#1e2022" fill-rule="evenodd"/>
  </g>
</svg>
