<svg xmlns="http://www.w3.org/2000/svg" width="14.764" height="14.082" viewBox="0 0 14.764 14.082">
  <g id="Group_411" data-name="Group 411" transform="translate(-2 -2)">
    <g id="Group_365" data-name="Group 365" transform="translate(2 10.835)">
      <path id="Path_731" data-name="Path 731" d="M7.61,15.065c-2.053,0-4.5.264-4.5,1.524,0,1,1.515,1.506,4.5,1.506s4.5-.512,4.5-1.521S10.6,15.065,7.61,15.065Zm0,4.138C6.076,19.2,2,19.2,2,16.589c0-2.632,4.222-2.632,5.61-2.632,2.408,0,5.61.271,5.61,2.617C13.22,19.2,9,19.2,7.61,19.2Z" transform="translate(-2 -13.957)" fill="#1e2022" fill-rule="evenodd"/>
    </g>
    <path id="Path_732" data-name="Path 732" d="M8.251,3.108a2.686,2.686,0,1,0,0,5.372h.023A2.676,2.676,0,0,0,10.937,5.8,2.69,2.69,0,0,0,8.251,3.108Zm0,6.48a3.794,3.794,0,1,1,3.794-3.794A3.784,3.784,0,0,1,8.276,9.589Z" transform="translate(-0.641)" fill="#1e2022" fill-rule="evenodd"/>
    <path id="Path_733" data-name="Path 733" d="M16.287,9.039a.554.554,0,0,1-.077-1.1,1.882,1.882,0,0,0,.044-3.72.554.554,0,0,1,.179-1.094,2.99,2.99,0,0,1-.068,5.912A.547.547,0,0,1,16.287,9.039Z" transform="translate(-3.585 -0.291)" fill="#1e2022" fill-rule="evenodd"/>
    <g id="Group_366" data-name="Group 366" transform="translate(13.708 10.485)">
      <path id="Path_734" data-name="Path 734" d="M19.36,17.161a.554.554,0,0,1-.2-1.072c.628-.238.628-.528.628-.652,0-.419-.5-.706-1.473-.851a.556.556,0,0,1-.467-.63.563.563,0,0,1,.63-.467c2,.3,2.419,1.225,2.419,1.949a1.766,1.766,0,0,1-1.343,1.688A.554.554,0,0,1,19.36,17.161Z" transform="translate(-17.845 -13.483)" fill="#1e2022" fill-rule="evenodd"/>
    </g>
  </g>
</svg>
