<?xml version="1.0" encoding="utf-8"?>
<!-- Generator: Adobe Illustrator 24.1.1, SVG Export Plug-In . SVG Version: 6.00 Build 0)  -->
<svg version="1.1" id="Layer_1" xmlns="http://www.w3.org/2000/svg" xmlns:xlink="http://www.w3.org/1999/xlink" x="0px" y="0px"
	 viewBox="0 0 500 500" style="enable-background:new 0 0 500 500;" xml:space="preserve">
<style type="text/css">
	.st0{fill-rule:evenodd;clip-rule:evenodd;fill:#FA8743;}
	.st1{fill:#FA8743;}
	.st2{fill:#6BA5AA;}
	.st3{fill:#F63E02;}
	.st4{fill:#B2B2C7;}
	.st5{fill:#235789;}
	.st6{fill:#0E112C;}
	.st7{fill:none;}
	.st8{fill:#FFFFFF;}
	.st9{fill:#FA8743;stroke:#FA8743;stroke-width:4;stroke-miterlimit:10;}
	.st10{fill-rule:evenodd;clip-rule:evenodd;fill:none;stroke:#FA8743;stroke-width:9;stroke-miterlimit:10;}
</style>
<g>
	<path class="st1" d="M116.6,250.2c0-53.9,0-107.9,0-161.8c0-23.1,14.7-41.8,36.8-47.1c4-1,8.1-1.3,12.2-1.3c48.7,0,97.4,0,146.2,0
		c28.3,0,48.8,20.6,48.9,48.9c0.1,32.1,0.1,64.1-0.1,96.2c0,3.3,0.7,4.3,4.1,4.1c18.6-1.2,30.2,13.4,30,27.8
		c-0.1,7.1,6,12.6,13.2,12.8c4.5,0.1,9,0,13.6,0c11.6,0.2,20.3,8.8,20.5,20.4c0.1,5.8,0.1,11.6,0,17.4c-0.1,2.4,0.7,3.3,3.1,2.9
		c0.1,0,0.3,0,0.4,0c11.2,0.1,11.2,0.1,10.2,11.5c-0.1,1.7-0.6,2.1-2.2,2.1c-12.1-0.1-24.3-0.1-36.4,0c-1.7,0-2.3-0.6-2.1-2.2
		c0-0.1,0-0.3,0-0.4c0.1-3.5-1.1-7.9,0.6-10.3c1.6-2.2,6.3-0.6,9.6-0.6c2.4,0,3.5-0.2,3.4-3.1c-0.3-5.5,0-11-0.1-16.5
		c-0.1-5-2.6-7.4-7.7-7.6c-6.1-0.2-12.1,0.7-18.2-0.6c-12.3-2.6-21.2-12.8-21.5-25.4c-0.2-8.7-5.9-16.1-18.9-14.7
		c-1.3,0.2-1.7,0.7-1.6,1.8c0.1,1,0,2,0,3c0,67.9,0,135.9,0,203.8c0,23.7-14.3,42.2-36.6,47.7c-4,1-8,1.3-12.2,1.3
		c-48.9,0-97.7,0-146.6,0c-28,0-48.6-20.7-48.7-48.6C116.6,357.8,116.6,304,116.6,250.2z M130.2,236.6c0,41.7,0,83.3-0.1,125
		c0,3.2,0.8,4,3.9,3.9c9.5-0.2,18.9-0.1,28.4-0.1c60.3,0,120.6,0,180.9,0c2.1,0,3.9,0.6,3.9-3c-0.1-52.3-0.1-104.5,0-156.8
		c0-2.4-0.7-3-3.1-3c-7.3,0.1-14.7,0-22,0.1c-2.8,0-6.3-0.8-8.2,0.5c-1.6,1.1-1.2,4.9-1.8,7.4c-7.8,36.9-40.4,61.9-77.8,59.8
		c-36.8-2.1-66.3-31.2-69.6-68.6c-4.4-50.2,43.1-91,91.8-78.2c31.3,8.2,50.1,29,55.9,61c0.6,3.5,1.6,4.8,5.4,4.7
		c8.5-0.4,16.9-0.3,25.4,0c3.1,0.1,3.9-0.7,3.9-3.9c-0.2-24.4-0.2-48.9,0-73.3c0-3.5-0.8-4.3-4.3-4.3c-69.5,0.1-139,0.1-208.4,0
		c-3.5,0-4.3,0.8-4.3,4.3C130.3,153.6,130.2,195.1,130.2,236.6z M239.1,379c-35,0-70,0-105-0.1c-3.1,0-4,0.6-3.9,3.9
		c0.2,9.9,0,19.8,0.1,29.6c0.1,19.5,14.8,34.3,34.3,34.3c49.4,0.1,98.8,0.1,148.2,0c19.5,0,34.2-14.8,34.3-34.3
		c0.1-9.9-0.1-19.8,0.1-29.6c0.1-3.2-0.8-3.9-3.9-3.9C308.5,379,273.8,379,239.1,379z M238.6,94.2c34.9,0,69.7,0,104.6,0
		c1.6,0,3.8,1.2,4-2.4c1.1-22.4-13.7-38.2-36.1-38.2c-48.1,0-96.3,0-144.4,0c-22.4,0-36.4,14.1-36.6,36.4c0,3.5,0.7,4.4,4.3,4.4
		C169.1,94.2,203.9,94.2,238.6,94.2z M188.3,189.2c1.1,0,2.3,0,3.4,0c6.3,0,6.3,0,7.4-6.4c0.4-2.2,0.5-4.6,1.5-6.6
		c3.4-7.1,1.9-12.3-5.6-15.4c-0.5-0.2-0.9-0.6-1.3-1.1c-1.8-2.2-3-1.5-4.4,0.6c-5.3,7.5-8.7,15.7-10.7,24.6
		c-0.8,3.5,0.1,4.8,3.8,4.3C184.3,188.9,186.3,189.2,188.3,189.2z M289.6,202.7c-2.3,0-4.5,0.1-6.8,0c-2.5-0.2-3.7,0.4-4,3.2
		c-0.3,3.5-1.2,6.9-2,10.3c-0.7,3-3,6.4-2.1,8.8c0.8,2.4,4.6,3.8,7.1,5.6c0.6,0.4,1.2,0.8,1.7,1.3c2.1,2.6,3.5,1.4,5-0.7
		c4.7-6.8,8.2-14.1,10.1-22.1c1.5-6.3,1.5-6.3-5.2-6.3C292.1,202.7,290.8,202.7,289.6,202.7z M178.4,202.7c0.4,9,4.8,20.2,10.5,28.4
		c1.8,2.7,3,2.8,5.4,0.6c2.1-2,4.7-3.5,7.2-5.1c1.2-0.8,1.7-1.4,1.2-3c-2-6-3.5-12.2-3.9-18.5c-0.1-1.4-0.4-2.4-2.2-2.4
		C190.4,202.8,184.4,202.7,178.4,202.7z M299.1,189.2c-1.1-10.8-5.1-20.1-11-28.7c-1.7-2.5-2.8-2.3-4.8-0.4c-2.2,2-4.6,3.7-7.1,5.3
		c-1.3,0.8-1.7,1.7-1.2,3.1c2.1,6.1,3.3,12.5,4,19c0.2,1.4,0.7,1.9,2.1,1.9C287.1,189.1,293,189.2,299.1,189.2z M255.7,202.7
		c-1.8,0-3.7,0.3-5.5-0.1c-4.2-0.7-5.4,1-4.8,5c0.4,2.8-0.7,6.3,0.6,8.2c1.1,1.6,4.9,1.3,7.5,1.6c3,0.4,6.6,3.2,8.5,1.5
		c2-1.8,2.1-5.9,2.7-9.1c1.4-7.1,1.3-7.1-6.1-7.1C257.7,202.7,256.7,202.7,255.7,202.7z M221.9,189.2c2.7,0,5.3-0.1,8,0
		c1.4,0,2.1-0.3,2-1.8c-0.1-3.8,0.7-7.9-0.6-11.2c-0.6-1.5-5.3-1.4-8.1-2c-0.3-0.1-0.5-0.1-0.8-0.2c-7.4-1.7-7.4-1.7-9,5.8
		c-2,9.4-2,9.4,7.3,9.4C221,189.2,221.5,189.2,221.9,189.2z M265.9,189.2c-0.7-3.4-1.2-6.5-1.9-9.5c-1.7-7.3-1.8-7.4-9-5.6
		c-3.2,0.8-7.7-0.3-9.2,2.4c-1.4,2.6-0.3,6.6-0.3,10c0,0.1,0,0.3,0,0.4c-0.2,1.6,0.3,2.2,2.1,2.2
		C253.5,189.1,259.6,189.2,265.9,189.2z M221.7,202.7c-10.7,0-10.7,0-8.1,10.4c0.2,0.7,0.4,1.4,0.5,2c0.5,3.3,1.6,5,5.5,3.3
		c2.8-1.2,6-1.6,9-1.8c2.9-0.2,3.3-1.4,3.2-3.9C231.9,202.7,232,202.7,221.7,202.7z M245.4,247.5c2.7-3.5,4.9-5.9,6.6-8.5
		c5.1-8,6.3-6.6-3.9-8.9c-1.9-0.4-2.8-0.1-2.7,2.1C245.5,236.8,245.4,241.5,245.4,247.5z M231.9,145.7c-0.3-0.1-0.6-0.1-0.9-0.2
		c-1.9,2.4-3.9,4.8-5.6,7.3c-1.5,2.2-4.5,4.8-3.5,6.7c1.2,2.4,5.3,1.6,8,2.4c1.4,0.4,2-0.1,2-1.6
		C231.8,155.4,231.9,150.5,231.9,145.7z M231.9,246.7c0-3.7,0-6.5,0-9.3c0-8.6,0-8.5-8.4-6.1c-2.3,0.7-2.3,1.4-1.2,3.1
		C225,238.6,227.8,242.6,231.9,246.7z M245.6,162.1c2.9-0.6,5.6-1.2,8.3-1.8c1.8-0.4,2.2-1.1,1.1-2.9c-2.7-4.3-5.6-8.3-9.4-12.4
		C245.6,151,245.6,156.4,245.6,162.1z M276.2,243.9c-1.6-2.2-3.9-3.3-5.9-4.8c-1.2-0.9-1.9-0.7-2.6,0.6c-2.4,4.6-5.7,8.6-9.4,13.8
		C265.7,251.2,271,247.8,276.2,243.9z M218.6,253.1c-2.7-3.8-5-7-7.1-10.2c-3.3-5.1-5-5.2-9.3-0.7c-0.6,0.7-1.4,1.2-0.3,2
		C206.8,247.9,211.8,251.2,218.6,253.1z M219.1,138.7c-5.5,1.7-9.4,3.8-13.2,6.2c-5.7,3.6-5.7,3.7,0,7.3c1.1,0.7,2.3,2.6,3.7,0.2
		C212,147.7,215.3,143.7,219.1,138.7z M258.4,138.7c1.8,2.4,3,3.9,4.1,5.5c1.1,1.6,2.2,3.2,3.3,4.9c3.5,5.5,3.4,5.5,8.6,1.2
		c0.1-0.1,0.2-0.2,0.3-0.3c1.8-1.1,1.5-2-0.1-3C269.9,143.7,265,140.8,258.4,138.7z"/>
	<path class="st1" d="M428.4,311.5c0-3.5,0.1-7.1,0-10.6c-0.1-2.4,0.3-3.4,3.1-3.4c10.5,0,10.5-0.1,10.5,10.3c0,5.1,0.1,10.2,0,15.2
		c0,1.7,0.5,2.3,2.1,2.9c17.2,6.1,25,17.2,25,35.3c0,7.5,0,15,0,22.4c0,6.4-2.3,9.1-8.6,8.6c-4.5-0.3-5.2,1.3-5.1,5.3
		c0.3,8.4,0.1,8-8.5,8.5c-4.5,0.2-5.2-1.3-5.1-5.3c0.3-8.4,0.1-8-8.5-8.5c-4.5-0.2-5.2,1.3-5.1,5.3c0.3,8.4,0.1,8-8.5,8.5
		c-4.5,0.2-5.7-1.3-5-5.3c0.1-0.5,0-1.1,0-1.7c0-6.3,0-6.3-6.5-6.7c-3.9-0.2-6.9-2.2-6.9-6c-0.1-11.3-1.3-22.6,0.5-33.8
		c2.2-13.4,10.4-22.2,23.3-26.4c2.4-0.8,3.4-1.7,3.2-4.3C428.3,318.6,428.4,315,428.4,311.5z M435.2,379c5.9,0,11.9-0.1,17.8,0
		c2,0,2.6-0.6,2.6-2.6c-0.1-6.2,0.1-12.4-0.1-18.6c-0.4-10.9-9.5-19.6-20.5-19.5c-10.7,0.1-19.7,8.7-20.1,19.5
		c-0.2,6.2,0,12.4-0.1,18.6c0,2,0.6,2.6,2.6,2.6C423.4,378.9,429.3,379,435.2,379z"/>
	<path class="st1" d="M143.8,311.1c0-22.3,18.4-40.6,40.7-40.6c22.6,0.1,40.7,18.4,40.7,41c-0.1,22.3-18.5,40.5-40.9,40.3
		C161.8,351.7,143.7,333.5,143.8,311.1z M211.5,311.3c0.1-15-12-27.2-27-27.3c-14.8,0-27,12-27.2,26.7c-0.2,15,11.9,27.4,26.8,27.5
		C199.2,338.4,211.4,326.3,211.5,311.3z"/>
	<path class="st1" d="M333.5,311.2c0.1,22.3-18.3,40.7-40.6,40.7c-22.5,0-40.7-18.1-40.8-40.4c-0.1-22.4,18.1-40.8,40.3-40.9
		C315.2,270.4,333.5,288.6,333.5,311.2z M292.9,284.1c-15,0-27.2,12.2-27.1,27.2c0.1,14.8,12.2,26.9,26.9,27c15,0.1,27.3-12,27.3-27
		C320.1,296.3,307.9,284.1,292.9,284.1z"/>
	<path class="st1" d="M238.5,433.2c-11.2-0.1-20.4-9.4-20.2-20.6c0.2-11,9.3-20,20.4-20c11,0,20.2,9.2,20.2,20.2
		C259,424.1,249.8,433.2,238.5,433.2z M231.9,412.5c-0.2,3.6,2.7,6.8,6.3,7.1c3.8,0.2,7.1-2.8,7.2-6.6c0.1-3.6-2.9-6.8-6.5-6.9
		C235.2,406,232.1,408.9,231.9,412.5z"/>
	<path class="st1" d="M192.5,330c-1-1.5-1.9-3-3-4.2c-5-5.1-5-5.1-9.9-0.2c-3.9,3.9-3.9,3.9-7.8,0c-5.7-5.7-5.9-5.9,0-11.3
		c2.9-2.7,2.4-4.1-0.1-6.5c-5.7-5.4-5.6-5.5-0.1-11c4.1-4.1,4.1-4.1,8.4,0.2c4.5,4.5,4.5,4.5,9-0.1c0.8-0.8,1.6-1.6,2.3-2.4
		c1.2-1.5,2.4-1.8,3.7,0c0.2,0.2,0.4,0.4,0.6,0.6c2.2,2.3,6,4.4,6.3,7c0.4,2.8-3.8,4.7-6,7c-1.6,1.6-1.4,2.5,0.1,4
		c2.2,2.1,6.4,4.3,5.9,6.6c-0.5,2.8-4.2,5-6.5,7.4C194.8,327.9,194,328.6,192.5,330z"/>
	<path class="st1" d="M312.5,302.1c-2.9,2.4-4.5,4-6.3,5.3c-3.7,2.6-3.3,4.7,0,7.6c5.2,4.7,5.1,4.9,0.1,9.8
		c-4.7,4.7-4.7,4.7-9.6-0.2c-3.9-3.9-3.9-3.9-7.8,0.1c-4.8,4.8-4.8,4.8-9.6,0c-4.8-4.8-5-5.1,0.3-9.8c3.4-3,3.2-4.8-0.1-7.7
		c-5.2-4.7-5-4.9-0.1-9.8c4.7-4.7,4.7-4.7,9.6,0.2c3.9,3.9,3.9,3.9,7.8,0c4.8-4.9,4.8-4.8,9.9,0.2
		C308.2,299.3,310.1,300.3,312.5,302.1z"/>
</g>
</svg>
