<svg xmlns="http://www.w3.org/2000/svg" width="16.464" height="16.464" viewBox="0 0 16.464 16.464">
  <g id="Group_561" data-name="Group 561" transform="translate(-0.3 -0.3)">
    <path id="Path_924" data-name="Path 924" d="M1,8.532a19.059,19.059,0,0,0,.316,3.99A4.24,4.24,0,0,0,2.37,14.694a4.241,4.241,0,0,0,2.172,1.054,19.062,19.062,0,0,0,3.99.316,19.062,19.062,0,0,0,3.99-.316,4.241,4.241,0,0,0,2.172-1.054,4.241,4.241,0,0,0,1.054-2.172,19.062,19.062,0,0,0,.316-3.99,19.062,19.062,0,0,0-.316-3.99A4.241,4.241,0,0,0,14.694,2.37a4.24,4.24,0,0,0-2.172-1.054A19.059,19.059,0,0,0,8.532,1a19.059,19.059,0,0,0-3.99.316A4.241,4.241,0,0,0,2.37,2.37,4.241,4.241,0,0,0,1.316,4.542,19.059,19.059,0,0,0,1,8.532Z" fill="none" stroke="#616161" stroke-linecap="round" stroke-linejoin="round" stroke-width="1.4"/>
    <path id="Path_925" data-name="Path 925" d="M7.826,6.693A4.109,4.109,0,0,1,9.972,6a.133.133,0,0,1,.137.135V9.973a.137.137,0,0,0,.137.137H14.08a.134.134,0,0,1,.135.137A4.109,4.109,0,1,1,7.826,6.693Z" transform="translate(-1.576 -1.577)" fill="none" stroke="#616161" stroke-linecap="round" stroke-linejoin="round" stroke-width="1.4"/>
  </g>
</svg>
