<svg xmlns="http://www.w3.org/2000/svg" width="21.193" height="13.073" viewBox="0 0 21.193 13.073">
  <path id="Path" d="M10.6.744a1.624,1.624,0,0,0-.259.881V5.348a1.632,1.632,0,0,0-.227-.176L2.506.26A1.626,1.626,0,0,0,0,1.625v9.824a1.624,1.624,0,0,0,2.506,1.364L10.112,7.9a1.681,1.681,0,0,0,.227-.176v3.723a1.624,1.624,0,0,0,2.506,1.364L20.451,7.9a1.625,1.625,0,0,0,.483-2.246,1.608,1.608,0,0,0-.483-.483L12.845.26A1.626,1.626,0,0,0,10.6.744Z" transform="translate(21.193 13.073) rotate(180)" fill="#1e2022"/>
</svg>
