<svg xmlns="http://www.w3.org/2000/svg" width="27.421" height="21.957" viewBox="0 0 27.421 21.957">
  <g id="Group_419" data-name="Group 419" transform="translate(-1.95 -3.95)">
    <path id="Path_782" data-name="Path 782" d="M3.051,12.258A1.054,1.054,0,0,1,4.1,13.316v5.14a1.717,1.717,0,0,0,1.561,1.728c2.668.226,6.883.535,10,.535s7.331-.309,10-.535a1.717,1.717,0,0,0,1.56-1.728v-5.14a1.051,1.051,0,1,1,2.1,0v5.14a3.827,3.827,0,0,1-3.486,3.835c-2.67.227-6.963.543-10.175.543s-7.505-.316-10.175-.543A3.827,3.827,0,0,1,2,18.456v-5.14A1.054,1.054,0,0,1,3.051,12.258Z" transform="translate(0 3.023)" fill="#1e2022" stroke="#616161" stroke-width="0.1" fill-rule="evenodd"/>
    <path id="Path_783" data-name="Path 783" d="M12.665,17.086a1.046,1.046,0,0,0,1.486,0l4.2-4.23a1.062,1.062,0,0,0,0-1.5,1.046,1.046,0,0,0-1.486,0l-2.409,2.425V5.058a1.051,1.051,0,1,0-2.1,0v8.728L9.948,11.36a1.046,1.046,0,0,0-1.486,0,1.062,1.062,0,0,0,0,1.5Z" transform="translate(2.253 0)" fill="#1e2022" stroke="#616161" stroke-width="0.1" fill-rule="evenodd"/>
  </g>
</svg>
