<svg width="16" height="16" viewBox="0 0 16 16" fill="none" xmlns="http://www.w3.org/2000/svg">
    <path
        d="M9.00377 9.3905L8.77821 9.62384V7.60939C8.77821 7.40311 8.69627 7.20528 8.5504 7.05942C8.40454 6.91356 8.20671 6.83162 8.00043 6.83162C7.79415 6.83162 7.59632 6.91356 7.45046 7.05942C7.3046 7.20528 7.22265 7.40311 7.22265 7.60939V9.62384L6.9971 9.3905C6.85064 9.24405 6.652 9.16177 6.44488 9.16177C6.23775 9.16177 6.03911 9.24405 5.89265 9.3905C5.7462 9.53696 5.66392 9.7356 5.66392 9.94273C5.66392 10.1499 5.7462 10.3485 5.89265 10.4949L7.44821 12.0505C7.52218 12.1213 7.6094 12.1768 7.70488 12.2138C7.79798 12.255 7.89864 12.2762 8.00043 12.2762C8.10222 12.2762 8.20289 12.255 8.29599 12.2138C8.39146 12.1768 8.47868 12.1213 8.55265 12.0505L10.1082 10.4949C10.2547 10.3485 10.3369 10.1499 10.3369 9.94273C10.3369 9.7356 10.2547 9.53696 10.1082 9.3905C9.96175 9.24405 9.76311 9.16177 9.55599 9.16177C9.34886 9.16177 9.15022 9.24405 9.00377 9.3905ZM13.4449 2.94273H8.56043L8.31154 2.16495C8.15019 1.70857 7.8509 1.31367 7.45513 1.03496C7.05936 0.756251 6.58671 0.607526 6.10265 0.609392H2.55599C1.93715 0.609392 1.34366 0.855225 0.906074 1.29281C0.468489 1.73039 0.222656 2.32389 0.222656 2.94273V13.0538C0.222656 13.6727 0.468489 14.2662 0.906074 14.7038C1.34366 15.1413 1.93715 15.3872 2.55599 15.3872H13.4449C14.0637 15.3872 14.6572 15.1413 15.0948 14.7038C15.5324 14.2662 15.7782 13.6727 15.7782 13.0538V5.27606C15.7782 4.65722 15.5324 4.06373 15.0948 3.62614C14.6572 3.18856 14.0637 2.94273 13.4449 2.94273ZM14.2227 13.0538C14.2227 13.2601 14.1407 13.458 13.9948 13.6038C13.849 13.7497 13.6512 13.8316 13.4449 13.8316H2.55599C2.34971 13.8316 2.15188 13.7497 2.00602 13.6038C1.86016 13.458 1.77821 13.2601 1.77821 13.0538V2.94273C1.77821 2.73645 1.86016 2.53862 2.00602 2.39275C2.15188 2.24689 2.34971 2.16495 2.55599 2.16495H6.10265C6.26571 2.16453 6.42478 2.21536 6.55737 2.31027C6.68996 2.40518 6.78937 2.53935 6.84154 2.69384L7.26154 3.96939C7.31372 4.12388 7.41313 4.25805 7.54572 4.35296C7.67831 4.44787 7.83738 4.4987 8.00043 4.49828H13.4449C13.6512 4.49828 13.849 4.58023 13.9948 4.72609C14.1407 4.87195 14.2227 5.06978 14.2227 5.27606V13.0538Z"
        fill="#6A6A9F" />
</svg>
