<svg width="12" height="14" viewBox="0 0 12 14" fill="none" xmlns="http://www.w3.org/2000/svg">
    <path
        d="M6.3735 0.44637C6.26325 0.371852 6.13323 0.332031 6.00016 0.332031C5.8671 0.332031 5.73707 0.371852 5.62683 0.44637C5.42683 0.579703 0.833496 3.7797 0.833496 8.4997C0.833496 9.86999 1.37784 11.1842 2.34678 12.1531C3.31572 13.122 4.62988 13.6664 6.00016 13.6664C7.37045 13.6664 8.68461 13.122 9.65355 12.1531C10.6225 11.1842 11.1668 9.86999 11.1668 8.4997C11.1668 3.6997 6.56683 0.573036 6.3735 0.44637ZM6.00016 12.333C4.98404 12.3313 4.01004 11.9268 3.29153 11.2083C2.57303 10.4898 2.16859 9.51583 2.16683 8.4997C2.16683 5.16637 4.9735 2.65304 6.00016 1.83304C7.0335 2.6397 9.8335 5.16637 9.8335 8.4997C9.83173 9.51583 9.4273 10.4898 8.70879 11.2083C7.99028 11.9268 7.01628 12.3313 6.00016 12.333Z"
        fill="#E56B6E" />
</svg>
