<svg xmlns="http://www.w3.org/2000/svg" width="13.306" height="13.306" viewBox="0 0 13.306 13.306">
  <g id="Group_526" data-name="Group 526" transform="translate(-2 -2)">
    <path id="Path_884" data-name="Path 884" d="M8.653,2A6.653,6.653,0,1,1,2,8.653,6.66,6.66,0,0,1,8.653,2Zm0,11.806A5.153,5.153,0,1,0,3.5,8.653,5.159,5.159,0,0,0,8.653,13.806Z" fill="#f63e02"/>
    <path id="Path_885" data-name="Path 885" d="M12,11.774a.75.75,0,0,1-.75-.75V8.2a.75.75,0,0,1,1.5,0v2.82A.75.75,0,0,1,12,11.774Z" transform="translate(-3.345 -1.974)" fill="#f63e02"/>
    <path id="Path_886" data-name="Path 886" d="M12,16.8h-.006a1,1,0,0,1,0-2H12a1,1,0,0,1,0,2Z" transform="translate(-3.345 -4.721)" fill="#f63e02"/>
  </g>
</svg>
