<svg width="18" height="17" viewBox="0 0 18 17" fill="none" xmlns="http://www.w3.org/2000/svg">
    <path
        d="M12.0382 8.92958C12.8552 8.2868 13.4515 7.40535 13.7442 6.40786C14.0369 5.41038 14.0115 4.34647 13.6714 3.36414C13.3312 2.3818 12.6934 1.52991 11.8466 0.926959C10.9998 0.324012 9.98607 0 8.94653 0C7.90699 0 6.89329 0.324012 6.04647 0.926959C5.19965 1.52991 4.56182 2.3818 4.22171 3.36414C3.8816 4.34647 3.85612 5.41038 4.14883 6.40786C4.44154 7.40535 5.03787 8.2868 5.85486 8.92958C4.45493 9.49045 3.23344 10.4207 2.32061 11.6212C1.40778 12.8216 0.837833 14.2473 0.67153 15.7462C0.659493 15.8557 0.669128 15.9664 0.699885 16.0721C0.730642 16.1778 0.78192 16.2765 0.85079 16.3623C0.989879 16.5358 1.19218 16.6469 1.4132 16.6712C1.63421 16.6956 1.85583 16.6311 2.0293 16.492C2.20277 16.3529 2.31389 16.1506 2.3382 15.9296C2.52118 14.3006 3.29794 12.7961 4.52005 11.7036C5.74216 10.6111 7.32395 10.0071 8.9632 10.0071C10.6024 10.0071 12.1842 10.6111 13.4063 11.7036C14.6285 12.7961 15.4052 14.3006 15.5882 15.9296C15.6109 16.1343 15.7086 16.3235 15.8625 16.4604C16.0163 16.5974 16.2155 16.6725 16.4215 16.6712H16.5132C16.7316 16.6461 16.9313 16.5357 17.0687 16.364C17.206 16.1922 17.27 15.9732 17.2465 15.7546C17.0794 14.2514 16.5064 12.8221 15.5889 11.6197C14.6714 10.4174 13.444 9.48748 12.0382 8.92958ZM8.94653 8.33791C8.28726 8.33791 7.64279 8.14242 7.09463 7.77614C6.54647 7.40987 6.11922 6.88928 5.86693 6.28019C5.61464 5.6711 5.54863 5.00088 5.67725 4.35428C5.80586 3.70768 6.12333 3.11373 6.58951 2.64756C7.05568 2.18138 7.64963 1.86391 8.29623 1.7353C8.94283 1.60668 9.61306 1.67269 10.2221 1.92498C10.8312 2.17727 11.3518 2.60451 11.7181 3.15268C12.0844 3.70084 12.2799 4.34531 12.2799 5.00458C12.2799 5.88863 11.9287 6.73648 11.3036 7.3616C10.6784 7.98672 9.83059 8.33791 8.94653 8.33791Z"
        fill="#6A6A9F" />
</svg>
