<svg xmlns="http://www.w3.org/2000/svg" width="19.98" height="19.057" viewBox="0 0 19.98 19.057">
  <g id="Group_855" data-name="Group 855" transform="translate(-2 -2.5)">
    <path id="Path_8060" data-name="Path 8060" d="M9.592,14.457a16.427,16.427,0,0,1,5.043.6c2.107.706,2.549,1.991,2.549,2.944s-.44,2.24-2.539,2.952a16.276,16.276,0,0,1-5.053.606,16.474,16.474,0,0,1-5.043-.595C2.442,20.257,2,18.972,2,18.019s.44-2.241,2.538-2.954A16.244,16.244,0,0,1,9.592,14.457Zm0,5.6a15.131,15.131,0,0,0,4.571-.527c1.521-.516,1.521-1.253,1.521-1.531s0-1.011-1.526-1.522a15.065,15.065,0,0,0-4.566-.52,15.1,15.1,0,0,0-4.571.528C3.5,17,3.5,17.741,3.5,18.019,3.5,19.371,5.549,20.057,9.592,20.057Z" fill="#0e112c"/>
    <path id="Path_8061" data-name="Path 8061" d="M9.623,12.77H9.592a5.135,5.135,0,1,1,5.135-5.135,5.12,5.12,0,0,1-5.1,5.135ZM9.592,4a3.635,3.635,0,1,0,0,7.27h.03a3.62,3.62,0,0,0,3.6-3.632A3.64,3.64,0,0,0,9.592,4Z" fill="#0e112c"/>
    <path id="Path_8062" data-name="Path 8062" d="M16.482,11.632a.75.75,0,0,1-.1-1.493A2.547,2.547,0,0,0,16.437,5.1a.75.75,0,0,1,.243-1.48,4.047,4.047,0,0,1-.092,8A.757.757,0,0,1,16.482,11.632Z" fill="#0e112c"/>
    <path id="Path_8063" data-name="Path 8063" d="M19.9,18.961a.75.75,0,0,1-.266-1.451c.85-.323.85-.715.85-.883,0-.568-.671-.956-1.994-1.153a.75.75,0,0,1,.221-1.484,5.454,5.454,0,0,1,2.2.729,2.213,2.213,0,0,1,1.074,1.908,2.393,2.393,0,0,1-1.818,2.285A.748.748,0,0,1,19.9,18.961Z" fill="#0e112c"/>
  </g>
</svg>
