<svg width="48" height="48" viewBox="0 0 48 48" fill="none" xmlns="http://www.w3.org/2000/svg">
    <path
        d="M40.3332 19.3346C39.7143 19.3346 39.1208 19.5805 38.6832 20.0181C38.2457 20.4556 37.9998 21.0491 37.9998 21.668V29.5546L34.5465 26.1013C33.3272 24.8916 31.6791 24.2128 29.9615 24.2128C28.2439 24.2128 26.5958 24.8916 25.3765 26.1013L23.7432 27.758L17.9565 21.948C16.7372 20.7382 15.0891 20.0594 13.3715 20.0594C11.6539 20.0594 10.0058 20.7382 8.7865 21.948L5.33317 25.4246V12.3346C5.33317 11.7158 5.579 11.1223 6.01659 10.6847C6.45417 10.2471 7.04766 10.0013 7.6665 10.0013H26.3332C26.952 10.0013 27.5455 9.75547 27.9831 9.31788C28.4207 8.8803 28.6665 8.28681 28.6665 7.66797C28.6665 7.04913 28.4207 6.45564 27.9831 6.01805C27.5455 5.58047 26.952 5.33464 26.3332 5.33464H7.6665C5.80999 5.33464 4.02951 6.07213 2.71676 7.38489C1.404 8.69764 0.666504 10.4781 0.666504 12.3346V40.848C0.672652 42.5664 1.35804 44.2128 2.5732 45.4279C3.78835 46.6431 5.43469 47.3285 7.15317 47.3346H36.1798C36.8121 47.3296 37.4405 47.2353 38.0465 47.0546C39.3939 46.6767 40.58 45.8672 41.423 44.7503C42.266 43.6333 42.7192 42.2706 42.7132 40.8713V21.668C42.7132 21.3576 42.6514 21.0503 42.5312 20.7641C42.411 20.478 42.235 20.2186 42.0133 20.0013C41.7917 19.784 41.5289 19.6132 41.2404 19.4987C40.9519 19.3842 40.6435 19.3284 40.3332 19.3346ZM7.6665 42.668C7.04766 42.668 6.45417 42.4221 6.01659 41.9846C5.579 41.547 5.33317 40.9535 5.33317 40.3346V32.0046L12.0765 25.2613C12.4175 24.9222 12.8789 24.7318 13.3598 24.7318C13.8408 24.7318 14.3021 24.9222 14.6432 25.2613L32.0732 42.668H7.6665ZM37.9998 40.3346C37.9848 40.7865 37.8389 41.2242 37.5798 41.5946L27.0332 31.0013L28.6898 29.368C28.8571 29.1972 29.0568 29.0616 29.2772 28.969C29.4975 28.8764 29.7341 28.8287 29.9732 28.8287C30.2122 28.8287 30.4488 28.8764 30.6692 28.969C30.8895 29.0616 31.0892 29.1972 31.2565 29.368L37.9998 36.158V40.3346ZM44.9998 5.33464H42.6665V3.0013C42.6665 2.38246 42.4207 1.78897 41.9831 1.35139C41.5455 0.913801 40.952 0.667969 40.3332 0.667969C39.7143 0.667969 39.1208 0.913801 38.6832 1.35139C38.2457 1.78897 37.9998 2.38246 37.9998 3.0013V5.33464H35.6665C35.0477 5.33464 34.4542 5.58047 34.0166 6.01805C33.579 6.45564 33.3332 7.04913 33.3332 7.66797C33.3332 8.28681 33.579 8.8803 34.0166 9.31788C34.4542 9.75547 35.0477 10.0013 35.6665 10.0013H37.9998V12.3346C37.9998 12.9535 38.2457 13.547 38.6832 13.9846C39.1208 14.4221 39.7143 14.668 40.3332 14.668C40.952 14.668 41.5455 14.4221 41.9831 13.9846C42.4207 13.547 42.6665 12.9535 42.6665 12.3346V10.0013H44.9998C45.6187 10.0013 46.2122 9.75547 46.6497 9.31788C47.0873 8.8803 47.3332 8.28681 47.3332 7.66797C47.3332 7.04913 47.0873 6.45564 46.6497 6.01805C46.2122 5.58047 45.6187 5.33464 44.9998 5.33464Z"
        fill="#E56B6E" />
</svg>
