<svg xmlns="http://www.w3.org/2000/svg" width="24.5" height="24.5" viewBox="0 0 24.5 24.5">
  <g id="Iconly_Light_Game" data-name="Iconly/Light/Game" transform="translate(-0.75 -0.75)">
    <g id="Game" transform="translate(2 2)">
      <path id="Stroke_1" data-name="Stroke 1" d="M.53,0V4.119" transform="translate(7.003 11.345)" fill="none" stroke="#1e2022" stroke-linecap="round" stroke-linejoin="round" stroke-miterlimit="10" stroke-width="2.5"/>
      <path id="Stroke_2" data-name="Stroke 2" d="M4.2.519H0" transform="translate(5.432 12.886)" fill="none" stroke="#1e2022" stroke-linecap="round" stroke-linejoin="round" stroke-miterlimit="10" stroke-width="2.5"/>
      <path id="Stroke_3" data-name="Stroke 3" d="M.594.519H.476" transform="translate(14.109 10.952)" fill="none" stroke="#1e2022" stroke-linecap="round" stroke-linejoin="round" stroke-miterlimit="10" stroke-width="2.5"/>
      <path id="Stroke_4" data-name="Stroke 4" d="M.594.519H.476" transform="translate(16.104 14.884)" fill="none" stroke="#1e2022" stroke-linecap="round" stroke-linejoin="round" stroke-miterlimit="10" stroke-width="2.5"/>
      <path id="Stroke_5" data-name="Stroke 5" d="M0,0H0A1.49,1.49,0,0,0,1.5,1.475H2.667A2.313,2.313,0,0,1,4.994,3.754V4.5" transform="translate(6.679 0)" fill="none" stroke="#1e2022" stroke-linecap="round" stroke-linejoin="round" stroke-miterlimit="10" stroke-width="2.5"/>
      <path id="Stroke_7" data-name="Stroke 7" d="M15.871,17.148q-4.959.084-9.741,0a5.874,5.874,0,0,1-6.13-6V6.037a5.874,5.874,0,0,1,6.13-6q4.812-.082,9.741,0a5.873,5.873,0,0,1,6.129,6v5.115A5.873,5.873,0,0,1,15.871,17.148Z" transform="translate(0 4.811)" fill="none" stroke="#1e2022" stroke-linecap="round" stroke-linejoin="round" stroke-miterlimit="10" stroke-width="2.5"/>
    </g>
  </g>
</svg>
