<?xml version="1.0" encoding="UTF-8" standalone="no"?>
<!DOCTYPE svg PUBLIC "-//W3C//DTD SVG 1.1//EN" "http://www.w3.org/Graphics/SVG/1.1/DTD/svg11.dtd">
<svg width="100%" height="100%" viewBox="0 0 2084 2084" version="1.1" xmlns="http://www.w3.org/2000/svg" xmlns:xlink="http://www.w3.org/1999/xlink" xml:space="preserve" xmlns:serif="http://www.serif.com/" style="fill-rule:evenodd;clip-rule:evenodd;stroke-linejoin:round;stroke-miterlimit:2;">
    <g transform="matrix(1,0,0,1,-2291,0)">
        <g id="Artboard2" transform="matrix(1,0,0,1,-0.666667,0)">
            <rect x="2291.67" y="0" width="2083.33" height="2083.33" style="fill:none;"/>
            <g id="XMLID_1937_" transform="matrix(3.36923,0,0,3.36923,2495.81,213.437)">
                <g id="XMLID_1869_" transform="matrix(1,0,0,1,-7.41894,-10.1781)">
                    <path d="M433.506,98L367.37,98C347.485,98 330.207,111.468 325.353,130.751L299.527,233.36C296.642,244.827 303.597,256.462 315.063,259.348C316.818,259.789 318.574,260.001 320.305,260C329.883,259.999 338.607,253.523 341.051,243.812L365.467,146.806L317.768,336.32C316.233,342.419 320.844,348.334 327.133,348.334L473.744,348.334C480.033,348.334 484.644,342.419 483.109,336.32L435.41,146.806L459.826,243.812C462.27,253.523 470.993,259.999 480.572,260C482.303,260.001 484.059,259.789 485.814,259.348C497.28,256.462 504.235,244.827 501.35,233.36L475.525,130.751C470.669,111.468 453.391,98 433.506,98Z" style="fill:rgb(246,62,2);fill-rule:nonzero;"/>
                </g>
                <g id="XMLID_1609_" transform="matrix(1,0,0,1,-7.41894,-10.1781)">
                    <path d="M103.502,10C81.963,10 64.502,27.461 64.502,49L64.502,59C64.502,80.539 81.963,98 103.502,98C125.041,98 142.502,80.539 142.502,59L142.502,49C142.502,27.461 125.041,10 103.502,10Z" style="fill:rgb(255,212,190);fill-rule:nonzero;"/>
                </g>
                <g id="XMLID_1793_" transform="matrix(1,0,0,1,-7.41894,-10.1781)">
                    <path d="M150.376,98L56.668,98C30.895,98 10.001,118.893 10.001,144.667L10.001,272.5C10.001,284.374 19.627,294 31.501,294C41.471,294 49.831,287.205 52.264,278L154.779,278C157.213,287.205 165.573,294 175.542,294C187.417,294 197.042,284.374 197.042,272.5L197.042,144.667C197.043,118.893 176.149,98 150.376,98Z" style="fill:rgb(178,178,199);fill-rule:nonzero;"/>
                </g>
                <g id="XMLID_1608_" transform="matrix(1,0,0,1,-7.41894,-10.1781)">
                    <path d="M79.502,502C66.247,502 55.502,491.255 55.502,478L55.502,278L103.502,278L103.502,478C103.502,491.255 92.757,502 79.502,502Z" style="fill:rgb(107,165,170);fill-rule:nonzero;"/>
                </g>
                <g id="XMLID_1606_" transform="matrix(1,0,0,1,-7.41894,-10.1781)">
                    <path d="M127.502,502C114.247,502 103.502,491.255 103.502,478L103.502,278L151.502,278L151.502,478C151.502,491.255 140.757,502 127.502,502Z" style="fill:rgb(107,165,170);fill-rule:nonzero;"/>
                </g>
                <g transform="matrix(1,0,0,1,-7.41894,-10.1781)">
                    <path id="XMLID_1618_" d="M400.438,10C378.899,10 361.438,27.461 361.438,49L361.438,59C361.438,80.539 378.899,98 400.438,98C421.977,98 439.438,80.539 439.438,59L439.438,49C439.438,27.461 421.977,10 400.438,10Z" style="fill:rgb(255,212,190);fill-rule:nonzero;"/>
                    <path id="XMLID_1617_" d="M378.438,502C366.288,502 356.438,492.15 356.438,480L356.438,348.333L400.438,348.333L400.438,480C400.438,492.15 390.588,502 378.438,502Z" style="fill:rgb(255,212,190);fill-rule:nonzero;"/>
                    <path id="XMLID_1616_" d="M422.438,502C410.288,502 400.438,492.15 400.438,480L400.438,348.333L444.438,348.333L444.438,480C444.438,492.15 434.588,502 422.438,502Z" style="fill:rgb(255,212,190);fill-rule:nonzero;"/>
                </g>
                <g id="XMLID_373_" transform="matrix(1,0,0,1,-7.41894,-10.1781)">
                    <path id="XMLID_531_" d="M197.041,194.939C194.411,194.939 191.831,196 189.971,197.859C188.111,199.729 187.041,202.299 187.041,204.939C187.041,207.569 188.11,210.149 189.971,212.009C191.832,213.869 194.411,214.939 197.041,214.939C199.671,214.939 202.251,213.87 204.11,212.009C205.97,210.149 207.041,207.569 207.041,204.939C207.041,202.299 205.971,199.729 204.11,197.859C202.251,196 199.671,194.939 197.041,194.939Z" style="fill:rgb(35,87,137);fill-rule:nonzero;"/>
                    <path id="XMLID_551_" d="M480.582,270C483.153,270 485.734,269.679 488.253,269.045C505.047,264.818 515.272,247.716 511.046,230.92L485.221,128.31C479.752,106.586 461.468,90.868 439.642,88.361C445.79,80.173 449.437,70.005 449.437,59.001L449.437,49C449.437,21.981 427.456,0 400.437,0C373.418,0 351.437,21.981 351.437,49L351.437,59C351.437,70.004 355.084,80.172 361.232,88.36C339.406,90.867 321.122,106.585 315.654,128.31L289.827,230.92C285.602,247.715 295.827,264.817 312.623,269.045C315.142,269.678 317.722,269.999 320.287,269.999L320.305,269.999C321.624,269.999 322.927,269.915 324.209,269.755L308.07,333.877C306.581,339.794 307.878,345.948 311.629,350.76C315.38,355.573 321.03,358.332 327.132,358.332L346.438,358.332L346.438,480C346.438,497.645 360.793,512 378.438,512C386.955,512 394.698,508.649 400.438,503.205C406.178,508.65 413.921,512 422.438,512C440.083,512 454.438,497.645 454.438,480L454.438,358.333L473.744,358.333C479.846,358.333 485.497,355.573 489.248,350.761C492.999,345.949 494.296,339.795 492.807,333.879L476.664,269.741C477.947,269.901 479.246,270 480.566,270L480.582,270ZM371.438,49C371.438,33.01 384.448,20 400.438,20C416.428,20 429.438,33.01 429.438,49L429.438,59C429.438,74.99 416.428,88 400.438,88C384.448,88 371.438,74.99 371.438,59L371.438,49ZM378.438,492C371.821,492 366.438,486.617 366.438,480L366.438,358.333L390.438,358.333L390.438,480C390.438,486.617 385.055,492 378.438,492ZM434.438,480C434.438,486.617 429.055,492 422.438,492C415.821,492 410.438,486.617 410.438,480L410.438,358.333L434.438,358.333L434.438,480ZM469.525,241.385L445.106,144.365C443.757,139.008 438.314,135.761 432.968,137.108C427.612,138.456 424.363,143.89 425.711,149.246L473.303,338.333L327.572,338.333L375.164,149.246C376.513,143.891 373.264,138.456 367.907,137.108C362.553,135.762 357.117,139.007 355.769,144.365L331.354,241.367C331.354,241.368 331.354,241.37 331.353,241.371C330.074,246.451 325.531,249.999 320.298,250L320.292,250C319.364,250 318.425,249.882 317.502,249.65C311.402,248.115 307.689,241.901 309.223,235.8L335.049,133.191C338.783,118.359 352.073,108 367.369,108L433.506,108C448.802,108 462.092,118.359 465.826,133.191L491.65,235.8C493.185,241.902 489.471,248.115 483.373,249.65C482.449,249.882 481.511,250.001 480.578,250.001L480.573,250.001C475.349,249.999 470.81,246.458 469.525,241.385Z" style="fill:rgb(35,87,137);fill-rule:nonzero;"/>
                    <path id="XMLID_557_" d="M150.376,88L142.967,88C148.954,79.874 152.502,69.845 152.502,59L152.502,49C152.502,21.981 130.521,0 103.502,0C76.483,0 54.502,21.981 54.502,49L54.502,59C54.502,69.845 58.049,79.874 64.037,88L56.668,88C25.422,88 0.001,113.421 0.001,144.667L0.001,272.5C0.001,289.869 14.132,304 31.501,304C36.528,304 41.281,302.81 45.502,300.706L45.502,478C45.502,496.748 60.754,512 79.502,512C88.861,512 97.348,508.199 103.502,502.06C109.656,508.199 118.143,512 127.502,512C146.25,512 161.502,496.748 161.502,478L161.502,300.686C165.733,302.802 170.5,304 175.543,304C192.912,304 207.043,289.869 207.043,272.5L207.043,249.937C207.043,244.415 202.565,239.937 197.043,239.937C191.521,239.937 187.043,244.415 187.043,249.937L187.043,272.5C187.043,278.841 181.884,284 175.543,284C169.202,284 164.043,278.841 164.043,272.5L164.043,159.667C164.043,154.145 159.565,149.667 154.043,149.667C148.521,149.667 144.043,154.145 144.043,159.667L144.043,268L63.001,268L63.001,159.667C63.001,154.145 58.523,149.667 53.001,149.667C47.479,149.667 43.001,154.145 43.001,159.667L43.001,272.5C43.001,278.841 37.842,284 31.501,284C25.16,284 20.001,278.841 20.001,272.5L20.001,144.667C20.001,124.449 36.45,108 56.668,108L150.376,108C170.594,108 187.043,124.449 187.043,144.667L187.043,159.937C187.043,165.459 191.521,169.937 197.043,169.937C202.565,169.937 207.043,165.459 207.043,159.937L207.043,144.667C207.043,113.421 181.622,88 150.376,88ZM141.502,478C141.502,485.72 135.222,492 127.502,492C119.782,492 113.502,485.72 113.502,478L113.502,288L141.502,288L141.502,478ZM65.502,288L93.502,288L93.502,478C93.502,485.72 87.222,492 79.502,492C71.782,492 65.502,485.72 65.502,478L65.502,288ZM74.502,59L74.502,49C74.502,33.01 87.512,20 103.502,20C119.492,20 132.502,33.01 132.502,49L132.502,59C132.502,74.99 119.492,88 103.502,88C87.512,88 74.502,74.99 74.502,59Z" style="fill:rgb(35,87,137);fill-rule:nonzero;"/>
                    <g id="XMLID_561_" transform="matrix(6.12323e-17,1,-1,6.12323e-17,586.751,74.749)">
                        <path d="M415.101,320.75L-64.147,320.75C-69.669,320.75 -74.147,325.228 -74.147,330.75C-74.147,336.272 -69.669,340.75 -64.147,340.75L415.101,340.75C420.623,340.75 425.101,336.272 425.101,330.75C425.101,325.228 420.623,320.75 415.101,320.75Z" style="fill:rgb(35,87,137);fill-rule:nonzero;"/>
                    </g>
                </g>
            </g>
        </g>
    </g>
</svg>
