<svg width="12" height="14" viewBox="0 0 12 14" fill="none" xmlns="http://www.w3.org/2000/svg">
    <path
        d="M11 4H9.619C9.94215 3.51894 10.0666 2.9315 9.96631 2.36073C9.86602 1.78996 9.54875 1.28014 9.08097 0.938059C8.61319 0.595979 8.03118 0.448181 7.45686 0.525623C6.88254 0.603065 6.36047 0.899739 6 1.3535C5.63953 0.899739 5.11746 0.603065 4.54314 0.525623C3.96882 0.448181 3.38681 0.595979 2.91903 0.938059C2.45125 1.28014 2.13398 1.78996 2.03369 2.36073C1.93339 2.9315 2.05786 3.51894 2.381 4H1C0.734865 4.00027 0.480665 4.10571 0.293186 4.29319C0.105707 4.48067 0.000264738 4.73487 0 5L0 7C0.000264738 7.26514 0.105707 7.51934 0.293186 7.70682C0.480665 7.8943 0.734865 7.99974 1 8L1 13C1.00026 13.2651 1.10571 13.5193 1.29319 13.7068C1.48066 13.8943 1.73486 13.9997 2 14L10 14C10.2651 13.9997 10.5193 13.8943 10.7068 13.7068C10.8943 13.5193 10.9997 13.2651 11 13V8C11.2651 7.99974 11.5193 7.8943 11.7068 7.70682C11.8943 7.51934 11.9997 7.26514 12 7L12 5C11.9997 4.73487 11.8943 4.48067 11.7068 4.29319C11.5193 4.10571 11.2651 4.00027 11 4ZM6.5 2.75C6.5 2.50278 6.57331 2.2611 6.71066 2.05554C6.84801 1.84998 7.04324 1.68976 7.27165 1.59515C7.50005 1.50054 7.75139 1.47579 7.99386 1.52402C8.23634 1.57225 8.45907 1.6913 8.63388 1.86612C8.8087 2.04093 8.92775 2.26366 8.97598 2.50614C9.02421 2.74862 8.99946 2.99995 8.90485 3.22836C8.81024 3.45676 8.65002 3.65199 8.44446 3.78934C8.2389 3.92669 7.99723 4 7.75 4L6.5 4L6.5 2.75ZM4.25 1.5C4.5814 1.5004 4.89911 1.63222 5.13345 1.86656C5.36778 2.10089 5.4996 2.4186 5.5 2.75L5.5 4H4.25C3.91848 4 3.60054 3.86831 3.36612 3.63389C3.1317 3.39946 3 3.08152 3 2.75C3 2.41848 3.1317 2.10054 3.36612 1.86612C3.60054 1.6317 3.91848 1.5 4.25 1.5ZM1 5L5.5 5V7L1 7L1 5ZM2 8H5.5L5.5 13H2L2 8ZM10.0005 13H6.5L6.5 8L10 8L10.0005 13ZM6.5 7V5L11 5L11.0005 7L6.5 7Z"
        fill="white" />
</svg>
