<svg width="14" height="12" viewBox="0 0 14 12" fill="none" xmlns="http://www.w3.org/2000/svg">
    <g style="mix-blend-mode:luminosity" filter="url(#filter0_i)">
        <path
            d="M11.6575 5.12565C11.5029 5.12565 11.3546 5.18711 11.2453 5.2965C11.136 5.4059 11.0746 5.55427 11.0746 5.70898V9.79232C11.0746 9.94703 11.0131 10.0954 10.9038 10.2048C10.7945 10.3142 10.6462 10.3756 10.4916 10.3756H2.32997C2.17536 10.3756 2.02708 10.3142 1.91775 10.2048C1.80842 10.0954 1.747 9.94703 1.747 9.79232V5.12565C1.747 4.97094 1.80842 4.82257 1.91775 4.71317C2.02708 4.60378 2.17536 4.54232 2.32997 4.54232H3.49592C3.62304 4.54896 3.74885 4.51378 3.85411 4.44215C3.95938 4.37052 4.03833 4.26639 4.07889 4.14565L4.39369 3.18898C4.4328 3.07312 4.50731 2.97249 4.60669 2.90131C4.70608 2.83013 4.8253 2.792 4.94752 2.79232H8.15969C8.31431 2.79232 8.46259 2.73086 8.57192 2.62146C8.68125 2.51207 8.74267 2.36369 8.74267 2.20898C8.74267 2.05427 8.68125 1.9059 8.57192 1.79651C8.46259 1.68711 8.31431 1.62565 8.15969 1.62565H4.91837C4.552 1.62634 4.19509 1.74213 3.89803 1.9567C3.60097 2.17126 3.37874 2.47375 3.26273 2.82148L3.07618 3.40482H2.32997C1.86613 3.40482 1.42129 3.58919 1.0933 3.91738C0.765315 4.24557 0.581055 4.69069 0.581055 5.15482V9.82148C0.581055 10.2856 0.765315 10.7307 1.0933 11.0589C1.42129 11.3871 1.86613 11.5715 2.32997 11.5715H10.4916C10.9554 11.5715 11.4003 11.3871 11.7283 11.0589C12.0562 10.7307 12.2405 10.2856 12.2405 9.82148V5.73815C12.2445 5.65913 12.2323 5.58013 12.2048 5.50595C12.1773 5.43178 12.1349 5.36398 12.0804 5.30668C12.0259 5.24939 11.9603 5.20379 11.8876 5.17267C11.8149 5.14155 11.7366 5.12555 11.6575 5.12565ZM6.41078 4.54232C5.94957 4.54232 5.49873 4.67916 5.11525 4.93555C4.73177 5.19194 4.43289 5.55636 4.25639 5.98272C4.0799 6.40908 4.03372 6.87824 4.12369 7.33086C4.21367 7.78348 4.43576 8.19924 4.76188 8.52557C5.088 8.85189 5.50351 9.07412 5.95585 9.16415C6.40819 9.25418 6.87706 9.20797 7.30315 9.03137C7.72925 8.85476 8.09344 8.55569 8.34967 8.17198C8.6059 7.78827 8.74267 7.33714 8.74267 6.87565C8.74267 6.25681 8.49699 5.66332 8.05967 5.22573C7.62236 4.78815 7.02923 4.54232 6.41078 4.54232ZM6.41078 8.04232C6.18017 8.04232 5.95475 7.97389 5.76301 7.8457C5.57127 7.7175 5.42183 7.53529 5.33358 7.32211C5.24534 7.10893 5.22225 6.87436 5.26724 6.64805C5.31222 6.42173 5.42327 6.21385 5.58633 6.05069C5.74939 5.88753 5.95714 5.77642 6.18331 5.7314C6.40948 5.68638 6.64392 5.70949 6.85696 5.79779C7.07001 5.88609 7.25211 6.03563 7.38022 6.22749C7.50834 6.41934 7.57672 6.64491 7.57672 6.87565C7.57672 7.18507 7.45388 7.48182 7.23522 7.70061C7.01657 7.9194 6.72 8.04232 6.41078 8.04232ZM12.8235 1.62565H12.2405V1.04232C12.2405 0.887608 12.1791 0.739235 12.0698 0.629839C11.9604 0.520442 11.8121 0.458984 11.6575 0.458984C11.5029 0.458984 11.3546 0.520442 11.2453 0.629839C11.136 0.739235 11.0746 0.887608 11.0746 1.04232V1.62565H10.4916C10.337 1.62565 10.1887 1.68711 10.0794 1.79651C9.97003 1.9059 9.90861 2.05427 9.90861 2.20898C9.90861 2.36369 9.97003 2.51207 10.0794 2.62146C10.1887 2.73086 10.337 2.79232 10.4916 2.79232H11.0746V3.37565C11.0746 3.53036 11.136 3.67873 11.2453 3.78813C11.3546 3.89753 11.5029 3.95898 11.6575 3.95898C11.8121 3.95898 11.9604 3.89753 12.0698 3.78813C12.1791 3.67873 12.2405 3.53036 12.2405 3.37565V2.79232H12.8235C12.9781 2.79232 13.1264 2.73086 13.2357 2.62146C13.345 2.51207 13.4064 2.36369 13.4064 2.20898C13.4064 2.05427 13.345 1.9059 13.2357 1.79651C13.1264 1.68711 12.9781 1.62565 12.8235 1.62565Z"
            fill="url(#paint0_linear)" />
    </g>
    <defs>
        <filter id="filter0_i" x="0.581055" y="0.458984" width="12.8254" height="13.1125" filterUnits="userSpaceOnUse" color-interpolation-filters="sRGB">
            <feFlood flood-opacity="0" result="BackgroundImageFix" />
            <feBlend mode="normal" in="SourceGraphic" in2="BackgroundImageFix" result="shape" />
            <feColorMatrix in="SourceAlpha" type="matrix" values="0 0 0 0 0 0 0 0 0 0 0 0 0 0 0 0 0 0 127 0" result="hardAlpha" />
            <feOffset dy="2" />
            <feGaussianBlur stdDeviation="2" />
            <feComposite in2="hardAlpha" operator="arithmetic" k2="-1" k3="1" />
            <feColorMatrix type="matrix" values="0 0 0 0 0 0 0 0 0 0 0 0 0 0 0 0 0 0 1 0" />
            <feBlend mode="normal" in2="shape" result="effect1_innerShadow" />
        </filter>
        <linearGradient id="paint0_linear" x1="0.582309" y1="6.01446" x2="13.4073" y2="6.01446" gradientUnits="userSpaceOnUse">
            <stop offset="0.0116" stop-color="#F63E02" />
            <stop offset="1" stop-color="#FA8743" />
        </linearGradient>
    </defs>
</svg>
