<svg xmlns="http://www.w3.org/2000/svg" xmlns:xlink="http://www.w3.org/1999/xlink" width="170.781" height="173.435" viewBox="0 0 170.781 173.435">
  <defs>
    <linearGradient id="linear-gradient" x1="0.5" x2="0.5" y2="1" gradientUnits="objectBoundingBox">
      <stop offset="0" stop-color="#ffb37f"/>
      <stop offset="1" stop-color="#ff7b0d"/>
    </linearGradient>
    <filter id="Path_833" x="23.12" y="22.497" width="147.66" height="150.938" filterUnits="userSpaceOnUse">
      <feOffset dx="5" dy="5" input="SourceAlpha"/>
      <feGaussianBlur stdDeviation="5" result="blur"/>
      <feFlood flood-color="#ff5200" flood-opacity="0.161"/>
      <feComposite operator="in" in2="blur"/>
      <feComposite in="SourceGraphic"/>
    </filter>
    <linearGradient id="linear-gradient-2" x1="0.5" x2="0.5" y2="1" gradientUnits="objectBoundingBox">
      <stop offset="0" stop-color="#fff"/>
      <stop offset="1" stop-color="#fff" stop-opacity="0.451"/>
    </linearGradient>
    <filter id="Path_835" x="58.82" y="19.423" width="76.26" height="48.493" filterUnits="userSpaceOnUse">
      <feOffset dx="5" dy="5" input="SourceAlpha"/>
      <feGaussianBlur stdDeviation="3" result="blur-2"/>
      <feFlood flood-color="#ff8929" flood-opacity="0.161"/>
      <feComposite operator="in" in2="blur-2"/>
      <feComposite in="SourceGraphic"/>
    </filter>
    <linearGradient id="linear-gradient-3" x1="0.243" x2="1.021" y2="1" gradientUnits="objectBoundingBox">
      <stop offset="0" stop-color="#fff"/>
      <stop offset="1" stop-color="#fff" stop-opacity="0.471"/>
    </linearGradient>
    <filter id="Path_837" x="35.246" y="69.806" width="123.408" height="94.812" filterUnits="userSpaceOnUse">
      <feOffset dx="5" dy="5" input="SourceAlpha"/>
      <feGaussianBlur stdDeviation="10" result="blur-3"/>
      <feFlood flood-color="#f63e02" flood-opacity="0.612"/>
      <feComposite operator="in" in2="blur-3"/>
      <feComposite in="SourceGraphic"/>
    </filter>
  </defs>
  <g id="Group_476" data-name="Group 476" transform="translate(-6.075 -6.987)">
    <path id="Path_831" data-name="Path 831" d="M34.415,19.528c-1.482,1.991-4.671,8.771-6.206,12.218L134.824,76.468c1.385-3.516,4.011-10.6,4.374-12.986,2.385-13.563-3.921-25.608-16.943-32.471L69.453,8.862C55.339,4.273,42.467,8.21,34.415,19.528ZM9.266,76.848,28.189,31.738l106.656,44.74-19.074,45.471c-7.8,18.6-24.307,25.124-43.039,17.267L26.9,119.989C8.34,112.205,1.412,95.572,9.266,76.848Z" transform="translate(0 0)" fill-rule="evenodd" fill="url(#linear-gradient)"/>
    <g id="Group_471" data-name="Group 471" transform="translate(26.618 27.241)" opacity="0.5">
      <path id="Path_832" data-name="Path 832" d="M91.226,33.442,61.655,21.507C50.929,17.177,41.93,21.481,37.21,33.173l-15.984,39.6c-4.8,11.884-1.244,21.076,9.482,25.4l29.571,11.936c10.9,4.4,19.66.178,24.457-11.706l15.984-39.6C105.439,47.115,102.125,37.842,91.226,33.442Z" transform="translate(-19.13 -19.858)" fill="#eb6f0a"/>
    </g>
    <g id="Group_472" data-name="Group 472" transform="translate(40.195 40.483)">
      <g transform="matrix(1, 0, 0, 1, -34.12, -33.5)" filter="url(#Path_833)">
        <path id="Path_833-2" data-name="Path 833" d="M28.776,51.662c-.6,2.409-.914,9.9-1,13.667H143.394c-.082-3.778-.4-11.322-.99-13.667-3.047-13.429-13.521-22.1-28.185-23.389H56.961C42.17,29.5,31.823,38.111,28.776,51.662ZM27.758,65.331v48.918c0,20.3,12.823,32.963,32.946,32.963h49.7c20.313,0,33.01-12.4,33.01-32.571V65.331Z" transform="translate(6.36 5.22)" fill="rgba(255,203,185,0.35)" stroke="rgba(255,255,255,0.7)" stroke-width="2" fill-rule="evenodd"/>
      </g>
    </g>
    <g id="Group_473" data-name="Group 473" transform="translate(69.395 30.91)">
      <g transform="matrix(1, 0, 0, 1, -63.32, -23.92)" filter="url(#Path_835)">
        <path id="Path_835-2" data-name="Path 835" d="M56.089,46.735a4.888,4.888,0,1,1-9.776,0V27.144a4.888,4.888,0,1,1,9.776,0Zm47.485,0a4.888,4.888,0,1,1-9.776,0V27.144a4.888,4.888,0,1,1,9.776,0Z" transform="translate(17.01 1.73)" stroke="rgba(255,255,255,0.73)" stroke-width="1" fill-rule="evenodd" fill="url(#linear-gradient-2)"/>
      </g>
    </g>
    <g id="Group_474" data-name="Group 474" transform="translate(66.571 102.043)" style="isolation: isolate">
      <g transform="matrix(1, 0, 0, 1, -60.5, -95.06)" filter="url(#Path_837)">
        <path id="Path_837-2" data-name="Path 837" d="M44.6,71.655a5.242,5.242,0,1,0,5.205-5.532A5.5,5.5,0,0,0,44.6,71.655Zm26.089,0a5.242,5.242,0,1,0,5.205-5.532A5.5,5.5,0,0,0,70.689,71.655Zm26.09,23.318a5.334,5.334,0,1,0,5.269-5.455h-.064A5.341,5.341,0,0,0,96.779,94.973Zm-20.631,5.141a5.281,5.281,0,0,1-5.459-5.14,5.493,5.493,0,0,1,5.205-5.526,5.338,5.338,0,0,1,.254,10.666Zm-26.154,0a5.281,5.281,0,0,1-5.459-5.14,5.493,5.493,0,0,1,5.205-5.526,5.338,5.338,0,0,1,.254,10.666Zm52.053-33.92a5.331,5.331,0,0,0-5.205,5.4v.064a5.24,5.24,0,1,0,10.474-.321A5.328,5.328,0,0,0,102.048,66.194Z" transform="translate(15.96 28.93)" stroke="#fff" stroke-width="0.5" fill-rule="evenodd" fill="url(#linear-gradient-3)"/>
      </g>
    </g>
  </g>
</svg>
