<svg xmlns="http://www.w3.org/2000/svg" xmlns:xlink="http://www.w3.org/1999/xlink" width="97.792" height="96.983" viewBox="0 0 97.792 96.983">
  <defs>
    <linearGradient id="linear-gradient" x1="0.5" x2="0.5" y2="1" gradientUnits="objectBoundingBox">
      <stop offset="0" stop-color="#fff"/>
      <stop offset="1" stop-color="#b2b4bf"/>
    </linearGradient>
  </defs>
  <g id="Group_965" data-name="Group 965" transform="translate(15.117 14.775)">
    <path id="Path_8142" data-name="Path 8142" d="M47.03,10.1A11.84,11.84,0,0,0,37.8,9.375L17.748,14.747A11.86,11.86,0,0,0,10.09,20a11.86,11.86,0,0,0-.718,9.256L14.745,49.3a11.86,11.86,0,0,0,5.249,7.657,11.86,11.86,0,0,0,9.256.717L49.3,52.3a11.892,11.892,0,0,0,7.657-5.249,11.951,11.951,0,0,0,.718-9.256L52.3,17.75A11.969,11.969,0,0,0,47.03,10.1Z" transform="translate(0 0)" fill="#0e112c"/>
    <g id="Group_962" data-name="Group 962" transform="translate(14.883 15.225)" opacity="0.5">
      <path id="Path_8143" data-name="Path 8143" d="M40.079,19.092,24.961,23.309c-5.484,1.53-7.889,5.244-6.54,10.081l4.57,16.385c1.372,4.917,5.334,6.786,10.818,5.257l15.118-4.217c5.572-1.554,7.9-5.18,6.533-10.1l-4.57-16.385C49.541,19.5,45.651,17.537,40.079,19.092Z" transform="translate(-18.053 -18.569)" fill="rgba(35,87,137,0.5)"/>
    </g>
    <g id="Group_963" data-name="Group 963" transform="translate(22.267 20.493)">
      <path id="Path_8144" data-name="Path 8144" d="M74.206,29.943a12.87,12.87,0,0,0-9.492-3.357H42.155a12.891,12.891,0,0,0-9.516,3.357,12.891,12.891,0,0,0-3.357,9.516V62.018a12.891,12.891,0,0,0,3.357,9.516,12.891,12.891,0,0,0,9.516,3.357H64.714a12.926,12.926,0,0,0,9.516-3.357,12.99,12.99,0,0,0,3.357-9.516V39.459A13.011,13.011,0,0,0,74.206,29.943Z" transform="translate(-29.256 -26.561)" fill="rgba(14,17,44,0.35)" stroke="rgba(255,255,255,0.7)" stroke-width="1"/>
    </g>
    <g id="Group_964" data-name="Group 964" transform="translate(33.921 30.302)">
      <path id="Path_8146" data-name="Path 8146" d="M73.32,51.292,57.065,67.6a4.468,4.468,0,0,1-3.116,1.28H48.273a1.15,1.15,0,0,1-.821-.338,1.129,1.129,0,0,1-.314-.821l.145-5.724A4.35,4.35,0,0,1,48.563,59L60.084,47.476a.525.525,0,0,1,.725,0l4.034,4.009a1.517,1.517,0,0,0,1.063.435A1.593,1.593,0,0,0,67.5,50.326a1.636,1.636,0,0,0-.435-1.111c-.073-.1-3.913-3.913-3.913-3.913a.642.642,0,0,1,0-.894l1.618-1.642a3.819,3.819,0,0,1,5.41,0l3.14,3.14A3.834,3.834,0,0,1,73.32,51.292Z" transform="translate(-47.006 -41.511)" fill="url(#linear-gradient)"/>
      <path id="Path_8147" data-name="Path 8147" d="M57,67.527l.092.095h0Zm-9.927.121-.132,0v0Zm.145-5.724.132,0h0Zm1.28-2.995.093.093ZM60.016,47.407l-.093-.093Zm.725,0-.093.093h0Zm4.034,4.009.093-.093h0ZM67,49.146l-.105.079,0,.005,0,0Zm-3.913-3.913-.093.093h0Zm0-.894.093.093h0ZM64.7,42.7l-.093-.093h0Zm5.41,0-.093.093Zm3.14,3.14.093-.093Zm-.093,5.293L56.9,67.434l.187.186,16.255-16.3ZM56.9,67.432a4.336,4.336,0,0,1-3.024,1.243v.264a4.6,4.6,0,0,0,3.208-1.317Zm-3.024,1.243H48.2v.264h5.676Zm-5.676,0a1.018,1.018,0,0,1-.728-.3l-.186.186a1.282,1.282,0,0,0,.914.377Zm-.728-.3a1,1,0,0,1-.275-.728h-.264a1.26,1.26,0,0,0,.353.914Zm-.275-.725.145-5.724-.264-.007-.145,5.724Zm.145-5.725a4.218,4.218,0,0,1,1.242-2.9l-.186-.186a4.482,4.482,0,0,0-1.319,3.085Zm1.242-2.9L60.109,47.5l-.186-.186L48.4,58.835ZM60.109,47.5a.394.394,0,0,1,.538,0l.186-.186a.657.657,0,0,0-.911,0Zm.538,0,4.034,4.009.186-.187-4.034-4.009Zm4.033,4.009a1.649,1.649,0,0,0,1.156.473V51.72a1.385,1.385,0,0,1-.969-.4Zm1.156.473a1.724,1.724,0,0,0,1.726-1.726H67.3a1.461,1.461,0,0,1-1.462,1.462Zm1.726-1.726a1.768,1.768,0,0,0-.469-1.2l-.194.178a1.5,1.5,0,0,1,.4,1.022Zm-.461-1.19c-.011-.015-.038-.043-.066-.072l-.134-.137-.454-.457c-.37-.371-.857-.858-1.342-1.341l-1.328-1.322-.436-.434-.122-.121-.032-.032-.008-.008,0,0h0l-.093.093-.093.094h0l0,0,.008.008.032.032.122.121.436.434,1.328,1.322c.485.483.971.969,1.341,1.34l.452.456.132.135.045.047ZM63.176,45.14a.51.51,0,0,1,0-.707l-.186-.186a.773.773,0,0,0,0,1.08Zm0-.708L64.8,42.79l-.188-.185-1.618,1.642Zm1.618-1.642a3.688,3.688,0,0,1,5.224,0L70.2,42.6a3.951,3.951,0,0,0-5.6,0Zm5.224,0,3.14,3.14.186-.186L70.2,42.6Zm3.14,3.14a3.7,3.7,0,0,1,0,5.2l.188.185a3.966,3.966,0,0,0,0-5.572Z" transform="translate(-46.938 -41.443)" fill="url(#linear-gradient)"/>
    </g>
  </g>
</svg>
