<svg xmlns="http://www.w3.org/2000/svg" xmlns:xlink="http://www.w3.org/1999/xlink" width="168.799" height="164.519" viewBox="0 0 168.799 164.519">
  <defs>
    <filter id="Path_917" x="24.457" y="0" width="144.342" height="164.519" filterUnits="userSpaceOnUse">
      <feOffset dx="5" dy="5" input="SourceAlpha"/>
      <feGaussianBlur stdDeviation="5" result="blur"/>
      <feFlood flood-color="#f63e02" flood-opacity="0.42"/>
      <feComposite operator="in" in2="blur"/>
      <feComposite in="SourceGraphic"/>
    </filter>
    <linearGradient id="linear-gradient" x1="0.435" x2="0.924" y2="1" gradientUnits="objectBoundingBox">
      <stop offset="0" stop-color="#fff" stop-opacity="0.89"/>
      <stop offset="1" stop-color="#fff" stop-opacity="0.529"/>
    </linearGradient>
  </defs>
  <g id="Group_549" data-name="Group 549" transform="translate(0.455 8.676)">
    <path id="Path_915" data-name="Path 915" d="M44.026,25C23.209,25,6,41.645,6,62.239c0,10.378,3.77,20.012,9.986,28.178a96.887,96.887,0,0,0,24.8,23.016,5.359,5.359,0,0,0,6.528,0A98.782,98.782,0,0,0,72.124,90.417c6.212-8.166,9.986-17.8,9.986-28.178C82.11,41.645,64.9,25,44.026,25Z" transform="translate(0 15.856)" fill="#fa8743"/>
    <g id="Group_546" data-name="Group 546" transform="translate(23.545 61.761)" opacity="0.5">
      <path id="Path_916" data-name="Path 916" d="M37.225,37.691c-11.263,0-20.574,8.88-20.574,19.866a24.531,24.531,0,0,0,5.4,15.032,52.139,52.139,0,0,0,13.42,12.278,2.932,2.932,0,0,0,3.532,0A53.163,53.163,0,0,0,52.428,72.59a24.545,24.545,0,0,0,5.4-15.032C57.831,46.571,48.52,37.691,37.225,37.691Z" transform="translate(-16.651 -37.691)" fill="#f63e02"/>
    </g>
    <g id="Group_547" data-name="Group 547" transform="translate(33.178 0.5)">
      <g transform="matrix(1, 0, 0, 1, -33.63, -9.18)" filter="url(#Path_917)">
        <path id="Path_917-2" data-name="Path 917" d="M80.127,1C48.854,1,23,26.006,23,56.945c0,15.59,5.663,30.064,15,42.332a145.549,145.549,0,0,0,37.261,34.577c3.588,2.3,6.538,2.139,9.807,0a148.408,148.408,0,0,0,37.268-34.577c9.332-12.268,15-26.742,15-42.332C137.342,26.006,111.488,1,80.127,1Z" transform="translate(11.46 9)" fill="rgba(246,62,2,0.19)"/>
      </g>
      <path id="Path_918" data-name="Path 918" d="M75.141,134.87h0a9.862,9.862,0,0,0,5.478,1.795,9.715,9.715,0,0,0,5.223-1.8A149.234,149.234,0,0,0,123.318,100.1h0c9.424-12.388,15.17-27.034,15.17-42.831C138.489,25.855,112.246.5,80.45.5,48.742.5,22.5,25.856,22.5,57.269c0,15.8,5.739,30.441,15.169,42.829A146.377,146.377,0,0,0,75.141,134.87Z" transform="translate(-22.5 -0.5)" fill="none" stroke="rgba(255,255,255,0.56)" stroke-linecap="round" stroke-linejoin="round" stroke-width="3"/>
    </g>
    <g id="Group_548" data-name="Group 548" transform="translate(71.558 39.844)">
      <path id="Path_919" data-name="Path 919" d="M64.827,61.934A18.6,18.6,0,0,1,46,43.418a18.872,18.872,0,0,1,37.743,0A18.675,18.675,0,0,1,64.827,61.934Z" transform="translate(-45.671 -24.256)" fill="url(#linear-gradient)"/>
      <path id="Path_920" data-name="Path 920" d="M64.957,61.734a18.274,18.274,0,0,1-18.5-18.187H45.8A18.933,18.933,0,0,0,64.957,62.393Zm-18.5-18.187a18.594,18.594,0,0,1,18.5-18.5v-.659A19.253,19.253,0,0,0,45.8,43.548Zm18.5-18.5a18.666,18.666,0,0,1,18.586,18.5H84.2A19.325,19.325,0,0,0,64.957,24.386Zm18.586,18.5A18.345,18.345,0,0,1,64.957,61.734v.659A19,19,0,0,0,84.2,43.548Z" transform="translate(-45.8 -24.386)" fill="url(#linear-gradient)"/>
    </g>
  </g>
</svg>
