<svg xmlns="http://www.w3.org/2000/svg" width="37.557" height="43.48" viewBox="0 0 37.557 43.48">
  <g id="Group_1177" data-name="Group 1177" transform="translate(-67.798 -372.122)">
    <g id="Group_1175" data-name="Group 1175" transform="translate(69.798 374.122)">
      <g id="Group_958" data-name="Group 958" transform="translate(0 0)">
        <path id="Path_8137" data-name="Path 8137" d="M43.9,21.412a8.874,8.874,0,0,0-8.814,8.9V51.594a9.272,9.272,0,0,0,9.225,9.3H59.863a8.819,8.819,0,0,0,8.775-8.863V32.417l-10.23-11H43.9m0-2H59.28L70.638,31.631v20.4A10.838,10.838,0,0,1,67.49,59.7a10.66,10.66,0,0,1-7.626,3.189H44.306a11.274,11.274,0,0,1-11.225-11.3V30.315A10.871,10.871,0,0,1,43.9,19.412Z" transform="translate(-35.081 -21.412)" fill="#0e112c"/>
      </g>
    </g>
    <g id="Group_1176" data-name="Group 1176" transform="translate(77.357 384.565)">
      <path id="Path_8139" data-name="Path 8139" d="M65.786,74.751a3.147,3.147,0,0,1-3.147-3.14v-4H58.714a3.154,3.154,0,0,1,0-6.309h3.925v-4a3.133,3.133,0,1,1,6.266,0v4h3.953a3.154,3.154,0,0,1,0,6.309H68.9v4A3.133,3.133,0,0,1,65.786,74.751ZM58.714,63.3a1.16,1.16,0,0,0-1.147,1.169,1.145,1.145,0,0,0,1.147,1.14h5.925v6a1.145,1.145,0,0,0,1.147,1.14,1.131,1.131,0,0,0,1.119-1.14v-6h5.953a1.145,1.145,0,0,0,1.147-1.14A1.16,1.16,0,0,0,72.858,63.3H66.9v-6a1.131,1.131,0,0,0-1.119-1.14,1.145,1.145,0,0,0-1.147,1.14v6Z" transform="translate(-56.566 -55.156)" fill="#0e112c"/>
    </g>
  </g>
</svg>
