<svg xmlns="http://www.w3.org/2000/svg" width="14.747" height="15.056" viewBox="0 0 14.747 15.056">
  <g id="Group_816" data-name="Group 816" transform="translate(-2.25 -2.412)">
    <path id="Path_802" data-name="Path 802" d="M12.742,3.579H6.511A3.167,3.167,0,0,0,3,7v6.66a3.2,3.2,0,0,0,3.511,3.48h6.224a3.169,3.169,0,0,0,3.511-3.424V7A3.155,3.155,0,0,0,12.742,3.579Z" transform="translate(0 -0.417)" fill="none" stroke="#f63e02" stroke-linecap="round" stroke-linejoin="round" stroke-width="1.5" fill-rule="evenodd"/>
    <g id="Group_817" data-name="Group 817" transform="translate(7.299 3.162)">
      <g id="Group_792" data-name="Group 792">
        <path id="Path_8021" data-name="Path 8021" d="M54.546,0H50.673a.387.387,0,0,0-.387.387l.193,13.555a14.434,14.434,0,0,0,4.291,0L54.934.387A.387.387,0,0,0,54.546,0Zm-.387,2.324h-.775V3.1h.775V4.648H52.61v.775h1.549V6.971h-.775v.775h.775V9.3H52.61v.775h1.549v1.549h-.775v.775h.775v1.549h-3.1V.775h3.1Z" transform="translate(-50.286 0)" fill="#f63e02" stroke="#f63e02" stroke-width="0.1"/>
      </g>
    </g>
  </g>
</svg>
