<svg xmlns="http://www.w3.org/2000/svg" width="23.73" height="24.992" viewBox="0 0 23.73 24.992">
  <g id="Iconly_Light_Home" data-name="Iconly/Light/Home" transform="translate(-1.25 -0.606)">
    <g id="Home" transform="translate(2.5 2)">
      <path id="Home-2" data-name="Home" d="M7.439,20.975V17.548A1.594,1.594,0,0,1,9.03,15.963h3.225a1.594,1.594,0,0,1,1.6,1.586h0v3.437A1.369,1.369,0,0,0,15.2,22.348h2.15a3.861,3.861,0,0,0,3.881-3.842h0V8.758A2.726,2.726,0,0,0,20.156,6.63L12.8.766A3.554,3.554,0,0,0,8.4.766L1.075,6.64A2.7,2.7,0,0,0,0,8.769v9.738a3.861,3.861,0,0,0,3.881,3.842h2.15a1.38,1.38,0,0,0,1.387-1.373h0" transform="translate(0 0)" fill="none" stroke="#1e2022" stroke-linecap="round" stroke-linejoin="round" stroke-miterlimit="10" stroke-width="2.5"/>
    </g>
  </g>
</svg>
