<svg xmlns="http://www.w3.org/2000/svg" width="15.203" height="15.203" viewBox="0 0 15.203 15.203">
  <g id="Group_562" data-name="Group 562" transform="translate(0.25 0.25)">
    <path id="Path_741" data-name="Path 741" d="M6.165,3.1A2.959,2.959,0,0,0,3.1,6.349v6A2.959,2.959,0,0,0,6.165,15.6h6.372A2.96,2.96,0,0,0,15.6,12.354v-6A2.959,2.959,0,0,0,12.538,3.1Zm6.372,13.6H6.165A4.033,4.033,0,0,1,2,12.354v-6A4.033,4.033,0,0,1,6.165,2h6.373A4.033,4.033,0,0,1,16.7,6.349v6A4.034,4.034,0,0,1,12.537,16.7Z" transform="translate(-2 -2)" fill="#f63e02" stroke="#f63e02" stroke-width="0.5" fill-rule="evenodd"/>
    <path id="Path_742" data-name="Path 742" d="M14.293,12.68a.556.556,0,0,1-.282-.077l-2.493-1.487a.554.554,0,0,1-.269-.473V7.435a.551.551,0,1,1,1.1,0v2.894l2.225,1.325a.552.552,0,0,1-.283,1.026Z" transform="translate(-4.45 -3.293)" fill="#f63e02" stroke="#f63e02" stroke-width="0.5" fill-rule="evenodd"/>
  </g>
</svg>
