<svg width="14" height="14" viewBox="0 0 14 14" fill="none" xmlns="http://www.w3.org/2000/svg">
    <path
        d="M11.9999 13.5H11.9149C2.08988 12.935 0.69488 4.645 0.49988 2.115C0.484167 1.91829 0.507424 1.72041 0.568317 1.53271C0.62921 1.345 0.726543 1.17115 0.854738 1.02113C0.982934 0.8711 1.13947 0.747844 1.31538 0.65842C1.4913 0.568996 1.68313 0.515161 1.87988 0.5H4.63488C4.83516 0.499807 5.03088 0.559755 5.1967 0.672081C5.36251 0.784407 5.49078 0.943935 5.56488 1.13L6.32488 3C6.39806 3.18177 6.41621 3.38104 6.3771 3.57305C6.33799 3.76505 6.24333 3.94134 6.10488 4.08L5.03988 5.155C5.20624 6.10038 5.65897 6.97183 6.33683 7.65148C7.01468 8.33113 7.88495 8.78615 8.82988 8.955L9.91488 7.88C10.0556 7.74308 10.2336 7.65063 10.4265 7.61417C10.6195 7.57771 10.8189 7.59887 10.9999 7.675L12.8849 8.43C13.0681 8.50644 13.2245 8.63571 13.334 8.80134C13.4435 8.96696 13.5013 9.16144 13.4999 9.36V12C13.4999 12.3978 13.3418 12.7794 13.0605 13.0607C12.7792 13.342 12.3977 13.5 11.9999 13.5ZM1.99988 1.5C1.86727 1.5 1.74009 1.55268 1.64633 1.64645C1.55256 1.74022 1.49988 1.86739 1.49988 2V2.04C1.72988 5 3.20488 12 11.9699 12.5C12.0356 12.5041 12.1014 12.4951 12.1636 12.4737C12.2259 12.4522 12.2832 12.4187 12.3325 12.375C12.3817 12.3314 12.4218 12.2784 12.4506 12.2192C12.4793 12.16 12.4961 12.0957 12.4999 12.03V9.36L10.6149 8.605L9.17988 10.03L8.93988 10C4.58988 9.455 3.99988 5.105 3.99988 5.06L3.96988 4.82L5.38988 3.385L4.63988 1.5H1.99988Z"
        fill="#E56B6E" />
</svg>
