<svg width="14" height="14" viewBox="0 0 14 14" fill="none" xmlns="http://www.w3.org/2000/svg">
    <path
        d="M7 0C5.61553 0 4.26216 0.410543 3.11101 1.17971C1.95987 1.94888 1.06266 3.04213 0.532846 4.32122C0.00303298 5.6003 -0.13559 7.00777 0.134506 8.36563C0.404603 9.7235 1.07129 10.9708 2.05026 11.9497C3.02922 12.9287 4.2765 13.5954 5.63437 13.8655C6.99224 14.1356 8.39971 13.997 9.67879 13.4672C10.9579 12.9373 12.0511 12.0401 12.8203 10.889C13.5895 9.73785 14 8.38447 14 7C13.9979 5.14413 13.2597 3.36489 11.9474 2.05259C10.6351 0.740295 8.85587 0.00211736 7 0ZM1 7C1.00052 6.15775 1.17895 5.3251 1.52361 4.5566C1.86827 3.78809 2.37139 3.10106 3 2.5405V3.5C3 3.76522 3.10536 4.01957 3.2929 4.20711C3.48043 4.39464 3.73479 4.5 4 4.5H5.691C5.87684 4.50009 6.05902 4.44839 6.2171 4.35071C6.37519 4.25303 6.50294 4.11323 6.586 3.947L6.8085 3.5H8V5.5H5.6175C5.46255 5.49993 5.30969 5.53588 5.171 5.605L3.5525 6.415C3.38659 6.49802 3.24705 6.62556 3.14947 6.78336C3.0519 6.94115 3.00015 7.12298 3 7.3085V9.161C2.99999 9.36085 3.05986 9.55612 3.17188 9.72162C3.28391 9.88712 3.44296 10.0153 3.6285 10.0895L5.553 10.8595L5.892 12.8925C4.51833 12.633 3.27817 11.9025 2.38519 10.8269C1.49222 9.75134 1.00236 8.39797 1 7ZM6.923 12.996L6.447 10.14L4 9.1615V7.309L5.618 6.5H9V2.5H6.191L5.691 3.5H4V1.8115C4.76122 1.36838 5.61094 1.09893 6.48841 1.02239C7.36588 0.945858 8.24942 1.06414 9.07586 1.36877C9.9023 1.67341 10.6512 2.15688 11.2691 2.78461C11.887 3.41235 12.3585 4.16884 12.65 5H10V7L10.461 8.9065L9.5 10.349V12.4475C8.7166 12.8108 7.86354 12.9993 7 13C6.974 13 6.949 12.9965 6.923 12.996ZM10.5 11.8635V10.6515L11.293 9.4615C11.3703 9.34553 11.4226 9.21469 11.4464 9.07737C11.4703 8.94004 11.4652 8.79925 11.4315 8.664L11 6.9385V6H12.91C13.1055 7.10528 12.9827 8.24336 12.556 9.28153C12.1293 10.3197 11.4163 11.2152 10.5 11.8635Z"
        fill="#E56B6E" />
</svg>
