<svg width="18" height="20" viewBox="0 0 18 20" fill="none" xmlns="http://www.w3.org/2000/svg">
    <path id="Vector"
        d="M5 7.99989V14.9999H13V7.99989C13 6.93902 12.5786 5.9216 11.8284 5.17146C11.0783 4.42131 10.0609 3.99989 9 3.99989C7.93913 3.99989 6.92172 4.42131 6.17157 5.17146C5.42143 5.9216 5 6.93902 5 7.99989ZM7.03 2.32989C6.9844 2.0442 7.00132 1.75201 7.0796 1.4735C7.15788 1.19498 7.29565 0.936768 7.48341 0.716665C7.67117 0.496562 7.90444 0.319813 8.16714 0.198613C8.42983 0.0774136 8.71569 0.0146484 9.005 0.0146484C9.29431 0.0146484 9.58017 0.0774136 9.84286 0.198613C10.1056 0.319813 10.3388 0.496562 10.5266 0.716665C10.7143 0.936768 10.8521 1.19498 10.9304 1.4735C11.0087 1.75201 11.0256 2.0442 10.98 2.32989C12.1557 2.74088 13.1743 3.50753 13.8946 4.52351C14.615 5.5395 15.0013 6.75446 15 7.99989V13.9999L18 15.9999V16.9999H0V15.9999L3 13.9999V7.99989C2.99945 6.75324 3.38723 5.53739 4.10945 4.52126C4.83167 3.50513 5.85247 2.7392 7.03 2.32989ZM11 17.9999C11 18.5303 10.7893 19.039 10.4142 19.4141C10.0391 19.7892 9.53043 19.9999 9 19.9999C8.46957 19.9999 7.96086 19.7892 7.58579 19.4141C7.21071 19.039 7 18.5303 7 17.9999H11Z"
        fill="#E56B6E" />
</svg>
