<svg width="22" height="21" viewBox="0 0 22 21" fill="none" xmlns="http://www.w3.org/2000/svg">
    <path
        d="M20.3301 11.9096C20.4201 13.4596 19.7101 14.9496 18.4401 15.8596L19.2101 17.3496C19.4401 17.7996 19.4701 18.3296 19.2701 18.7996C19.0801 19.2696 18.6901 19.6396 18.2101 19.7996L17.4201 20.0496C17.0911 20.1604 16.736 20.167 16.4031 20.0686C16.0702 19.9702 15.7758 19.7715 15.5601 19.4996L13.4401 16.9996C12.5501 16.8496 11.7101 16.4696 11.0001 15.8996C10.5001 16.0496 10.0001 16.1296 9.50006 16.1296C8.62006 16.1296 7.74006 15.8596 7.00006 15.3396C6.47006 15.4996 5.93006 15.5696 5.38006 15.5596C4.59006 15.5696 3.81006 15.4096 3.08006 15.1096C2.3774 14.7961 1.77699 14.2914 1.34734 13.6531C0.917681 13.0148 0.676067 12.2686 0.650057 11.4996C0.570057 10.7796 0.690057 10.0496 1.00006 9.38958C0.710057 8.63958 0.680057 7.81958 0.930057 7.05958C1.30006 6.10958 2.00006 5.31958 2.87006 4.81958C3.45006 3.12958 5.08006 1.99958 6.87006 2.11958C8.47006 0.619583 10.9201 0.459583 12.7001 1.74958C13.1201 1.63958 13.5601 1.57958 14.0001 1.57958C15.3601 1.54958 16.6501 2.14958 17.5001 3.21958C19.5401 3.74958 21.0001 5.56958 21.0801 7.68958C21.1301 8.79958 20.8301 9.88958 20.2201 10.8196C20.2901 11.1796 20.3301 11.5396 20.3301 11.9096ZM15.3301 10.4996C15.9001 10.5696 16.3501 10.9996 16.3501 11.5696C16.3501 11.8348 16.2447 12.0892 16.0572 12.2767C15.8696 12.4642 15.6153 12.5696 15.3501 12.5696H14.7201C14.4001 13.4696 13.8401 14.2596 13.1001 14.8596C13.3501 14.9496 13.6101 14.9996 13.8701 15.0696C19.0001 14.9996 18.4001 11.8696 18.4001 11.8196C18.3735 11.1327 18.0752 10.4844 17.5707 10.0175C17.0663 9.55053 16.397 9.30308 15.7101 9.32958C15.4448 9.32958 15.1905 9.22423 15.003 9.03669C14.8154 8.84915 14.7101 8.5948 14.7101 8.32958C14.7101 8.06437 14.8154 7.81001 15.003 7.62248C15.1905 7.43494 15.4448 7.32958 15.7101 7.32958C16.9401 7.35958 18.1201 7.81958 19.0401 8.62958C19.0901 8.33958 19.1201 8.03958 19.1201 7.73958C19.0601 6.49958 18.5001 5.41958 16.2501 5.20958C15.0001 2.24958 11.8501 3.88958 11.8501 4.80958C11.8201 5.03958 12.0601 5.52958 12.1001 5.55958C12.3653 5.55958 12.6196 5.66494 12.8072 5.85248C12.9947 6.04001 13.1001 6.29437 13.1001 6.55958C13.1001 7.10958 12.6501 7.55958 12.1001 7.55958C11.5701 7.53958 11.0701 7.33958 10.6701 6.99958C10.1901 7.30958 9.64006 7.49958 9.07006 7.55958C8.50006 7.60958 8.03006 7.20958 8.00006 6.65958C7.98163 6.52896 7.9901 6.39594 8.02495 6.26871C8.0598 6.14147 8.12028 6.0227 8.20269 5.91969C8.2851 5.81668 8.3877 5.7316 8.50418 5.66967C8.62066 5.60775 8.74857 5.57028 8.88006 5.55958C9.04006 5.53958 9.82006 5.41958 9.82006 4.78958C9.82006 4.12958 10.0701 3.49958 10.5001 2.99958C9.58006 2.74958 8.59006 3.07958 7.59006 4.28958C5.75006 3.99958 5.00006 4.24958 4.45006 6.19958C3.50006 6.66958 3.00006 6.99958 2.78006 7.99958C3.86006 7.77958 4.97006 7.86958 6.00006 8.24958C6.50006 8.43958 6.78006 8.99958 6.59006 9.53958C6.40006 10.0596 5.82006 10.3196 5.30006 10.1296C4.57006 9.80958 3.75006 9.78958 3.00006 10.0696C2.68006 10.3396 2.68006 10.8996 2.68006 11.3396C2.68006 12.0796 3.05006 12.7696 3.68006 13.1696C4.21006 13.4396 4.80006 13.5796 5.39006 13.5696C5.24006 13.3096 5.11006 13.0396 5.00006 12.7596C4.92133 12.5027 4.94531 12.2252 5.06695 11.9856C5.18859 11.746 5.39841 11.5629 5.65228 11.4748C5.90616 11.3867 6.18429 11.4006 6.42819 11.5133C6.67209 11.6261 6.86274 11.8291 6.96006 12.0796C7.36006 13.2196 8.38006 13.9996 9.58006 14.1296C10.9501 14.0596 12.1701 13.2496 12.7701 11.9996C13.0001 10.6196 14.1101 10.4996 15.3301 10.4996ZM17.3301 17.9696L16.7101 16.6696L16.0001 16.8296L17.0001 18.0796L17.3301 17.9696ZM12.6801 9.35958C12.6887 9.10412 12.5993 8.85503 12.43 8.66347C12.2608 8.47192 12.0246 8.35244 11.7701 8.32958C11.0601 8.28958 10.3701 8.52958 9.84006 8.99958C9.27006 9.57958 8.97006 10.3796 9.00006 11.1896C9.00006 11.4548 9.10541 11.7092 9.29295 11.8967C9.48049 12.0842 9.73484 12.1896 10.0001 12.1896C10.5701 12.1896 11.0001 11.7396 11.0001 11.1896C11.0001 10.9196 11.0701 10.6496 11.2301 10.4296C11.3501 10.3296 11.5001 10.2796 11.6601 10.2796C12.2101 10.3096 12.6801 9.89958 12.6801 9.35958Z"
        fill="#E56B6E" />
</svg>
