<svg width="18" height="18" viewBox="0 0 18 18" fill="none" xmlns="http://www.w3.org/2000/svg">
    <path
        d="M14.9252 9.49504C14.8049 9.35818 14.7386 9.18222 14.7386 9.00004C14.7386 8.81786 14.8049 8.64191 14.9252 8.50504L15.8852 7.42504C15.991 7.30704 16.0566 7.15857 16.0728 7.00092C16.089 6.84328 16.0548 6.68456 15.9752 6.54754L14.4752 3.95254C14.3963 3.81568 14.2763 3.7072 14.1322 3.64256C13.9881 3.57791 13.8273 3.56041 13.6727 3.59254L12.2627 3.87754C12.0833 3.91461 11.8965 3.88473 11.7376 3.79354C11.5787 3.70235 11.4587 3.55616 11.4002 3.38254L10.9427 2.01004C10.8924 1.86108 10.7965 1.73169 10.6686 1.64017C10.5408 1.54866 10.3874 1.49964 10.2302 1.50004H7.23017C7.06662 1.49151 6.90477 1.53674 6.76934 1.62883C6.63391 1.72092 6.53235 1.85481 6.48017 2.01004L6.06017 3.38254C6.00167 3.55616 5.88165 3.70235 5.72275 3.79354C5.56386 3.88473 5.37708 3.91461 5.19767 3.87754L3.75017 3.59254C3.60358 3.57183 3.45414 3.59496 3.32068 3.65902C3.18721 3.72309 3.07569 3.82521 3.00017 3.95254L1.50017 6.54754C1.41854 6.68303 1.38183 6.84086 1.3953 6.99846C1.40877 7.15606 1.47173 7.30537 1.57517 7.42504L2.52767 8.50504C2.64791 8.64191 2.71422 8.81786 2.71422 9.00004C2.71422 9.18222 2.64791 9.35818 2.52767 9.49504L1.57517 10.575C1.47173 10.6947 1.40877 10.844 1.3953 11.0016C1.38183 11.1592 1.41854 11.3171 1.50017 11.4525L3.00017 14.0475C3.07899 14.1844 3.19901 14.2929 3.34311 14.3575C3.48721 14.4222 3.64803 14.4397 3.80267 14.4075L5.21267 14.1225C5.39208 14.0855 5.57886 14.1154 5.73775 14.2065C5.89665 14.2977 6.01667 14.4439 6.07517 14.6175L6.53267 15.99C6.58485 16.1453 6.68641 16.2792 6.82184 16.3713C6.95727 16.4633 7.11912 16.5086 7.28267 16.5H10.2827C10.4399 16.5004 10.5933 16.4514 10.7211 16.3599C10.849 16.2684 10.9449 16.139 10.9952 15.99L11.4527 14.6175C11.5112 14.4439 11.6312 14.2977 11.7901 14.2065C11.949 14.1154 12.1358 14.0855 12.3152 14.1225L13.7252 14.4075C13.8798 14.4397 14.0406 14.4222 14.1847 14.3575C14.3288 14.2929 14.4488 14.1844 14.5277 14.0475L16.0277 11.4525C16.1073 11.3155 16.1415 11.1568 16.1253 10.9992C16.1091 10.8415 16.0435 10.693 15.9377 10.575L14.9252 9.49504ZM13.8077 10.5L14.4077 11.175L13.4477 12.84L12.5627 12.66C12.0225 12.5496 11.4606 12.6414 10.9836 12.9179C10.5066 13.1944 10.1478 13.6364 9.97517 14.16L9.69017 15H7.77017L7.50017 14.145C7.32756 13.6214 6.9687 13.1794 6.49172 12.9029C6.01474 12.6264 5.45283 12.5346 4.91267 12.645L4.02767 12.825L3.05267 11.1675L3.65267 10.4925C4.02163 10.08 4.22562 9.54599 4.22562 8.99254C4.22562 8.43909 4.02163 7.90506 3.65267 7.49254L3.05267 6.81754L4.01267 5.16754L4.89767 5.34754C5.43783 5.45796 5.99974 5.3662 6.47672 5.08969C6.9537 4.81318 7.31256 4.37116 7.48517 3.84754L7.77017 3.00004H9.69017L9.97517 3.85504C10.1478 4.37866 10.5066 4.82068 10.9836 5.09719C11.4606 5.3737 12.0225 5.46546 12.5627 5.35504L13.4477 5.17504L14.4077 6.84004L13.8077 7.51504C13.4428 7.92661 13.2414 8.45755 13.2414 9.00754C13.2414 9.55753 13.4428 10.0885 13.8077 10.5ZM8.73017 6.00004C8.13682 6.00004 7.5568 6.17599 7.06346 6.50563C6.57011 6.83528 6.18559 7.30381 5.95853 7.85199C5.73146 8.40017 5.67205 9.00337 5.78781 9.58531C5.90357 10.1673 6.18929 10.7018 6.60885 11.1214C7.0284 11.5409 7.56295 11.8266 8.1449 11.9424C8.72684 12.0582 9.33004 11.9987 9.87822 11.7717C10.4264 11.5446 10.8949 11.1601 11.2246 10.6668C11.5542 10.1734 11.7302 9.59339 11.7302 9.00004C11.7302 8.20439 11.4141 7.44133 10.8515 6.87872C10.2889 6.31611 9.52582 6.00004 8.73017 6.00004ZM8.73017 10.5C8.43349 10.5 8.14348 10.4121 7.89681 10.2472C7.65014 10.0824 7.45788 9.84816 7.34435 9.57407C7.23082 9.29998 7.20111 8.99838 7.25899 8.70741C7.31687 8.41644 7.45973 8.14916 7.66951 7.93938C7.87928 7.7296 8.14656 7.58674 8.43753 7.52886C8.7285 7.47099 9.0301 7.50069 9.30419 7.61422C9.57828 7.72776 9.81255 7.92001 9.97737 8.16669C10.1422 8.41336 10.2302 8.70337 10.2302 9.00004C10.2302 9.39787 10.0721 9.7794 9.79083 10.0607C9.50952 10.342 9.12799 10.5 8.73017 10.5Z"
        fill="#E56B6E" />
</svg>
