<svg width="16" height="16" viewBox="0 0 16 16" fill="none" xmlns="http://www.w3.org/2000/svg">
    <path
        d="M13.25 5C12.7199 4.999 12.2065 5.18564 11.8008 5.52687C11.3951 5.86811 11.1233 6.34191 11.0335 6.86437C10.9436 7.38682 11.0416 7.92421 11.31 8.38135C11.5784 8.83849 12 9.18588 12.5 9.362V10.625C12.5 11.5201 12.1444 12.3785 11.5115 13.0115C10.8785 13.6444 10.0201 14 9.125 14C8.22989 14 7.37145 13.6444 6.73851 13.0115C6.10558 12.3785 5.75 11.5201 5.75 10.625V10.1825C6.79754 10.0048 7.74851 9.46247 8.43475 8.65132C9.121 7.84018 9.49833 6.81249 9.5 5.75V1.25C9.5 1.05109 9.42098 0.860322 9.28033 0.71967C9.13968 0.579018 8.94891 0.5 8.75 0.5H7.25C7.05109 0.5 6.86032 0.579018 6.71967 0.71967C6.57902 0.860322 6.5 1.05109 6.5 1.25C6.5 1.44891 6.57902 1.63968 6.71967 1.78033C6.86032 1.92098 7.05109 2 7.25 2H8V5.75C8 6.54565 7.68393 7.30871 7.12132 7.87132C6.55871 8.43393 5.79565 8.75 5 8.75C4.20435 8.75 3.44129 8.43393 2.87868 7.87132C2.31607 7.30871 2 6.54565 2 5.75V2H2.75C2.94891 2 3.13968 1.92098 3.28033 1.78033C3.42098 1.63968 3.5 1.44891 3.5 1.25C3.5 1.05109 3.42098 0.860322 3.28033 0.71967C3.13968 0.579018 2.94891 0.5 2.75 0.5H1.25C1.05109 0.5 0.860322 0.579018 0.71967 0.71967C0.579018 0.860322 0.5 1.05109 0.5 1.25V5.75C0.501674 6.81249 0.878996 7.84018 1.56525 8.65132C2.25149 9.46247 3.20246 10.0048 4.25 10.1825V10.625C4.25 11.9179 4.76361 13.1579 5.67785 14.0721C6.59209 14.9864 7.83207 15.5 9.125 15.5C10.4179 15.5 11.6579 14.9864 12.5721 14.0721C13.4864 13.1579 14 11.9179 14 10.625V9.362C14.5 9.18588 14.9216 8.83849 15.19 8.38135C15.4584 7.92421 15.5564 7.38682 15.4665 6.86437C15.3767 6.34191 15.1049 5.86811 14.6992 5.52687C14.2935 5.18564 13.7801 4.999 13.25 5ZM13.25 8C13.1017 8 12.9567 7.95601 12.8333 7.8736C12.71 7.79119 12.6139 7.67406 12.5571 7.53701C12.5003 7.39997 12.4855 7.24917 12.5144 7.10368C12.5434 6.9582 12.6148 6.82456 12.7197 6.71967C12.8246 6.61478 12.9582 6.54335 13.1037 6.51441C13.2492 6.48547 13.4 6.50032 13.537 6.55709C13.6741 6.61386 13.7912 6.70999 13.8736 6.83332C13.956 6.95666 14 7.10166 14 7.25C13.9998 7.44885 13.9207 7.6395 13.7801 7.78011C13.6395 7.92072 13.4489 7.9998 13.25 8Z"
        fill="#E56B6E" />
</svg>
