<svg width="48" height="48" viewBox="0 0 48 48" fill="none" xmlns="http://www.w3.org/2000/svg">
    <path
        d="M18.1665 20.5008H23.9999C24.6187 20.5008 25.2122 20.255 25.6498 19.8174C26.0874 19.3798 26.3332 18.7863 26.3332 18.1675C26.3332 17.5486 26.0874 16.9551 25.6498 16.5176C25.2122 16.08 24.6187 15.8341 23.9999 15.8341H21.6665V14.6675C21.6665 14.0486 21.4207 13.4551 20.9831 13.0176C20.5455 12.58 19.952 12.3341 19.3332 12.3341C18.7143 12.3341 18.1209 12.58 17.6833 13.0176C17.2457 13.4551 16.9999 14.0486 16.9999 14.6675V15.9508C15.5822 16.2387 14.322 17.043 13.4641 18.2078C12.6061 19.3725 12.2115 20.8144 12.3569 22.2537C12.5022 23.693 13.1772 25.0269 14.2508 25.9965C15.3244 26.9662 16.7199 27.5023 18.1665 27.5008H20.4999C20.8093 27.5008 21.106 27.6237 21.3248 27.8425C21.5436 28.0613 21.6665 28.3581 21.6665 28.6675C21.6665 28.9769 21.5436 29.2736 21.3248 29.4924C21.106 29.7112 20.8093 29.8341 20.4999 29.8341H14.6665C14.0477 29.8341 13.4542 30.08 13.0166 30.5176C12.579 30.9551 12.3332 31.5486 12.3332 32.1675C12.3332 32.7863 12.579 33.3798 13.0166 33.8174C13.4542 34.255 14.0477 34.5008 14.6665 34.5008H16.9999V35.6675C16.9999 36.2863 17.2457 36.8798 17.6833 37.3174C18.1209 37.755 18.7143 38.0008 19.3332 38.0008C19.952 38.0008 20.5455 37.755 20.9831 37.3174C21.4207 36.8798 21.6665 36.2863 21.6665 35.6675V34.3841C23.0842 34.0963 24.3443 33.2919 25.2023 32.1272C26.0603 30.9625 26.4549 29.5205 26.3095 28.0812C26.1641 26.6419 25.4891 25.308 24.4156 24.3384C23.342 23.3688 21.9465 22.8327 20.4999 22.8341H18.1665C17.8571 22.8341 17.5604 22.7112 17.3416 22.4924C17.1228 22.2736 16.9999 21.9769 16.9999 21.6675C16.9999 21.3581 17.1228 21.0613 17.3416 20.8425C17.5604 20.6237 17.8571 20.5008 18.1665 20.5008ZM44.9999 24.0008H37.9999V3.00081C38.0015 2.58965 37.8944 2.18537 37.6896 1.82888C37.4847 1.4724 37.1893 1.17639 36.8332 0.970811C36.4785 0.766018 36.0761 0.658203 35.6665 0.658203C35.2569 0.658203 34.8546 0.766018 34.4999 0.970811L27.4999 4.98414L20.4999 0.970811C20.1451 0.766018 19.7428 0.658203 19.3332 0.658203C18.9236 0.658203 18.5212 0.766018 18.1665 0.970811L11.1665 4.98414L4.16652 0.970811C3.81181 0.766018 3.40944 0.658203 2.99986 0.658203C2.59027 0.658203 2.1879 0.766018 1.83319 0.970811C1.47711 1.17639 1.18168 1.4724 0.976805 1.82888C0.77193 2.18537 0.66489 2.58965 0.666522 3.00081V40.3341C0.666522 42.1907 1.40402 43.9711 2.71677 45.2839C4.02953 46.5966 5.81001 47.3341 7.66652 47.3341H40.3332C42.1897 47.3341 43.9702 46.5966 45.2829 45.2839C46.5957 43.9711 47.3332 42.1907 47.3332 40.3341V26.3341C47.3332 25.7153 47.0874 25.1218 46.6498 24.6842C46.2122 24.2466 45.6187 24.0008 44.9999 24.0008ZM7.66652 42.6675C7.04768 42.6675 6.45419 42.4216 6.01661 41.9841C5.57902 41.5465 5.33319 40.953 5.33319 40.3341V7.03748L9.99986 9.69748C10.36 9.88557 10.7602 9.98381 11.1665 9.98381C11.5728 9.98381 11.9731 9.88557 12.3332 9.69748L19.3332 5.68414L26.3332 9.69748C26.6933 9.88557 27.0936 9.98381 27.4999 9.98381C27.9061 9.98381 28.3064 9.88557 28.6665 9.69748L33.3332 7.03748V40.3341C33.3395 41.1301 33.4815 41.9192 33.7532 42.6675H7.66652ZM42.6665 40.3341C42.6665 40.953 42.4207 41.5465 41.9831 41.9841C41.5455 42.4216 40.952 42.6675 40.3332 42.6675C39.7143 42.6675 39.1209 42.4216 38.6833 41.9841C38.2457 41.5465 37.9999 40.953 37.9999 40.3341V28.6675H42.6665V40.3341Z"
        fill="#E56B6E" />
</svg>
