<svg width="16" height="16" viewBox="0 0 16 16" fill="none" xmlns="http://www.w3.org/2000/svg">
    <path
        d="M10.7824 8.53272C11.5177 7.95421 12.0544 7.16091 12.3178 6.26317C12.5812 5.36544 12.5583 4.40791 12.2522 3.52382C11.9461 2.63972 11.3721 1.87301 10.6099 1.33036C9.84779 0.787705 8.93546 0.496094 7.99988 0.496094C7.06429 0.496094 6.15196 0.787705 5.38982 1.33036C4.62768 1.87301 4.05363 2.63972 3.74753 3.52382C3.44144 4.40791 3.41851 5.36544 3.68195 6.26317C3.94538 7.16091 4.48208 7.95421 5.21738 8.53272C3.95743 9.0375 2.85809 9.87473 2.03654 10.9552C1.215 12.0356 0.702048 13.3187 0.552375 14.6677C0.541541 14.7662 0.550213 14.8659 0.577895 14.961C0.605576 15.0561 0.651726 15.1449 0.713709 15.2222C0.83889 15.3783 1.02096 15.4783 1.21988 15.5002C1.41879 15.5221 1.61825 15.4641 1.77437 15.3389C1.93049 15.2137 2.0305 15.0316 2.05238 14.8327C2.21706 13.3666 2.91614 12.0126 4.01604 11.0293C5.11594 10.046 6.53955 9.50249 8.01488 9.50249C9.4902 9.50249 10.9138 10.046 12.0137 11.0293C13.1136 12.0126 13.8127 13.3666 13.9774 14.8327C13.9978 15.017 14.0857 15.1872 14.2242 15.3105C14.3627 15.4337 14.542 15.5013 14.7274 15.5002H14.8099C15.0065 15.4776 15.1862 15.3782 15.3098 15.2237C15.4334 15.0691 15.491 14.872 15.4699 14.6752C15.3195 13.3224 14.8038 12.036 13.978 10.9539C13.1522 9.87178 12.0476 9.03483 10.7824 8.53272ZM7.99988 8.00022C7.40653 8.00022 6.82651 7.82427 6.33317 7.49462C5.83982 7.16498 5.4553 6.69644 5.22824 6.14827C5.00117 5.60009 4.94176 4.99689 5.05752 4.41494C5.17327 3.833 5.459 3.29845 5.87855 2.8789C6.29811 2.45934 6.83266 2.17362 7.41461 2.05786C7.99655 1.9421 8.59975 2.00151 9.14793 2.22858C9.69611 2.45564 10.1646 2.84016 10.4943 3.3335C10.8239 3.82685 10.9999 4.40687 10.9999 5.00022C10.9999 5.79587 10.6838 6.55893 10.1212 7.12154C9.55859 7.68415 8.79553 8.00022 7.99988 8.00022Z"
        fill="#E56B6E" />
</svg>
