<svg width="8" height="6" viewBox="0 0 8 6" fill="none" xmlns="http://www.w3.org/2000/svg">
    <path
        d="M7.33346 1.11348C7.20855 0.989311 7.03959 0.919617 6.86346 0.919617C6.68734 0.919617 6.51837 0.989311 6.39346 1.11348L4.00013 3.47348L1.64013 1.11348C1.51522 0.989311 1.34625 0.919617 1.17013 0.919617C0.994005 0.919617 0.825037 0.989311 0.700129 1.11348C0.637643 1.17545 0.588047 1.24919 0.554201 1.33043C0.520355 1.41167 0.50293 1.4988 0.50293 1.58681C0.50293 1.67482 0.520355 1.76196 0.554201 1.8432C0.588047 1.92444 0.637643 1.99817 0.700129 2.06014L3.5268 4.88681C3.58877 4.9493 3.6625 4.99889 3.74374 5.03274C3.82498 5.06658 3.91212 5.08401 4.00013 5.08401C4.08814 5.08401 4.17527 5.06658 4.25651 5.03274C4.33775 4.99889 4.41149 4.9493 4.47346 4.88681L7.33346 2.06014C7.39595 1.99817 7.44554 1.92444 7.47939 1.8432C7.51324 1.76196 7.53066 1.67482 7.53066 1.58681C7.53066 1.4988 7.51324 1.41167 7.47939 1.33043C7.44554 1.24919 7.39595 1.17545 7.33346 1.11348Z"
        fill="#6A6A9F" />
</svg>
