<svg width="46" height="34" viewBox="0 0 46 34" fill="none" xmlns="http://www.w3.org/2000/svg">
    <path
        d="M43.1298 2.63031C42.851 2.34913 42.5192 2.12595 42.1536 1.97364C41.788 1.82133 41.3959 1.74292 40.9998 1.74292C40.6038 1.74292 40.2117 1.82133 39.8461 1.97364C39.4805 2.12595 39.1487 2.34913 38.8699 2.63031L16.5199 25.0103L7.12985 15.5903C6.84028 15.3106 6.49846 15.0907 6.1239 14.943C5.74933 14.7954 5.34936 14.723 4.94682 14.73C4.54427 14.737 4.14705 14.8232 3.77781 14.9836C3.40858 15.1441 3.07456 15.3757 2.79485 15.6653C2.51513 15.9549 2.29519 16.2967 2.14758 16.6713C1.99997 17.0458 1.92758 17.4458 1.93454 17.8483C1.94151 18.2509 2.02769 18.6481 2.18817 19.0174C2.34865 19.3866 2.58028 19.7206 2.86985 20.0003L14.3899 31.5203C14.6687 31.8015 15.0005 32.0247 15.3661 32.177C15.7317 32.3293 16.1238 32.4077 16.5199 32.4077C16.9159 32.4077 17.308 32.3293 17.6736 32.177C18.0392 32.0247 18.371 31.8015 18.6499 31.5203L43.1298 7.04032C43.4344 6.75939 43.6774 6.41843 43.8436 6.03893C44.0098 5.65944 44.0956 5.24962 44.0956 4.83531C44.0956 4.42101 44.0098 4.01119 43.8436 3.6317C43.6774 3.2522 43.4344 2.91124 43.1298 2.63031V2.63031Z"
        stroke="#E56B6E" stroke-width="3" />
</svg>
