<svg width="48" height="42" viewBox="0 0 48 42" fill="none" xmlns="http://www.w3.org/2000/svg">
    <path
        d="M37.2065 12.46C37.8186 12.4574 38.4052 12.2144 38.8398 11.7833L40.4965 10.1267C40.7408 9.91749 40.9391 9.66008 41.0792 9.3706C41.2193 9.08111 41.298 8.7658 41.3104 8.44446C41.3228 8.12311 41.2686 7.80267 41.1513 7.50325C41.034 7.20382 40.8561 6.93188 40.6287 6.70448C40.4013 6.47709 40.1294 6.29915 39.8299 6.18185C39.5305 6.06454 39.2101 6.01039 38.8887 6.0228C38.5674 6.03522 38.2521 6.11392 37.9626 6.25397C37.6731 6.39403 37.4157 6.59241 37.2065 6.83667L35.6665 8.49333C35.2319 8.93051 34.988 9.5219 34.988 10.1383C34.988 10.7548 35.2319 11.3462 35.6665 11.7833C36.0779 12.1925 36.6269 12.4338 37.2065 12.46ZM23.9998 7C24.6187 7 25.2122 6.75417 25.6498 6.31658C26.0873 5.879 26.3332 5.2855 26.3332 4.66667V2.33333C26.3332 1.71449 26.0873 1.121 25.6498 0.683417C25.2122 0.245833 24.6187 0 23.9998 0C23.381 0 22.7875 0.245833 22.3499 0.683417C21.9123 1.121 21.6665 1.71449 21.6665 2.33333V4.66667C21.6665 5.2855 21.9123 5.879 22.3499 6.31658C22.7875 6.75417 23.381 7 23.9998 7ZM5.33317 21H2.99984C2.381 21 1.78751 21.2458 1.34992 21.6834C0.912336 22.121 0.666504 22.7145 0.666504 23.3333C0.666504 23.9522 0.912336 24.5457 1.34992 24.9832C1.78751 25.4208 2.381 25.6667 2.99984 25.6667H5.33317C5.95201 25.6667 6.5455 25.4208 6.98309 24.9832C7.42067 24.5457 7.6665 23.9522 7.6665 23.3333C7.6665 22.7145 7.42067 22.121 6.98309 21.6834C6.5455 21.2458 5.95201 21 5.33317 21ZM9.15984 11.7833C9.59445 12.2144 10.181 12.4574 10.7932 12.46C11.1003 12.4618 11.4047 12.4029 11.689 12.2868C11.9732 12.1707 12.2318 11.9996 12.4498 11.7833C12.8844 11.3462 13.1284 10.7548 13.1284 10.1383C13.1284 9.5219 12.8844 8.93051 12.4498 8.49333L10.7932 6.83667C10.3468 6.4544 9.77262 6.25466 9.18538 6.27734C8.59814 6.30002 8.04108 6.54346 7.62552 6.95902C7.20997 7.37457 6.96653 7.93163 6.94384 8.51888C6.92116 9.10612 7.12091 9.6803 7.50317 10.1267L9.15984 11.7833ZM44.9998 21H42.6665C42.0477 21 41.4542 21.2458 41.0166 21.6834C40.579 22.121 40.3332 22.7145 40.3332 23.3333C40.3332 23.9522 40.579 24.5457 41.0166 24.9832C41.4542 25.4208 42.0477 25.6667 42.6665 25.6667H44.9998C45.6187 25.6667 46.2122 25.4208 46.6498 24.9832C47.0873 24.5457 47.3332 23.9522 47.3332 23.3333C47.3332 22.7145 47.0873 22.121 46.6498 21.6834C46.2122 21.2458 45.6187 21 44.9998 21ZM21.6665 37.3333H14.6665C14.0477 37.3333 13.4542 37.5792 13.0166 38.0167C12.579 38.4543 12.3332 39.0478 12.3332 39.6667C12.3332 40.2855 12.579 40.879 13.0166 41.3166C13.4542 41.7542 14.0477 42 14.6665 42H21.6665C22.2853 42 22.8788 41.7542 23.3164 41.3166C23.754 40.879 23.9998 40.2855 23.9998 39.6667C23.9998 39.0478 23.754 38.4543 23.3164 38.0167C22.8788 37.5792 22.2853 37.3333 21.6665 37.3333ZM37.9998 28H35.9465C36.5358 26.5149 36.8367 24.9311 36.8332 23.3333C36.8332 19.9297 35.4811 16.6655 33.0744 14.2588C30.6677 11.8521 27.4035 10.5 23.9998 10.5C20.5962 10.5 17.332 11.8521 14.9253 14.2588C12.5186 16.6655 11.1665 19.9297 11.1665 23.3333C11.1629 24.9311 11.4639 26.5149 12.0532 28H9.99984C9.381 28 8.78751 28.2458 8.34992 28.6834C7.91234 29.121 7.6665 29.7145 7.6665 30.3333C7.6665 30.9522 7.91234 31.5457 8.34992 31.9832C8.78751 32.4208 9.381 32.6667 9.99984 32.6667H37.9998C38.6187 32.6667 39.2122 32.4208 39.6498 31.9832C40.0873 31.5457 40.3332 30.9522 40.3332 30.3333C40.3332 29.7145 40.0873 29.121 39.6498 28.6834C39.2122 28.2458 38.6187 28 37.9998 28ZM30.6498 28H17.3498C16.3695 26.6409 15.8392 25.0091 15.8332 23.3333C15.8332 21.1674 16.6936 19.0902 18.2251 17.5586C19.7567 16.0271 21.8339 15.1667 23.9998 15.1667C26.1658 15.1667 28.243 16.0271 29.7745 17.5586C31.3061 19.0902 32.1665 21.1674 32.1665 23.3333C32.1605 25.0091 31.6301 26.6409 30.6498 28ZM33.3332 37.3333H30.9998C30.381 37.3333 29.7875 37.5792 29.3499 38.0167C28.9123 38.4543 28.6665 39.0478 28.6665 39.6667C28.6665 40.2855 28.9123 40.879 29.3499 41.3166C29.7875 41.7542 30.381 42 30.9998 42H33.3332C33.952 42 34.5455 41.7542 34.9831 41.3166C35.4207 40.879 35.6665 40.2855 35.6665 39.6667C35.6665 39.0478 35.4207 38.4543 34.9831 38.0167C34.5455 37.5792 33.952 37.3333 33.3332 37.3333Z"
        fill="#E56B6E" />
</svg>
