<svg width="48" height="37" viewBox="0 0 48 37" fill="none" xmlns="http://www.w3.org/2000/svg">
    <path
        d="M24.0002 0.666016C19.9044 0.66612 15.8808 1.74434 12.3338 3.79231C8.78673 5.84028 5.84126 8.78584 3.79341 12.3329C1.74555 15.88 0.667454 19.9037 0.66748 23.9995C0.667506 28.0953 1.74565 32.1189 3.79355 35.666C4.10297 36.2044 4.61359 36.5978 5.21309 36.7597C5.81258 36.9216 6.45183 36.8388 6.99022 36.5294C7.52861 36.2199 7.92203 35.7093 8.08394 35.1098C8.24584 34.5103 8.16297 33.8711 7.85355 33.3327C6.20025 30.5003 5.33049 27.279 5.33355 23.9994C5.33467 21.1368 5.99413 18.3128 7.26094 15.7458C8.52776 13.1788 10.368 10.9375 12.6393 9.19532C14.9107 7.4531 17.5523 6.2566 20.3599 5.69835C23.1675 5.1401 26.0659 5.23505 28.831 5.97586C31.596 6.71666 34.1537 8.08348 36.3061 9.97061C38.4586 11.8578 40.1482 14.2146 41.2443 16.8591C42.3404 19.5035 42.8136 22.3645 42.6273 25.2211C42.4411 28.0776 41.6004 30.853 40.1702 33.3327C40.0159 33.599 39.9159 33.8932 39.8758 34.1983C39.8357 34.5035 39.8564 34.8136 39.9366 35.1107C40.0168 35.4078 40.1551 35.6861 40.3433 35.9296C40.5316 36.1731 40.7662 36.3769 41.0336 36.5294C41.5693 36.8336 42.2037 36.9135 42.7982 36.7518C43.3927 36.59 43.8991 36.1997 44.2069 35.666C46.2548 32.1189 47.3329 28.0953 47.333 23.9995C47.333 19.9037 46.2549 15.88 44.207 12.3329C42.1592 8.78584 39.2137 5.84028 35.6667 3.79231C32.1196 1.74434 28.096 0.66612 24.0002 0.666016ZM30.6269 14.106L27.0102 17.6994C26.074 17.2378 25.044 16.9982 24.0002 16.9994C22.6158 16.9994 21.2624 17.4099 20.1112 18.1791C18.9601 18.9482 18.0629 20.0415 17.5331 21.3206C17.0033 22.5997 16.8646 24.0071 17.1347 25.365C17.4048 26.7229 18.0715 27.9701 19.0505 28.9491C20.0294 29.9281 21.2767 30.5948 22.6346 30.8649C23.9925 31.1349 25.3999 30.9963 26.679 30.4665C27.9581 29.9367 29.0513 29.0395 29.8205 27.8883C30.5897 26.7372 31.0002 25.3838 31.0002 23.9994C30.9986 22.9633 30.7591 21.9415 30.3002 21.0127L33.9169 17.4194C34.1356 17.2024 34.3092 16.9444 34.4276 16.66C34.5461 16.3757 34.6071 16.0707 34.6071 15.7627C34.6071 15.4547 34.5461 15.1497 34.4276 14.8653C34.3092 14.581 34.1356 14.3229 33.9169 14.106C33.4797 13.6714 32.8883 13.4275 32.2719 13.4275C31.6555 13.4275 31.0641 13.6714 30.6269 14.106ZM24.0002 26.3327C23.3814 26.3327 22.7879 26.0869 22.3503 25.6493C21.9127 25.2117 21.6669 24.6182 21.6669 23.9994C21.6669 23.3805 21.9127 22.787 22.3503 22.3494C22.7879 21.9119 23.3814 21.666 24.0002 21.666C24.6091 21.6624 25.1952 21.8968 25.6336 22.3194C25.8568 22.5382 26.0339 22.7997 26.1541 23.0883C26.2744 23.3769 26.3354 23.6867 26.3336 23.9994C26.3336 24.6182 26.0877 25.2117 25.6501 25.6493C25.2126 26.0869 24.6191 26.3327 24.0002 26.3327Z"
        fill="#E56B6E" />
</svg>
