<svg width="16" height="16" viewBox="0 0 16 16" fill="none" xmlns="http://www.w3.org/2000/svg">
    <path
        d="M8.00014 0.5C7.01523 0.5 6.03996 0.693993 5.13002 1.0709C4.22008 1.44781 3.39328 2.00026 2.69684 2.6967C1.29032 4.10322 0.500144 6.01088 0.500144 8C0.493587 9.73185 1.09324 11.4114 2.19514 12.7475L0.695144 14.2475C0.591075 14.353 0.520578 14.4869 0.492548 14.6324C0.464517 14.7779 0.480209 14.9284 0.537644 15.065C0.599937 15.1999 0.700922 15.3133 0.827779 15.3908C0.954636 15.4682 1.10164 15.5063 1.25014 15.5H8.00014C9.98927 15.5 11.8969 14.7098 13.3034 13.3033C14.71 11.8968 15.5001 9.98912 15.5001 8C15.5001 6.01088 14.71 4.10322 13.3034 2.6967C11.8969 1.29018 9.98927 0.5 8.00014 0.5ZM8.00014 14H3.05764L3.75514 13.3025C3.89483 13.162 3.97324 12.9719 3.97324 12.7738C3.97324 12.5756 3.89483 12.3855 3.75514 12.245C2.77308 11.264 2.16152 9.9729 2.02466 8.59159C1.8878 7.21029 2.2341 5.82425 3.00456 4.66964C3.77503 3.51503 4.92199 2.66327 6.25003 2.25948C7.57807 1.85569 9.00504 1.92485 10.2878 2.45519C11.5706 2.98552 12.6298 3.94421 13.285 5.16792C13.9402 6.39163 14.1508 7.80466 13.881 9.16625C13.6112 10.5279 12.8776 11.7538 11.8053 12.6352C10.733 13.5166 9.38822 13.9989 8.00014 14Z"
        fill="#E56B6E" />
</svg>
