<svg width="18" height="18" viewBox="0 0 18 18" fill="none" xmlns="http://www.w3.org/2000/svg">
    <path
        d="M15.9973 9.68268C16.0648 10.8452 15.5323 11.9627 14.5798 12.6452L15.1573 13.7627C15.3298 14.1002 15.3523 14.4977 15.2023 14.8502C15.0598 15.2027 14.7673 15.4802 14.4073 15.6002L13.8148 15.7877C13.5681 15.8708 13.3017 15.8758 13.0521 15.802C12.8024 15.7281 12.5816 15.5791 12.4198 15.3752L10.8298 13.5002C10.1623 13.3877 9.5323 13.1027 8.9998 12.6752C8.6248 12.7877 8.2498 12.8477 7.8748 12.8477C7.2148 12.8477 6.5548 12.6452 5.9998 12.2552C5.6023 12.3752 5.1973 12.4277 4.7848 12.4202C4.1923 12.4277 3.6073 12.3077 3.0598 12.0827C2.5328 11.8475 2.0825 11.469 1.76026 10.9903C1.43802 10.5116 1.25681 9.95192 1.2373 9.37518C1.1773 8.83518 1.2673 8.28768 1.4998 7.79268C1.2823 7.23018 1.2598 6.61518 1.4473 6.04518C1.7248 5.33268 2.2498 4.74018 2.9023 4.36518C3.3373 3.09768 4.5598 2.25018 5.9023 2.34018C7.1023 1.21518 8.9398 1.09518 10.2748 2.06268C10.5898 1.98018 10.9198 1.93518 11.2498 1.93518C12.2698 1.91268 13.2373 2.36268 13.8748 3.16518C15.4048 3.56268 16.4998 4.92768 16.5598 6.51768C16.5973 7.35018 16.3723 8.16768 15.9148 8.86518C15.9673 9.13518 15.9973 9.40518 15.9973 9.68268ZM12.2473 8.62518C12.6748 8.67768 13.0123 9.00018 13.0123 9.42768C13.0123 9.62659 12.9333 9.81735 12.7926 9.95801C12.652 10.0987 12.4612 10.1777 12.2623 10.1777H11.7898C11.5498 10.8527 11.1298 11.4452 10.5748 11.8952C10.7623 11.9627 10.9573 12.0002 11.1523 12.0527C14.9998 12.0002 14.5498 9.65268 14.5498 9.61518C14.5299 9.1 14.3062 8.61383 13.9278 8.2636C13.5495 7.91338 13.0475 7.7278 12.5323 7.74768C12.3334 7.74768 12.1426 7.66866 12.002 7.52801C11.8613 7.38735 11.7823 7.19659 11.7823 6.99768C11.7823 6.79876 11.8613 6.608 12.002 6.46735C12.1426 6.32669 12.3334 6.24768 12.5323 6.24768C13.4548 6.27018 14.3398 6.61518 15.0298 7.22268C15.0673 7.00518 15.0898 6.78018 15.0898 6.55518C15.0448 5.62518 14.6248 4.81518 12.9373 4.65768C11.9998 2.43768 9.6373 3.66768 9.6373 4.35768C9.6148 4.53018 9.7948 4.89768 9.8248 4.92018C10.0237 4.92018 10.2145 4.99919 10.3551 5.13985C10.4958 5.2805 10.5748 5.47126 10.5748 5.67018C10.5748 6.08268 10.2373 6.42018 9.8248 6.42018C9.4273 6.40518 9.0523 6.25518 8.7523 6.00018C8.3923 6.23268 7.9798 6.37518 7.5523 6.42018C7.1248 6.45768 6.7723 6.15768 6.7498 5.74518C6.73598 5.6472 6.74233 5.54744 6.76847 5.45202C6.7946 5.35659 6.83997 5.26751 6.90177 5.19026C6.96358 5.113 7.04053 5.04919 7.12789 5.00274C7.21525 4.9563 7.31119 4.9282 7.4098 4.92018C7.5298 4.90518 8.1148 4.81518 8.1148 4.34268C8.1148 3.84768 8.3023 3.37518 8.6248 3.00018C7.9348 2.81268 7.1923 3.06018 6.4423 3.96768C5.0623 3.75018 4.4998 3.93768 4.0873 5.40018C3.3748 5.75268 2.9998 6.00018 2.8348 6.75018C3.6448 6.58518 4.4773 6.65268 5.2498 6.93768C5.6248 7.08018 5.8348 7.50018 5.6923 7.90518C5.5498 8.29518 5.1148 8.49018 4.7248 8.34768C4.1773 8.10768 3.5623 8.09268 2.9998 8.30268C2.7598 8.50518 2.7598 8.92518 2.7598 9.25518C2.7598 9.81018 3.0373 10.3277 3.5098 10.6277C3.9073 10.8302 4.3498 10.9352 4.7923 10.9277C4.6798 10.7327 4.5823 10.5302 4.4998 10.3202C4.44076 10.1275 4.45874 9.9194 4.54997 9.73969C4.6412 9.55999 4.79857 9.42267 4.98897 9.35661C5.17937 9.29055 5.38797 9.30091 5.5709 9.3855C5.75382 9.47009 5.89681 9.62232 5.9698 9.81018C6.2698 10.6652 7.0348 11.2502 7.9348 11.3477C8.9623 11.2952 9.8773 10.6877 10.3273 9.75018C10.4998 8.71518 11.3323 8.62518 12.2473 8.62518ZM13.7473 14.2277L13.2823 13.2527L12.7498 13.3727L13.4998 14.3102L13.7473 14.2277ZM10.2598 7.77018C10.2663 7.57858 10.1992 7.39176 10.0723 7.24809C9.94536 7.10443 9.76824 7.01482 9.5773 6.99768C9.0448 6.96768 8.5273 7.14768 8.1298 7.50018C7.7023 7.93518 7.4773 8.53518 7.4998 9.14268C7.4998 9.34159 7.57882 9.53235 7.71947 9.67301C7.86012 9.81366 8.05089 9.89268 8.2498 9.89268C8.6773 9.89268 8.9998 9.55518 8.9998 9.14268C8.9998 8.94018 9.0523 8.73768 9.1723 8.57268C9.2623 8.49768 9.3748 8.46018 9.4948 8.46018C9.9073 8.48268 10.2598 8.17518 10.2598 7.77018Z"
        fill="#E56B6E" />
</svg>
