<svg width="18" height="18" viewBox="0 0 18 18" fill="none" xmlns="http://www.w3.org/2000/svg">
    <path
        d="M9 1.5C7.51664 1.5 6.0666 1.93987 4.83323 2.76398C3.59986 3.58809 2.63856 4.75943 2.07091 6.12987C1.50325 7.50032 1.35472 9.00832 1.64411 10.4632C1.9335 11.918 2.64781 13.2544 3.6967 14.3033C4.7456 15.3522 6.08197 16.0665 7.53683 16.3559C8.99168 16.6453 10.4997 16.4968 11.8701 15.9291C13.2406 15.3614 14.4119 14.4001 15.236 13.1668C16.0601 11.9334 16.5 10.4834 16.5 9C16.4978 7.01155 15.7069 5.10516 14.3009 3.69911C12.8948 2.29306 10.9885 1.50218 9 1.5ZM9 15C7.81332 15 6.65328 14.6481 5.66658 13.9888C4.67989 13.3295 3.91085 12.3925 3.45673 11.2961C3.0026 10.1997 2.88378 8.99334 3.11529 7.82946C3.3468 6.66557 3.91825 5.59647 4.75736 4.75736C5.59648 3.91824 6.66558 3.3468 7.82946 3.11529C8.99335 2.88378 10.1997 3.0026 11.2961 3.45672C12.3925 3.91085 13.3295 4.67988 13.9888 5.66658C14.6481 6.65327 15 7.81331 15 9C14.998 10.5907 14.3652 12.1157 13.2405 13.2404C12.1157 14.3652 10.5907 14.998 9 15ZM9 8.625C8.80109 8.625 8.61033 8.70402 8.46967 8.84467C8.32902 8.98532 8.25 9.17609 8.25 9.375V11.625C8.25 11.8239 8.32902 12.0147 8.46967 12.1553C8.61033 12.296 8.80109 12.375 9 12.375C9.19892 12.375 9.38968 12.296 9.53033 12.1553C9.67099 12.0147 9.75 11.8239 9.75 11.625V9.375C9.75 9.17609 9.67099 8.98532 9.53033 8.84467C9.38968 8.70402 9.19892 8.625 9 8.625ZM9 5.625C8.81458 5.625 8.63333 5.67998 8.47916 5.783C8.32499 5.88601 8.20482 6.03243 8.13387 6.20373C8.06291 6.37504 8.04434 6.56354 8.08052 6.7454C8.11669 6.92725 8.20598 7.0943 8.33709 7.22541C8.4682 7.35652 8.63525 7.44581 8.81711 7.48199C8.99896 7.51816 9.18746 7.49959 9.35877 7.42864C9.53008 7.35768 9.67649 7.23752 9.77951 7.08335C9.88252 6.92918 9.9375 6.74792 9.9375 6.5625C9.9375 6.31386 9.83873 6.0754 9.66292 5.89959C9.4871 5.72377 9.24864 5.625 9 5.625Z"
        fill="#E56B6E" />
</svg>
