<svg width="18" height="18" viewBox="0 0 18 18" fill="none" xmlns="http://www.w3.org/2000/svg">
    <path
        d="M6.75 8.25C6.60166 8.25 6.45666 8.29399 6.33332 8.3764C6.20998 8.45881 6.11386 8.57594 6.05709 8.71299C6.00032 8.85003 5.98547 9.00083 6.01441 9.14632C6.04335 9.2918 6.11478 9.42544 6.21967 9.53033C6.32456 9.63522 6.4582 9.70665 6.60368 9.73559C6.74917 9.76453 6.89997 9.74967 7.03701 9.69291C7.17406 9.63614 7.29119 9.54001 7.3736 9.41668C7.45601 9.29334 7.5 9.14834 7.5 9C7.5 8.80109 7.42098 8.61032 7.28033 8.46967C7.13968 8.32902 6.94891 8.25 6.75 8.25ZM6.75 11.25C6.60166 11.25 6.45666 11.294 6.33332 11.3764C6.20998 11.4588 6.11386 11.5759 6.05709 11.713C6.00032 11.85 5.98547 12.0008 6.01441 12.1463C6.04335 12.2918 6.11478 12.4254 6.21967 12.5303C6.32456 12.6352 6.4582 12.7066 6.60368 12.7356C6.74917 12.7645 6.89997 12.7497 7.03701 12.6929C7.17406 12.6361 7.29119 12.54 7.3736 12.4167C7.45601 12.2933 7.5 12.1483 7.5 12C7.5 11.8011 7.42098 11.6103 7.28033 11.4697C7.13968 11.329 6.94891 11.25 6.75 11.25ZM6.75 5.25C6.60166 5.25 6.45666 5.29399 6.33332 5.3764C6.20998 5.45881 6.11386 5.57594 6.05709 5.71299C6.00032 5.85003 5.98547 6.00083 6.01441 6.14632C6.04335 6.2918 6.11478 6.42544 6.21967 6.53033C6.32456 6.63522 6.4582 6.70665 6.60368 6.73559C6.74917 6.76453 6.89997 6.74967 7.03701 6.69291C7.17406 6.63614 7.29119 6.54001 7.3736 6.41668C7.45601 6.29334 7.5 6.14834 7.5 6C7.5 5.80109 7.42098 5.61032 7.28033 5.46967C7.13968 5.32902 6.94891 5.25 6.75 5.25ZM11.25 5.25C11.1017 5.25 10.9567 5.29399 10.8333 5.3764C10.71 5.45881 10.6139 5.57594 10.5571 5.71299C10.5003 5.85003 10.4855 6.00083 10.5144 6.14632C10.5433 6.2918 10.6148 6.42544 10.7197 6.53033C10.8246 6.63522 10.9582 6.70665 11.1037 6.73559C11.2492 6.76453 11.4 6.74967 11.537 6.69291C11.6741 6.63614 11.7912 6.54001 11.8736 6.41668C11.956 6.29334 12 6.14834 12 6C12 5.80109 11.921 5.61032 11.7803 5.46967C11.6397 5.32902 11.4489 5.25 11.25 5.25ZM12.75 1.5H5.25C4.25544 1.5 3.30161 1.89509 2.59835 2.59835C1.89509 3.30161 1.5 4.25544 1.5 5.25V12.75C1.5 13.7446 1.89509 14.6984 2.59835 15.4016C3.30161 16.1049 4.25544 16.5 5.25 16.5H12.75C13.7446 16.5 14.6984 16.1049 15.4016 15.4016C16.1049 14.6984 16.5 13.7446 16.5 12.75V5.25C16.5 4.25544 16.1049 3.30161 15.4016 2.59835C14.6984 1.89509 13.7446 1.5 12.75 1.5ZM15 12.75C15 13.3467 14.7629 13.919 14.341 14.341C13.919 14.7629 13.3467 15 12.75 15H5.25C4.65326 15 4.08097 14.7629 3.65901 14.341C3.23705 13.919 3 13.3467 3 12.75V5.25C3 4.65326 3.23705 4.08097 3.65901 3.65901C4.08097 3.23705 4.65326 3 5.25 3H12.75C13.3467 3 13.919 3.23705 14.341 3.65901C14.7629 4.08097 15 4.65326 15 5.25V12.75ZM11.25 8.25C11.1017 8.25 10.9567 8.29399 10.8333 8.3764C10.71 8.45881 10.6139 8.57594 10.5571 8.71299C10.5003 8.85003 10.4855 9.00083 10.5144 9.14632C10.5433 9.2918 10.6148 9.42544 10.7197 9.53033C10.8246 9.63522 10.9582 9.70665 11.1037 9.73559C11.2492 9.76453 11.4 9.74967 11.537 9.69291C11.6741 9.63614 11.7912 9.54001 11.8736 9.41668C11.956 9.29334 12 9.14834 12 9C12 8.80109 11.921 8.61032 11.7803 8.46967C11.6397 8.32902 11.4489 8.25 11.25 8.25ZM11.25 11.25C11.1017 11.25 10.9567 11.294 10.8333 11.3764C10.71 11.4588 10.6139 11.5759 10.5571 11.713C10.5003 11.85 10.4855 12.0008 10.5144 12.1463C10.5433 12.2918 10.6148 12.4254 10.7197 12.5303C10.8246 12.6352 10.9582 12.7066 11.1037 12.7356C11.2492 12.7645 11.4 12.7497 11.537 12.6929C11.6741 12.6361 11.7912 12.54 11.8736 12.4167C11.956 12.2933 12 12.1483 12 12C12 11.8011 11.921 11.6103 11.7803 11.4697C11.6397 11.329 11.4489 11.25 11.25 11.25Z"
        fill="#E56B6E" />
</svg>
