<svg width="24" height="24" viewBox="0 0 24 24" fill="none" xmlns="http://www.w3.org/2000/svg">
    <path
        d="M1.41157 13.1768H2.58804V21.4121C2.58804 22.7097 3.64333 23.765 4.94098 23.765H19.0586C20.3563 23.765 21.4116 22.7097 21.4116 21.4121V13.1768H22.588C22.8207 13.1767 23.0481 13.1077 23.2415 12.9784C23.4349 12.8491 23.5857 12.6654 23.6747 12.4505C23.7637 12.2355 23.787 11.999 23.7417 11.7708C23.6963 11.5427 23.5843 11.3331 23.4198 11.1685L12.8316 0.580294C12.7224 0.470946 12.5927 0.384196 12.45 0.325007C12.3073 0.265818 12.1543 0.235352 11.9998 0.235352C11.8453 0.235352 11.6923 0.265818 11.5496 0.325007C11.4068 0.384196 11.2772 0.470946 11.168 0.580294L0.579807 11.1685C0.415325 11.3331 0.303317 11.5427 0.257944 11.7708C0.21257 11.999 0.235868 12.2355 0.324891 12.4505C0.413915 12.6654 0.564667 12.8491 0.75809 12.9784C0.951514 13.1077 1.17892 13.1767 1.41157 13.1768ZM9.64686 21.4121V15.5297H14.3527V21.4121H9.64686ZM11.9998 3.07559L19.0586 10.1344V15.5297L19.0598 21.4121H16.7057V15.5297C16.7057 14.2321 15.6504 13.1768 14.3527 13.1768H9.64686C8.34921 13.1768 7.29392 14.2321 7.29392 15.5297V21.4121H4.94098V10.1344L11.9998 3.07559Z"
        fill="#6A6A9F" />
</svg>
