<svg width="16" height="16" viewBox="0 0 16 16" fill="none" xmlns="http://www.w3.org/2000/svg">
    <path
        d="M15 11.691L14 11.191V10C13.9988 9.2917 13.7472 8.60663 13.2897 8.06588C12.8322 7.52514 12.1983 7.16354 11.5 7.045V6H10.5V7.045C9.80169 7.16354 9.16776 7.52514 8.71028 8.06588C8.2528 8.60663 8.00122 9.2917 8 10V11.191L7 11.691V14H10V15H12V14H15V11.691ZM14 13H8V12.309L9 11.809V10C9 9.46957 9.21071 8.96086 9.58579 8.58579C9.96086 8.21071 10.4696 8 11 8C11.5304 8 12.0391 8.21071 12.4142 8.58579C12.7893 8.96086 13 9.46957 13 10V11.809L14 12.309V13Z"
        fill="#E56B6E" />
    <path
        d="M14 3C14 2.73478 13.8946 2.48043 13.7071 2.29289C13.5196 2.10536 13.2652 2 13 2H11V1H10V2H6V1H5V2H3C2.73478 2 2.48043 2.10536 2.29289 2.29289C2.10536 2.48043 2 2.73478 2 3V13C2 13.2652 2.10536 13.5196 2.29289 13.7071C2.48043 13.8946 2.73478 14 3 14H5V13H3V3H5V4H6V3H10V4H11V3H13V6H14V3Z"
        fill="#E56B6E" />
</svg>
