<svg width="70" height="64" viewBox="0 0 70 64" fill="none" xmlns="http://www.w3.org/2000/svg">
    <path
        d="M19.7605 12.5298L10.1305 2.86982C9.85079 2.59011 9.51872 2.36823 9.15325 2.21684C8.78779 2.06546 8.39608 1.98755 8.0005 1.98755C7.60493 1.98755 7.21322 2.06546 6.84776 2.21684C6.48229 2.36823 6.15022 2.59011 5.8705 2.86982C5.30559 3.43473 4.98823 4.20092 4.98823 4.99982C4.98823 5.79873 5.30559 6.56491 5.8705 7.12982L12.6805 13.9998C9.2214 15.9663 6.03437 18.3767 3.2005 21.1698C2.64175 21.7319 2.32812 22.4923 2.32812 23.2848C2.32812 24.0774 2.64175 24.8377 3.2005 25.3998C3.47835 25.6833 3.80968 25.9088 4.17531 26.0633C4.54093 26.2178 4.93358 26.2982 5.3305 26.2998C6.11752 26.2965 6.87172 25.9841 7.4305 25.4298C10.2893 22.5947 13.5678 20.2168 17.1505 18.3798L21.6205 22.9998C17.9027 24.6249 14.5239 26.9351 11.6605 29.8098C11.3485 30.081 11.096 30.4138 10.9187 30.7872C10.7414 31.1607 10.6432 31.5667 10.6302 31.9799C10.6172 32.3931 10.6898 32.8045 10.8434 33.1883C10.9969 33.5721 11.2281 33.92 11.5225 34.2102C11.8169 34.5005 12.168 34.7267 12.554 34.8748C12.9399 35.0229 13.3523 35.0896 13.7653 35.0708C14.1782 35.052 14.5828 34.948 14.9537 34.7655C15.3246 34.5829 15.6537 34.3256 15.9205 34.0098C18.8292 31.1141 22.373 28.9365 26.2705 27.6498L31.1305 32.4798C26.9715 33.2801 23.1473 35.3071 20.1505 38.2998C19.8385 38.571 19.586 38.9038 19.4087 39.2772C19.2314 39.6507 19.1332 40.0567 19.1202 40.4699C19.1072 40.8831 19.1798 41.2945 19.3334 41.6783C19.4869 42.0621 19.7181 42.41 20.0125 42.7002C20.3069 42.9905 20.658 43.2167 21.044 43.3648C21.4299 43.5129 21.8423 43.5796 22.2553 43.5608C22.6682 43.542 23.0728 43.438 23.4437 43.2555C23.8146 43.0729 24.1437 42.8156 24.4105 42.4998C25.7926 41.0896 27.4396 39.9662 29.2569 39.194C31.0741 38.4218 33.026 38.016 35.0005 37.9998C35.6334 38.0015 36.2653 38.0516 36.8905 38.1498L59.8705 61.1298C60.1494 61.411 60.4812 61.6342 60.8468 61.7865C61.2124 61.9388 61.6045 62.0172 62.0005 62.0172C62.3965 62.0172 62.7887 61.9388 63.1542 61.7865C63.5198 61.6342 63.8516 61.411 64.1305 61.1298C64.4117 60.8509 64.6349 60.5191 64.7872 60.1536C64.9395 59.788 65.0179 59.3959 65.0179 58.9998C65.0179 58.6038 64.9395 58.2117 64.7872 57.8461C64.6349 57.4805 64.4117 57.1487 64.1305 56.8698L19.7605 12.5298ZM35.0005 43.9998C33.2205 43.9998 31.4804 44.5277 30.0004 45.5166C28.5203 46.5055 27.3668 47.9111 26.6856 49.5557C26.0044 51.2002 25.8262 53.0098 26.1734 54.7556C26.5207 56.5015 27.3779 58.1051 28.6365 59.3638C29.8952 60.6225 31.4989 61.4796 33.2447 61.8269C34.9905 62.1742 36.8001 61.9959 38.4447 61.3147C40.0892 60.6336 41.4948 59.48 42.4837 58C43.4727 56.5199 44.0005 54.7799 44.0005 52.9998C44.0005 50.6129 43.0523 48.3237 41.3645 46.6359C39.6766 44.948 37.3875 43.9998 35.0005 43.9998V43.9998ZM35.0005 55.9998C34.4072 55.9998 33.8271 55.8239 33.3338 55.4942C32.8404 55.1646 32.4559 54.696 32.2289 54.1479C32.0018 53.5997 31.9424 52.9965 32.0581 52.4145C32.1739 51.8326 32.4596 51.2981 32.8792 50.8785C33.2987 50.4589 33.8333 50.1732 34.4152 50.0575C34.9972 49.9417 35.6004 50.0011 36.1486 50.2282C36.6967 50.4552 37.1653 50.8398 37.4949 51.3331C37.8246 51.8265 38.0005 52.4065 38.0005 52.9998C38.0005 53.7955 37.6844 54.5585 37.1218 55.1211C36.5592 55.6838 35.7962 55.9998 35.0005 55.9998ZM66.8305 21.1698C62.0365 16.3801 56.2227 12.7349 49.8229 10.5064C43.4231 8.27793 36.6026 7.52363 29.8705 8.29982C29.4765 8.34316 29.095 8.46367 28.7476 8.65447C28.4002 8.84527 28.0938 9.10263 27.8458 9.41185C27.3451 10.0363 27.113 10.8342 27.2005 11.6298C27.288 12.4255 27.688 13.1538 28.3125 13.6545C28.937 14.1552 29.7349 14.3873 30.5305 14.2998C36.3684 13.6335 42.2814 14.2878 47.8324 16.2143C53.3834 18.1408 58.4305 21.2903 62.6005 25.4298C63.1654 25.9908 63.93 26.3043 64.7261 26.3015C65.5222 26.2987 66.2846 25.9797 66.8455 25.4148C67.4064 24.8499 67.72 24.0853 67.7172 23.2892C67.7144 22.4931 67.3954 21.7308 66.8305 21.1698ZM54.0805 33.8898C54.6509 34.3857 55.3874 34.6479 56.1428 34.6243C56.8982 34.6006 57.6168 34.2926 58.1549 33.762C58.6931 33.2314 59.0112 32.5173 59.0456 31.7623C59.08 31.0073 58.8282 30.2672 58.3405 29.6898C54.3332 25.6362 49.3231 22.7171 43.8205 21.2298C43.4285 21.0784 43.009 21.011 42.5893 21.0321C42.1695 21.0531 41.7589 21.1622 41.384 21.3521C41.0091 21.542 40.6782 21.8085 40.4129 22.1345C40.1476 22.4604 39.9538 22.8384 39.8439 23.2441C39.734 23.6497 39.7106 24.0739 39.7752 24.4892C39.8398 24.9045 39.9909 25.3016 40.2187 25.6547C40.4465 26.0078 40.746 26.3092 41.0978 26.5392C41.4495 26.7692 41.8456 26.9227 42.2605 26.9898C46.7309 28.2289 50.8035 30.6063 54.0805 33.8898V33.8898Z"
        stroke="#E56B6E" stroke-width="3" />
</svg>
