<svg width="31" height="28" viewBox="0 0 31 28" fill="none" xmlns="http://www.w3.org/2000/svg">
    <path
        d="M27.42 1.14416C26.6729 0.70202 25.8207 0.46875 24.9525 0.46875C24.0843 0.46875 23.2321 0.70202 22.485 1.14416L9 9.25916V4.99916C9 3.80569 8.5259 2.66109 7.68198 1.81718C6.83807 0.973267 5.69347 0.499162 4.5 0.499162C3.30653 0.499162 2.16193 0.973267 1.31802 1.81718C0.474106 2.66109 0 3.80569 0 4.99916V22.9992C0 24.1926 0.474106 25.3372 1.31802 26.1811C2.16193 27.0251 3.30653 27.4992 4.5 27.4992C5.69347 27.4992 6.83807 27.0251 7.68198 26.1811C8.5259 25.3372 9 24.1926 9 22.9992V18.7392L22.5 26.7942C23.261 27.2523 24.1318 27.4959 25.02 27.4992C25.8675 27.4984 26.7 27.276 27.435 26.8542C28.2304 26.4059 28.8899 25.7512 29.3441 24.9591C29.7982 24.167 30.03 23.267 30.015 22.3542V5.62916C30.0258 4.71731 29.7904 3.81943 29.3337 3.03011C28.877 2.24079 28.2159 1.58926 27.42 1.14416ZM6 22.9992C6 23.397 5.84196 23.7785 5.56066 24.0598C5.27936 24.3411 4.89783 24.4992 4.5 24.4992C4.10218 24.4992 3.72064 24.3411 3.43934 24.0598C3.15804 23.7785 3 23.397 3 22.9992V4.99916C3 4.60134 3.15804 4.21981 3.43934 3.9385C3.72064 3.6572 4.10218 3.49916 4.5 3.49916C4.89783 3.49916 5.27936 3.6572 5.56066 3.9385C5.84196 4.21981 6 4.60134 6 4.99916V22.9992ZM27 22.3692C27.0086 22.7488 26.9141 23.1236 26.7265 23.4538C26.539 23.784 26.2655 24.0571 25.935 24.2442C25.6458 24.4204 25.3137 24.5136 24.975 24.5136C24.6363 24.5136 24.3042 24.4204 24.015 24.2442L10.02 15.8442C9.70691 15.6487 9.44872 15.3768 9.26971 15.054C9.09071 14.7313 8.99678 14.3682 8.99678 13.9992C8.99678 13.6301 9.09071 13.2671 9.26971 12.9443C9.44872 12.6215 9.70691 12.3496 10.02 12.1542L24 3.78416C24.3006 3.59433 24.6495 3.49536 25.005 3.49916C25.3316 3.50432 25.6515 3.59204 25.935 3.75416C26.2655 3.94121 26.539 4.21436 26.7265 4.54453C26.9141 4.8747 27.0086 5.24954 27 5.62916V22.3692Z"
        fill="#6A6A9F" />
</svg>
