<svg width="30" height="28" viewBox="0 0 30 28" fill="none" xmlns="http://www.w3.org/2000/svg">
    <path
        d="M25.5002 0.5C24.3067 0.5 23.1621 0.974106 22.3182 1.81802C21.4743 2.66193 21.0002 3.80653 21.0002 5V9.26L7.5002 1.205C6.75414 0.759767 5.90151 0.524691 5.03269 0.524691C4.16388 0.524691 3.31125 0.759767 2.56519 1.205C1.78382 1.64904 1.13453 2.29281 0.683813 3.07035C0.2331 3.8479 -0.00282798 4.73127 0.000194471 5.63V22.37C-0.0147866 23.2829 0.217019 24.1829 0.671133 24.9749C1.12525 25.767 1.78482 26.4217 2.58019 26.87C3.31663 27.2866 4.14908 27.5038 4.99519 27.5C5.87834 27.4941 6.7436 27.2506 7.5002 26.795L21.0002 18.74V23C21.0002 24.1935 21.4743 25.3381 22.3182 26.182C23.1621 27.0259 24.3067 27.5 25.5002 27.5C26.6937 27.5 27.8383 27.0259 28.6822 26.182C29.5261 25.3381 30.0002 24.1935 30.0002 23V5C30.0002 3.80653 29.5261 2.66193 28.6822 1.81802C27.8383 0.974106 26.6937 0.5 25.5002 0.5ZM19.9802 15.845L6.0002 24.215C5.71099 24.3912 5.37886 24.4844 5.04019 24.4844C4.70153 24.4844 4.3694 24.3912 4.08019 24.215C3.75147 24.0323 3.47782 23.7648 3.28784 23.4402C3.09786 23.1157 2.99852 22.7461 3.00019 22.37V5.63C2.99161 5.25038 3.08612 4.87554 3.27366 4.54537C3.46119 4.21519 3.73475 3.94205 4.06519 3.755C4.34871 3.59288 4.66864 3.50515 4.99519 3.5C5.35066 3.4962 5.69965 3.59517 6.0002 3.785L19.9952 12.155C20.3083 12.3505 20.5665 12.6224 20.7455 12.9451C20.9245 13.2679 21.0184 13.6309 21.0184 14C21.0184 14.3691 20.9245 14.7321 20.7455 15.0549C20.5665 15.3776 20.3083 15.6495 19.9952 15.845H19.9802ZM27.0002 23C27.0002 23.3978 26.8422 23.7794 26.5609 24.0607C26.2796 24.342 25.898 24.5 25.5002 24.5C25.1024 24.5 24.7208 24.342 24.4395 24.0607C24.1582 23.7794 24.0002 23.3978 24.0002 23V5C24.0002 4.60218 24.1582 4.22064 24.4395 3.93934C24.7208 3.65804 25.1024 3.5 25.5002 3.5C25.898 3.5 26.2796 3.65804 26.5609 3.93934C26.8422 4.22064 27.0002 4.60218 27.0002 5V23Z"
        fill="#6A6A9F" />
</svg>
