<svg width="12" height="14" viewBox="0 0 12 14" fill="none" xmlns="http://www.w3.org/2000/svg">
    <path
        d="M10.2526 4.69669L10.8669 4.08919C10.994 3.96208 11.0654 3.78969 11.0654 3.60994C11.0654 3.43018 10.994 3.25779 10.8669 3.13069C10.7398 3.00358 10.5674 2.93218 10.3876 2.93218C10.2079 2.93218 10.0355 3.00358 9.90837 3.13069L9.30086 3.74494C8.35489 3.01314 7.19273 2.61609 5.99674 2.61609C4.80075 2.61609 3.63859 3.01314 2.69262 3.74494L2.07837 3.12394C1.95037 2.99683 1.77712 2.92578 1.59673 2.92641C1.41634 2.92705 1.2436 2.99931 1.11649 3.12731C0.989385 3.25531 0.918334 3.42856 0.918967 3.60895C0.9196 3.78934 0.991865 3.96208 1.11987 4.08919L1.74087 4.70344C1.0004 5.64678 0.598624 6.8117 0.600115 8.01094C0.597911 8.87185 0.801578 9.72081 1.19413 10.487C1.58668 11.2532 2.15674 11.9145 2.85677 12.4156C3.55679 12.9167 4.36649 13.2432 5.21834 13.3679C6.07018 13.4925 6.93948 13.4117 7.75373 13.1321C8.56798 12.8525 9.30359 12.3823 9.8992 11.7607C10.4948 11.139 10.9332 10.384 11.1777 9.55856C11.4222 8.73311 11.4658 7.86115 11.3049 7.01541C11.144 6.16967 10.7832 5.37466 10.2526 4.69669ZM6.00011 12.0609C5.1991 12.0609 4.41607 11.8234 3.75006 11.3784C3.08404 10.9334 2.56494 10.3008 2.2584 9.56081C1.95187 8.82077 1.87166 8.00645 2.02793 7.22082C2.1842 6.4352 2.56993 5.71356 3.13633 5.14716C3.70274 4.58075 4.42438 4.19503 5.21 4.03876C5.99562 3.88249 6.80994 3.96269 7.54998 4.26923C8.29002 4.57576 8.92255 5.09486 9.36757 5.76088C9.81259 6.4269 10.0501 7.20992 10.0501 8.01094C10.0501 9.08506 9.62342 10.1152 8.8639 10.8747C8.10438 11.6342 7.07424 12.0609 6.00011 12.0609ZM4.65011 1.93594H7.35011C7.52914 1.93594 7.70082 1.86482 7.82741 1.73823C7.954 1.61165 8.02511 1.43996 8.02511 1.26094C8.02511 1.08192 7.954 0.910227 7.82741 0.78364C7.70082 0.657053 7.52914 0.585938 7.35011 0.585938H4.65011C4.47109 0.585938 4.2994 0.657053 4.17282 0.78364C4.04623 0.910227 3.97511 1.08192 3.97511 1.26094C3.97511 1.43996 4.04623 1.61165 4.17282 1.73823C4.2994 1.86482 4.47109 1.93594 4.65011 1.93594ZM6.67511 5.98594C6.67511 5.80692 6.604 5.63523 6.47741 5.50864C6.35082 5.38205 6.17914 5.31094 6.00011 5.31094C5.82109 5.31094 5.6494 5.38205 5.52282 5.50864C5.39623 5.63523 5.32511 5.80692 5.32511 5.98594V7.26169C5.17227 7.39839 5.06454 7.57828 5.01618 7.77755C4.96782 7.97683 4.9811 8.18609 5.05427 8.37764C5.12743 8.5692 5.25704 8.73403 5.42594 8.85031C5.59483 8.9666 5.79506 9.02886 6.00011 9.02886C6.20517 9.02886 6.4054 8.9666 6.57429 8.85031C6.74319 8.73403 6.8728 8.5692 6.94596 8.37764C7.01913 8.18609 7.03241 7.97683 6.98405 7.77755C6.93568 7.57828 6.82795 7.39839 6.67511 7.26169V5.98594Z"
        fill="white" />
</svg>
