<svg width="20" height="21" viewBox="0 0 20 21" fill="none" xmlns="http://www.w3.org/2000/svg">
    <path
        d="M8.63205 0.586365L6.79098 0.106342C6.39776 0.00157461 5.98775 -0.024664 5.58438 0.0291258C5.18102 0.0829157 4.79221 0.215679 4.44018 0.419826C4.08816 0.623973 3.77982 0.895501 3.5328 1.21889C3.28578 1.54227 3.10491 1.91117 3.00055 2.3045L2.54102 4.04019C4.05643 2.15407 6.23545 0.918487 8.63205 0.586365Z"
        fill="#E56B6E" />
    <path
        d="M0.556376 11.5117L0.105623 13.2123C-0.105082 14.006 0.00812929 14.851 0.420355 15.5612C0.832581 16.2715 1.51006 16.789 2.30378 16.9998L4.05996 17.4681C2.18475 15.9938 0.933815 13.8671 0.556376 11.5117Z"
        fill="#E56B6E" />
    <path
        d="M17.6969 3.00049L15.7271 2.47656C16.7224 3.24222 17.5558 4.19795 18.1789 5.28828C18.8019 6.37861 19.2022 7.58182 19.3565 8.82809L19.898 6.77921C20.1059 5.98629 19.991 5.14326 19.5784 4.43493C19.1658 3.7266 18.4892 3.21076 17.6969 3.00049Z"
        fill="#E56B6E" />
    <path
        d="M11.3247 19.394L13.2126 19.9033C14.0063 20.114 14.8513 20.0008 15.5616 19.5886C16.2718 19.1764 16.7893 18.4989 17.0001 17.7052L17.5328 15.7031C16.0308 17.7036 13.7997 19.0301 11.3247 19.394Z"
        fill="#E56B6E" />
    <path
        d="M10.0027 1.32813C8.28729 1.32755 6.61024 1.83569 5.18365 2.7883C3.75706 3.74091 2.64502 5.09518 1.98816 6.67985C1.3313 8.26451 1.15913 10.0084 1.49344 11.6909C1.82774 13.3734 2.6535 14.919 3.86627 16.1322C5.07904 17.3454 6.62435 18.1716 8.30675 18.5065C9.98915 18.8414 11.7331 18.6698 13.318 18.0135C14.9028 17.3572 16.2575 16.2456 17.2106 14.8193C18.1637 13.393 18.6724 11.7161 18.6724 10.0007C18.6724 7.70113 17.7591 5.49566 16.1333 3.86931C14.5075 2.24296 12.3023 1.3289 10.0027 1.32813ZM5.09124 5.65419C5.18397 5.17337 5.41718 4.73083 5.76139 4.38253C6.1056 4.03424 6.54535 3.79582 7.02504 3.69741C7.50474 3.59901 8.00284 3.64504 8.45638 3.82969C8.90991 4.01434 9.29852 4.32931 9.57307 4.73479C9.84762 5.14027 9.99578 5.61805 9.99882 6.10772C10.0019 6.5974 9.85965 7.07698 9.59017 7.48584C9.32068 7.89471 8.93602 8.21449 8.48481 8.40476C8.03361 8.59503 7.53612 8.64725 7.05524 8.55482C6.73577 8.49341 6.43154 8.36966 6.15992 8.19063C5.8883 8.01161 5.65462 7.78081 5.47223 7.51144C5.28984 7.24207 5.16232 6.9394 5.09695 6.62072C5.03157 6.30205 5.02963 5.97361 5.09124 5.65419ZM8.69434 13.1472C8.60095 13.6279 8.36716 14.0701 8.02253 14.4179C7.67789 14.7657 7.23787 15.0035 6.7581 15.1013C6.27833 15.1991 5.78033 15.1524 5.32707 14.9672C4.8738 14.7821 4.4856 14.4667 4.21155 14.0609C3.9375 13.6551 3.7899 13.1772 3.78739 12.6876C3.78489 12.198 3.9276 11.7186 4.19749 11.3101C4.46738 10.9015 4.85233 10.5822 5.30368 10.3923C5.75503 10.2025 6.25252 10.1508 6.73327 10.2437C7.05277 10.3054 7.35697 10.4295 7.62847 10.6089C7.89998 10.7882 8.13348 11.0193 8.31561 11.289C8.49774 11.5587 8.62493 11.8616 8.68992 12.1804C8.7549 12.4993 8.75641 12.8278 8.69434 13.1472ZM9.74512 11.1423C9.5317 11.101 9.33528 10.9974 9.18065 10.8446C9.02602 10.6918 8.92009 10.4967 8.87624 10.2838C8.83238 10.0709 8.85256 9.84974 8.93423 9.64828C9.0159 9.44683 9.1554 9.27407 9.33514 9.1518C9.51487 9.02953 9.72679 8.96323 9.94416 8.96126C10.1615 8.95928 10.3746 9.02173 10.5565 9.14071C10.7385 9.2597 10.8811 9.42989 10.9664 9.62983C11.0517 9.82977 11.0759 10.0505 11.0359 10.2642C11.0092 10.4068 10.9546 10.5427 10.8752 10.6641C10.7958 10.7856 10.6931 10.8901 10.5732 10.9717C10.4532 11.0533 10.3183 11.1104 10.1762 11.1397C10.0341 11.1689 9.88757 11.1698 9.74512 11.1423ZM14.9112 14.3414C14.8185 14.8223 14.5853 15.2648 14.2411 15.6131C13.8969 15.9614 13.4571 16.1998 12.9774 16.2982C12.4977 16.3966 11.9996 16.3506 11.5461 16.1659C11.0926 15.9813 10.7039 15.6663 10.4294 15.2608C10.1549 14.8554 10.0067 14.3776 10.0036 13.8879C10.0006 13.3982 10.1428 12.9187 10.4123 12.5098C10.6818 12.1009 11.0664 11.7811 11.5177 11.5909C11.9689 11.4006 12.4663 11.3484 12.9472 11.4408C13.2667 11.5022 13.5709 11.626 13.8425 11.805C14.1142 11.984 14.3478 12.2148 14.5302 12.4842C14.7126 12.7536 14.8401 13.0562 14.9055 13.3749C14.9709 13.6936 14.9728 14.022 14.9112 14.3414ZM13.2721 9.75195C12.7913 9.65922 12.3488 9.42601 12.0005 9.0818C11.6522 8.73759 11.4137 8.29784 11.3153 7.81815C11.2169 7.33845 11.263 6.84035 11.4476 6.38681C11.6323 5.93328 11.9472 5.54467 12.3527 5.27012C12.7582 4.99557 13.236 4.84741 13.7257 4.84437C14.2153 4.84132 14.6949 4.98353 15.1038 5.25302C15.5126 5.52251 15.8324 5.90717 16.0227 6.35837C16.213 6.80958 16.2652 7.30707 16.1728 7.78795C16.1117 8.10768 15.9882 8.41223 15.8093 8.68417C15.6304 8.95612 15.3997 9.19013 15.1303 9.37282C14.8608 9.5555 14.5581 9.68328 14.2392 9.74884C13.9204 9.8144 13.5918 9.81645 13.2721 9.75488V9.75195Z"
        fill="#E56B6E" />
</svg>
