<svg width="30" height="30" viewBox="0 0 30 30" fill="none" xmlns="http://www.w3.org/2000/svg">
    <path
        d="M3.74973 16.25H4.99973V25C4.99973 26.3788 6.12098 27.5 7.49973 27.5H22.4997C23.8785 27.5 24.9997 26.3788 24.9997 25V16.25H26.2497C26.4969 16.25 26.7385 16.1766 26.9441 16.0393C27.1496 15.9019 27.3097 15.7067 27.4043 15.4783C27.4989 15.25 27.5237 14.9987 27.4755 14.7562C27.4273 14.5138 27.3082 14.2911 27.1335 14.1163L15.8835 2.86626C15.7675 2.75008 15.6297 2.6579 15.4781 2.59501C15.3265 2.53213 15.1639 2.49976 14.9997 2.49976C14.8356 2.49976 14.673 2.53213 14.5214 2.59501C14.3697 2.6579 14.232 2.75008 14.116 2.86626L2.86598 14.1163C2.69122 14.2911 2.57221 14.5138 2.524 14.7562C2.47579 14.9987 2.50055 15.25 2.59514 15.4783C2.68972 15.7067 2.8499 15.9019 3.05541 16.0393C3.26092 16.1766 3.50255 16.25 3.74973 16.25ZM14.9997 5.51751L22.4997 13.0175V18.75L22.501 25H7.49973V13.0175L14.9997 5.51751Z"
        fill="#6A6A9F" />
    <path
        d="M15 22.5C19.6287 22.5 21.1263 18.0762 21.1875 17.8887L18.8125 17.1125C18.8025 17.1412 17.8363 20 15 20C12.2025 20 11.225 17.2237 11.1863 17.105L8.8125 17.8887C8.87375 18.0762 10.3712 22.5 15 22.5Z"
        fill="#6A6A9F" />
</svg>
