<svg width="24" height="24" viewBox="0 0 24 24" fill="none" xmlns="http://www.w3.org/2000/svg">
    <path
        d="M5.75 6.7V17.3125H10.85L11.6 16.175C13.05 13.9375 15.6625 12.9375 17.5875 12.9375C18.25 12.9375 18.8125 13.05 19.2375 13.25C20.375 13.7625 20.6875 14.725 20.75 15.425C20.85 16.8375 20.125 18.2875 18.875 19.1375C17.75 19.9125 15.05 20.75 11.8375 20.75C9.65 20.75 6.5125 20.3625 3.4 18.625C3.7625 15.5625 4.5 10.6 5.75 6.7ZM5.75 0.75C2 5.8625 0.75 19.925 0.75 19.925C4.375 22.3875 8.35 23.25 11.8375 23.25C15.575 23.25 18.7375 22.2625 20.3 21.2C24.05 18.65 24.425 12.8875 20.3 10.975C19.5 10.6125 18.575 10.4375 17.5875 10.4375C14.7125 10.4375 11.375 11.95 9.5 14.8125H8.25V5.8625H10.75L12 2L5.75 0.75Z"
        fill="#6A6A9F" />
</svg>
