<svg width="16" height="16" viewBox="0 0 16 16" fill="none" xmlns="http://www.w3.org/2000/svg">
    <path
        d="M8 0.5C6.51664 0.5 5.0666 0.939867 3.83323 1.76398C2.59986 2.58809 1.63856 3.75943 1.07091 5.12987C0.50325 6.50032 0.354725 8.00832 0.644114 9.46318C0.933503 10.918 1.64781 12.2544 2.6967 13.3033C3.7456 14.3522 5.08197 15.0665 6.53683 15.3559C7.99168 15.6453 9.49968 15.4968 10.8701 14.9291C12.2406 14.3614 13.4119 13.4001 14.236 12.1668C15.0601 10.9334 15.5 9.48336 15.5 8C15.4978 6.01155 14.7069 4.10516 13.3009 2.69911C11.8948 1.29306 9.98846 0.502184 8 0.5ZM8 14C6.81332 14 5.65328 13.6481 4.66658 12.9888C3.67989 12.3295 2.91085 11.3925 2.45673 10.2961C2.0026 9.19974 1.88378 7.99334 2.11529 6.82946C2.3468 5.66557 2.91825 4.59647 3.75736 3.75736C4.59648 2.91824 5.66558 2.3468 6.82946 2.11529C7.99335 1.88378 9.19975 2.0026 10.2961 2.45672C11.3925 2.91085 12.3295 3.67988 12.9888 4.66658C13.6481 5.65327 14 6.81331 14 8C13.998 9.59069 13.3652 11.1157 12.2405 12.2404C11.1157 13.3652 9.59069 13.998 8 14ZM8 7.625C7.80109 7.625 7.61033 7.70402 7.46967 7.84467C7.32902 7.98532 7.25 8.17609 7.25 8.375V10.625C7.25 10.8239 7.32902 11.0147 7.46967 11.1553C7.61033 11.296 7.80109 11.375 8 11.375C8.19892 11.375 8.38968 11.296 8.53033 11.1553C8.67099 11.0147 8.75 10.8239 8.75 10.625V8.375C8.75 8.17609 8.67099 7.98532 8.53033 7.84467C8.38968 7.70402 8.19892 7.625 8 7.625ZM8 4.625C7.81458 4.625 7.63333 4.67998 7.47916 4.783C7.32499 4.88601 7.20482 5.03243 7.13387 5.20373C7.06291 5.37504 7.04434 5.56354 7.08052 5.7454C7.11669 5.92725 7.20598 6.0943 7.33709 6.22541C7.4682 6.35652 7.63525 6.44581 7.81711 6.48199C7.99896 6.51816 8.18746 6.49959 8.35877 6.42864C8.53008 6.35768 8.67649 6.23752 8.77951 6.08335C8.88252 5.92918 8.9375 5.74792 8.9375 5.5625C8.9375 5.31386 8.83873 5.0754 8.66292 4.89959C8.4871 4.72377 8.24864 4.625 8 4.625Z"
        fill="#6A6A9F" />
</svg>
