<svg width="30" height="30" viewBox="0 0 30 30" fill="none"
    xmlns="http://www.w3.org/2000/svg">
    <path d="M13.7471 20L19.9971 15L13.7471 10V13.75H2.49707V16.25H13.7471V20Z"
        fill="#6A6A9F" />
    <path
        d="M16.2489 3.74882C14.7709 3.74472 13.3066 4.03396 11.9411 4.59978C10.5756 5.16559 9.33595 5.99674 8.29395 7.04507L10.0614 8.81257C11.7139 7.16007 13.9114 6.24882 16.2489 6.24882C18.5864 6.24882 20.7839 7.16007 22.4364 8.81257C24.0889 10.4651 25.0002 12.6626 25.0002 15.0001C25.0002 17.3376 24.0889 19.5351 22.4364 21.1876C20.7839 22.8401 18.5864 23.7513 16.2489 23.7513C13.9114 23.7513 11.7139 22.8401 10.0614 21.1876L8.29395 22.9551C10.4177 25.0801 13.2427 26.2513 16.2489 26.2513C19.2552 26.2513 22.0802 25.0801 24.2039 22.9551C26.3289 20.8313 27.5002 18.0063 27.5002 15.0001C27.5002 11.9938 26.3289 9.16882 24.2039 7.04507C23.1619 5.99674 21.9223 5.16559 20.5568 4.59978C19.1912 4.03396 17.727 3.74472 16.2489 3.74882Z"
        fill="#6A6A9F" />
</svg>
