<svg width="12" height="16" viewBox="0 0 12 16" fill="none" xmlns="http://www.w3.org/2000/svg">
    <path
        d="M0 8C0 8.19891 0.0790178 8.38968 0.21967 8.53033C0.360322 8.67098 0.551088 8.75 0.75 8.75H6.4425L4.7175 10.4675C4.6472 10.5372 4.59141 10.6202 4.55333 10.7116C4.51525 10.803 4.49565 10.901 4.49565 11C4.49565 11.099 4.51525 11.197 4.55333 11.2884C4.59141 11.3798 4.6472 11.4628 4.7175 11.5325C4.78722 11.6028 4.87017 11.6586 4.96157 11.6967C5.05296 11.7347 5.15099 11.7543 5.25 11.7543C5.34901 11.7543 5.44704 11.7347 5.53843 11.6967C5.62983 11.6586 5.71278 11.6028 5.7825 11.5325L8.7825 8.5325C8.85078 8.46117 8.9043 8.37706 8.94 8.285C9.01501 8.1024 9.01501 7.8976 8.94 7.715C8.9043 7.62294 8.85078 7.53883 8.7825 7.4675L5.7825 4.4675C5.71257 4.39757 5.62955 4.3421 5.53819 4.30426C5.44682 4.26641 5.34889 4.24693 5.25 4.24693C5.15111 4.24693 5.05318 4.26641 4.96181 4.30426C4.87045 4.3421 4.78743 4.39757 4.7175 4.4675C4.64757 4.53743 4.5921 4.62045 4.55426 4.71181C4.51641 4.80318 4.49693 4.90111 4.49693 5C4.49693 5.09889 4.51641 5.19682 4.55426 5.28819C4.5921 5.37955 4.64757 5.46257 4.7175 5.5325L6.4425 7.25H0.75C0.551088 7.25 0.360322 7.32902 0.21967 7.46967C0.0790178 7.61032 0 7.80109 0 8ZM9.75 0.5H2.25C1.65326 0.5 1.08097 0.737053 0.65901 1.15901C0.237053 1.58097 0 2.15326 0 2.75V5C0 5.19891 0.0790178 5.38968 0.21967 5.53033C0.360322 5.67098 0.551088 5.75 0.75 5.75C0.948912 5.75 1.13968 5.67098 1.28033 5.53033C1.42098 5.38968 1.5 5.19891 1.5 5V2.75C1.5 2.55109 1.57902 2.36032 1.71967 2.21967C1.86032 2.07902 2.05109 2 2.25 2H9.75C9.94891 2 10.1397 2.07902 10.2803 2.21967C10.421 2.36032 10.5 2.55109 10.5 2.75V13.25C10.5 13.4489 10.421 13.6397 10.2803 13.7803C10.1397 13.921 9.94891 14 9.75 14H2.25C2.05109 14 1.86032 13.921 1.71967 13.7803C1.57902 13.6397 1.5 13.4489 1.5 13.25V11C1.5 10.8011 1.42098 10.6103 1.28033 10.4697C1.13968 10.329 0.948912 10.25 0.75 10.25C0.551088 10.25 0.360322 10.329 0.21967 10.4697C0.0790178 10.6103 0 10.8011 0 11V13.25C0 13.8467 0.237053 14.419 0.65901 14.841C1.08097 15.2629 1.65326 15.5 2.25 15.5H9.75C10.3467 15.5 10.919 15.2629 11.341 14.841C11.7629 14.419 12 13.8467 12 13.25V2.75C12 2.15326 11.7629 1.58097 11.341 1.15901C10.919 0.737053 10.3467 0.5 9.75 0.5Z"
        fill="#6A6A9F" />
</svg>
