<svg width="22" height="22" viewBox="0 0 22 22" fill="none" xmlns="http://www.w3.org/2000/svg">
    <path
        d="M4.95529 0.712402C3.08757 0.712402 1.31036 1.6721 0.238059 3.2671C-0.170683 3.8727 -0.0304302 4.70908 0.550636 5.13508C1.1317 5.56108 1.93417 5.41568 2.34294 4.81008C3.37618 3.27493 5.40185 2.95098 6.82254 4.01868L6.82406 4.0171C6.90652 4.08005 6.99811 4.15538 7.09091 4.24368L7.10065 4.25383L7.1239 4.2796C7.20931 4.36173 7.29317 4.45003 7.37051 4.54288L7.39075 4.56865L7.39375 4.57413L7.39449 4.57335L7.41923 4.60538L7.42597 4.6132C7.90096 5.16358 8.71497 5.20825 9.243 4.7132C9.76882 4.22043 9.81408 3.37683 9.34569 2.8257C8.26381 1.5032 6.6359 0.712427 4.95529 0.712427V0.712402ZM16.5913 0.712402C14.7236 0.712402 12.9464 1.6721 11.8741 3.2671C11.4653 3.8727 11.6056 4.70908 12.1867 5.13508C12.7677 5.56108 13.5702 5.41568 13.979 4.81008C15.0123 3.27493 17.0379 2.95098 18.4586 4.01868L18.4601 4.0171C18.5527 4.08759 18.6415 4.16322 18.7262 4.24368L18.7367 4.25383L18.7592 4.2796C18.8447 4.36173 18.9292 4.45003 19.0066 4.54288L19.0268 4.56865L19.0298 4.57413L19.0306 4.57335L19.0546 4.60538L19.0613 4.6132C19.5364 5.16358 20.351 5.20825 20.8791 4.7132C21.4049 4.22043 21.4502 3.37683 20.9818 2.8257C19.8999 1.5032 18.272 0.712427 16.5914 0.712427L16.5913 0.712402ZM20.1572 11.2218L1.80771 11.2273C1.1098 11.2381 0.552243 11.838 0.562629 12.5655C0.642075 17.5832 6.2748 21.347 10.686 21.428C15.151 21.5107 21.2962 17.5154 21.427 12.5452C21.427 11.8148 20.858 11.2218 20.1571 11.2218L20.1572 11.2218ZM3.37139 13.8812H18.5665C17.1004 16.8982 14.0077 18.9016 10.6418 18.7921C7.52827 18.6913 4.73326 16.7328 3.37139 13.8812Z"
        fill="#6A6A9F" />
</svg>
