<svg width="17" height="18" viewBox="0 0 17 18" fill="none" xmlns="http://www.w3.org/2000/svg">
    <path
        d="M16.75 9.625C16.7472 7.13946 15.7586 4.75652 14.001 2.99898C12.2435 1.24144 9.86054 0.252812 7.375 0.25H6.75V4.0375C5.48333 4.18103 4.30281 4.75 3.4014 5.6514C2.5 6.55281 1.93103 7.73333 1.7875 9H0.5V9.625C0.502114 11.3393 1.14402 12.991 2.30004 14.2569C3.45607 15.5227 5.04295 16.3115 6.75 16.4688V17.75H7.375C9.42011 17.747 11.389 16.9734 12.8891 15.5834C14.3892 14.1933 15.3103 12.289 15.4688 10.25H16.75V9.625ZM8 1.52375C9.93227 1.67557 11.7469 2.51199 13.1175 3.88253C14.488 5.25306 15.3244 7.06773 15.4762 9H8V1.52375ZM6.75 5.3V9H3.05C3.18605 8.06707 3.61966 7.20299 4.28632 6.53632C4.95299 5.86966 5.81707 5.43605 6.75 5.3ZM1.78437 10.25H6.75V15.2119C5.4829 15.0689 4.30179 14.5003 3.3998 13.599C2.4978 12.6977 1.92828 11.517 1.78437 10.25ZM8 16.4719V10.25H14.2219C14.0735 11.85 13.3703 13.3478 12.234 14.484C11.0978 15.6203 9.60002 16.3235 8 16.4719Z"
        fill="#E56B6E" />
</svg>
