<svg width="20" height="17" viewBox="0 0 20 17" fill="none" xmlns="http://www.w3.org/2000/svg">
    <path
        d="M6.29091 16.2517C7.82649 16.2613 9.34871 15.966 10.7693 15.3828C12.1898 14.7996 13.4805 13.9402 14.5663 12.8543C15.6521 11.7685 16.5116 10.4779 17.0948 9.0573C17.678 7.63674 17.9733 6.11452 17.9636 4.57894V4.04258C18.7596 3.45938 19.4486 2.74273 20 1.92439C19.2505 2.25221 18.4574 2.46962 17.6455 2.56985C18.5063 2.05692 19.1522 1.24955 19.4636 0.297121C18.6614 0.778431 17.7817 1.11679 16.8636 1.29712C16.2454 0.638363 15.4273 0.201717 14.5359 0.0547449C13.6445 -0.0922276 12.7295 0.0586663 11.9325 0.484079C11.1355 0.909493 10.5009 1.58571 10.1269 2.4081C9.75293 3.23049 9.6604 4.15321 9.86364 5.03348C8.23275 4.95343 6.63701 4.53078 5.18032 3.79304C3.72364 3.05529 2.43867 2.01901 1.40909 0.751667C0.88993 1.65273 0.73257 2.71742 0.968872 3.73014C1.20518 4.74287 1.81748 5.62796 2.68182 6.20621C2.04419 6.18162 1.42132 6.00722 0.863636 5.69712V5.74258C0.85797 6.68424 1.1752 7.59941 1.76246 8.33555C2.34971 9.07169 3.17152 9.58433 4.09091 9.78803C3.49785 9.94754 2.87663 9.97239 2.27273 9.86076C2.5389 10.6638 3.04698 11.3649 3.72731 11.8678C4.40765 12.3708 5.2269 12.6509 6.07273 12.6698C4.62656 13.834 2.82917 14.4747 0.972727 14.488C0.64723 14.4786 0.322497 14.4513 0 14.4062C1.87905 15.6034 4.06291 16.2346 6.29091 16.2244"
        fill="#E56B6E" />
</svg>
