<svg width="30" height="30" viewBox="0 0 30 30" fill="none" xmlns="http://www.w3.org/2000/svg">
    <path
        d="M26.1712 9.4125C24.0338 5.14875 19.7537 2.5 15 2.5C8.1075 2.5 2.5 8.1075 2.5 15C2.5 21.8925 8.1075 27.5 15 27.5C19.7537 27.5 24.0338 24.8512 26.1712 20.5875C26.3145 20.3018 26.3429 19.9722 26.2506 19.6662C26.1583 19.3603 25.9523 19.1013 25.675 18.9425L18.7712 15L25.6737 11.0588C26.25 10.7288 26.4688 10.0063 26.1712 9.4125ZM15.63 13.915C15.4385 14.0241 15.2793 14.182 15.1685 14.3725C15.0578 14.5631 14.9994 14.7796 14.9994 15C14.9994 15.2204 15.0578 15.4369 15.1685 15.6275C15.2793 15.818 15.4385 15.9759 15.63 16.085L23.3463 20.4912C22.4413 21.879 21.2036 23.0185 19.7459 23.806C18.2882 24.5934 16.6568 25.0039 15 25C9.48625 25 5 20.5138 5 15C5 9.48625 9.48625 5 15 5C16.6566 4.99609 18.288 5.40641 19.7457 6.19364C21.2033 6.98087 22.441 8.12003 23.3463 9.5075L15.63 13.915Z"
        fill="#6A6A9F" />
    <path
        d="M14.375 11.25C15.4105 11.25 16.25 10.4105 16.25 9.375C16.25 8.33947 15.4105 7.5 14.375 7.5C13.3395 7.5 12.5 8.33947 12.5 9.375C12.5 10.4105 13.3395 11.25 14.375 11.25Z"
        fill="#6A6A9F" />
</svg>
