<svg width="24" height="24" viewBox="0 0 24 24" fill="none" xmlns="http://www.w3.org/2000/svg">
    <path
        d="M2.27502 11.1125L11.1125 2.27502C12.5211 0.870054 14.4293 0.0810547 16.4188 0.0810547C18.4082 0.0810547 20.3165 0.870054 21.725 2.27502C24.65 5.20002 24.65 9.95002 21.725 12.8875L12.8875 21.725C9.95002 24.65 5.20002 24.65 2.27502 21.725C0.870054 20.3165 0.0810547 18.4082 0.0810547 16.4188C0.0810547 14.4293 0.870054 12.5211 2.27502 11.1125ZM4.05002 12.8875C3.42657 13.5053 2.97786 14.2773 2.74952 15.1248C2.52118 15.9723 2.52135 16.8651 2.75002 17.7125L10.2375 10.2375L15.5375 15.5375L19.95 11.1125C20.4163 10.6502 20.7864 10.1002 21.039 9.49408C21.2916 8.88799 21.4217 8.23788 21.4217 7.58127C21.4217 6.92465 21.2916 6.27454 21.039 5.66845C20.7864 5.06236 20.4163 4.5123 19.95 4.05002C19.4877 3.58372 18.9377 3.21359 18.3316 2.96101C17.7255 2.70842 17.0754 2.57838 16.4188 2.57838C15.7622 2.57838 15.112 2.70842 14.506 2.96101C13.8999 3.21359 13.3498 3.58372 12.8875 4.05002L4.05002 12.8875Z"
        fill="#6A6A9F" />
</svg>
