<svg width="8" height="14" viewBox="0 0 8 14" fill="none" xmlns="http://www.w3.org/2000/svg">
    <path
        d="M0.459776 7.71045L6.11977 13.3605C6.21274 13.4542 6.32334 13.5286 6.4452 13.5793C6.56706 13.6301 6.69776 13.6562 6.82977 13.6562C6.96179 13.6562 7.09249 13.6301 7.21435 13.5793C7.33621 13.5286 7.44681 13.4542 7.53977 13.3605C7.72602 13.1731 7.83057 12.9196 7.83057 12.6555C7.83057 12.3913 7.72603 12.1378 7.53977 11.9505L2.58978 6.95045L7.53978 2.00045C7.72603 1.81309 7.83057 1.55964 7.83057 1.29545C7.83057 1.03127 7.72603 0.777816 7.53978 0.590453C7.44716 0.495965 7.33672 0.420794 7.21484 0.369298C7.09296 0.317801 6.96208 0.291003 6.82978 0.290454C6.69747 0.291003 6.56659 0.317801 6.44471 0.369298C6.32284 0.420794 6.21239 0.495965 6.11978 0.590453L0.459777 6.24045C0.358272 6.33409 0.277263 6.44775 0.221856 6.57424C0.166448 6.70074 0.137844 6.83735 0.137844 6.97545C0.137844 7.11355 0.166448 7.25016 0.221856 7.37666C0.277263 7.50316 0.358272 7.61681 0.459776 7.71045Z"
        fill="white" />
</svg>
