<svg width="16" height="16" viewBox="0 0 16 16" fill="none" xmlns="http://www.w3.org/2000/svg">
    <path
        d="M15.2318 6.51885C15.0133 6.25647 14.7398 6.04525 14.4307 5.90011C14.1216 5.75497 13.7844 5.67944 13.4429 5.67885H9.89626L10.3318 4.56663C10.513 4.07965 10.5733 3.55599 10.5076 3.04057C10.442 2.52515 10.2522 2.03335 9.95474 1.60737C9.65724 1.18138 9.26084 0.833918 8.79955 0.594788C8.33826 0.355657 7.82584 0.231995 7.30626 0.23441C7.15665 0.234722 7.0103 0.278179 6.88476 0.359572C6.75922 0.440964 6.65982 0.556837 6.59848 0.693298L4.38181 5.67885H2.55404C1.9352 5.67885 1.34171 5.92469 0.904121 6.36227C0.466536 6.79986 0.220703 7.39335 0.220703 8.01219V13.4566C0.220703 14.0755 0.466536 14.669 0.904121 15.1065C1.34171 15.5441 1.9352 15.79 2.55404 15.79H12.4551C13.001 15.7898 13.5295 15.5982 13.9487 15.2486C14.368 14.8991 14.6513 14.4136 14.7496 13.8766L15.7374 8.43219C15.7985 8.0957 15.7849 7.7499 15.6975 7.41927C15.6101 7.08863 15.4511 6.78124 15.2318 6.51885ZM4.10959 14.2344H2.55404C2.34776 14.2344 2.14993 14.1525 2.00406 14.0066C1.8582 13.8607 1.77626 13.6629 1.77626 13.4566V8.01219C1.77626 7.80591 1.8582 7.60808 2.00406 7.46221C2.14993 7.31635 2.34776 7.23441 2.55404 7.23441H4.10959V14.2344ZM14.2207 8.15219L13.2329 13.5966C13.1998 13.7778 13.1034 13.9414 12.961 14.0582C12.8186 14.175 12.6393 14.2374 12.4551 14.2344H5.66515V6.61996L7.7807 1.85996C7.99847 1.92345 8.20071 2.03139 8.37466 2.17697C8.54861 2.32256 8.69049 2.50262 8.79135 2.70579C8.8922 2.90897 8.94985 3.13085 8.96064 3.35742C8.97143 3.584 8.93513 3.81035 8.85404 4.02219L8.44181 5.13441C8.35398 5.3695 8.32432 5.62235 8.35538 5.87138C8.38644 6.12041 8.4773 6.35823 8.62019 6.56454C8.76307 6.77085 8.95376 6.93953 9.17596 7.05617C9.39817 7.17282 9.6453 7.23397 9.89626 7.23441H13.4429C13.5572 7.23422 13.6701 7.25922 13.7736 7.30761C13.8771 7.356 13.9687 7.42661 14.0418 7.51441C14.1167 7.60099 14.1716 7.70305 14.2025 7.8133C14.2335 7.92355 14.2397 8.03927 14.2207 8.15219Z"
        fill="#6A6A9F" />
</svg>
