<svg xmlns="http://www.w3.org/2000/svg" width="35.516" height="28.911" viewBox="0 0 35.516 28.911">
  <g id="Iconly_Light_3_User" data-name="Iconly/Light/3 User" transform="translate(-25.5 -3)">
    <g id="_3_User" data-name="3 User" transform="translate(25.75 4.25)">
      <path id="Stroke_1" data-name="Stroke 1" d="M0,9.806A4.967,4.967,0,0,0,4.27,4.9,4.965,4.965,0,0,0,.114,0" transform="translate(26.874 1.675)" fill="none" stroke="#f63e02" stroke-linecap="round" stroke-linejoin="round" stroke-miterlimit="10" stroke-width="2.5"/>
      <path id="Stroke_3" data-name="Stroke 3" d="M0,0C2.334.349,3.962,1.166,3.962,2.85c0,1.159-.767,1.912-2.007,2.385" transform="translate(30.053 17.273)" fill="none" stroke="#f63e02" stroke-linecap="round" stroke-linejoin="round" stroke-miterlimit="10" stroke-width="2.5"/>
      <path id="Stroke_5" data-name="Stroke 5" d="M10.293,0C4.741,0,0,.841,0,4.2S4.712,8.424,10.293,8.424c5.551,0,10.291-.833,10.291-4.194S15.873,0,10.293,0Z" transform="translate(7.216 17.987)" fill="none" stroke="#f63e02" stroke-linecap="round" stroke-linejoin="round" stroke-miterlimit="10" stroke-width="2.5"/>
      <path id="Stroke_7" data-name="Stroke 7" d="M6.6,13.193a6.572,6.572,0,1,0-.048,0Z" transform="translate(10.912 0)" fill="none" stroke="#f63e02" stroke-linecap="round" stroke-linejoin="round" stroke-miterlimit="10" stroke-width="2.5"/>
      <path id="Stroke_9" data-name="Stroke 9" d="M4.27,9.806A4.96,4.96,0,0,1,4.156,0" transform="translate(3.872 1.675)" fill="none" stroke="#f63e02" stroke-linecap="round" stroke-linejoin="round" stroke-miterlimit="10" stroke-width="2.5"/>
      <path id="Stroke_11" data-name="Stroke 11" d="M3.962,0C1.629.349,0,1.166,0,2.85,0,4.009.767,4.762,2.007,5.235" transform="translate(1 17.273)" fill="none" stroke="#f63e02" stroke-linecap="round" stroke-linejoin="round" stroke-miterlimit="10" stroke-width="2.5"/>
    </g>
  </g>
</svg>
