<svg xmlns="http://www.w3.org/2000/svg" width="18" height="20" viewBox="0 0 18 20">
  <g id="Iconly_Bold_Calendar" data-name="Iconly/Bold/Calendar" transform="translate(-3 -2)">
    <g id="Calendar" transform="translate(3 2)">
      <path id="Calendar-2" data-name="Calendar" d="M5.152,20H5.141A5.152,5.152,0,0,1,1.4,18.619,5.139,5.139,0,0,1,.011,14.88L0,6.553a5.089,5.089,0,0,1,1.219-3.5A4.939,4.939,0,0,1,4.506,1.53V.78a.773.773,0,0,1,.22-.553.766.766,0,0,1,1.3.552v.7l5.865-.008V.77a.77.77,0,0,1,.218-.552.766.766,0,0,1,1.3.55v.75a4.966,4.966,0,0,1,3.321,1.487A4.993,4.993,0,0,1,17.989,6.49L18,14.916c0,3.125-1.961,5.07-5.128,5.074Zm7.891-5.808a.833.833,0,0,0-.809.851.83.83,0,1,0,.819-.851Zm-8.126,0h0a.851.851,0,0,0-.808.86.823.823,0,0,0,.811.8h.039a.809.809,0,0,0,.565-.265.821.821,0,0,0,.215-.6.813.813,0,0,0-.819-.8Zm4.068-.005h0a.855.855,0,0,0-.808.861.823.823,0,0,0,.814.8h.036a.823.823,0,0,0,.779-.861.813.813,0,0,0-.819-.8ZM4.912,10.594h0a.851.851,0,0,0-.808.86.821.821,0,0,0,.812.8h.039a.806.806,0,0,0,.563-.265.823.823,0,0,0,.214-.6.812.812,0,0,0-.818-.8Zm4.069-.035h0a.851.851,0,0,0-.809.86.823.823,0,0,0,.815.8h.036a.825.825,0,0,0,.778-.861.813.813,0,0,0-.818-.8Zm4.07.006h0a.826.826,0,0,0-.808.839v.012a.813.813,0,0,0,.821.8h.019a.825.825,0,0,0-.028-1.649ZM4.508,3.058c-1.985.2-2.991,1.375-2.988,3.493l0,.311,14.948-.02v-.35C16.428,4.379,15.4,3.22,13.414,3.047v.77a.764.764,0,0,1-1.3.547.773.773,0,0,1-.217-.545V3.01l-5.865.008,0,.808a.765.765,0,0,1-1.3.547.773.773,0,0,1-.217-.546v-.77Z" transform="translate(0 0)" fill="#616161"/>
    </g>
  </g>
</svg>
