<svg xmlns="http://www.w3.org/2000/svg" width="31.437" height="29.815" viewBox="0 0 31.437 29.815">
  <g id="Iconly_Light_Star" data-name="Iconly/Light/Star" transform="translate(-1.723 -2.25)">
    <g id="Star" transform="translate(3 3.5)">
      <path id="Stroke_1" data-name="Stroke 1" d="M16.213,1.086l2.932,5.858A1.97,1.97,0,0,0,20.631,8.01l6.56.944a1.941,1.941,0,0,1,1.093,3.324L23.54,16.836a1.931,1.931,0,0,0-.568,1.725L24.091,25a1.97,1.97,0,0,1-2.867,2.053l-5.863-3.04a2,2,0,0,0-1.84,0l-5.863,3.04A1.969,1.969,0,0,1,4.793,25l1.118-6.435a1.931,1.931,0,0,0-.568-1.725L.6,12.278A1.941,1.941,0,0,1,1.692,8.955l6.56-.944A1.973,1.973,0,0,0,9.739,6.944l2.931-5.858A1.988,1.988,0,0,1,16.213,1.086Z" transform="translate(0)" fill="none" stroke="#f63e02" stroke-linecap="round" stroke-linejoin="round" stroke-miterlimit="10" stroke-width="2.5"/>
    </g>
  </g>
</svg>
