<svg xmlns="http://www.w3.org/2000/svg" width="19.796" height="19.796" viewBox="0 0 19.796 19.796"><g transform="translate(-0.25 -0.25)"><path d="M1,10.148a23.147,23.147,0,0,0,.384,4.846,5.15,5.15,0,0,0,1.281,2.638A5.15,5.15,0,0,0,5.3,18.912a23.151,23.151,0,0,0,4.846.384,23.151,23.151,0,0,0,4.846-.384,5.15,5.15,0,0,0,2.638-1.281,5.15,5.15,0,0,0,1.281-2.638,23.151,23.151,0,0,0,.384-4.846A23.151,23.151,0,0,0,18.912,5.3a5.15,5.15,0,0,0-1.281-2.638,5.15,5.15,0,0,0-2.638-1.281A23.147,23.147,0,0,0,10.148,1,23.147,23.147,0,0,0,5.3,1.384,5.15,5.15,0,0,0,2.664,2.664,5.15,5.15,0,0,0,1.384,5.3,23.147,23.147,0,0,0,1,10.148Z" fill="none" stroke="#858585" stroke-linecap="round" stroke-linejoin="round" stroke-width="1.5"/><circle cx="2.5" cy="2.5" r="2.5" transform="translate(16 13) rotate(180)" fill="none" stroke="#858585" stroke-width="1.5"/><path d="M5,10H8.327M5,13.327H8.327" transform="translate(-0.674 -1.516)" fill="none" stroke="#858585" stroke-linecap="round" stroke-linejoin="round" stroke-width="1.5"/></g></svg>