<svg width="14" height="14" viewBox="0 0 14 14" fill="none" xmlns="http://www.w3.org/2000/svg">
    <path
        d="M7.00017 0.332031C5.68162 0.332031 4.39269 0.723024 3.29636 1.45557C2.20004 2.18811 1.34555 3.2293 0.840969 4.44747C0.336385 5.66565 0.204362 7.00609 0.461597 8.2993C0.718832 9.59251 1.35377 10.7804 2.28612 11.7127C3.21847 12.6451 4.40636 13.28 5.69956 13.5373C6.99277 13.7945 8.33321 13.6625 9.55139 13.1579C10.7696 12.6533 11.8108 11.7988 12.5433 10.7025C13.2758 9.60617 13.6668 8.31724 13.6668 6.9987C13.6649 5.23118 12.9619 3.53662 11.7121 2.2868C10.4622 1.03697 8.76768 0.333972 7.00017 0.332031ZM7.00017 12.332C5.94533 12.332 4.91419 12.0192 4.03712 11.4332C3.16006 10.8472 2.47648 10.0142 2.07281 9.03968C1.66914 8.06514 1.56352 6.99278 1.76931 5.95822C1.9751 4.92365 2.48305 3.97334 3.22893 3.22746C3.97481 2.48158 4.92512 1.97363 5.95968 1.76784C6.99425 1.56206 8.0666 1.66767 9.04114 2.07134C10.0157 2.47501 10.8486 3.15859 11.4347 4.03566C12.0207 4.91272 12.3335 5.94386 12.3335 6.9987C12.3317 8.41264 11.7693 9.76817 10.7695 10.768C9.76964 11.7678 8.41411 12.3303 7.00017 12.332ZM7.00017 6.66536C6.82335 6.66536 6.65379 6.7356 6.52876 6.86063C6.40374 6.98565 6.3335 7.15522 6.3335 7.33203V9.33203C6.3335 9.50884 6.40374 9.67841 6.52876 9.80344C6.65379 9.92846 6.82335 9.9987 7.00017 9.9987C7.17698 9.9987 7.34655 9.92846 7.47157 9.80344C7.59659 9.67841 7.66683 9.50884 7.66683 9.33203V7.33203C7.66683 7.15522 7.59659 6.98565 7.47157 6.86063C7.34655 6.7356 7.17698 6.66536 7.00017 6.66536ZM7.00017 3.9987C6.83535 3.9987 6.67423 4.04757 6.53719 4.13914C6.40015 4.23071 6.29334 4.36086 6.23027 4.51313C6.16719 4.6654 6.15069 4.83296 6.18284 4.99461C6.215 5.15626 6.29437 5.30474 6.41091 5.42129C6.52745 5.53783 6.67594 5.6172 6.83759 5.64935C6.99924 5.68151 7.1668 5.665 7.31907 5.60193C7.47134 5.53886 7.60149 5.43205 7.69306 5.29501C7.78462 5.15797 7.8335 4.99685 7.8335 4.83203C7.8335 4.61102 7.7457 4.39906 7.58942 4.24278C7.43314 4.0865 7.22118 3.9987 7.00017 3.9987Z"
        fill="white" />
</svg>
