<svg xmlns="http://www.w3.org/2000/svg" width="18.655" height="18.655" viewBox="0 0 18.655 18.655">
  <g id="Group_856" data-name="Group 856" transform="translate(-1.9 -1.9)">
    <path id="Path_8064" data-name="Path 8064" d="M7.255,1.9H15.2a5.189,5.189,0,0,1,3.916,1.6,5.717,5.717,0,0,1,1.439,3.987v7.486a5.716,5.716,0,0,1-1.439,3.987,5.19,5.19,0,0,1-3.917,1.6H7.255a5.187,5.187,0,0,1-3.916-1.6A5.718,5.718,0,0,1,1.9,14.971V7.485A5.714,5.714,0,0,1,3.342,3.5,5.187,5.187,0,0,1,7.255,1.9ZM15.2,18.855c2.255,0,3.656-1.488,3.656-3.885V7.485A3.537,3.537,0,0,0,15.2,3.6H7.255A3.537,3.537,0,0,0,3.6,7.485v7.486c0,2.4,1.4,3.885,3.655,3.885Z" fill="#0e112c"/>
    <path id="Path_8065" data-name="Path 8065" d="M11.995,16.516a.85.85,0,0,1-.85-.85V12a.85.85,0,0,1,1.7,0v3.666A.85.85,0,0,1,11.995,16.516Z" transform="translate(-0.772 -0.772)" fill="#0e112c"/>
    <path id="Path_8066" data-name="Path 8066" d="M12,9.054H11.99a.85.85,0,1,1,0-1.7H12a.85.85,0,1,1,0,1.7Z" transform="translate(-0.772 -0.455)" fill="#0e112c"/>
  </g>
</svg>
