<svg xmlns="http://www.w3.org/2000/svg" width="20.296" height="20.296" viewBox="0 0 20.296 20.296"><path d="M11.495,6a2.439,2.439,0,0,0-1.869.8A2.553,2.553,0,0,0,9,8.495a3.415,3.415,0,0,0,1.007,2.232l.021.025c.469.554.635.787.635,1.07a.832.832,0,1,0,1.663,0,3.2,3.2,0,0,0-.957-2.062L11.3,9.676c-.436-.514-.635-.806-.635-1.182a.893.893,0,0,1,.206-.591.783.783,0,0,1,.626-.241.783.783,0,0,1,.626.241.893.893,0,0,1,.206.591.832.832,0,1,0,1.663,0,2.554,2.554,0,0,0-.626-1.7A2.439,2.439,0,0,0,11.495,6Zm0,7.485a.832.832,0,1,0,.832.832A.832.832,0,0,0,11.495,13.485Z" transform="translate(-1.347 -0.842)" fill="#858585" fill-rule="evenodd"/><path d="M1,10.148a23.147,23.147,0,0,0,.384,4.846,5.15,5.15,0,0,0,1.281,2.638A5.15,5.15,0,0,0,5.3,18.912a23.151,23.151,0,0,0,4.846.384,23.151,23.151,0,0,0,4.846-.384,5.15,5.15,0,0,0,2.638-1.281,5.15,5.15,0,0,0,1.281-2.638,23.151,23.151,0,0,0,.384-4.846A23.151,23.151,0,0,0,18.912,5.3a5.15,5.15,0,0,0-1.281-2.638,5.15,5.15,0,0,0-2.638-1.281A23.147,23.147,0,0,0,10.148,1,23.147,23.147,0,0,0,5.3,1.384,5.15,5.15,0,0,0,2.664,2.664,5.15,5.15,0,0,0,1.384,5.3,23.147,23.147,0,0,0,1,10.148Z" fill="none" stroke="#858585" stroke-linecap="round" stroke-linejoin="round" stroke-width="2"/></svg>