<svg width="18" height="18" viewBox="0 0 18 18" fill="none" xmlns="http://www.w3.org/2000/svg">
    <path
        d="M17.0915 0.906655C17.014 0.828548 16.9219 0.766553 16.8203 0.724245C16.7188 0.681938 16.6098 0.660156 16.4998 0.660156C16.3898 0.660156 16.2809 0.681938 16.1793 0.724245C16.0778 0.766553 15.9856 0.828548 15.9082 0.906655L14.1415 2.67332L13.5498 2.08999C13.3937 1.93478 13.1825 1.84766 12.9623 1.84766C12.7422 1.84766 12.531 1.93478 12.3748 2.08999L11.1998 3.26499L10.6082 2.67332C10.5307 2.59521 10.4385 2.53322 10.337 2.49091C10.2354 2.4486 10.1265 2.42682 10.0165 2.42682C9.90649 2.42682 9.79756 2.4486 9.69601 2.49091C9.59447 2.53322 9.5023 2.59521 9.42483 2.67332L2.94983 9.15665L2.33316 8.57332C2.17142 8.46028 1.97481 8.40831 1.77833 8.42665C1.58185 8.445 1.39826 8.53247 1.26024 8.67349C1.12221 8.81452 1.03871 8.99995 1.0246 9.19677C1.01048 9.3936 1.06667 9.58904 1.18316 9.74832L4.12483 12.6983L2.68316 14.1483L2.0915 13.5483C1.93458 13.3914 1.72175 13.3032 1.49983 13.3032C1.27791 13.3032 1.06508 13.3914 0.908162 13.5483C0.751242 13.7052 0.663086 13.9181 0.663086 14.14C0.663086 14.3619 0.751242 14.5747 0.908162 14.7317L3.2665 17.09C3.34436 17.1672 3.43671 17.2283 3.53824 17.2698C3.63977 17.3113 3.74849 17.3323 3.85816 17.3317C3.96783 17.3323 4.07655 17.3113 4.17808 17.2698C4.27962 17.2283 4.37196 17.1672 4.44983 17.09C4.52794 17.0125 4.58993 16.9204 4.63224 16.8188C4.67455 16.7173 4.69633 16.6083 4.69633 16.4983C4.69633 16.3883 4.67455 16.2794 4.63224 16.1778C4.58993 16.0763 4.52794 15.9841 4.44983 15.9067L3.85816 15.3233L5.30816 13.8733L8.24983 16.815C8.32701 16.8937 8.41904 16.9564 8.52061 16.9993C8.62217 17.0422 8.73124 17.0645 8.8415 17.065C9.00631 17.0643 9.16721 17.0148 9.30386 16.9226C9.44052 16.8305 9.54678 16.6999 9.60922 16.5474C9.67166 16.3948 9.68746 16.2272 9.65464 16.0657C9.62182 15.9042 9.54185 15.756 9.42483 15.64L8.8415 15.0483L15.3248 8.57332C15.4029 8.49585 15.4649 8.40368 15.5072 8.30213C15.5495 8.20059 15.5713 8.09166 15.5713 7.98165C15.5713 7.87164 15.5495 7.76272 15.5072 7.66117C15.4649 7.55962 15.4029 7.46746 15.3248 7.38999L14.7332 6.79832L15.9082 5.66499C16.0634 5.50885 16.1505 5.29764 16.1505 5.07749C16.1505 4.85733 16.0634 4.64612 15.9082 4.48999L15.3248 3.89832L17.0915 2.13165C17.1761 2.05362 17.2436 1.95891 17.2898 1.85349C17.3359 1.74808 17.3598 1.63424 17.3598 1.51915C17.3598 1.40407 17.3359 1.29023 17.2898 1.18482C17.2436 1.0794 17.1761 0.98469 17.0915 0.906655ZM5.30816 11.4983L4.12483 10.34L5.29983 9.15665L6.49983 10.34L5.30816 11.4983ZM7.65816 13.8567L6.49983 12.6983L7.65816 11.4983L8.8415 12.6817L7.65816 13.8567ZM10.0165 11.4983L6.49983 7.98165L10.0332 4.44832L10.6248 5.03165L13.5665 7.98165L10.0165 11.4983ZM13.5498 5.66499L12.3748 4.44832L12.9665 3.85665L13.5498 4.43999L14.1332 5.02332L13.5498 5.66499Z"
        fill="white" />
</svg>
