<svg xmlns="http://www.w3.org/2000/svg" width="13.963" height="13.82" viewBox="0 0 13.963 13.82">
  <g id="Group_410" data-name="Group 410" transform="translate(-2 -2)">
    <g id="Group_363" data-name="Group 363" transform="translate(2 10.696)">
      <path id="Path_727" data-name="Path 727" d="M7.5,15.5c-2.954,0-4.452.508-4.452,1.507s1.5,1.522,4.452,1.522,4.452-.508,4.452-1.507S10.453,15.5,7.5,15.5Zm0,4.076c-1.36,0-5.5,0-5.5-2.569,0-2.29,3.138-2.555,5.5-2.555,1.36,0,5.5,0,5.5,2.57C13,19.315,9.86,19.58,7.5,19.58Z" transform="translate(-2 -14.456)" fill="#1e2022" fill-rule="evenodd"/>
    </g>
    <path id="Path_728" data-name="Path 728" d="M8.272,3.047A2.669,2.669,0,0,0,5.607,5.713,2.653,2.653,0,0,0,8.252,8.378l.02.524V8.378a2.666,2.666,0,1,0,0-5.331Zm0,6.378H8.25A3.713,3.713,0,0,1,8.272,2a3.713,3.713,0,1,1,0,7.425Z" transform="translate(-0.773)" fill="#1e2022" fill-rule="evenodd"/>
    <path id="Path_729" data-name="Path 729" d="M18.978,11.766a.524.524,0,0,1-.524-.524v-2.8a.524.524,0,1,1,1.047,0v2.8A.524.524,0,0,1,18.978,11.766Z" transform="translate(-4.967 -1.787)" fill="#1e2022" fill-rule="evenodd"/>
    <path id="Path_730" data-name="Path 730" d="M19.789,10.971H16.934a.524.524,0,1,1,0-1.047h2.855a.524.524,0,1,1,0,1.047Z" transform="translate(-4.35 -2.392)" fill="#1e2022" fill-rule="evenodd"/>
  </g>
</svg>
