<svg xmlns="http://www.w3.org/2000/svg" width="10.691" height="11.824" viewBox="0 0 10.691 11.824">
  <g id="Group_519" data-name="Group 519" transform="translate(-2.75 -1.75)">
    <path id="Path_863" data-name="Path 863" d="M8.1,2.838c-2.371,0-4.371,1.722-4.208,3.867a5.71,5.71,0,0,0,.106.788,7.041,7.041,0,0,0,1.842,3.041,16.4,16.4,0,0,0,2.2,1.932.1.1,0,0,0,.118,0,16.408,16.408,0,0,0,2.2-1.932A7.041,7.041,0,0,0,12.2,7.493a5.7,5.7,0,0,0,.106-.788C12.467,4.56,10.467,2.838,8.1,2.838ZM3.012,6.766C2.8,4.029,5.334,2,8.1,2s5.292,2.029,5.084,4.766a6.488,6.488,0,0,1-.123.9,7.84,7.84,0,0,1-2.047,3.425,17.265,17.265,0,0,1-2.321,2.038,1.008,1.008,0,0,1-1.186,0,17.265,17.265,0,0,1-2.321-2.038A7.84,7.84,0,0,1,3.135,7.668,6.485,6.485,0,0,1,3.012,6.766Z" transform="translate(0)" fill="#616161" fill-rule="evenodd"/>
    <path id="Path_863_-_Outline" data-name="Path 863 - Outline" d="M8.1,1.75A5.738,5.738,0,0,1,12.256,3.5a4.314,4.314,0,0,1,1.174,3.284,6.631,6.631,0,0,1-.128.938,7.921,7.921,0,0,1-2.109,3.542,17.549,17.549,0,0,1-2.356,2.069,1.258,1.258,0,0,1-1.481,0A17.549,17.549,0,0,1,5,11.264,7.922,7.922,0,0,1,2.891,7.723a6.724,6.724,0,0,1-.128-.938A4.314,4.314,0,0,1,3.936,3.5,5.738,5.738,0,0,1,8.1,1.75Zm0,11.324a.75.75,0,0,0,.446-.145,17.033,17.033,0,0,0,2.286-2.008,7.443,7.443,0,0,0,1.985-3.309,6.236,6.236,0,0,0,.118-.867,3.769,3.769,0,0,0-1.042-2.906,5.317,5.317,0,0,0-7.586,0A3.769,3.769,0,0,0,3.261,6.747a6.236,6.236,0,0,0,.118.867,7.444,7.444,0,0,0,1.985,3.309A17.033,17.033,0,0,0,7.65,12.93.75.75,0,0,0,8.1,13.074Zm0-10.487a4.742,4.742,0,0,1,3.487,1.456,3.528,3.528,0,0,1,.97,2.681,5.932,5.932,0,0,1-.111.824,7.132,7.132,0,0,1-1.9,3.158A16.663,16.663,0,0,1,8.3,12.668a.351.351,0,0,1-.413,0,16.659,16.659,0,0,1-2.235-1.963,7.132,7.132,0,0,1-1.9-3.158,5.942,5.942,0,0,1-.111-.824,3.528,3.528,0,0,1,.97-2.681A4.742,4.742,0,0,1,8.1,2.588Zm0,9.612a16.1,16.1,0,0,0,2.077-1.836,6.659,6.659,0,0,0,1.781-2.925,5.448,5.448,0,0,0,.1-.752,3.033,3.033,0,0,0-.838-2.3A4.241,4.241,0,0,0,8.1,3.088a4.241,4.241,0,0,0-3.121,1.3,3.033,3.033,0,0,0-.838,2.3,5.459,5.459,0,0,0,.1.752,6.659,6.659,0,0,0,1.781,2.925A16.094,16.094,0,0,0,8.1,12.2Z" transform="translate(0)" fill="#616161"/>
    <path id="Path_864" data-name="Path 864" d="M10.766,8.755a.7.7,0,1,0,.732.7A.716.716,0,0,0,10.766,8.755Zm-1.61.7a1.612,1.612,0,1,1,1.61,1.536A1.574,1.574,0,0,1,9.156,9.453Z" transform="translate(-2.67 -2.567)" fill="#616161" fill-rule="evenodd"/>
    <path id="Path_864_-_Outline" data-name="Path 864 - Outline" d="M10.766,7.667a1.787,1.787,0,1,1-1.86,1.786A1.826,1.826,0,0,1,10.766,7.667Zm0,3.071a1.288,1.288,0,1,0-1.36-1.286A1.326,1.326,0,0,0,10.766,10.739Zm0-2.234a.949.949,0,1,1-.982.948A.967.967,0,0,1,10.766,8.505Zm0,1.4a.449.449,0,1,0-.482-.448A.466.466,0,0,0,10.766,9.9Z" transform="translate(-2.67 -2.567)" fill="#616161"/>
  </g>
</svg>
