<svg xmlns="http://www.w3.org/2000/svg" width="21.764" height="20.5" viewBox="0 0 21.764 20.5">
  <g id="Group_961" data-name="Group 961" transform="translate(-286.751 -672.75)">
    <path id="Union_13" data-name="Union 13" d="M-1820,16.575c0-2.722,3.686-3.4,8-3.4,4.339,0,8,.7,8,3.424s-3.686,3.4-8,3.4C-1816.339,20-1820,19.3-1820,16.575Zm2.706-11.284A5.274,5.274,0,0,1-1812,0a5.273,5.273,0,0,1,5.294,5.291A5.274,5.274,0,0,1-1812,10.583,5.275,5.275,0,0,1-1817.294,5.291Z" transform="translate(2107.002 673)" fill="#616161" stroke="#616161" stroke-miterlimit="10" stroke-width="0.5"/>
    <g id="Union_14" data-name="Union 14" transform="translate(2112.516 673)" fill="none" stroke-miterlimit="10">
      <path d="M-1820,16.575c0-2.722,3.686-3.4,8-3.4,4.339,0,8,.7,8,3.424s-3.686,3.4-8,3.4C-1816.339,20-1820,19.3-1820,16.575Zm2.706-11.284A5.274,5.274,0,0,1-1812,0a5.273,5.273,0,0,1,5.294,5.291A5.274,5.274,0,0,1-1812,10.583,5.275,5.275,0,0,1-1817.294,5.291Z" stroke="none"/>
      <path d="M -1812.000610351562 18.49979972839355 C -1809.733642578125 18.49979972839355 -1808.009765625 18.29924964904785 -1806.877075195312 17.90370941162109 C -1805.50048828125 17.42300033569336 -1805.50048828125 16.86626052856445 -1805.50048828125 16.59869956970215 C -1805.50048828125 16.32871055603027 -1805.50048828125 15.76690006256104 -1806.874145507812 15.28049945831299 C -1808.010375976562 14.87819004058838 -1809.735107421875 14.6742000579834 -1812.000610351562 14.6742000579834 C -1814.267578125 14.6742000579834 -1815.991455078125 14.8747501373291 -1817.124145507812 15.27028942108154 C -1818.500732421875 15.75099945068359 -1818.500732421875 16.3077392578125 -1818.500732421875 16.5753002166748 C -1818.500732421875 16.84527015686035 -1818.500732421875 17.40702056884766 -1817.126831054688 17.89348983764648 C -1815.990478515625 18.29581069946289 -1814.265869140625 18.49979972839355 -1812.000610351562 18.49979972839355 M -1812.000610351562 9.083100318908691 C -1810.979858398438 9.083100318908691 -1810.025024414062 8.690500259399414 -1809.31201171875 7.977629661560059 C -1808.599365234375 7.264989852905273 -1808.206787109375 6.31089973449707 -1808.206787109375 5.291100025177002 C -1808.206787109375 4.271420001983643 -1808.599243164062 3.317529916763306 -1809.311889648438 2.605139970779419 C -1810.024780273438 1.89247989654541 -1810.979736328125 1.49999988079071 -1812.000610351562 1.49999988079071 C -1813.021240234375 1.49999988079071 -1813.975952148438 1.892499923706055 -1814.689086914062 2.605199813842773 C -1815.40185546875 3.317679882049561 -1815.79443359375 4.271549701690674 -1815.79443359375 5.291100025177002 C -1815.79443359375 6.310770034790039 -1815.40185546875 7.264849662780762 -1814.68896484375 7.977570056915283 C -1813.975830078125 8.69048023223877 -1813.021118164062 9.083100318908691 -1812.000610351562 9.083100318908691 M -1812.000610351562 19.99979972839355 C -1816.338623046875 19.99979972839355 -1820.000732421875 19.29509925842285 -1820.000732421875 16.5753002166748 C -1820.000732421875 13.85369968414307 -1816.315185546875 13.1742000579834 -1812.000610351562 13.1742000579834 C -1807.661743164062 13.1742000579834 -1804.00048828125 13.87889957427979 -1804.00048828125 16.59869956970215 C -1804.00048828125 19.32029914855957 -1807.68603515625 19.99979972839355 -1812.000610351562 19.99979972839355 Z M -1812.000610351562 10.58310031890869 C -1814.939086914062 10.58310031890869 -1817.29443359375 8.227799415588379 -1817.29443359375 5.291100025177002 C -1817.29443359375 2.354399919509888 -1814.939086914062 -1.358032193365943e-07 -1812.000610351562 -1.358032193365943e-07 C -1809.061279296875 -1.358032193365943e-07 -1806.706787109375 2.354399919509888 -1806.706787109375 5.291100025177002 C -1806.706787109375 8.227799415588379 -1809.061279296875 10.58310031890869 -1812.000610351562 10.58310031890869 Z" stroke="none" fill="#616161"/>
    </g>
  </g>
</svg>
