<?xml version="1.0" encoding="utf-8"?>
<!-- Generator: Adobe Illustrator 24.1.1, SVG Export Plug-In . SVG Version: 6.00 Build 0)  -->
<svg version="1.0" id="Layer_1" xmlns="http://www.w3.org/2000/svg" xmlns:xlink="http://www.w3.org/1999/xlink" x="0px" y="0px"
	 viewBox="0 0 500 500" style="enable-background:new 0 0 500 500;" xml:space="preserve">
<style type="text/css">
	.st0{fill-rule:evenodd;clip-rule:evenodd;fill:#FA8743;}
	.st1{fill:#B2B2C7;}
	.st2{fill-rule:evenodd;clip-rule:evenodd;fill:#235789;}
	.st3{fill:#FA8743;}
	.st4{fill:#6BA5AA;}
	.st5{fill:#F63E02;}
	.st6{fill:#235789;}
	.st7{fill:#0E112C;}
	.st8{fill:none;}
	.st9{fill:#FA8743;stroke:#FA8743;stroke-width:4;stroke-miterlimit:10;}
	.st10{fill:#CCD1D9;}
	.st11{fill:#E6E9ED;}
	.st12{fill:#AAB2BD;}
</style>
<g>
	<path class="st1" d="M250,206.9c29.2,0,56.6,11.4,77.2,32c20.6,20.6,32,48.1,32,77.2s-11.4,56.6-32,77.2
		c-20.6,20.6-48.1,32-77.2,32s-56.6-11.4-77.2-32c-20.6-20.6-32-48.1-32-77.2s11.4-56.6,32-77.2C193.4,218.2,220.8,206.9,250,206.9
		 M250,171.9c-79.7,0-144.2,64.6-144.2,144.2S170.3,460.3,250,460.3s144.2-64.6,144.2-144.2S329.7,171.9,250,171.9L250,171.9z"/>
</g>
<g>
	<path class="st6" d="M250,204.3c-61.6,0-111.8,50.1-111.8,111.8S188.4,427.9,250,427.9s111.8-50.1,111.8-111.8
		S311.6,204.3,250,204.3z M250,405.5c-49.3,0-89.4-40.1-89.4-89.4s40.1-89.4,89.4-89.4s89.4,40.1,89.4,89.4S299.3,405.5,250,405.5z"
		/>
</g>
<g>
	<path class="st6" d="M90,158.8v-13.7h13.7c7.6,0,13.7-6.1,13.7-13.7c0-7.6-6.1-13.7-13.7-13.7H90V104c0-7.6-6.1-13.7-13.7-13.7
		c-7.6,0-13.7,6.1-13.7,13.7v13.7H48.8c-7.6,0-13.7,6.1-13.7,13.7c0,7.6,6.1,13.7,13.7,13.7h13.7v13.7c0,7.6,6.1,13.7,13.7,13.7
		C83.8,172.5,90,166.4,90,158.8z"/>
</g>
<g>
	<path class="st6" d="M451.2,44.5h-13.7V30.8c0-7.6-6.1-13.7-13.7-13.7c-7.6,0-13.7,6.1-13.7,13.7v13.7h-13.7
		c-7.6,0-13.7,6.1-13.7,13.7S388.7,72,396.3,72H410v13.7c0,7.6,6.1,13.7,13.7,13.7c7.6,0,13.7-6.1,13.7-13.7V72h13.7
		c7.6,0,13.7-6.1,13.7-13.7S458.7,44.5,451.2,44.5z"/>
</g>
<g>
	<circle class="st6" cx="409.1" cy="154.3" r="13.7"/>
	<path class="st8" d="M409.1,143c-6.2,0-11.2,5-11.2,11.2s5,11.2,11.2,11.2c6.2,0,11.2-5,11.2-11.2S415.3,143,409.1,143z"/>
</g>
<polygon class="st3" points="238.8,143 172.2,90.3 194.2,28.6 302.3,28.6 324.6,85.8 250.3,150.6 "/>
<g>
	<circle class="st8" cx="250" cy="316.1" r="139.2"/>
	<path class="st6" d="M281.6,152.5l-4.9-0.9L339.8,94c3.7-3.4,4.7-8.8,2.5-13.3l-27.4-54.9c-1.9-3.8-5.8-6.2-10-6.2H195.1
		c-4.3,0-8.1,2.4-10,6.2l-27.4,54.9c-2.2,4.5-1.2,9.9,2.5,13.3l63.2,57.5l-4.9,0.9c-78.3,15.1-135.1,83.9-135.1,163.6
		c0,91.9,74.8,166.7,166.7,166.7S416.7,408,416.7,316.1C416.7,236.4,359.8,167.5,281.6,152.5z M261.2,42h36.7l16.2,32.4h-52.9V42z
		 M261.2,96.9h42.1l-42.1,38.4V96.9z M202.1,42h36.7v32.4h-52.9L202.1,42z M196.7,96.9h42.1v38.4L196.7,96.9z M250,460.3
		c-79.5,0-144.2-64.7-144.2-144.2c0-79.5,64.7-144.2,144.2-144.2s144.2,64.7,144.2,144.2C394.2,395.6,329.5,460.3,250,460.3z"/>
</g>
</svg>
