<?xml version="1.0" encoding="utf-8"?>
<!-- Generator: Adobe Illustrator 24.1.1, SVG Export Plug-In . SVG Version: 6.00 Build 0)  -->
<svg version="1.1" id="Layer_1" xmlns="http://www.w3.org/2000/svg" xmlns:xlink="http://www.w3.org/1999/xlink" x="0px" y="0px"
	 viewBox="0 0 500 500" style="enable-background:new 0 0 500 500;" xml:space="preserve">
<style type="text/css">
	.st0{fill-rule:evenodd;clip-rule:evenodd;fill:#FA8743;}
	.st1{fill:#FA8743;}
	.st2{fill:#6BA5AA;}
	.st3{fill:#F63E02;}
	.st4{fill:#B2B2C7;}
	.st5{fill:#235789;}
	.st6{fill:#0E112C;}
	.st7{fill:none;}
	.st8{fill:#FFFFFF;}
	.st9{fill:#FA8743;stroke:#FA8743;stroke-width:4;stroke-miterlimit:10;}
	.st10{fill:url(#SVGID_1_);}
	.st11{fill-rule:evenodd;clip-rule:evenodd;fill:none;stroke:#FA8743;stroke-width:9;stroke-miterlimit:10;}
</style>
<g>
	<polygon class="st7" points="233.8,69.5 233.8,47 205.2,47 193.9,69.5 	"/>
	<polygon class="st7" points="233.8,124 233.8,101.9 209.6,101.9 	"/>
	<circle class="st7" cx="250" cy="316.1" r="139.2"/>
	<polygon class="st7" points="266.2,101.9 266.2,124 290.4,101.9 	"/>
	<polygon class="st7" points="294.8,47 266.2,47 266.2,69.5 306.1,69.5 	"/>
	<path class="st1" d="M281.6,152.5l-4.9-0.9L339.8,94c3.7-3.4,4.7-8.8,2.5-13.3l-27.4-54.9c-1.9-3.8-5.8-6.2-10-6.2H195.1
		c-4.3,0-8.1,2.4-10,6.2l-27.4,54.9c-2.2,4.5-1.2,9.9,2.5,13.3l63.2,57.5l-4.9,0.9c-78.3,15.1-135.1,83.9-135.1,163.6
		c0,91.9,74.8,166.7,166.7,166.7S416.7,408,416.7,316.1C416.7,236.4,359.8,167.5,281.6,152.5z M261.2,42h36.7l16.2,32.4h-52.9V42z
		 M261.2,96.9h42.1l-42.1,38.4V96.9z M202.1,42h36.7v32.4h-52.9L202.1,42z M196.7,96.9h42.1v38.4L196.7,96.9z M250,460.3
		c-79.5,0-144.2-64.7-144.2-144.2c0-79.5,64.7-144.2,144.2-144.2s144.2,64.7,144.2,144.2C394.2,395.6,329.5,460.3,250,460.3z"/>
	<path class="st8" d="M189.9,72h46.4V44.5h-32.7L189.9,72z M233.8,47v22.4h-39.8L205.2,47H233.8z"/>
	<path class="st8" d="M263.7,99.4v30.2l33.2-30.2H263.7z M266.2,101.9h24.2L266.2,124V101.9z"/>
	<path class="st8" d="M296.4,44.5h-32.7V72h46.4L296.4,44.5z M266.2,47h28.6l11.2,22.4h-39.8V47z"/>
	<path class="st8" d="M236.3,129.6V99.4h-33.2L236.3,129.6z M233.8,124l-24.2-22.1h24.2V124z"/>
	<path class="st8" d="M250,174.4c-78.1,0-141.7,63.6-141.7,141.7S171.9,457.8,250,457.8s141.7-63.6,141.7-141.7
		S328.1,174.4,250,174.4z M250,455.3c-76.8,0-139.2-62.5-139.2-139.2S173.2,176.9,250,176.9s139.2,62.5,139.2,139.2
		S326.8,455.3,250,455.3z"/>
	<path class="st8" d="M297.9,42h-36.7v32.4h52.9L297.9,42z M263.7,44.5h32.7L310.1,72h-46.4V44.5z"/>
	<path class="st8" d="M238.8,96.9h-42.1l42.1,38.4V96.9z M236.3,129.6l-33.2-30.2h33.2V129.6z"/>
	<path class="st8" d="M261.2,96.9v38.4l42.1-38.4H261.2z M263.7,99.4h33.2l-33.2,30.2V99.4z"/>
	<path class="st8" d="M238.8,42h-36.7l-16.2,32.4h52.9V42z M236.3,72h-46.4l13.7-27.4h32.7V72z"/>
</g>
<g>
	<circle class="st7" cx="250" cy="316.1" r="84.4"/>
	<path class="st1" d="M250,204.3c-61.6,0-111.8,50.1-111.8,111.8S188.4,427.9,250,427.9s111.8-50.1,111.8-111.8
		S311.6,204.3,250,204.3z M250,405.5c-49.3,0-89.4-40.1-89.4-89.4s40.1-89.4,89.4-89.4s89.4,40.1,89.4,89.4S299.3,405.5,250,405.5z"
		/>
	<path class="st8" d="M250,229.2c-47.9,0-86.9,39-86.9,86.9c0,47.9,39,86.9,86.9,86.9s86.9-39,86.9-86.9
		C336.9,268.2,297.9,229.2,250,229.2z M250,400.5c-46.5,0-84.4-37.8-84.4-84.4s37.8-84.4,84.4-84.4s84.4,37.8,84.4,84.4
		S296.5,400.5,250,400.5z"/>
</g>
<g>
	<path class="st1" d="M90,158.8v-13.7h13.7c7.6,0,13.7-6.1,13.7-13.7c0-7.6-6.1-13.7-13.7-13.7H90V104c0-7.6-6.1-13.7-13.7-13.7
		c-7.6,0-13.7,6.1-13.7,13.7v13.7H48.8c-7.6,0-13.7,6.1-13.7,13.7c0,7.6,6.1,13.7,13.7,13.7h13.7v13.7c0,7.6,6.1,13.7,13.7,13.7
		C83.8,172.5,90,166.4,90,158.8z"/>
	<path class="st8" d="M76.3,175c-8.9,0-16.2-7.3-16.2-16.2v-11.2H48.8c-8.9,0-16.2-7.3-16.2-16.2c0-8.9,7.3-16.2,16.2-16.2h11.2V104
		c0-8.9,7.3-16.2,16.2-16.2S92.5,95,92.5,104v11.2h11.2c8.9,0,16.2,7.3,16.2,16.2c0,8.9-7.3,16.2-16.2,16.2H92.5v11.2
		C92.5,167.8,85.2,175,76.3,175z M48.8,120.2c-6.2,0-11.2,5-11.2,11.2s5,11.2,11.2,11.2h16.2v16.2c0,6.2,5,11.2,11.2,11.2
		s11.2-5,11.2-11.2v-16.2h16.2c6.2,0,11.2-5,11.2-11.2s-5-11.2-11.2-11.2H87.5V104c0-6.2-5-11.2-11.2-11.2s-11.2,5-11.2,11.2v16.2
		H48.8z"/>
</g>
<g>
	<path class="st1" d="M451.2,44.5h-13.7V30.8c0-7.6-6.1-13.7-13.7-13.7c-7.6,0-13.7,6.1-13.7,13.7v13.7h-13.7
		c-7.6,0-13.7,6.1-13.7,13.7S388.7,72,396.3,72H410v13.7c0,7.6,6.1,13.7,13.7,13.7c7.6,0,13.7-6.1,13.7-13.7V72h13.7
		c7.6,0,13.7-6.1,13.7-13.7S458.7,44.5,451.2,44.5z"/>
	<path class="st8" d="M423.7,101.9c-8.9,0-16.2-7.3-16.2-16.2V74.5h-11.2c-8.9,0-16.2-7.3-16.2-16.2c0-8.9,7.3-16.2,16.2-16.2h11.2
		V30.8c0-8.9,7.3-16.2,16.2-16.2s16.2,7.3,16.2,16.2V42h11.2c8.9,0,16.2,7.3,16.2,16.2c0,8.9-7.3,16.2-16.2,16.2h-11.2v11.2
		C439.9,94.6,432.7,101.9,423.7,101.9z M396.3,47c-6.2,0-11.2,5-11.2,11.2s5,11.2,11.2,11.2h16.2v16.2c0,6.2,5,11.2,11.2,11.2
		s11.2-5,11.2-11.2V69.5h16.2c6.2,0,11.2-5,11.2-11.2s-5-11.2-11.2-11.2h-16.2V30.8c0-6.2-5-11.2-11.2-11.2s-11.2,5-11.2,11.2V47
		H396.3z"/>
</g>
<g>
	<circle class="st1" cx="409.1" cy="154.3" r="13.7"/>
	<path class="st8" d="M409.1,170.5c-8.9,0-16.2-7.3-16.2-16.2s7.3-16.2,16.2-16.2c8.9,0,16.2,7.3,16.2,16.2S418,170.5,409.1,170.5z
		 M409.1,143c-6.2,0-11.2,5-11.2,11.2s5,11.2,11.2,11.2c6.2,0,11.2-5,11.2-11.2S415.3,143,409.1,143z"/>
</g>
</svg>
