<svg xmlns="http://www.w3.org/2000/svg" width="27.11" height="52.479" viewBox="0 0 27.11 52.479">
  <path id="_01-01" data-name="01-01" d="M190.855,112.834l-.791-1.362-1.509-2.6c-1.183-2.037-2.3-3.96-3.427-5.908-.28-.487-.558-.981-.826-1.459-.312-.554-.634-1.128-.957-1.686-.06-.1-.2-.347-.413-.73-1.89,3.259-3.8,6.485-5.81,9.9l-1.465,2.48-.8,1.357-.887-1.3q-.537-.789-1.056-1.547c-1.185-1.735-2.305-3.373-3.395-5.032a1.975,1.975,0,0,1,.047-1.914c2.454-4.2,4.95-8.458,7.42-12.648.142-.289.324-.639.552-1.064-.931-1.715-1.48-2.74-1.747-3.263a16.313,16.313,0,0,1-3.976-11.562,24.712,24.712,0,0,1,3.013-10.1,7.18,7.18,0,0,1,3.3-3.017,10.843,10.843,0,0,1,4.682-1.02,11.882,11.882,0,0,1,2.243.214,8.394,8.394,0,0,1,6.577,5.287,28.922,28.922,0,0,1,2.2,7.261,14.879,14.879,0,0,1-.83,7.7,100.991,100.991,0,0,1-4.763,8.908c2.956,4.953,6.567,10.991,7.666,12.775a2.612,2.612,0,0,1-.1,3.205c-.928,1.3-1.83,2.608-2.785,4-.408.593-.829,1.206-1.263,1.833Zm-7.936-17.881.875,1.574c.92,1.655,1.2,2.157,1.28,2.287l0,0c.329.569.655,1.148.97,1.708.267.474.542.964.816,1.441,1.124,1.943,2.241,3.866,3.423,5.9L191,109.1l.364-.53c.962-1.4,1.87-2.72,2.809-4.031l0-.006c.27-.371.3-.525.017-.983-1.143-1.856-4.971-8.258-7.981-13.3l-.3-.5.291-.508c2.093-3.65,4.315-7.592,4.927-9.151,1.833-4.678.435-9.232-1.349-13.457a6.443,6.443,0,0,0-5.112-4.1,9.878,9.878,0,0,0-1.865-.178c-2.808,0-5.248,1.17-6.214,2.98a22.425,22.425,0,0,0-2.781,9.287,14.444,14.444,0,0,0,3.6,10.262l.067.083.048.1c.331.66,1.314,2.472,2.024,3.778l.26.479-.261.478c-.35.641-.608,1.131-.789,1.5l-.017.034-.019.033c-2.471,4.192-4.968,8.449-7.423,12.653,1.046,1.587,2.123,3.163,3.261,4.829l.17.248.665-1.126c2.018-3.417,3.927-6.649,5.819-9.911v-.01l.392-.678.019-.085.066-.123c.1-.184.216-.4.348-.637Zm-.228-10.613-.851-1.425-.717-1.2c-.387-.647-.692-1.158-.9-1.509l-.026-.044-.021-.046c-.034-.073-.088-.168-.146-.267-.043-.074-.086-.15-.13-.231-1.441-2.694-2.853-5.332-4.307-8a2.408,2.408,0,0,1,1.047-3.546,11.844,11.844,0,0,1,6.182-1.853,12.4,12.4,0,0,1,6.04,1.7,3,3,0,0,1,1.593,1.758,2.759,2.759,0,0,1-.38,2.136c-.5.884-1,1.8-1.48,2.689-1.011,1.871-2.057,3.805-3.275,5.611-.371.553-1,1.553-1.767,2.815Zm-.723-5.113c.18.3.432.725.743,1.246.392-.629.717-1.137.949-1.483,1.164-1.726,2.186-3.617,3.175-5.445.485-.9.987-1.825,1.5-2.729a1.009,1.009,0,0,0,.191-.608c-.015-.053-.1-.25-.64-.548a10.43,10.43,0,0,0-5.067-1.443,9.746,9.746,0,0,0-5.143,1.562c-.419.255-.477.4-.483.416-.013.039,0,.186.154.465,1.457,2.676,2.871,5.317,4.312,8.013.028.053.063.113.1.177C181.828,78.962,181.9,79.089,181.968,79.226Z" transform="translate(-169.289 -60.355)" fill="#0e112c"/>
</svg>
