<?xml version="1.0" encoding="UTF-8" standalone="no"?>
<!DOCTYPE svg PUBLIC "-//W3C//DTD SVG 1.1//EN" "http://www.w3.org/Graphics/SVG/1.1/DTD/svg11.dtd">
<svg width="100%" height="100%" viewBox="0 0 2084 2084" version="1.1" xmlns="http://www.w3.org/2000/svg" xmlns:xlink="http://www.w3.org/1999/xlink" xml:space="preserve" xmlns:serif="http://www.serif.com/" style="fill-rule:evenodd;clip-rule:evenodd;stroke-linejoin:round;stroke-miterlimit:2;">
    <rect id="Artboard1" x="0" y="0" width="2083.33" height="2083.33" style="fill:none;"/>
    <g id="Artboard11" serif:id="Artboard1">
        <g transform="matrix(3.90585,0,0,3.90585,41.9527,83.5344)">
            <g transform="matrix(0.646521,-0.646521,0.646521,0.646521,-30.2178,226.709)">
                <circle cx="256" cy="186.564" r="178.564" style="fill:rgb(178,178,199);"/>
            </g>
            <g transform="matrix(0.914457,0,0,0.914457,21.8514,11.2056)">
                <path d="M256,365.128L304.336,504L349.746,459.594L412.914,466.208L364.848,328.112C334.715,351.318 296.973,365.128 256,365.128Z" style="fill:rgb(246,62,2);fill-rule:nonzero;"/>
            </g>
            <g transform="matrix(0.914457,0,0,0.914457,21.8514,11.2056)">
                <path d="M256,365.128C215.027,365.128 177.285,351.318 147.152,328.113L99.086,466.208L162.254,459.594L207.664,504L256,365.128Z" style="fill:rgb(246,62,2);fill-rule:nonzero;"/>
            </g>
            <g transform="matrix(0.646521,-0.646521,0.646521,0.646521,-30.2178,226.709)">
                <circle cx="256" cy="186.564" r="140.67" style="fill:rgb(107,165,170);"/>
            </g>
            <g transform="matrix(0.914457,0,0,0.914457,21.8514,11.2056)">
                <path d="M268.878,118.042L281.997,144.625C284.089,148.863 288.132,151.801 292.81,152.481L322.146,156.744C333.925,158.456 338.628,172.931 330.105,181.239L308.877,201.931C305.492,205.23 303.948,209.984 304.747,214.642L309.758,243.859C311.77,255.59 299.457,264.536 288.921,258.998L262.682,245.203C258.498,243.004 253.5,243.004 249.317,245.203L223.078,258.998C212.543,264.537 200.229,255.591 202.241,243.859L207.252,214.642C208.051,209.983 206.507,205.23 203.122,201.931L181.894,181.239C173.371,172.931 178.074,158.456 189.853,156.744L219.189,152.481C223.866,151.801 227.91,148.864 230.002,144.625L243.121,118.042C248.39,107.368 263.61,107.368 268.878,118.042Z" style="fill:rgb(250,135,67);fill-rule:nonzero;"/>
            </g>
            <g transform="matrix(0.914457,0,0,0.914457,21.8514,11.2056)">
                <path d="M125.57,214.797C124.693,210.74 120.697,208.166 116.635,209.04C112.578,209.917 110.001,213.917 110.878,217.974C117.937,250.613 136.151,280.284 162.165,301.521C188.552,323.063 221.876,334.926 256,334.926C337.87,334.926 404.477,268.32 404.477,186.449C404.477,104.578 337.871,37.972 256,37.972C174.129,37.972 107.523,104.578 107.523,186.449C107.523,190.6 110.888,193.965 115.039,193.965C119.19,193.965 122.554,190.6 122.554,186.449C122.554,112.866 182.417,53.003 256,53.003C329.582,53.003 389.446,112.866 389.446,186.449C389.446,260.032 329.582,319.895 256,319.895C225.33,319.895 195.381,309.235 171.67,289.877C148.284,270.785 131.911,244.121 125.57,214.797Z" style="fill:rgb(35,87,137);fill-rule:nonzero;"/>
                <path d="M335.504,186.494C341.518,180.631 343.643,172.026 341.047,164.037C338.452,156.049 331.675,150.336 323.363,149.129L293.966,144.858C291.727,144.533 289.791,143.126 288.79,141.097L275.644,114.459C271.926,106.927 264.4,102.248 256,102.248C247.601,102.248 240.074,106.927 236.356,114.459L223.21,141.097C222.208,143.126 220.273,144.532 218.034,144.858L188.637,149.129C180.325,150.337 173.55,156.049 170.953,164.037C168.357,172.025 170.481,180.63 176.496,186.494L197.767,207.228C199.387,208.808 200.127,211.083 199.744,213.313L194.722,242.59C193.302,250.869 196.642,259.078 203.436,264.016C207.276,266.806 211.768,268.223 216.292,268.223C219.773,268.223 223.273,267.383 226.507,265.684L252.8,251.861C254.804,250.808 257.196,250.808 259.198,251.861L285.492,265.684C292.927,269.594 301.768,268.953 308.561,264.017C315.356,259.08 318.695,250.87 317.275,242.592L312.254,213.313C311.871,211.083 312.61,208.808 314.232,207.229L335.504,186.494ZM303.741,196.465C298.576,201.499 296.221,208.749 297.442,215.855L302.462,245.132C302.915,247.77 301.893,250.283 299.728,251.856C297.563,253.429 294.857,253.625 292.487,252.379L266.195,238.556C263.003,236.878 259.502,236.04 256.001,236.04C252.5,236.04 248.999,236.879 245.807,238.556L219.514,252.379C217.145,253.625 214.439,253.429 212.274,251.856C210.109,250.283 209.087,247.77 209.539,245.132L214.561,215.854C215.78,208.746 213.424,201.498 208.26,196.464L186.989,175.73C185.072,173.862 184.422,171.227 185.25,168.682C186.077,166.137 188.151,164.388 190.8,164.003L220.197,159.732C227.333,158.695 233.499,154.215 236.691,147.749L249.837,121.112C251.021,118.712 253.326,117.28 256.002,117.28C258.678,117.28 260.982,118.713 262.167,121.112L275.313,147.749C278.504,154.216 284.67,158.696 291.807,159.733L321.204,164.004C323.852,164.389 325.927,166.138 326.753,168.683C327.58,171.228 326.93,173.863 325.013,175.731L303.741,196.465Z" style="fill:rgb(35,87,137);fill-rule:nonzero;"/>
                <path d="M397.573,398.801C396.21,394.881 391.93,392.808 388.004,394.174C384.085,395.538 382.013,399.822 383.377,403.742L402.25,457.965L350.723,452.569C348.503,452.34 346.285,453.106 344.685,454.671L307.644,490.894L266.47,372.599C301.511,370.65 333.997,358.979 361.277,340.247L373.487,375.327C374.566,378.43 377.475,380.374 380.585,380.374C381.404,380.374 382.238,380.239 383.056,379.954C386.975,378.59 389.047,374.306 387.683,370.386L373.898,330.78C415.713,296.56 442.45,244.571 442.45,186.45C442.45,162.576 437.999,139.324 429.221,117.341C427.682,113.485 423.308,111.61 419.455,113.148C415.6,114.687 413.723,119.06 415.263,122.915C423.329,143.117 427.42,164.494 427.42,186.45C427.42,280.97 350.523,357.868 256.002,357.868C161.482,357.868 84.584,280.97 84.584,186.45C84.584,91.93 161.48,15.031 256,15.031C285.9,15.031 315.332,22.842 341.112,37.619C366.129,51.958 387.308,72.548 402.358,97.161C404.524,100.703 409.15,101.817 412.69,99.653C416.232,97.488 417.347,92.862 415.182,89.321C398.819,62.558 375.791,40.17 348.587,24.578C320.534,8.499 288.519,-0 256,-0C153.192,-0 69.551,83.641 69.551,186.449C69.551,244.571 96.288,296.56 138.103,330.78L91.664,464.202C89.964,468.613 93.862,474.853 99.545,474.147L159.331,467.887L202.31,509.916C205.608,513.396 212.842,512.442 214.662,507.013L256,388.245L297.338,507.013C298.924,511.742 305.449,513.907 309.691,509.916L352.669,467.887L412.456,474.147C417.418,474.777 422.12,469.605 420.336,464.202L397.573,398.801ZM204.357,490.894L167.315,454.671C165.715,453.107 163.506,452.34 161.278,452.57L109.751,457.965L150.724,340.247C178.004,358.98 210.49,370.65 245.531,372.599L204.357,490.894Z" style="fill:rgb(35,87,137);fill-rule:nonzero;"/>
            </g>
        </g>
    </g>
</svg>
