<svg xmlns="http://www.w3.org/2000/svg" width="41.394" height="46.84" viewBox="0 0 41.394 46.84">
  <g transform="translate(-292.803 -302.57)">
    <path id="_026-meditation" data-name="026-meditation" d="M45.87,38.776,35.143,32.441V27.216h5.01a4.609,4.609,0,0,0,2.972-8.133L40.45,16.827h0l-3.97-3.341A6.221,6.221,0,0,0,32.7,12.034,4.763,4.763,0,0,0,34.17,8.608V6.52a6.627,6.627,0,0,0-1.982-4.7A6.227,6.227,0,0,0,27.676,0a6.4,6.4,0,0,0-6.25,6.372V8.608a4.763,4.763,0,0,0,1.468,3.426,6.221,6.221,0,0,0-3.779,1.451l-3.968,3.342h0l-2.675,2.256a4.609,4.609,0,0,0,2.97,8.132h5.01v5.225L9.726,38.776a3.708,3.708,0,0,0,1.583,7.062H44.287a3.708,3.708,0,0,0,1.583-7.062ZM43.508,22.607a3.359,3.359,0,0,1-3.355,3.356H28.424V20.413a1.883,1.883,0,0,1,1.253,1.773v.107a.627.627,0,0,0,.627.625h8.985a.627.627,0,0,0,.4-1.106L37.776,20.2l1.955-1.764.326-.294,2.256,1.9a3.35,3.35,0,0,1,1.194,2.565Zm-7.089-1.915,1.155.973H35.143v-2.05ZM22.679,8.608V6.37A5.143,5.143,0,0,1,27.7,1.252a4.987,4.987,0,0,1,3.61,1.465,5.366,5.366,0,0,1,1.606,3.8V8.608a3.519,3.519,0,0,1-2.78,3.429.627.627,0,0,0,.129,1.24h.818A3.4,3.4,0,0,1,27.8,15.1a3.4,3.4,0,0,1-3.285-1.819h.818a.627.627,0,0,0,.129-1.24A3.519,3.519,0,0,1,22.679,8.608Zm-2.758,5.837a4.969,4.969,0,0,1,3.2-1.166h.09c.376,1.742,2.292,3.073,4.589,3.073s4.213-1.33,4.589-3.073h.09a4.969,4.969,0,0,1,3.2,1.166l3.418,2.879-2,1.806-.279.251-1.889-1.593a.627.627,0,0,0-1.031.479v3.4h-3a3.134,3.134,0,0,0-6.18,0h-3v-3.4a.627.627,0,0,0-1.031-.479l-1.889,1.593-.279-.251-2-1.806Zm-1.9,7.219,1.155-.973,1.276-1.074v2.048Zm-5.934.942a3.35,3.35,0,0,1,1.193-2.566l2.256-1.9.326.294L17.817,20.2,15.9,21.812a.627.627,0,0,0,.406,1.106h8.985a.627.627,0,0,0,.627-.627v-.107a1.883,1.883,0,0,1,1.253-1.773v5.551H15.442a3.359,3.359,0,0,1-3.355-3.356ZM27.8,27.216h6.092v4.956H21.706V27.216Zm5.389,17.369v-3.07l3.864-1.158a.671.671,0,0,1,.864.645v2.913a.672.672,0,0,1-.671.671Zm11.1,0H39.041a1.9,1.9,0,0,0,.127-.671V41a1.925,1.925,0,0,0-2.477-1.844l-4.179,1.253L18.465,38.386a.627.627,0,1,0-.179,1.24l13.647,1.966v2.992H11.308A2.455,2.455,0,0,1,10.281,39.9a.609.609,0,0,0,.057-.03l10.913-6.446H34.345L45.258,39.87a.606.606,0,0,0,.057.03,2.455,2.455,0,0,1-1.028,4.685Z" transform="translate(285.702 303.073)" fill="#0e112c"/>
    <path id="_026-meditation_-_Outline" data-name="026-meditation - Outline" d="M44.287,46.338H11.308a4.208,4.208,0,0,1-1.817-8l10.462-6.179v-4.44h-4.51A5.109,5.109,0,0,1,12.151,18.7l2.675-2.256L18.794,13.1A6.757,6.757,0,0,1,21.9,11.642a5.292,5.292,0,0,1-.973-3.032V6.37A6.9,6.9,0,0,1,27.664-.5h.12a6.683,6.683,0,0,1,4.757,1.971,7.171,7.171,0,0,1,2.128,5.05v2.09a5.294,5.294,0,0,1-.973,3.033A6.756,6.756,0,0,1,36.8,13.1l3.971,3.342L43.448,18.7a5.109,5.109,0,0,1-3.292,9.015H35.643v4.44L46.1,38.334a4.208,4.208,0,0,1-1.817,8ZM27.784.5h-.1a5.872,5.872,0,0,0-5.759,5.874V8.608a4.284,4.284,0,0,0,1.314,3.065l.855.819-1.183.042a5.747,5.747,0,0,0-3.475,1.335l-6.642,5.6a4.109,4.109,0,0,0,2.647,7.25h5.51v6.01l-11.013,6.5a3.208,3.208,0,0,0,1.369,6.11H44.287a3.208,3.208,0,0,0,1.369-6.11l-.041-.022-10.973-6.48v-6.01h5.51a4.109,4.109,0,0,0,2.65-7.25l-2.675-2.256-3.97-3.341a5.747,5.747,0,0,0-3.474-1.334L31.5,12.492l.855-.819A4.284,4.284,0,0,0,33.67,8.607V6.52a6.166,6.166,0,0,0-1.832-4.342A5.692,5.692,0,0,0,27.784.5Zm9.459,44.589-4.557,0V41.142l4.221-1.265A1.171,1.171,0,0,1,38.415,41v2.912A1.174,1.174,0,0,1,37.244,45.086Zm-3.557-1h3.557a.172.172,0,0,0,.171-.172V41a.171.171,0,0,0-.221-.166l-3.508,1.051Zm10.6,1h0v0H38.312l.262-.68a1.4,1.4,0,0,0,.094-.5V41a1.425,1.425,0,0,0-1.834-1.365L32.55,40.92,18.393,38.881a.127.127,0,1,0-.036.25l14.075,2.028v3.925H11.308a2.955,2.955,0,0,1-1.237-5.639l.01-.005,11.032-6.516H34.482L45.513,39.44l.011.006a2.955,2.955,0,0,1-1.236,5.639Zm0-1h0a1.955,1.955,0,0,0,.818-3.73A1.109,1.109,0,0,1,45,40.3L34.208,33.924H21.387L10.591,40.3a1.109,1.109,0,0,1-.1.053,1.955,1.955,0,0,0,.819,3.73H31.433V42.025l-13.218-1.9a1.127,1.127,0,1,1,.322-2.23L32.474,39.9l4.073-1.222A2.425,2.425,0,0,1,39.668,41v2.913q0,.086-.007.171Zm-9.9-11.413H21.206V26.716H34.389Zm-12.183-1H33.389V27.716H22.206Zm17.947-5.209H27.924V19.705l.667.237a2.388,2.388,0,0,1,1.586,2.243v.108a.127.127,0,0,0,.127.125h8.985a.127.127,0,0,0,.082-.224l-2.355-1.985,3.031-2.734,2.59,2.184a3.855,3.855,0,0,1-2.483,6.8Zm-11.229-1H40.153a2.855,2.855,0,0,0,1.839-5.038L40.069,18.8l-1.532,1.382,1.479,1.246a1.127,1.127,0,0,1-.726,1.988H30.3a1.129,1.129,0,0,1-1.127-1.123v-.109a1.381,1.381,0,0,0-.253-.8Zm-1.253,1H15.442a3.867,3.867,0,0,1-3.822-3.356h-.032v-.5a3.841,3.841,0,0,1,1.371-2.949l2.589-2.184,3.031,2.734-2.355,1.986a.127.127,0,0,0,.082.224h8.987a.127.127,0,0,0,.127-.127v-.107A2.388,2.388,0,0,1,27,19.94l.667-.237ZM12.587,22.547v.059a2.864,2.864,0,0,0,2.856,2.856H26.671V21.389a1.382,1.382,0,0,0-.253.8v.107a1.129,1.129,0,0,1-1.126,1.127H16.306a1.127,1.127,0,0,1-.728-1.988l1.479-1.247L15.525,18.8,13.6,20.423A2.843,2.843,0,0,0,12.587,22.547Zm26.356-.382h-4.3V18.54Zm-3.3-1H36.2l-.562-.474Zm-1.255,1H30.465l-.07-.417a2.634,2.634,0,0,0-5.194,0l-.07.417H21.206v-3.9a.127.127,0,0,0-.073-.115A.128.128,0,0,0,21,18.17l-2.222,1.873-.6-.541-2.428-2.191L19.6,14.063a5.477,5.477,0,0,1,3.518-1.284h.494l.085.395c.33,1.527,2.092,2.678,4.1,2.678s3.771-1.151,4.1-2.678l.085-.395h.493a5.477,5.477,0,0,1,3.518,1.284l3.856,3.249-3.031,2.732L34.6,18.171a.128.128,0,0,0-.135-.018.127.127,0,0,0-.073.115Zm-3.1-1h2.1v-2.9a1.131,1.131,0,0,1,.652-1.022,1.127,1.127,0,0,1,1.2.16L36.8,18.718l1.53-1.381-2.979-2.509a4.476,4.476,0,0,0-2.587-1.039A5.1,5.1,0,0,1,27.8,16.852a5.1,5.1,0,0,1-4.965-3.063,4.476,4.476,0,0,0-2.587,1.04l-2.978,2.509L18.8,18.718l1.556-1.312a1.127,1.127,0,0,1,1.853.861v2.9h2.1a3.635,3.635,0,0,1,6.976,0Zm-10.334,1h-4.3l4.3-3.622Zm-1.562-1h.562v-.473ZM27.8,15.6a3.9,3.9,0,0,1-3.754-2.146l-.249-.673h1.535a.127.127,0,0,0,.025-.251A4.019,4.019,0,0,1,22.179,8.61V6.37A5.643,5.643,0,0,1,27.688.752h.091a5.45,5.45,0,0,1,3.883,1.611,5.9,5.9,0,0,1,1.754,4.157v2.09a4.019,4.019,0,0,1-3.175,3.918.127.127,0,0,0,.025.251H31.8l-.249.673A3.9,3.9,0,0,1,27.8,15.6Zm-2.354-1.825a3.772,3.772,0,0,0,4.708,0,1.127,1.127,0,0,1-.12-2.223,3.036,3.036,0,0,0,2.384-2.942V6.52a4.9,4.9,0,0,0-1.457-3.447l0,0a4.458,4.458,0,0,0-3.248-1.318,4.619,4.619,0,0,0-4.528,4.621V8.608a3.036,3.036,0,0,0,2.385,2.941,1.127,1.127,0,0,1-.121,2.223Z" transform="translate(285.702 303.073)" fill="#0e112c"/>
  </g>
</svg>
