<svg xmlns="http://www.w3.org/2000/svg" width="10.801" height="10.8" viewBox="0 0 10.801 10.8">
  <g id="Group_841" data-name="Group 841" transform="translate(-1.85 -1.85)">
    <path id="Path_745" data-name="Path 745" d="M7.25,2.808A4.444,4.444,0,0,0,3.3,9.287a.4.4,0,0,1,.045.185v1.682H5.028a.4.4,0,0,1,.185.045A4.443,4.443,0,1,0,7.25,2.808ZM2,7.25a5.247,5.247,0,1,1,2.932,4.712H2.942a.4.4,0,0,1-.4-.4V9.568A5.23,5.23,0,0,1,2,7.25Z" fill-rule="evenodd"/>
    <path id="Path_745_-_Outline" data-name="Path 745 - Outline" d="M7.25,1.85a5.4,5.4,0,0,1,0,10.8A5.347,5.347,0,0,1,4.9,12.112H2.942a.554.554,0,0,1-.554-.554V9.6A5.347,5.347,0,0,1,1.85,7.25,5.406,5.406,0,0,1,7.25,1.85Zm0,10.5a5.1,5.1,0,1,0-5.1-5.1A5.05,5.05,0,0,0,2.673,9.5l.015.031v2.024a.254.254,0,0,0,.254.254H4.966L5,11.827A5.05,5.05,0,0,0,7.25,12.35Zm0-9.692a4.592,4.592,0,0,1,0,9.185,4.541,4.541,0,0,1-2.106-.51.255.255,0,0,0-.117-.028H3.2V9.472a.255.255,0,0,0-.028-.117,4.541,4.541,0,0,1-.51-2.106A4.6,4.6,0,0,1,7.25,2.658Zm0,8.885A4.292,4.292,0,1,0,2.958,7.25a4.244,4.244,0,0,0,.477,1.968.556.556,0,0,1,.062.254V11H5.028a.557.557,0,0,1,.254.062A4.244,4.244,0,0,0,7.25,11.542Z"/>
  </g>
</svg>
