<svg xmlns="http://www.w3.org/2000/svg" width="21.756" height="27.195" viewBox="0 0 21.756 27.195">
  <g id="Group_306" data-name="Group 306" transform="translate(-4 -2)">
    <path id="Path_677" data-name="Path 677" d="M8.354,6.52a5.068,5.068,0,0,1,10.077,0c.12,1.365.225,2.915.225,4.2s-.1,2.831-.225,4.2a5.068,5.068,0,0,1-10.077,0c-.12-1.365-.225-2.915-.225-4.2S8.234,7.885,8.354,6.52Zm5.038-2.428A2.906,2.906,0,0,0,10.451,6.7c-.119,1.347-.217,2.825-.217,4.013s.1,2.667.217,4.013a2.962,2.962,0,0,0,5.882,0c.119-1.347.217-2.825.217-4.013s-.1-2.667-.217-4.013A2.906,2.906,0,0,0,13.393,4.092Z" transform="translate(1.485)" fill="#1e2022" fill-rule="evenodd"/>
    <path id="Path_678" data-name="Path 678" d="M5.053,8.154A1.049,1.049,0,0,1,6.105,9.2c0,1.25.094,2.7.236,4.166a8.363,8.363,0,0,0,8.536,7.34,8.363,8.363,0,0,0,8.536-7.34c.142-1.467.236-2.916.236-4.166a1.053,1.053,0,0,1,2.105,0c0,1.343-.1,2.865-.246,4.366a10.392,10.392,0,0,1-9.579,9.182v3.187a1.053,1.053,0,0,1-2.105,0V22.748a10.392,10.392,0,0,1-9.579-9.182C4.1,12.065,4,10.543,4,9.2A1.049,1.049,0,0,1,5.053,8.154Z" transform="translate(0 2.214)" fill="#1e2022" fill-rule="evenodd"/>
  </g>
</svg>
