<svg xmlns="http://www.w3.org/2000/svg" width="17.001" height="17" viewBox="0 0 17.001 17">
  <g transform="translate(-52.5 -49.5)">
    <path id="Path_47" data-name="Path 47" d="M7.809.279a.686.686,0,0,1,.071.693A7.138,7.138,0,0,0,7.2,4.043a6.524,6.524,0,0,0,6.629,6.389,5.8,5.8,0,0,0,1.326-.221.686.686,0,0,1,.793.934A8.224,8.224,0,0,1,8.248,16,8.156,8.156,0,0,1,0,8,8.146,8.146,0,0,1,7.168.006.686.686,0,0,1,7.809.279ZM6.172,1.62A6.737,6.737,0,0,0,1.371,8a6.785,6.785,0,0,0,6.876,6.629,7.018,7.018,0,0,0,5.768-2.83c-.063,0-.126,0-.19,0a7.9,7.9,0,0,1-8-7.76A8.439,8.439,0,0,1,6.172,1.62Z" transform="translate(53 50)" fill="#1e2022" fill-rule="evenodd"/>
    <path id="Path_47_-_Outline" data-name="Path 47 - Outline" d="M7.256-.5A1.186,1.186,0,0,1,8.334,1.181,6.631,6.631,0,0,0,7.7,4.043a6.019,6.019,0,0,0,6.129,5.889,5.4,5.4,0,0,0,1.209-.207,1.186,1.186,0,0,1,1.371,1.614A8.728,8.728,0,0,1,8.248,16.5a8.8,8.8,0,0,1-6.191-2.511A8.331,8.331,0,0,1-.5,8,8.651,8.651,0,0,1,7.1-.49,1.191,1.191,0,0,1,7.256-.5Zm6.57,11.432A7.02,7.02,0,0,1,6.7,4.043,7.6,7.6,0,0,1,7.425.763.186.186,0,0,0,7.232.5,7.649,7.649,0,0,0,.5,8a7.636,7.636,0,0,0,7.748,7.5,7.732,7.732,0,0,0,7.237-4.55.185.185,0,0,0-.029-.193.187.187,0,0,0-.185-.06A6.216,6.216,0,0,1,13.827,10.932ZM6.916.867l-.265.9a7.922,7.922,0,0,0-.325,2.281,7.391,7.391,0,0,0,7.5,7.26c.053,0,.108,0,.166,0l1.032-.05-.6.84a7.551,7.551,0,0,1-6.175,3.039,7.431,7.431,0,0,1-5.232-2.12,6.965,6.965,0,0,1-.691-9.285,7.349,7.349,0,0,1,3.7-2.58Zm6.05,11.395a8.365,8.365,0,0,1-7.64-8.218,9.1,9.1,0,0,1,.14-1.612A6.25,6.25,0,0,0,1.871,8a6.263,6.263,0,0,0,6.376,6.129A6.694,6.694,0,0,0,12.966,12.261Z" transform="translate(53 50)" fill="#1e2022"/>
  </g>
</svg>
