<svg xmlns="http://www.w3.org/2000/svg" width="4" height="14.027" viewBox="0 0 4 14.027">
  <g id="Group_309" data-name="Group 309" transform="translate(-66 99.027) rotate(-90)">
    <g id="Group_308" data-name="Group 308" transform="translate(86.079 66.987)">
      <path id="Path_679" data-name="Path 679" d="M9.948,3.013H9.939a2,2,0,0,1,0-4h.009a2,2,0,0,1,0,4Z" transform="translate(1)" fill="#1e2022"/>
      <path id="Path_680" data-name="Path 680" d="M5.939,3.013H5.93a2,2,0,1,1,0-4h.009a2,2,0,1,1,0,4Z" fill="#1e2022"/>
      <path id="Path_681" data-name="Path 681" d="M1.93,3.013H1.921a2,2,0,0,1,0-4H1.93a2,2,0,0,1,0,4Z" transform="translate(-1)" fill="#1e2022"/>
    </g>
  </g>
</svg>
