<svg xmlns="http://www.w3.org/2000/svg" width="17.5" height="17.5" viewBox="0 0 17.5 17.5">
  <g id="Group_304" data-name="Group 304" transform="translate(-3.25 -3.25)">
    <path id="Path_669" data-name="Path 669" d="M12.481,3.855a2.478,2.478,0,0,1,1.276.348.749.749,0,0,1,.093.065c1.124.917,1.365,2.464,1.433,5.181a.75.75,0,0,1-.219.549l-6.819,6.82a.75.75,0,0,1-.906.119.674.674,0,0,0-.171-.078h0c-.275-.02-.518-.028-.733-.036a3.067,3.067,0,0,1-2.21-.693c-.98-.837-.976-2.592-.972-4q0-.124,0-.244t0-.244c0-1.41-.009-3.165.972-4A3.027,3.027,0,0,1,6.4,6.95c.222-.008.474-.018.762-.04A6.306,6.306,0,0,0,8.622,5.881C9.776,4.931,11.084,3.855,12.481,3.855Zm.465,1.613a.981.981,0,0,0-.465-.113c-.86,0-1.995.934-2.906,1.684A4.886,4.886,0,0,1,7.278,8.4c-.319.025-.588.035-.825.044-.738.028-.925.045-1.256.329-.454.387-.449,1.934-.447,2.858q0,.126,0,.248t0,.248c0,.924-.007,2.471.446,2.858.339.29.531.307,1.288.334.227.008.484.017.785.039a1.486,1.486,0,0,1,.266.042l6.238-6.238C13.7,6.94,13.476,5.942,12.946,5.468Z"/>
    <path id="Path_670" data-name="Path 670" d="M12.483,19.916a4.856,4.856,0,0,1-2.681-1.1.75.75,0,1,1,.879-1.215c1.313.95,1.9.889,2.265.7.581-.518.8-1.686.837-4.392a.75.75,0,1,1,1.5.019c-.038,2.955-.271,4.628-1.434,5.573a.75.75,0,0,1-.092.064A2.465,2.465,0,0,1,12.483,19.916Z"/>
    <path id="Path_671" data-name="Path 671" d="M4,20.75a.75.75,0,0,1-.53-1.28l16-16A.75.75,0,1,1,20.53,4.53l-16,16A.748.748,0,0,1,4,20.75Z"/>
  </g>
</svg>
