<svg width="170" height="90" viewBox="0 0 170 90" fill="none" xmlns="http://www.w3.org/2000/svg">
    <g clip-path="url(#clip0)">
        <path
            d="M103.859 85.497V76.491C103.859 76.0707 103.919 74.0894 103.919 72.7085H103.859L99.6013 85.497H97.5625L93.305 72.7085H93.245C93.245 74.0894 93.305 76.0107 93.305 76.491V85.497H91.3262V70.2468H94.2644L98.5819 83.1554H98.6419L102.959 70.2468H105.898V85.497H103.859Z"
            fill="#EF4323" />
        <path
            d="M115.672 74.3896H117.711C116.392 77.992 115.132 81.6545 113.753 85.2569C112.014 89.7599 111.774 90 109.436 90C109.136 90 108.956 89.94 108.656 89.8199V88.1388C108.896 88.1988 109.256 88.3189 109.795 88.3189C110.755 88.3189 110.875 88.0187 111.774 85.7372L107.637 74.3296H109.735L112.674 83.3956H112.734L115.672 74.3896Z"
            fill="#EF4323" />
        <path
            d="M128.324 82.0146C128.264 82.555 127.725 84.116 126.345 85.0767C125.866 85.4369 125.146 85.8572 123.347 85.8572C120.229 85.8572 118.37 83.5156 118.37 80.2735C118.37 76.8512 120.049 74.0894 123.707 74.0894C126.885 74.0894 128.504 76.611 128.504 80.5737H120.409C120.409 82.9152 121.488 84.2361 123.647 84.2361C125.386 84.2361 126.465 82.8552 126.525 82.0747H128.324V82.0146ZM126.585 79.0727C126.465 77.3315 125.746 75.7705 123.467 75.7705C121.728 75.7705 120.409 77.3916 120.409 79.0727H126.585Z"
            fill="#EF4323" />
        <path d="M132.642 85.497H130.783V70.2468H132.642V85.497Z" fill="#EF4323" />
        <path d="M135.46 72.3482V70.2468H137.319V72.3482H135.46ZM137.319 85.497H135.46V74.3896H137.319V85.497Z" fill="#EF4323" />
        <path
            d="M149.132 85.497H147.273V78.6524C147.273 76.7311 146.734 75.7705 144.875 75.7705C143.795 75.7705 141.937 76.4309 141.937 79.4329V85.497H140.078V74.3896H141.817V75.9506H141.877C142.296 75.3502 143.316 74.0894 145.235 74.0894C146.974 74.0894 149.132 74.8098 149.132 77.9319V85.497Z"
            fill="#EF4323" />
        <path
            d="M165.383 55.357C163.464 59.0795 160.525 61.0008 156.748 61.0008C153.989 61.0008 151.171 60.0401 149.012 58.9594C156.208 57.3984 160.645 42.9287 160.645 29.4798C160.645 19.7533 158.127 9.36635 151.231 8.64587C152.91 7.98543 154.889 7.44507 157.047 7.44507C159.986 7.44507 162.684 8.46575 165.083 10.387C170.959 15.4304 172.159 41.788 165.383 55.357Z"
            fill="#EF4323" />
        <path
            d="M112.734 29.3596L107.277 35.964C103.139 33.9826 99.3614 32.6017 95.7635 31.8812C94.4443 31.581 93.1251 31.461 91.8058 31.461C88.3279 31.461 84.8499 32.4216 81.312 34.2828C86.1092 29.6598 92.2856 25.2168 99.9011 25.2168C104.099 25.2768 108.356 26.6578 112.734 29.3596Z"
            fill="#EF4323" />
        <path
            d="M160.705 62.1414C158.966 63.5823 156.988 64.3028 154.709 64.3028C147.393 64.3028 138.099 57.158 129.044 50.1934C125.626 47.6117 122.148 44.9099 118.79 42.6284L122.748 37.7051C124.906 39.8665 126.825 41.8478 128.624 43.649C135.82 50.9739 140.557 55.8372 143.555 57.7584C148.652 61.0606 153.15 62.7418 156.868 62.7418C158.247 62.8018 159.566 62.6217 160.705 62.1414Z"
            fill="#EF4323" />
        <path
            d="M91.2663 15.5503C97.2028 15.5503 103.739 19.1527 112.494 27.3782C107.996 24.8565 103.979 23.6557 100.081 23.6557C91.9259 23.6557 84.1305 28.5189 73.157 40.4069C59.0653 55.657 45.1534 69.2261 35.0194 77.6917C31.5414 80.5736 24.5256 85.4369 16.97 85.4369C10.194 85.4969 4.49735 81.6544 0 74.1494C2.27866 75.4702 5.63668 76.8512 10.0741 76.8512C17.03 76.8512 24.4056 73.549 32.0811 67.0046C44.134 56.7377 53.8483 45.8705 61.6437 37.1647C67.2205 30.9205 71.5979 26.0573 75.1358 23.1754C81.8519 17.7718 86.5291 15.5503 91.2663 15.5503Z"
            fill="#EF4323" />
        <path
            d="M162.984 7.38492C161.185 6.54436 159.026 5.94396 156.568 5.94396C151.051 5.94396 145.534 8.88592 140.257 14.6498C134.021 21.4343 127.665 29.0594 122.148 35.9039C122.028 36.024 121.968 36.1441 121.848 36.2642C121.728 36.3843 121.668 36.5043 121.549 36.6244C120.109 38.4256 118.73 40.1668 117.351 41.8479C117.291 41.968 117.171 42.0881 117.051 42.2081C116.931 42.3282 116.871 42.4483 116.751 42.5684C116.032 43.469 115.312 44.3696 114.653 45.2101C110.515 50.3736 107.277 54.4563 105.538 56.2575C100.141 61.9613 92.8254 65.5637 86.5891 65.5637C80.8325 65.5637 75.9753 62.6818 72.3774 57.2181C74.2363 58.1187 76.8148 58.9593 79.993 58.9593C86.5291 58.9593 93.0653 55.2368 99.4215 47.972C101.94 45.0901 104.998 41.4877 108.236 37.5851C108.356 37.465 108.416 37.3449 108.536 37.2248C108.656 37.1047 108.716 36.9847 108.836 36.8646C110.575 34.7632 112.374 32.5417 114.173 30.3803C114.293 30.2602 114.353 30.1401 114.473 30.02C114.533 29.96 114.593 29.8399 114.653 29.7799C114.713 29.7198 114.713 29.7198 114.772 29.6598C114.832 29.5997 114.892 29.5397 114.952 29.4196C115.012 29.3596 115.012 29.3596 115.072 29.2995C115.192 29.1795 115.252 29.0594 115.372 28.9393C118.73 24.8566 121.968 20.8939 124.667 17.5317C128.145 13.2688 130.663 10.2068 131.443 9.3062C132.282 8.34556 139.778 0 149.132 0C154.229 0 158.847 2.46164 162.984 7.38492Z"
            fill="#EF4323" />
    </g>
    <defs>
        <clipPath id="clip0">
            <rect width="170" height="90" fill="white" />
        </clipPath>
    </defs>
</svg>
