<svg xmlns="http://www.w3.org/2000/svg" width="23.25" height="28" viewBox="0 0 23.25 28">
  <g id="Group_415" data-name="Group 415" transform="translate(-311 -697.894)">
    <g id="Polygon_11" data-name="Polygon 11" transform="translate(334 697.894) rotate(90)" fill="none" stroke-linecap="round" stroke-linejoin="round">
      <path d="M9.729,7.017a5,5,0,0,1,8.542,0l5.1,8.384A5,5,0,0,1,19.1,23H8.9a5,5,0,0,1-4.271-7.6Z" stroke="none"/>
      <path d="M 14 7.616367340087891 C 13.66205024719238 7.616367340087891 12.81906986236572 7.709918975830078 12.29160976409912 8.576467514038086 L 7.188520431518555 16.96009826660156 C 6.639360427856445 17.86229705810547 6.981010437011719 18.67311859130859 7.153390884399414 18.97984886169434 C 7.325769424438477 19.28657913208008 7.840730667114258 19.99999809265137 8.896919250488281 19.99999809265137 L 19.10308074951172 19.99999809265137 C 20.15925979614258 19.99999809265137 20.67423057556152 19.28657913208008 20.84661102294922 18.9798583984375 C 21.01898956298828 18.67312812805176 21.36063957214355 17.86229705810547 20.81147003173828 16.96009826660156 L 15.70839023590088 8.576467514038086 C 15.18093013763428 7.709918975830078 14.33794975280762 7.616367340087891 14 7.616367340087891 M 14 4.616365432739258 C 15.64848518371582 4.616365432739258 17.29697036743164 5.416452407836914 18.2709903717041 7.016628265380859 L 23.37406921386719 15.40025806427002 C 25.40222930908203 18.73224830627441 23.0037899017334 22.99999809265137 19.10308074951172 22.99999809265137 L 8.896919250488281 22.99999809265137 C 4.996210098266602 22.99999809265137 2.597759246826172 18.73224830627441 4.625930786132812 15.40025806427002 L 9.729009628295898 7.016628265380859 C 10.70302963256836 5.416452407836914 12.35151481628418 4.616365432739258 14 4.616365432739258 Z" stroke="none" fill="#1e2022"/>
    </g>
    <line id="Line_19" data-name="Line 19" y2="18" transform="translate(333 702.894)" fill="none" stroke="#1e2022" stroke-linecap="round" stroke-width="2.5"/>
  </g>
</svg>
