<svg xmlns="http://www.w3.org/2000/svg" width="20.187" height="20.446" viewBox="0 0 20.187 20.446">
  <g id="Group_567" data-name="Group 567" transform="translate(0.75 1.013)">
    <rect id="Rectangle_141" data-name="Rectangle 141" width="8" height="1" rx="0.5" transform="translate(9.96 -0.263) rotate(90)" fill="#fff" stroke="#fff" stroke-width="1.5"/>
    <path id="Path_933" data-name="Path 933" d="M4.672,2.59A.694.694,0,0,0,3.6,1.968C1.288,3.531,0,6.213,0,9.753,0,15.593,3.5,19.1,9.343,19.1s9.343-3.5,9.343-9.343c0-3.54-1.288-6.222-3.6-7.785a.694.694,0,0,0-1.068.623V2.7a.839.839,0,0,0,.359.674,5.989,5.989,0,0,1,.729.62,7.854,7.854,0,0,1,2.026,5.76,7.854,7.854,0,0,1-2.026,5.76,7.854,7.854,0,0,1-5.76,2.026,7.854,7.854,0,0,1-5.76-2.026,7.854,7.854,0,0,1-2.026-5.76,7.854,7.854,0,0,1,2.026-5.76,5.987,5.987,0,0,1,.729-.62A.839.839,0,0,0,4.672,2.7Z" transform="translate(0 -0.414)" fill="#fff" stroke="#fff" stroke-width="1.5" fill-rule="evenodd"/>
  </g>
</svg>
