<svg width="24" height="24" viewBox="0 0 24 24" fill="none" xmlns="http://www.w3.org/2000/svg">
    <path
        d="M20.1668 0.333984H3.8335C2.90524 0.333984 2.015 0.702733 1.35862 1.35911C0.702245 2.01549 0.333496 2.90573 0.333496 3.83398V20.1673C0.333496 21.0956 0.702245 21.9858 1.35862 22.6422C2.015 23.2986 2.90524 23.6673 3.8335 23.6673H20.1668C20.3587 23.6646 20.55 23.6451 20.7385 23.609L21.0885 23.5273H21.2285L21.6602 23.364L21.8118 23.2823C21.9285 23.2123 22.0568 23.154 22.1735 23.0723C22.3293 22.9577 22.4774 22.833 22.6168 22.699L22.6985 22.594C22.813 22.4779 22.9184 22.3531 23.0135 22.2206L23.1185 22.069C23.2 21.9391 23.2702 21.8025 23.3285 21.6606C23.3605 21.6047 23.3878 21.5461 23.4102 21.4856C23.4685 21.3456 23.5035 21.194 23.5502 21.0423V20.8673C23.6163 20.6394 23.6555 20.4044 23.6668 20.1673V3.83398C23.6668 2.90573 23.2981 2.01549 22.6417 1.35911C21.9853 0.702733 21.0951 0.333984 20.1668 0.333984ZM3.8335 21.334C3.52408 21.334 3.22733 21.2111 3.00854 20.9923C2.78975 20.7735 2.66683 20.4767 2.66683 20.1673V15.139L6.50516 11.289C6.61362 11.1796 6.74265 11.0928 6.88482 11.0336C7.02699 10.9744 7.17948 10.9439 7.3335 10.9439C7.48751 10.9439 7.64 10.9744 7.78217 11.0336C7.92434 11.0928 8.05337 11.1796 8.16183 11.289L18.1952 21.334H3.8335ZM21.3335 20.1673C21.3324 20.3112 21.3047 20.4535 21.2518 20.5873C21.2252 20.6442 21.194 20.6988 21.1585 20.7506C21.1273 20.8 21.0922 20.8469 21.0535 20.8906L14.8118 14.649L15.8385 13.6223C15.947 13.513 16.076 13.4262 16.2182 13.3669C16.3603 13.3077 16.5128 13.2772 16.6668 13.2772C16.8208 13.2772 16.9733 13.3077 17.1155 13.3669C17.2577 13.4262 17.3867 13.513 17.4952 13.6223L21.3335 17.4723V20.1673ZM21.3335 14.1706L19.1402 12.0006C18.4725 11.3671 17.5872 11.014 16.6668 11.014C15.7464 11.014 14.8612 11.3671 14.1935 12.0006L13.1668 13.0273L9.80683 9.66732C9.13917 9.03381 8.25388 8.68064 7.3335 8.68064C6.41311 8.68064 5.52782 9.03381 4.86016 9.66732L2.66683 11.8373V3.83398C2.66683 3.52456 2.78975 3.22782 3.00854 3.00903C3.22733 2.79023 3.52408 2.66732 3.8335 2.66732H20.1668C20.4762 2.66732 20.773 2.79023 20.9918 3.00903C21.2106 3.22782 21.3335 3.52456 21.3335 3.83398V14.1706Z"
        fill="white" />
</svg>
