<svg width="24" height="20" viewBox="0 0 24 20" fill="none" xmlns="http://www.w3.org/2000/svg">
    <path
        d="M20.1668 3.58401H18.6735L18.3002 2.41734C18.0581 1.73278 17.6092 1.14043 17.0155 0.722364C16.4219 0.304298 15.7129 0.0812113 14.9868 0.0840104H9.0135C8.2803 0.0853821 7.56605 0.316974 6.97156 0.7461C6.37706 1.17523 5.93234 1.78021 5.70016 2.47568L5.32683 3.64234H3.8335C2.90524 3.64234 2.015 4.01109 1.35862 4.66747C0.702245 5.32385 0.333496 6.21409 0.333496 7.14234V16.4757C0.333496 17.4039 0.702245 18.2942 1.35862 18.9506C2.015 19.6069 2.90524 19.9757 3.8335 19.9757H20.1668C21.0951 19.9757 21.9853 19.6069 22.6417 18.9506C23.2981 18.2942 23.6668 17.4039 23.6668 16.4757V7.14234C23.6746 6.67783 23.5898 6.21643 23.4173 5.78503C23.2449 5.35364 22.9883 4.96088 22.6626 4.62967C22.3368 4.29847 21.9483 4.03543 21.5198 3.8559C21.0913 3.67637 20.6314 3.58395 20.1668 3.58401ZM21.3335 16.4173C21.3335 16.7268 21.2106 17.0235 20.9918 17.2423C20.773 17.4611 20.4762 17.584 20.1668 17.584H3.8335C3.52408 17.584 3.22733 17.4611 3.00854 17.2423C2.78975 17.0235 2.66683 16.7268 2.66683 16.4173V7.08401C2.66683 6.77459 2.78975 6.47785 3.00854 6.25905C3.22733 6.04026 3.52408 5.91734 3.8335 5.91734H6.16683C6.42124 5.93062 6.673 5.86026 6.88367 5.71701C7.09433 5.57376 7.25232 5.36549 7.3335 5.12401L7.9635 3.21068C8.04176 2.97895 8.19088 2.77769 8.38976 2.63533C8.58865 2.49297 8.82724 2.41671 9.07183 2.41734H15.0452C15.2897 2.41671 15.5283 2.49297 15.7272 2.63533C15.9261 2.77769 16.0752 2.97895 16.1535 3.21068L16.7835 5.12401C16.8584 5.34655 16.9986 5.54132 17.186 5.68286C17.3733 5.8244 17.599 5.90612 17.8335 5.91734H20.1668C20.4762 5.91734 20.773 6.04026 20.9918 6.25905C21.2106 6.47785 21.3335 6.77459 21.3335 7.08401V16.4173ZM12.0002 5.91734C11.0772 5.91734 10.1749 6.19104 9.4075 6.70382C8.64007 7.2166 8.04193 7.94543 7.68872 8.79815C7.33552 9.65088 7.2431 10.5892 7.42316 11.4944C7.60323 12.3997 8.04769 13.2312 8.70033 13.8838C9.35298 14.5365 10.1845 14.9809 11.0897 15.161C11.995 15.3411 12.9333 15.2487 13.786 14.8954C14.6387 14.5422 15.3676 13.9441 15.8804 13.1767C16.3931 12.4092 16.6668 11.507 16.6668 10.584C16.6668 9.34633 16.1752 8.15935 15.3 7.28418C14.4248 6.40901 13.2378 5.91734 12.0002 5.91734ZM12.0002 12.9173C11.5387 12.9173 11.0875 12.7805 10.7038 12.5241C10.3201 12.2677 10.021 11.9033 9.84444 11.4769C9.66784 11.0506 9.62163 10.5814 9.71166 10.1288C9.8017 9.67618 10.0239 9.26042 10.3502 8.9341C10.6766 8.60777 11.0923 8.38554 11.545 8.29551C11.9976 8.20548 12.4667 8.25169 12.8931 8.42829C13.3195 8.6049 13.6839 8.90397 13.9403 9.28768C14.1966 9.6714 14.3335 10.1225 14.3335 10.584C14.3335 11.2028 14.0877 11.7963 13.6501 12.2339C13.2125 12.6715 12.619 12.9173 12.0002 12.9173Z"
        fill="white" />
</svg>
