<svg xmlns="http://www.w3.org/2000/svg" width="20" height="20" viewBox="0 0 20 20">
  <path id="Path_251" data-name="Path 251" d="M10,0A10,10,0,1,0,20,10,10.016,10.016,0,0,0,10,0Zm0,15.612a1.1,1.1,0,0,1-1.02-1.02A1.1,1.1,0,0,1,10,13.571a1.1,1.1,0,0,1,1.02,1.02A1.1,1.1,0,0,1,10,15.612ZM12.347,8.98a5.6,5.6,0,0,1-.714.918,2.986,2.986,0,0,0-.918,1.633.8.8,0,0,1-.816.816.751.751,0,0,1-.816-.816,4.921,4.921,0,0,1,1.224-2.653,5.66,5.66,0,0,0,.612-.816,1.475,1.475,0,0,0,.2-.714A1.241,1.241,0,0,0,9.9,6.122,1.317,1.317,0,0,0,8.673,7.347a.8.8,0,0,1-.816.816.645.645,0,0,1-.714-.714A2.852,2.852,0,0,1,10,4.592a2.79,2.79,0,0,1,2.857,2.857A3.036,3.036,0,0,1,12.347,8.98Z" fill="#616161"/>
</svg>
