<svg xmlns="http://www.w3.org/2000/svg" width="21.09" height="21.09" viewBox="0 0 21.09 21.09">
  <path id="Path_700" data-name="Path 700" d="M16.089,2.961a3.282,3.282,0,0,1,4.641,0l1.4,1.4a3.282,3.282,0,0,1,0,4.641L9,22.128a3.282,3.282,0,0,1-2.321.961H2.9a.9.9,0,0,1-.9-.9V18.409a3.282,3.282,0,0,1,.961-2.321Zm3.375,1.266a1.492,1.492,0,0,0-2.11,0L14.9,6.68l3.508,3.508,2.453-2.453a1.492,1.492,0,0,0,0-2.11Zm-2.321,7.227L13.636,7.946,4.227,17.355a1.492,1.492,0,0,0-.437,1.055V21.3H6.68a1.492,1.492,0,0,0,1.055-.437Z" transform="translate(-2 -2)" fill="#090909" fill-rule="evenodd"/>
</svg>
