<svg xmlns="http://www.w3.org/2000/svg" width="15.563" height="15.563" viewBox="0 0 15.563 15.563">
  <g transform="translate(-53.218 -50.218)">
    <path id="Path_41" data-name="Path 41" d="M9.729.664a2.266,2.266,0,0,1,3.205,0l.965.966a2.266,2.266,0,0,1,0,3.205L4.834,13.9a2.266,2.266,0,0,1-1.6.664H.618A.618.618,0,0,1,0,13.945V11.332a2.266,2.266,0,0,1,.664-1.6Zm2.331.874a1.03,1.03,0,0,0-1.457,0L8.909,3.232l2.422,2.422L13.026,3.96a1.03,1.03,0,0,0,0-1.457Zm-1.6,4.99L8.035,4.106l-6.5,6.5a1.03,1.03,0,0,0-.3.728v2h2a1.03,1.03,0,0,0,.728-.3Z" transform="translate(53.718 50.718)" fill="#1e2022" fill-rule="evenodd"/>
    <path id="Path_41_-_Outline" data-name="Path 41 - Outline" d="M11.332-.5a2.748,2.748,0,0,1,1.956.81l.965.966a2.766,2.766,0,0,1,0,3.912L5.188,14.253a2.748,2.748,0,0,1-1.956.81H.618A1.119,1.119,0,0,1-.5,13.945V11.332A2.748,2.748,0,0,1,.31,9.376L9.376.31A2.748,2.748,0,0,1,11.332-.5Zm-8.1,14.563a1.755,1.755,0,0,0,1.249-.517l9.065-9.065a1.766,1.766,0,0,0,0-2.5l-.965-.966a1.766,1.766,0,0,0-2.5,0L1.017,10.083A1.755,1.755,0,0,0,.5,11.332v2.614a.118.118,0,0,0,.118.118ZM11.332.736a1.52,1.52,0,0,1,1.082.448l.965.966a1.53,1.53,0,0,1,0,2.164L11.332,6.361,8.2,3.232,10.25,1.184A1.52,1.52,0,0,1,11.332.736Zm0,4.211,1.34-1.34a.53.53,0,0,0,0-.75l-.965-.966a.53.53,0,0,0-.75,0l-1.34,1.34ZM8.035,3.4l3.129,3.129L4.314,13.379a1.52,1.52,0,0,1-1.082.448H.736v-2.5a1.52,1.52,0,0,1,.448-1.082ZM9.75,6.528,8.035,4.813,1.891,10.957a.527.527,0,0,0-.155.375v1.5h1.5a.527.527,0,0,0,.375-.155Z" transform="translate(53.718 50.718)" fill="#1e2022"/>
  </g>
</svg>
