<svg xmlns="http://www.w3.org/2000/svg" width="26.539" height="26.539" viewBox="0 0 26.539 26.539">
  <g id="Group_648" data-name="Group 648" transform="translate(-318.73 -123.73)">
    <g id="Path_986" data-name="Path 986" transform="translate(318.73 123.73)" fill="none">
      <path d="M13.269,0a13.269,13.269,0,0,1,8.752,23.243,13.025,13.025,0,0,1-8.752,3.3A13.269,13.269,0,0,1,13.269,0Z" stroke="none"/>
      <path d="M 13.269287109375 1.999996185302734 C 10.25915718078613 1.999996185302734 7.429187774658203 3.172206878662109 5.300697326660156 5.300697326660156 C 3.172206878662109 7.429187774658203 1.999996185302734 10.25915718078613 1.999996185302734 13.269287109375 C 1.999996185302734 16.27941703796387 3.172206878662109 19.1093864440918 5.300697326660156 21.23787689208984 C 7.429187774658203 23.36636734008789 10.25915718078613 24.53857803344727 13.269287109375 24.53857803344727 C 16.06583786010742 24.53857803344727 18.7614574432373 23.53074645996094 20.66822814941406 21.77047729492188 C 23.20023727416992 19.44343757629395 24.53857803344727 16.5037670135498 24.53857803344727 13.269287109375 C 24.53857803344727 10.25915718078613 23.36636734008789 7.429187774658203 21.23787689208984 5.300697326660156 C 19.1093864440918 3.172206878662109 16.27941703796387 1.999996185302734 13.269287109375 1.999996185302734 M 13.269287109375 -3.814697265625e-06 C 20.59770774841309 -3.814697265625e-06 26.53857803344727 5.940866470336914 26.53857803344727 13.269287109375 C 26.53857803344727 17.13136672973633 24.88862609863281 20.60807800292969 22.02158737182617 23.24303817749023 C 19.89153671264648 25.20942687988281 16.73562622070312 26.53857803344727 13.269287109375 26.53857803344727 C 5.940866470336914 26.53857803344727 -3.814697265625e-06 20.59770774841309 -3.814697265625e-06 13.269287109375 C -3.814697265625e-06 5.940866470336914 5.940866470336914 -3.814697265625e-06 13.269287109375 -3.814697265625e-06 Z" stroke="none" fill="#f63e02"/>
    </g>
    <g id="Group_647" data-name="Group 647" transform="translate(-0.199 -0.2)">
      <path id="Path_987" data-name="Path 987" d="M9.432,18.091l8.66-8.659" transform="translate(318.438 123.439)" fill="none" stroke="#f63e02" stroke-linecap="round" stroke-linejoin="round" stroke-width="2"/>
      <path id="Path_988" data-name="Path 988" d="M14.5,14.5h.015" transform="translate(320.972 125.974)" fill="none" stroke="#f63e02" stroke-linecap="round" stroke-linejoin="round" stroke-width="4"/>
      <path id="Path_989" data-name="Path 989" d="M9.5,9.5h.015" transform="translate(319.418 124.421)" fill="none" stroke="#f63e02" stroke-linecap="round" stroke-linejoin="round" stroke-width="4"/>
    </g>
  </g>
</svg>
