<svg width="26" height="26" viewBox="0 0 26 26" fill="none" xmlns="http://www.w3.org/2000/svg">
<g style="mix-blend-mode:luminosity" filter="url(#filter0_i)">
<path d="M17.8164 13.9221C19.0964 12.92 20.0307 11.5457 20.4893 9.99051C20.9479 8.43533 20.908 6.77658 20.3751 5.24503C19.8423 3.71347 18.8429 2.38528 17.5162 1.44522C16.1895 0.505168 14.6013 0 12.9726 0C11.3439 0 9.75571 0.505168 8.42897 1.44522C7.10223 2.38528 6.10291 3.71347 5.57005 5.24503C5.03719 6.77658 4.99728 8.43533 5.45588 9.99051C5.91447 11.5457 6.84876 12.92 8.12877 13.9221C5.93545 14.7966 4.0217 16.2469 2.59154 18.1186C1.16138 19.9902 0.268427 22.213 0.00787523 24.55C-0.0109848 24.7206 0.00411055 24.8933 0.0522992 25.0581C0.100488 25.2229 0.180826 25.3766 0.288727 25.5106C0.506643 25.781 0.823599 25.9543 1.16987 25.9922C1.51614 26.0301 1.86336 25.9295 2.13514 25.7127C2.40692 25.4958 2.58101 25.1804 2.6191 24.8358C2.90579 22.296 4.12275 19.9504 6.03747 18.2471C7.95219 16.5437 10.4304 15.6021 12.9987 15.6021C15.567 15.6021 18.0452 16.5437 19.9599 18.2471C21.8746 19.9504 23.0916 22.296 23.3783 24.8358C23.4138 25.1551 23.5669 25.4499 23.808 25.6635C24.0491 25.877 24.3611 25.9941 24.6839 25.9922H24.8275C25.1698 25.953 25.4826 25.7808 25.6978 25.5131C25.913 25.2454 26.0132 24.9039 25.9765 24.563C25.7147 22.2194 24.8169 19.9909 23.3794 18.1164C21.9419 16.2418 20.0189 14.7919 17.8164 13.9221ZM12.9726 12.9996C11.9397 12.9996 10.93 12.6948 10.0712 12.1238C9.21233 11.5527 8.54295 10.7411 8.14768 9.79145C7.75241 8.84182 7.64898 7.79688 7.85049 6.78876C8.052 5.78064 8.54939 4.85462 9.27976 4.12781C10.0101 3.40099 10.9407 2.90603 11.9537 2.7055C12.9668 2.50497 14.0169 2.60789 14.9711 3.00124C15.9254 3.39459 16.741 4.0607 17.3149 4.91534C17.8887 5.76999 18.195 6.77478 18.195 7.80265C18.195 9.18098 17.6448 10.5029 16.6654 11.4775C15.686 12.4521 14.3577 12.9996 12.9726 12.9996Z" fill="#6A6A9F"/>
</g>
<defs>
<filter id="filter0_i" x="0" y="0" width="25.9839" height="28" filterUnits="userSpaceOnUse" color-interpolation-filters="sRGB">
<feFlood flood-opacity="0" result="BackgroundImageFix"/>
<feBlend mode="normal" in="SourceGraphic" in2="BackgroundImageFix" result="shape"/>
<feColorMatrix in="SourceAlpha" type="matrix" values="0 0 0 0 0 0 0 0 0 0 0 0 0 0 0 0 0 0 127 0" result="hardAlpha"/>
<feOffset dy="2"/>
<feGaussianBlur stdDeviation="2"/>
<feComposite in2="hardAlpha" operator="arithmetic" k2="-1" k3="1"/>
<feColorMatrix type="matrix" values="0 0 0 0 0 0 0 0 0 0 0 0 0 0 0 0 0 0 1 0"/>
<feBlend mode="normal" in2="shape" result="effect1_innerShadow"/>
</filter>
</defs>
</svg>
