<svg width="18" height="16" viewBox="0 0 18 16" fill="none" xmlns="http://www.w3.org/2000/svg">
    <path
        d="M10.0832 8.18464C10.5278 7.79975 10.8845 7.32371 11.1289 6.78882C11.3733 6.25394 11.4998 5.67273 11.4998 5.08464C11.4998 3.97957 11.0608 2.91976 10.2794 2.13836C9.49804 1.35696 8.43824 0.917969 7.33317 0.917969C6.2281 0.917969 5.16829 1.35696 4.38689 2.13836C3.60549 2.91976 3.1665 3.97957 3.1665 5.08464C3.1665 5.67273 3.293 6.25394 3.53744 6.78882C3.78188 7.32371 4.13852 7.79975 4.58317 8.18464C3.41662 8.71287 2.42689 9.56591 1.73232 10.6418C1.03775 11.7176 0.66773 12.9707 0.666504 14.2513C0.666504 14.4723 0.754301 14.6843 0.910581 14.8406C1.06686 14.9968 1.27882 15.0846 1.49984 15.0846C1.72085 15.0846 1.93281 14.9968 2.08909 14.8406C2.24537 14.6843 2.33317 14.4723 2.33317 14.2513C2.33317 12.9252 2.85995 11.6535 3.79764 10.7158C4.73532 9.77809 6.00709 9.2513 7.33317 9.2513C8.65925 9.2513 9.93102 9.77809 10.8687 10.7158C11.8064 11.6535 12.3332 12.9252 12.3332 14.2513C12.3332 14.4723 12.421 14.6843 12.5772 14.8406C12.7335 14.9968 12.9455 15.0846 13.1665 15.0846C13.3875 15.0846 13.5995 14.9968 13.7558 14.8406C13.912 14.6843 13.9998 14.4723 13.9998 14.2513C13.9986 12.9707 13.6286 11.7176 12.934 10.6418C12.2394 9.56591 11.2497 8.71287 10.0832 8.18464ZM7.33317 7.58464C6.83872 7.58464 6.35537 7.43801 5.94424 7.16331C5.53312 6.88861 5.21269 6.49816 5.02347 6.04135C4.83425 5.58453 4.78474 5.08186 4.88121 4.59691C4.97767 4.11196 5.21577 3.6665 5.5654 3.31687C5.91503 2.96724 6.36049 2.72914 6.84544 2.63267C7.3304 2.53621 7.83306 2.58572 8.28988 2.77494C8.74669 2.96416 9.13714 3.28459 9.41184 3.69571C9.68655 4.10683 9.83317 4.59018 9.83317 5.08464C9.83317 5.74768 9.56978 6.38356 9.10093 6.8524C8.63209 7.32125 7.99621 7.58464 7.33317 7.58464ZM17.0915 5.60964C17.014 5.53153 16.9219 5.46953 16.8203 5.42723C16.7188 5.38492 16.6098 5.36314 16.4998 5.36314C16.3898 5.36314 16.2809 5.38492 16.1794 5.42723C16.0778 5.46953 15.9856 5.53153 15.9082 5.60964L14.2415 7.2763L13.7248 6.7513C13.6474 6.6732 13.5552 6.6112 13.4536 6.56889C13.3521 6.52659 13.2432 6.50481 13.1332 6.50481C13.0232 6.50481 12.9142 6.52659 12.8127 6.56889C12.7111 6.6112 12.619 6.6732 12.5415 6.7513C12.3863 6.90744 12.2992 7.11865 12.2992 7.3388C12.2992 7.55896 12.3863 7.77017 12.5415 7.9263L13.6582 9.04297C13.8143 9.19818 14.0255 9.2853 14.2457 9.2853C14.4658 9.2853 14.677 9.19818 14.8332 9.04297L17.0582 6.81797C17.1423 6.74241 17.2102 6.65051 17.2577 6.54787C17.3051 6.44523 17.3312 6.33401 17.3344 6.22096C17.3375 6.10792 17.3175 5.99542 17.2758 5.89032C17.234 5.78523 17.1713 5.68973 17.0915 5.60964Z"
        fill="#6A6A9F" />
</svg>
