<svg xmlns="http://www.w3.org/2000/svg" width="18.5" height="23.125" viewBox="0 0 18.5 23.125">
  <g id="Group_443" data-name="Group 443" transform="translate(-4 -2)">
    <path id="Path_815" data-name="Path 815" d="M13.25,3.779c-1.763,0-4.131.194-5.787.354a1.412,1.412,0,0,0-1.277,1.3c-.165,2.136-.4,5.6-.4,8.129s.232,5.992.4,8.129a1.412,1.412,0,0,0,1.277,1.3c1.656.161,4.023.354,5.787.354s4.131-.193,5.787-.354a1.412,1.412,0,0,0,1.277-1.3c.165-2.136.4-5.6.4-8.129s-.232-5.992-.4-8.129a1.412,1.412,0,0,0-1.277-1.3C17.381,3.972,15.013,3.779,13.25,3.779ZM7.29,2.362C8.95,2.2,11.392,2,13.25,2s4.3.2,5.96.362A3.2,3.2,0,0,1,22.1,5.3c.165,2.137.4,5.661.4,8.264s-.237,6.127-.4,8.264a3.2,3.2,0,0,1-2.888,2.936c-1.66.161-4.1.362-5.96.362s-4.3-.2-5.96-.362A3.2,3.2,0,0,1,4.4,21.827C4.237,19.69,4,16.166,4,13.562s.237-6.127.4-8.264A3.2,3.2,0,0,1,7.29,2.362Z" transform="translate(0 0)" fill="#858585" fill-rule="evenodd"/>
    <path id="Path_816" data-name="Path 816" d="M10.193,17.257a.9.9,0,0,1,.9-.9h2.411a.9.9,0,1,1,0,1.8H11.1A.9.9,0,0,1,10.193,17.257Z" transform="translate(0.947 2.23)" fill="#858585" fill-rule="evenodd"/>
    <path id="Path_817" data-name="Path 817" d="M13.379,7.044a1.206,1.206,0,1,1-1.206-1.2A1.2,1.2,0,0,1,13.379,7.044Z" transform="translate(1.077 0.596)" fill="#858585"/>
  </g>
</svg>
