<svg width="18" height="18" viewBox="0 0 18 18" fill="none" xmlns="http://www.w3.org/2000/svg">
    <path
        d="M16.1166 1.88464C15.5335 1.30297 14.7911 0.907182 13.9831 0.747263C13.1751 0.587345 12.3379 0.670473 11.5771 0.986148C10.8164 1.30182 10.1663 1.83588 9.70891 2.52086C9.25153 3.20583 9.00743 4.011 9.00743 4.83464C9.00743 5.65828 9.25153 6.46344 9.70891 7.14842C10.1663 7.8334 10.8164 8.36745 11.5771 8.68313C12.3379 8.9988 13.1751 9.08193 13.9831 8.92201C14.7911 8.76209 15.5335 8.3663 16.1166 7.78464C16.5047 7.39759 16.8125 6.93779 17.0226 6.43158C17.2326 5.92538 17.3408 5.3827 17.3408 4.83464C17.3408 4.28658 17.2326 3.7439 17.0226 3.23769C16.8125 2.73148 16.5047 2.27168 16.1166 1.88464ZM11.4 3.06797C11.8684 2.599 12.5038 2.33522 13.1666 2.33464C13.5363 2.33808 13.9006 2.42346 14.2333 2.58464L10.9 5.91797C10.6775 5.44971 10.6062 4.92389 10.6958 4.41328C10.7853 3.90268 11.0314 3.43255 11.4 3.06797ZM14.9333 6.6013C14.5681 6.96356 14.1001 7.20436 13.5931 7.29086C13.086 7.37736 12.5646 7.30534 12.1 7.08464L15.4333 3.7513C15.6557 4.21956 15.7271 4.74539 15.6375 5.25599C15.548 5.7666 15.3019 6.23673 14.9333 6.6013ZM5.66665 7.33464C5.01574 7.33204 4.37072 7.45806 3.76866 7.70547C3.16659 7.95287 2.61933 8.31678 2.15832 8.7763C1.45284 9.47271 0.970293 10.3631 0.771978 11.3344C0.573663 12.3056 0.668531 13.3139 1.04453 14.2311C1.42053 15.1484 2.06069 15.9331 2.88368 16.4857C3.70667 17.0383 4.67535 17.3338 5.66665 17.3346C6.95168 17.334 8.18714 16.8386 9.11665 15.9513L9.21665 15.8846C9.23417 15.8529 9.25366 15.8223 9.27498 15.793C9.95245 15.0856 10.4072 14.1948 10.5829 13.2312C10.7585 12.2676 10.6472 11.2736 10.2629 10.3727C9.87856 9.47178 9.23808 8.70358 8.42098 8.16348C7.60387 7.62339 6.64612 7.33518 5.66665 7.33464ZM3.30832 14.693C2.79256 14.1715 2.46321 13.4944 2.3713 12.7667C2.2794 12.039 2.43008 11.3013 2.79998 10.668L7.33332 15.2013C6.69995 15.5712 5.96227 15.7219 5.23458 15.63C4.50689 15.5381 3.82982 15.2087 3.30832 14.693ZM8.53331 14.0013L3.99998 9.46797C4.50476 9.16838 5.0797 9.0074 5.66665 9.0013C6.25007 9.00481 6.82234 9.16139 7.32629 9.45538C7.83023 9.74938 8.24818 10.1705 8.53837 10.6766C8.82856 11.1828 8.98081 11.7562 8.97993 12.3396C8.97904 12.9231 8.82504 13.496 8.53331 14.0013Z"
        fill="white" />
</svg>
