<svg id="Group_830" data-name="Group 830" xmlns="http://www.w3.org/2000/svg" width="22" height="24" viewBox="0 0 22 24">
  <path id="Path_8036" data-name="Path 8036" d="M11,14c2.414,0,4.175.064,5.54.2a10.85,10.85,0,0,1,3.357.754,3.184,3.184,0,0,1,1.658,1.526A5.7,5.7,0,0,1,22,19a5.7,5.7,0,0,1-.445,2.518A3.184,3.184,0,0,1,19.9,23.044a10.851,10.851,0,0,1-3.357.754c-1.366.138-3.126.2-5.54.2s-4.175-.064-5.54-.2A10.851,10.851,0,0,1,2.1,23.044,3.184,3.184,0,0,1,.445,21.518,5.7,5.7,0,0,1,0,19a5.7,5.7,0,0,1,.445-2.518A3.184,3.184,0,0,1,2.1,14.956,10.851,10.851,0,0,1,5.46,14.2C6.825,14.064,8.586,14,11,14Zm0,8c2.346,0,4.042-.061,5.339-.192a9.334,9.334,0,0,0,2.73-.585,1.22,1.22,0,0,0,.689-.583A4.038,4.038,0,0,0,20,19a4.038,4.038,0,0,0-.242-1.64,1.22,1.22,0,0,0-.689-.584,9.334,9.334,0,0,0-2.73-.585C15.042,16.061,13.346,16,11,16s-4.042.061-5.339.192a9.335,9.335,0,0,0-2.73.585,1.22,1.22,0,0,0-.689.583A4.038,4.038,0,0,0,2,19a4.038,4.038,0,0,0,.242,1.64,1.22,1.22,0,0,0,.689.583,9.335,9.335,0,0,0,2.73.585C6.958,21.939,8.654,22,11,22Z" fill="#f63e02"/>
  <path id="Ellipse_35" data-name="Ellipse 35" d="M5-1A6,6,0,1,1-1,5,6.007,6.007,0,0,1,5-1ZM5,9A4,4,0,1,0,1,5,4,4,0,0,0,5,9Z" transform="translate(16 11) rotate(180)" fill="#f63e02"/>
</svg>
