<svg xmlns="http://www.w3.org/2000/svg" width="15.364" height="15.364" viewBox="0 0 15.364 15.364">
  <g id="Group_560" data-name="Group 560" transform="translate(-1.85 -1.85)">
    <path id="Path_921" data-name="Path 921" d="M9.532,3.159a6.373,6.373,0,1,0,6.373,6.373A6.373,6.373,0,0,0,9.532,3.159ZM2,9.532a7.532,7.532,0,1,1,7.532,7.532A7.532,7.532,0,0,1,2,9.532Z" fill="#616161" stroke="#616161" stroke-width="0.3" fill-rule="evenodd"/>
    <path id="Path_922" data-name="Path 922" d="M11.3,7.774a.966.966,0,0,0-.966.966.579.579,0,0,1-1.159,0,2.124,2.124,0,1,1,3.912,1.148,6.945,6.945,0,0,1-.434.585l-.078.1c-.119.148-.229.284-.331.423a1.5,1.5,0,0,0-.366.838.579.579,0,0,1-1.159,0,2.608,2.608,0,0,1,.588-1.519c.12-.165.252-.328.372-.477l.07-.087a5.888,5.888,0,0,0,.362-.485A.966.966,0,0,0,11.3,7.774Z" transform="translate(-1.772 -1.139)" fill="#616161" stroke="#616161" stroke-width="0.3" fill-rule="evenodd"/>
    <path id="Path_923" data-name="Path 923" d="M12.519,16.362a.772.772,0,1,1-.772-.773A.773.773,0,0,1,12.519,16.362Z" transform="translate(-2.215 -3.354)" fill="#616161" stroke="#616161" stroke-width="0.3"/>
  </g>
</svg>
