<svg xmlns="http://www.w3.org/2000/svg" width="13.299" height="12.936" viewBox="0 0 13.299 12.936">
  <g id="Group_521" data-name="Group 521" transform="translate(-2 -2)">
    <path id="Path_868" data-name="Path 868" d="M7.2,14.456a10.811,10.811,0,0,1,3.375.41,2.26,2.26,0,0,1,1.83,2.171c0,.707-.319,1.656-1.838,2.166a10.936,10.936,0,0,1-3.367.4A10.814,10.814,0,0,1,3.83,19.2,2.26,2.26,0,0,1,2,17.025c0-.707.319-1.657,1.838-2.166A10.94,10.94,0,0,1,7.2,14.456Zm0,3.65a9.715,9.715,0,0,0,2.89-.325c.815-.273.815-.6.815-.744s0-.475-.813-.751a9.586,9.586,0,0,0-2.892-.33,9.719,9.719,0,0,0-2.89.325c-.815.273-.815.6-.815.744s0,.475.813.751A9.59,9.59,0,0,0,7.2,18.106Z" transform="translate(0 -4.67)" fill="#fff"/>
    <path id="Path_869" data-name="Path 869" d="M8.164,9.211H8.145a3.615,3.615,0,1,1,.019,0Zm0-5.711a2.105,2.105,0,0,0-.017,4.211h.017a2.105,2.105,0,0,0,0-4.211Z" transform="translate(-0.96)" fill="#fff"/>
    <path id="Path_8059" data-name="Path 8059" d="M2.33,3.566a.749.749,0,0,1-.531-.22L.855,2.4A.75.75,0,0,1,1.917,1.34l.414.415L3.745.339A.75.75,0,1,1,4.806,1.4L2.861,3.346A.75.75,0,0,1,2.33,3.566Z" transform="translate(10.273 6.521)" fill="#fff"/>
  </g>
</svg>
