<svg xmlns="http://www.w3.org/2000/svg" width="17.67" height="18.048" viewBox="0 0 17.67 18.048">
  <g id="Group_303" data-name="Group 303" transform="translate(-1.678 -1.678)">
    <path id="Ellipse_9" data-name="Ellipse 9" d="M7.411-1.1A8.511,8.511,0,1,1-1.1,7.411,8.52,8.52,0,0,1,7.411-1.1Zm0,14.821A6.311,6.311,0,1,0,1.1,7.411,6.318,6.318,0,0,0,7.411,13.721Z" transform="translate(2.778 2.778)" fill="#1e2022"/>
    <path id="Path_668" data-name="Path 668" d="M20.924,22.483a1.1,1.1,0,0,1-.777-.321l-2.905-2.9A1.1,1.1,0,1,1,18.8,17.706L21.7,20.6a1.1,1.1,0,0,1-.777,1.879Z" transform="translate(-2.675 -2.757)" fill="#1e2022"/>
  </g>
</svg>
