<svg width="22" height="18" viewBox="0 0 22 18" fill="none" xmlns="http://www.w3.org/2000/svg">
    <path
        d="M10.819 0C16.211 0 20.697 3.88 21.638 9C20.698 14.12 16.211 18 10.819 18C5.427 18 0.941 14.12 0 9C0.94 3.88 5.427 0 10.819 0ZM10.819 16C12.8585 15.9996 14.8374 15.3068 16.4319 14.0352C18.0263 12.7635 19.1419 10.9883 19.596 9C19.1402 7.0133 18.0239 5.24 16.4296 3.97003C14.8353 2.70005 12.8573 2.00853 10.819 2.00853C8.7807 2.00853 6.80269 2.70005 5.20838 3.97003C3.61406 5.24 2.49777 7.0133 2.042 9C2.4961 10.9883 3.61167 12.7635 5.20614 14.0352C6.80061 15.3068 8.77953 15.9996 10.819 16ZM10.819 13.5C9.62553 13.5 8.48093 13.0259 7.63702 12.182C6.79311 11.3381 6.319 10.1935 6.319 9C6.319 7.80653 6.79311 6.66193 7.63702 5.81802C8.48093 4.97411 9.62553 4.5 10.819 4.5C12.0125 4.5 13.1571 4.97411 14.001 5.81802C14.8449 6.66193 15.319 7.80653 15.319 9C15.319 10.1935 14.8449 11.3381 14.001 12.182C13.1571 13.0259 12.0125 13.5 10.819 13.5ZM10.819 11.5C11.482 11.5 12.1179 11.2366 12.5868 10.7678C13.0556 10.2989 13.319 9.66304 13.319 9C13.319 8.33696 13.0556 7.70107 12.5868 7.23223C12.1179 6.76339 11.482 6.5 10.819 6.5C10.156 6.5 9.52007 6.76339 9.05123 7.23223C8.58239 7.70107 8.319 8.33696 8.319 9C8.319 9.66304 8.58239 10.2989 9.05123 10.7678C9.52007 11.2366 10.156 11.5 10.819 11.5Z"
        fill="#E56B6E" />
</svg>
