<svg width="18" height="18" viewBox="0 0 18 18" fill="none" xmlns="http://www.w3.org/2000/svg">
    <path
        d="M15.4206 4.7237C15.512 4.76177 15.5949 4.81757 15.6646 4.88786C15.7408 4.9581 15.8015 5.04333 15.8431 5.13821C15.8846 5.23308 15.9061 5.33554 15.9061 5.43911C15.9061 5.54269 15.8846 5.64514 15.8431 5.74002C15.8015 5.83489 15.7408 5.92013 15.6646 5.99036L9.54463 12.1104C9.47491 12.1807 9.39196 12.2365 9.30057 12.2745C9.20917 12.3126 9.11114 12.3322 9.01213 12.3322C8.91313 12.3322 8.8151 12.3126 8.7237 12.2745C8.63231 12.2365 8.54936 12.1807 8.47963 12.1104L7.94971 11.5804L9.01213 10.4829L14.5996 4.88786C14.6694 4.81757 14.7523 4.76177 14.8437 4.7237C14.9351 4.68562 15.0331 4.66602 15.1321 4.66602C15.2311 4.66602 15.3292 4.68562 15.4206 4.7237Z"
        fill="#023AFF" />
    <path
        d="M11.7989 4.72185C11.7292 4.65155 11.6463 4.59576 11.5549 4.55768C11.4635 4.5196 11.3654 4.5 11.2664 4.5C11.1674 4.5 11.0694 4.5196 10.978 4.55768C10.8866 4.59576 10.8037 4.65155 10.7339 4.72185L5.14644 10.3168L2.79894 7.96185C2.72655 7.89192 2.64109 7.83693 2.54745 7.80003C2.45381 7.76313 2.35382 7.74503 2.25318 7.74677C2.15255 7.74851 2.05324 7.77006 1.96093 7.81018C1.86862 7.8503 1.78512 7.90821 1.71519 7.9806C1.64526 8.05299 1.59028 8.13845 1.55337 8.23209C1.51647 8.32573 1.49837 8.42572 1.50011 8.52636C1.50186 8.62699 1.5234 8.7263 1.56352 8.81861C1.60364 8.91092 1.66155 8.99442 1.73394 9.06435L4.61394 11.9443C4.68366 12.0146 4.76661 12.0704 4.85801 12.1085C4.9494 12.1466 5.04743 12.1662 5.14644 12.1662C5.24545 12.1662 5.34348 12.1466 5.43487 12.1085C5.52627 12.0704 5.60922 12.0146 5.67894 11.9443L11.7989 5.82435C11.8751 5.75412 11.9358 5.66888 11.9774 5.574C12.0189 5.47913 12.0404 5.37668 12.0404 5.2731C12.0404 5.16952 12.0189 5.06707 11.9774 4.97219C11.9358 4.87732 11.8751 4.79208 11.7989 4.72185Z"
        fill="#023AFF" />
</svg>
