<svg xmlns="http://www.w3.org/2000/svg" width="25.5" height="25.5" viewBox="0 0 25.5 25.5">
  <path id="Path_749" data-name="Path 749" d="M27.5,14.73a2.106,2.106,0,0,1-1.153,1.915c-2.563,1.532-7.433,4.214-11.022,6-3.076,1.532-7.305,3.32-10.253,4.6a2.384,2.384,0,0,1-.9.255,2.369,2.369,0,0,1-1.538-.639,2.377,2.377,0,0,1-.513-2.426l2.691-7.917a1.121,1.121,0,0,1,1.153-.766h6.408A1.009,1.009,0,0,0,13.4,14.73a.942.942,0,0,0-1.025-1.022H5.969a1.23,1.23,0,0,1-1.153-.894L2.124,4.9a2.045,2.045,0,0,1,.641-2.3,1.965,1.965,0,0,1,2.307-.383c2.435,1.022,7.049,3.065,10.253,4.6,3.589,1.788,8.459,4.6,11.022,6A2.106,2.106,0,0,1,27.5,14.73Z" transform="translate(-2 -2)"/>
</svg>
