<svg xmlns="http://www.w3.org/2000/svg" width="17.481" height="17.481" viewBox="0 0 17.481 17.481">
  <g id="Group_786" data-name="Group 786" transform="translate(-0.25 -0.25)">
    <path id="Path_8011" data-name="Path 8011" d="M8.99.25a24,24,0,0,1,4.395.3,5.443,5.443,0,0,1,2.671,1.156c1.205,1.062,1.675,2.832,1.675,6.313A11.313,11.313,0,0,1,16.957,13a3.14,3.14,0,0,1-1.229,1.357,3.911,3.911,0,0,1-2.015.472,3.049,3.049,0,0,0-1.755.45,3.209,3.209,0,0,0-.882.992l-.1.159a3.681,3.681,0,0,1-.645.845,1.889,1.889,0,0,1-1.34.46,1.89,1.89,0,0,1-1.341-.46,3.684,3.684,0,0,1-.644-.845l-.1-.159a3.209,3.209,0,0,0-.882-.992,3.049,3.049,0,0,0-1.755-.45,3.846,3.846,0,0,1-2.015-.484,3.2,3.2,0,0,1-1.229-1.376A11.272,11.272,0,0,1,.25,8.022c0-3.451.469-5.213,1.674-6.285A5.46,5.46,0,0,1,4.6.564,23.325,23.325,0,0,1,8.99.25Zm0,15.981c.254,0,.309-.05.339-.076a2.81,2.81,0,0,0,.377-.528l.1-.164a4.587,4.587,0,0,1,1.306-1.429,4.484,4.484,0,0,1,2.6-.708,2.516,2.516,0,0,0,1.26-.268,1.67,1.67,0,0,0,.645-.736,10.244,10.244,0,0,0,.614-4.3c0-2.955-.338-4.458-1.166-5.188A4.113,4.113,0,0,0,13.1,2.026,22.649,22.649,0,0,0,8.99,1.75a21.969,21.969,0,0,0-4.1.285,4.127,4.127,0,0,0-1.965.823C2.089,3.6,1.75,5.094,1.75,8.022a10.185,10.185,0,0,0,.616,4.273,1.727,1.727,0,0,0,.655.758,2.448,2.448,0,0,0,1.248.273,4.484,4.484,0,0,1,2.6.708,4.588,4.588,0,0,1,1.306,1.429l.1.165a2.812,2.812,0,0,0,.377.527C8.682,16.181,8.737,16.231,8.991,16.231Z" fill="#1e2022"/>
    <path id="Path_8012" data-name="Path 8012" d="M15.906,9.75H13a.75.75,0,1,1,0-1.5h2.906a.75.75,0,0,1,0,1.5Z" transform="translate(-3.283 -2.189)" fill="#1e2022"/>
    <path id="Path_8013" data-name="Path 8013" d="M14.264,13.75H7a.75.75,0,0,1,0-1.5h7.264a.75.75,0,0,1,0,1.5Z" transform="translate(-1.642 -3.283)" fill="#1e2022"/>
  </g>
</svg>
