<svg xmlns="http://www.w3.org/2000/svg" width="19.284" height="20.722" viewBox="0 0 19.284 20.722">
  <g id="Group_523" data-name="Group 523" transform="translate(-2.53 -1.528)">
    <path id="Path_876" data-name="Path 876" d="M11.543,1.528H12.8A2.663,2.663,0,0,1,15.461,4.25a1.083,1.083,0,0,0,.151.529,1.149,1.149,0,0,0,.707.537,1.164,1.164,0,0,0,.876-.123l.008,0a2.664,2.664,0,0,1,1.322-.353h0a2.672,2.672,0,0,1,2.309,1.334l.622,1.08a.75.75,0,0,1,.043.087,2.672,2.672,0,0,1-1.01,3.543l-.006,0a1.127,1.127,0,0,0-.418.418l0,0a1.146,1.146,0,0,0-.118.878,1.162,1.162,0,0,0,.54.7,2.654,2.654,0,0,1,.97,3.636l0,.008-.656,1.094a2.662,2.662,0,0,1-3.629.964,1.2,1.2,0,0,0-.553-.156,1.146,1.146,0,0,0-.813.338,1.162,1.162,0,0,0-.338.822s0,0,0,.007A2.669,2.669,0,0,1,12.8,22.25H11.543A2.666,2.666,0,0,1,8.88,19.592a1.082,1.082,0,0,0-.151-.537l-.006-.01a1.145,1.145,0,0,0-1.571-.42l-.011.007A2.663,2.663,0,0,1,3.514,17.6l-.628-1.083A2.658,2.658,0,0,1,3.854,12.9a1.163,1.163,0,0,0,0-2.015,2.669,2.669,0,0,1-.97-3.633l.009-.015.664-1.091A2.662,2.662,0,0,1,7.184,5.17l.01.006a1.082,1.082,0,0,0,.537.151A1.168,1.168,0,0,0,8.89,4.186a2.654,2.654,0,0,1,2.654-2.658Zm5.066,5.324A2.654,2.654,0,0,1,14.32,5.541a2.581,2.581,0,0,1-.359-1.287q0-.015,0-.03a1.163,1.163,0,0,0-1.162-1.2v0H11.543A1.154,1.154,0,0,0,10.39,4.187s0,.01,0,.014A2.674,2.674,0,0,1,7.727,6.827H7.719a2.584,2.584,0,0,1-1.284-.358A1.162,1.162,0,0,0,4.852,6.9l-.009.015L4.18,8a1.165,1.165,0,0,0,.427,1.579,2.663,2.663,0,0,1,0,4.611,1.155,1.155,0,0,0-.421,1.575l.631,1.088.007.013a1.163,1.163,0,0,0,1.582.453,2.645,2.645,0,0,1,3.619.97,2.584,2.584,0,0,1,.358,1.285s0,.005,0,.008a1.164,1.164,0,0,0,1.163,1.163H12.8A1.166,1.166,0,0,0,13.96,19.6a2.671,2.671,0,0,1,.777-1.885,2.636,2.636,0,0,1,1.876-.777h.029a2.709,2.709,0,0,1,1.267.355,1.162,1.162,0,0,0,1.588-.422l.005-.009.656-1.094a1.154,1.154,0,0,0-.424-1.577,2.654,2.654,0,0,1-.971-3.633,2.628,2.628,0,0,1,.969-.97A1.167,1.167,0,0,0,20.155,8a.75.75,0,0,1-.036-.071l-.585-1.015a1.162,1.162,0,0,0-1.583-.43A2.656,2.656,0,0,1,16.609,6.852Z" fill="#0e112c"/>
    <path id="Ellipse_26" data-name="Ellipse 26" d="M2.636-.75A3.386,3.386,0,1,1-.75,2.636,3.39,3.39,0,0,1,2.636-.75Zm0,5.272A1.886,1.886,0,1,0,.75,2.636,1.888,1.888,0,0,0,2.636,4.522Z" transform="translate(9.539 9.253)" fill="#0e112c"/>
  </g>
</svg>
