<svg xmlns="http://www.w3.org/2000/svg" width="32.22" height="21.67" viewBox="0 0 32.22 21.67">
  <g id="_043-half" data-name="043-half" transform="translate(0 -83.875)">
    <path id="Path_8108" data-name="Path 8108" d="M31.276,103.6H28.55l-7.7-8.548a.944.944,0,0,0-1.315-.085l-5.269,4.509c-.257-.217-.536-.407-.8-.618A15.91,15.91,0,0,1,10.616,95.9q-.28-.371-.538-.757l9.265-4.256a.944.944,0,0,0-.788-1.716l-9.4,4.32c-.064-.125-.13-.248-.2-.367a3.4,3.4,0,0,0-.9-.962,4.783,4.783,0,1,0-4.988.969,3.441,3.441,0,0,0-.511,1.483,5.423,5.423,0,0,0,1.014,3.176,22.948,22.948,0,0,0,2.489,3.5,21.6,21.6,0,0,0,3.367,3.223,3.816,3.816,0,0,0,3.868.791,3.461,3.461,0,0,0,2.015-4.223L20.059,97l7.37,8.177a.944.944,0,0,0,.7.312h3.146a.944.944,0,0,0,0-1.888ZM1.888,88.662a2.9,2.9,0,1,1,2.9,2.9A2.9,2.9,0,0,1,1.888,88.662ZM11.6,103.616A5.441,5.441,0,0,1,9.7,102.3a21.344,21.344,0,0,1-2.321-2.376c.371.442.717.855-.026-.031s-.4-.472-.023-.029a20.857,20.857,0,0,1-2.115-3c-.417-.727-1.015-1.611-.688-2.475a1.6,1.6,0,0,1,2.509-.639,7.307,7.307,0,0,1,1.083,1.817,17.982,17.982,0,0,0,4.025,4.659c.627.508,1.4.892,1.424,1.811A1.6,1.6,0,0,1,11.6,103.616Z" transform="translate(0 0)"/>
  </g>
</svg>
