<svg xmlns="http://www.w3.org/2000/svg" width="33.551" height="16.769" viewBox="0 0 33.551 16.769">
  <g id="_038-stretch" data-name="038-stretch" transform="translate(0 -128.052)">
    <path id="Path_8127" data-name="Path 8127" d="M32.568,129.678a.983.983,0,0,0-.983.983v2.247H22.622a.983.983,0,0,0-.983.983V138.1a3.524,3.524,0,0,0-1.581-.374H12.412v-8.694a.983.983,0,1,0-1.966,0v8.834a3.529,3.529,0,0,0-.878.39A4.929,4.929,0,1,0,8.5,143.275a3.544,3.544,0,0,0,2.926,1.546h8.629a3.549,3.549,0,0,0,3.545-3.49c0-.019,0-6.458,0-6.458h8.964a.983.983,0,0,0,.983-.983v-3.23A.983.983,0,0,0,32.568,129.678ZM4.924,142.855A2.958,2.958,0,1,1,7.883,139.9,2.962,2.962,0,0,1,4.924,142.855Zm15.133,0H11.429a1.58,1.58,0,1,1,0-3.16h8.629a1.58,1.58,0,1,1,0,3.16Z"/>
  </g>
</svg>
