<svg xmlns="http://www.w3.org/2000/svg" width="22.437" height="22.437" viewBox="0 0 22.437 22.437">
  <g id="Group_651" data-name="Group 651" transform="translate(-2 -2)">
    <path id="Path_992" data-name="Path 992" d="M13.219,3.726a9.493,9.493,0,1,0,9.493,9.493A9.493,9.493,0,0,0,13.219,3.726ZM2,13.219A11.219,11.219,0,1,1,13.219,24.437,11.219,11.219,0,0,1,2,13.219Z" fill="#f63e02" fill-rule="evenodd"/>
    <path id="Path_993" data-name="Path 993" d="M8.326,14.653a.863.863,0,0,1,1.208-.173,4.807,4.807,0,0,0,1.374.767,4.808,4.808,0,0,0,1.56.211,4.808,4.808,0,0,0,1.56-.211A4.807,4.807,0,0,0,15.4,14.48a.863.863,0,0,1,1.036,1.381,6.511,6.511,0,0,1-1.864,1.023,6.509,6.509,0,0,1-2.105.3,6.509,6.509,0,0,1-2.105-.3A6.51,6.51,0,0,1,8.5,15.861.863.863,0,0,1,8.326,14.653Z" transform="translate(0.75 1.5)" fill="#f63e02" fill-rule="evenodd"/>
    <path id="Path_994" data-name="Path 994" d="M10.2,9.048A1.151,1.151,0,1,1,9.048,7.9,1.151,1.151,0,0,1,10.2,9.048Z" transform="translate(0.719 0.719)" fill="#f63e02"/>
    <path id="Path_995" data-name="Path 995" d="M16.353,9.048A1.151,1.151,0,1,1,15.2,7.9,1.151,1.151,0,0,1,16.353,9.048Z" transform="translate(1.468 0.719)" fill="#f63e02"/>
  </g>
</svg>
