<svg xmlns="http://www.w3.org/2000/svg" width="27.195" height="27.195" viewBox="0 0 27.195 27.195">
  <g id="Group_488" data-name="Group 488" transform="translate(-2 -2)">
    <path id="Path_672" data-name="Path 672" d="M15.6,4.092A11.505,11.505,0,1,0,27.1,15.6,11.506,11.506,0,0,0,15.6,4.092ZM2,15.6a13.6,13.6,0,1,1,13.6,13.6A13.6,13.6,0,0,1,2,15.6Z" fill="#1e2022" fill-rule="evenodd"/>
    <path id="Path_673" data-name="Path 673" d="M8.363,14.726a1.046,1.046,0,0,1,1.464-.209,5.827,5.827,0,0,0,1.666.929,5.828,5.828,0,0,0,1.89.256,5.828,5.828,0,0,0,1.89-.256,5.827,5.827,0,0,0,1.666-.929A1.046,1.046,0,0,1,18.2,16.19a7.891,7.891,0,0,1-2.26,1.24,7.889,7.889,0,0,1-2.552.363,7.889,7.889,0,0,1-2.552-.363,7.891,7.891,0,0,1-2.26-1.24A1.046,1.046,0,0,1,8.363,14.726Z" transform="translate(2.214 4.428)" fill="#1e2022" fill-rule="evenodd"/>
    <path id="Path_674" data-name="Path 674" d="M10.687,9.292A1.395,1.395,0,1,1,9.292,7.9,1.395,1.395,0,0,1,10.687,9.292Z" transform="translate(2.122 2.122)" fill="#1e2022"/>
    <path id="Path_675" data-name="Path 675" d="M16.841,9.292A1.395,1.395,0,1,1,15.446,7.9,1.395,1.395,0,0,1,16.841,9.292Z" transform="translate(4.335 2.122)" fill="#1e2022"/>
  </g>
</svg>
