<svg xmlns="http://www.w3.org/2000/svg" width="15.577" height="14.797" viewBox="0 0 15.577 14.797">
  <path id="Path_8101" data-name="Path 8101" d="M14.4,11.7a.857.857,0,0,0-.248.755l.692,3.831a.841.841,0,0,1-.35.841.857.857,0,0,1-.911.062l-3.449-1.8a.881.881,0,0,0-.389-.1H9.529a.632.632,0,0,0-.21.07l-3.45,1.807a.91.91,0,0,1-.553.086.866.866,0,0,1-.693-.99l.693-3.831a.871.871,0,0,0-.248-.762L2.256,8.948a.841.841,0,0,1-.209-.88.874.874,0,0,1,.692-.584l3.87-.561a.866.866,0,0,0,.685-.474L9,2.952a.81.81,0,0,1,.156-.21l.07-.055a.523.523,0,0,1,.125-.1l.085-.031L9.568,2.5H9.9a.871.871,0,0,1,.685.467l1.728,3.481a.865.865,0,0,0,.646.474l3.87.561a.883.883,0,0,1,.709.584.846.846,0,0,1-.226.88Z" transform="translate(-2 -2.5)"/>
</svg>
