<svg xmlns="http://www.w3.org/2000/svg" width="17.075" height="16.297" viewBox="0 0 17.075 16.297">
  <path id="Path_8102" data-name="Path 8102" d="M13.985,18.047a1.616,1.616,0,0,1-.757-.189l-3.451-1.8a.128.128,0,0,0-.052-.014H9.637l-3.432,1.8A1.674,1.674,0,0,1,5.2,18l-.021,0a1.606,1.606,0,0,1-1.294-1.847l0-.013.692-3.823a.122.122,0,0,0-.034-.1L1.734,9.487a1.6,1.6,0,0,1-.4-1.663,1.62,1.62,0,0,1,1.285-1.08h.009l3.9-.565a.117.117,0,0,0,.091-.062L8.334,2.606a1.556,1.556,0,0,1,.3-.4l.029-.027.061-.048a1.28,1.28,0,0,1,.248-.188L9.03,1.9l.133-.049L9.42,1.75h.515l.039,0a1.616,1.616,0,0,1,1.275.87l0,.01,1.728,3.481a.117.117,0,0,0,.086.066l3.866.561a1.626,1.626,0,0,1,1.309,1.08l0,.013a1.6,1.6,0,0,1-.426,1.66l-2.905,2.75a.107.107,0,0,0-.029.09l.691,3.823a1.62,1.62,0,0,1-1.593,1.889Zm-3.506-3.315,3.454,1.8a.109.109,0,0,0,.052.013.1.1,0,0,0,.062-.02l.016-.012a.092.092,0,0,0,.038-.091l-.694-3.842a1.607,1.607,0,0,1,.466-1.417l.006-.006L16.793,8.4a.1.1,0,0,0,.03-.1.132.132,0,0,0-.1-.081l-3.878-.563a1.615,1.615,0,0,1-1.206-.886L9.913,3.308a.12.12,0,0,0-.073-.058H9.723l-.056.043-1.7,3.49A1.608,1.608,0,0,1,6.7,7.667l-3.851.559a.124.124,0,0,0-.1.083l0,.006a.091.091,0,0,0,.023.1l2.816,2.729a1.624,1.624,0,0,1,.462,1.418l0,.012-.691,3.822a.116.116,0,0,0,.083.127.161.161,0,0,0,.083-.015l3.437-1.8a1.377,1.377,0,0,1,.453-.15l.055-.008h.288A1.64,1.64,0,0,1,10.479,14.733Z" transform="translate(-1.25 -1.75)" fill="#1e2022"/>
</svg>
