<svg width="16" height="18" viewBox="0 0 16 18" fill="none" xmlns="http://www.w3.org/2000/svg">
    <path
        d="M13.8333 0.667969H2.16667C1.72464 0.667969 1.30072 0.843563 0.988155 1.15612C0.675595 1.46868 0.5 1.89261 0.5 2.33464V4.0013C0.5 4.44333 0.675595 4.86725 0.988155 5.17981C1.30072 5.49237 1.72464 5.66797 2.16667 5.66797V14.8346C2.16667 15.4977 2.43006 16.1336 2.8989 16.6024C3.36774 17.0712 4.00363 17.3346 4.66667 17.3346H11.3333C11.9964 17.3346 12.6323 17.0712 13.1011 16.6024C13.5699 16.1336 13.8333 15.4977 13.8333 14.8346V5.66797C14.2754 5.66797 14.6993 5.49237 15.0118 5.17981C15.3244 4.86725 15.5 4.44333 15.5 4.0013V2.33464C15.5 1.89261 15.3244 1.46868 15.0118 1.15612C14.6993 0.843563 14.2754 0.667969 13.8333 0.667969ZM12.1667 12.3346H7.16667V9.0013H12.1667V12.3346ZM12.1667 7.33464H6.33333C6.11232 7.33464 5.90036 7.42243 5.74408 7.57871C5.5878 7.73499 5.5 7.94696 5.5 8.16797V13.168C5.5 13.389 5.5878 13.6009 5.74408 13.7572C5.90036 13.9135 6.11232 14.0013 6.33333 14.0013H12.1667V14.8346C12.1667 15.0556 12.0789 15.2676 11.9226 15.4239C11.7663 15.5802 11.5543 15.668 11.3333 15.668H4.66667C4.44565 15.668 4.23369 15.5802 4.07741 15.4239C3.92113 15.2676 3.83333 15.0556 3.83333 14.8346V5.66797H12.1667V7.33464ZM2.16667 4.0013V2.33464H13.8333V4.0013H2.16667Z"
        fill="white" />
</svg>
