<svg id="Group_828" data-name="Group 828" xmlns="http://www.w3.org/2000/svg" width="22.157" height="22.157" viewBox="0 0 22.157 22.157">
  <path id="Path_8032" data-name="Path 8032" d="M11.079,22.157a26.284,26.284,0,0,1-5.556-.447,6.606,6.606,0,0,1-3.4-1.68,6.605,6.605,0,0,1-1.68-3.4A26.279,26.279,0,0,1,0,11.079,26.279,26.279,0,0,1,.447,5.523a6.605,6.605,0,0,1,1.68-3.4,6.605,6.605,0,0,1,3.4-1.68A26.279,26.279,0,0,1,11.079,0a26.279,26.279,0,0,1,5.556.447,6.605,6.605,0,0,1,3.4,1.68,6.606,6.606,0,0,1,1.68,3.4,26.284,26.284,0,0,1,.447,5.556,26.283,26.283,0,0,1-.447,5.556,6.606,6.606,0,0,1-1.68,3.4,6.605,6.605,0,0,1-3.4,1.68A26.284,26.284,0,0,1,11.079,22.157ZM11.079,2a24.471,24.471,0,0,0-5.122.4A4.739,4.739,0,0,0,3.541,3.541,4.739,4.739,0,0,0,2.4,5.957,24.471,24.471,0,0,0,2,11.079,24.471,24.471,0,0,0,2.4,16.2a4.738,4.738,0,0,0,1.142,2.416,4.739,4.739,0,0,0,2.416,1.142,24.475,24.475,0,0,0,5.122.4,24.476,24.476,0,0,0,5.122-.4,4.738,4.738,0,0,0,2.416-1.142A4.738,4.738,0,0,0,19.758,16.2a24.475,24.475,0,0,0,.4-5.122,24.476,24.476,0,0,0-.4-5.122,4.739,4.739,0,0,0-1.142-2.416A4.738,4.738,0,0,0,16.2,2.4,24.471,24.471,0,0,0,11.079,2Z" fill="#f63e02"/>
  <path id="Path_8033" data-name="Path 8033" d="M12.581,17.162H10.749a1,1,0,0,1-.084-2V7a1,1,0,0,1,2,0v8.166a1,1,0,0,1-.084,2ZM15.33,8.916a1,1,0,0,1-1-1V7a1,1,0,1,1,2,0v.916A1,1,0,0,1,15.33,8.916ZM8,8.916a1,1,0,0,1-1-1V7A1,1,0,1,1,9,7v.916A1,1,0,0,1,8,8.916Z" transform="translate(-0.586 -0.503)" fill="#f63e02"/>
</svg>
