<svg xmlns="http://www.w3.org/2000/svg" width="22.279" height="18.223" viewBox="0 0 22.279 18.223">
  <g id="Group_391" data-name="Group 391" transform="translate(1 1)">
    <g id="Group_390" data-name="Group 390" transform="translate(0 0)">
      <path id="Path_773" data-name="Path 773" d="M13.85,4.25V6.7" transform="translate(-1.835 -3.997)" fill="none" stroke="#fff" stroke-linecap="round" stroke-linejoin="round" stroke-width="2"/>
      <path id="Path_774" data-name="Path 774" d="M13.85,17.76v2.052" transform="translate(-1.835 -3.808)" fill="none" stroke="#fff" stroke-linecap="round" stroke-linejoin="round" stroke-width="2"/>
      <path id="Path_775" data-name="Path 775" d="M13.85,14.392V9.5" transform="translate(-1.835 -3.923)" fill="none" stroke="#fff" stroke-linecap="round" stroke-linejoin="round" stroke-width="2"/>
      <path id="Path_776" data-name="Path 776" d="M18.935,20.223a3.322,3.322,0,0,0,3.344-3.3V14.292a2.18,2.18,0,1,1,0-4.36V7.3A3.323,3.323,0,0,0,18.934,4H5.345A3.323,3.323,0,0,0,2,7.3v2.715a2.119,2.119,0,0,1,2.207,2.095A2.189,2.189,0,0,1,2,14.292v2.629a3.322,3.322,0,0,0,3.344,3.3Z" transform="translate(-2 -4)" fill="none" stroke="#fff" stroke-linecap="round" stroke-linejoin="round" stroke-width="2" fill-rule="evenodd"/>
    </g>
  </g>
</svg>
