<svg xmlns="http://www.w3.org/2000/svg" width="10.614" height="10.614" viewBox="0 0 10.614 10.614">
  <g id="Group_374" data-name="Group 374" transform="translate(0.25 0.25)">
    <path id="Path_741" data-name="Path 741" d="M4.865,2.759A2.035,2.035,0,0,0,2.759,4.992v4.13a2.035,2.035,0,0,0,2.106,2.233H9.248a2.036,2.036,0,0,0,2.107-2.233V4.992A2.036,2.036,0,0,0,9.249,2.759Zm4.383,9.355H4.865A2.774,2.774,0,0,1,2,9.122V4.992A2.774,2.774,0,0,1,4.865,2H9.249a2.774,2.774,0,0,1,2.865,2.992v4.13A2.775,2.775,0,0,1,9.248,12.114Z" transform="translate(-2 -2)" fill="#f63e02" stroke="#f63e02" stroke-width="0.5" fill-rule="evenodd"/>
    <path id="Path_742" data-name="Path 742" d="M13.343,10.87a.382.382,0,0,1-.194-.053L11.434,9.794a.381.381,0,0,1-.185-.326V7.263a.379.379,0,1,1,.759,0v1.99l1.53.912a.38.38,0,0,1-.195.705Z" transform="translate(-6.572 -4.414)" fill="#f63e02" stroke="#f63e02" stroke-width="0.5" fill-rule="evenodd"/>
  </g>
</svg>
