<?xml version="1.0" encoding="utf-8"?>
<!-- Generator: Adobe Illustrator 24.1.1, SVG Export Plug-In . SVG Version: 6.00 Build 0)  -->
<svg version="1.0" id="Layer_1" xmlns="http://www.w3.org/2000/svg" xmlns:xlink="http://www.w3.org/1999/xlink" x="0px" y="0px"
	 viewBox="0 0 500 500" style="enable-background:new 0 0 500 500;" xml:space="preserve">
<style type="text/css">
	.st0{fill-rule:evenodd;clip-rule:evenodd;fill:#FA8743;}
	.st1{fill:#B2B2C7;}
	.st2{fill-rule:evenodd;clip-rule:evenodd;fill:#235789;}
	.st3{fill:#FA8743;}
	.st4{fill:#6BA5AA;}
	.st5{fill:#F63E02;}
	.st6{fill:#235789;}
	.st7{fill:#0E112C;}
	.st8{fill:none;}
	.st9{fill:#FA8743;stroke:#FA8743;stroke-width:4;stroke-miterlimit:10;}
	.st10{fill:#CCD1D9;}
	.st11{fill:#E6E9ED;}
	.st12{fill:#AAB2BD;}
</style>
<path class="st0" d="M347.3,469.6L250,337.1l-94.8,132.5l-38.6-72.1l95.6-136.7c0,0,57.9-75.2,74.8-117.4s12.3-50,12.3-50l-48.5-6.8
	l-55.6,14.6l49.9,102.6l-37.3,56.5l-41.3-80.9l-0.5-68.2l28.2-68.3l78.6-18.8l43.5,37.2l24.7,82.2l-24.7,80.1l-22.5,44.7l92.9,123.8
	L347.3,469.6z"/>
<path class="st2" d="M250.9,35.4c-13,0-25,2.7-34.5,7.4c-9,4.4-15.7,10.4-19,17.1l-12.1,33.4c11.5-6.6,24.7-11.1,37.7-13.6
	c8.9-1.7,18.2-2.6,27.8-2.6c9.6,0,19,0.9,27.9,2.6c13,2.5,26.2,6.9,37.7,13.6l-12.1-33.4c-3.2-6.8-10-12.8-19-17.1
	C275.8,38.1,263.9,35.4,250.9,35.4z M164.4,318.8c5.1,0,9.2,4.1,9.2,9.2c0,5.1-4.1,9.2-9.2,9.2c-5.1,0-9.2-4.1-9.2-9.2
	C155.2,322.9,159.3,318.8,164.4,318.8z M178.8,293.6c-3.2,4.2-2.3,10.2,1.9,13.4c4.2,3.2,10.2,2.3,13.4-1.9h0
	c34.6-46,69.7-95.4,88.1-131c10.4-20.2,17.6-35.2,22.4-46.9c2.6-6.1,4.5-11.4,5.9-16.1c3.8,2.4,7.3,5.1,10.2,8
	c4.8,4.6,8.4,9.6,10.4,15c0.8,4.2,5.4,34.6-17.5,79.9C274.7,291,210.8,390.4,155.7,457.6l-32.2-61.2c7.6-9.7,16.4-21,26.1-33.4
	c3.1-4,2.3-9.8-1.8-12.9c-4-3.1-9.8-2.3-12.9,1.7c-17.4,22.7-29.3,37.9-29.4,38.1c-2.3,2.9-2.5,6.8-0.9,9.8l41.2,78.4
	c2.3,4.4,7.9,6.1,12.3,3.8c1.2-0.6,2.1-1.4,2.9-2.4c24.3-28,54.5-70.6,83-114.1c2.2-3.4,4.5-6.9,6.7-10.3
	c15,23.1,30.7,46.3,45.8,67.5c15.6,21.8,30.7,41.5,44,56.8c0.8,1,1.7,1.8,2.9,2.4c4.4,2.3,10,0.6,12.3-3.8l41.3-78.4
	c1.6-3.1,1.4-6.9-0.9-9.8c-0.1-0.2-47.6-60.8-91.9-121.5c10.8-18.6,19.7-34.6,25.6-46.2c27.6-54.8,19-92.4,19-92.5
	c-3.4-15.6-20.6-63.1-28-77.4c-5-10.6-14.8-19.6-27.5-25.8c-12-5.9-26.7-9.3-42.4-9.3s-30.5,3.5-42.4,9.3
	c-12.9,6.3-22.7,15.5-27.7,26.3c-7.6,16.6-24.1,59.9-27.8,76.9c0,0.1-8.6,37.7,19,92.5c2.9,5.7,7.1,13.5,11.9,22.2
	c4.5,8,9.1,16.2,13.6,24C191.2,276.8,184.9,285.3,178.8,293.6z M207.8,102.8c1.3,4.7,3.2,10.4,6.1,17.4
	c4.6,11.1,11.5,25.6,21.8,45.5c2.2,4.2,5.3,9.6,8.9,15.6c2,3.3,4.1,6.6,6.2,10c6.3-9.9,11.5-18.6,15.1-25.5
	c10.2-19.9,17.2-34.4,21.8-45.5c2.9-7,4.9-12.7,6.1-17.4c-5.8-2.2-12-3.9-18.6-5.2c-7.7-1.5-15.9-2.3-24.4-2.3
	c-8.6,0-16.8,0.8-24.4,2.3C219.8,98.9,213.6,100.7,207.8,102.8z M240,207.9c-3.9-6-7.6-11.9-10.8-17.1c-3.9-6.3-7.2-12.1-9.6-16.7
	c-10.4-20.2-17.6-35.2-22.4-46.9c-2.6-6.1-4.5-11.4-5.9-16.1c-3.8,2.4-7.3,5.1-10.2,8c-4.8,4.6-8.4,9.6-10.4,15
	c-0.8,4.2-5.4,34.6,17.5,79.9c2.9,5.7,6.9,13.2,11.6,21.6c2.8,5,6,10.7,9.4,16.6C220.2,236.7,230.8,221.6,240,207.9z M261.6,338.3
	c16,24.8,33.2,50.4,49.9,73.8c12,16.8,23.8,32.4,34.5,45.5l32.2-61.2c-11.5-14.8-48.6-62.6-84-110.9
	C284.3,302,273.2,320,261.6,338.3z"/>
</svg>
