<svg xmlns="http://www.w3.org/2000/svg" width="19.5" height="19.921" viewBox="0 0 19.5 19.921">
  <g id="Group_540" data-name="Group 540" transform="translate(-2 -2.579)">
    <g id="Group_539" data-name="Group 539">
      <path id="Path_908" data-name="Path 908" d="M7.521,4.079C4.928,4.079,3.5,5.462,3.5,7.973v9.049C3.5,19.588,4.928,21,7.521,21h8.458C18.572,21,20,19.614,20,17.1V7.973a3.865,3.865,0,0,0-.987-2.855,4.162,4.162,0,0,0-3.025-1.039ZM15.979,22.5H7.521C4.116,22.5,2,20.4,2,17.022V7.973C2,4.645,4.116,2.579,7.521,2.579h8.467a5.614,5.614,0,0,1,4.087,1.479A5.372,5.372,0,0,1,21.5,7.975V17.1C21.5,20.43,19.384,22.5,15.979,22.5Z" fill="#858585" fill-rule="evenodd"/>
    </g>
    <path id="Path_8067" data-name="Path 8067" d="M12,8.154a1.282,1.282,0,0,0-1.282,1.282.769.769,0,0,1-1.538,0,2.821,2.821,0,1,1,5.194,1.525,9.22,9.22,0,0,1-.576.776l-.1.128c-.159.2-.3.377-.439.562a1.985,1.985,0,0,0-.486,1.112.769.769,0,0,1-1.538,0,3.462,3.462,0,0,1,.78-2.017c.16-.22.335-.436.494-.633l.094-.116a7.817,7.817,0,0,0,.481-.644A1.282,1.282,0,0,0,12,8.154Z" transform="translate(-0.25 0.412)" fill="#858585" fill-rule="evenodd"/>
    <path id="Path_8068" data-name="Path 8068" d="M13.026,16.615A1.026,1.026,0,1,1,12,15.59,1.026,1.026,0,0,1,13.026,16.615Z" transform="translate(-0.25 0.412)" fill="#858585"/>
  </g>
</svg>
