<svg xmlns="http://www.w3.org/2000/svg" width="19.528" height="20.5" viewBox="0 0 19.528 20.5">
  <path id="Union_2" data-name="Union 2" d="M-1820,16.575c0-2.722,3.686-3.4,8-3.4,4.339,0,8,.7,8,3.424s-3.686,3.4-8,3.4C-1816.339,20-1820,19.3-1820,16.575Zm16.4-4.249a.7.7,0,0,1,.7-.7.7.7,0,0,1,.7.7.7.7,0,0,1-.7.7A.7.7,0,0,1-1803.6,12.326Zm.176-2.1a2.36,2.36,0,0,1,.532-1.375c.109-.15.229-.3.337-.432l.064-.079a5.024,5.024,0,0,0,.328-.439.862.862,0,0,0,.139-.473.874.874,0,0,0-.875-.874.874.874,0,0,0-.874.874.525.525,0,0,1-.525.525.525.525,0,0,1-.525-.525,1.924,1.924,0,0,1,1.923-1.923,1.924,1.924,0,0,1,1.924,1.923,1.923,1.923,0,0,1-.305,1.04,6.353,6.353,0,0,1-.393.529l-.07.087c-.108.134-.207.257-.3.383a1.35,1.35,0,0,0-.332.758.525.525,0,0,1-.525.525A.524.524,0,0,1-1803.421,10.228Zm-13.874-4.937A5.274,5.274,0,0,1-1812,0a5.273,5.273,0,0,1,5.294,5.291A5.274,5.274,0,0,1-1812,10.583,5.275,5.275,0,0,1-1817.294,5.291Z" transform="translate(1820.251 0.25)" fill="#616161" stroke="#616161" stroke-miterlimit="10" stroke-width="0.5"/>
</svg>
