<svg xmlns="http://www.w3.org/2000/svg" width="164" height="26" viewBox="0 0 164 26">
  <g id="Volume_Line" data-name="Volume Line" transform="translate(20)">
    <rect id="Rectangle" width="2" height="14" rx="1" transform="translate(0 6)" fill="#616161"/>
    <rect id="Rectangle-2" data-name="Rectangle" width="2" height="14" rx="1" transform="translate(50 6)" fill="#616161"/>
    <rect id="Rectangle-3" data-name="Rectangle" width="2" height="16" rx="1" transform="translate(45 5)" fill="#616161"/>
    <rect id="Rectangle-4" data-name="Rectangle" width="2" height="16" rx="1" transform="translate(25 5)" fill="#616161"/>
    <rect id="Rectangle-5" data-name="Rectangle" width="2" height="18" rx="1" transform="translate(15 4)" fill="#616161"/>
    <rect id="Rectangle-6" data-name="Rectangle" width="2" height="18" rx="1" transform="translate(40 4)" fill="#616161"/>
    <rect id="Rectangle-7" data-name="Rectangle" width="2" height="18" rx="1" transform="translate(20 4)" fill="#616161"/>
    <rect id="Rectangle-8" data-name="Rectangle" width="2" height="26" rx="1" transform="translate(35)" fill="#616161"/>
    <rect id="Rectangle-9" data-name="Rectangle" width="2" height="12" rx="1" transform="translate(5 7)" fill="#616161"/>
    <rect id="Rectangle-10" data-name="Rectangle" width="2" height="12" rx="1" transform="translate(10 7)" fill="#616161"/>
    <rect id="Rectangle-11" data-name="Rectangle" width="2" height="12" rx="1" transform="translate(55 7)" fill="#616161"/>
    <rect id="Rectangle-12" data-name="Rectangle" width="2" height="10" rx="1" transform="translate(60 8)" fill="#616161"/>
    <rect id="Rectangle-13" data-name="Rectangle" width="2" height="8" rx="1" transform="translate(65 9)" fill="#616161"/>
    <rect id="Rectangle-14" data-name="Rectangle" width="2" height="6" rx="1" transform="translate(70 10)" fill="#616161"/>
    <rect id="Rectangle-15" data-name="Rectangle" width="2" height="6" rx="1" transform="translate(75 10)" fill="#616161"/>
    <rect id="Rectangle-16" data-name="Rectangle" width="2" height="6" rx="1" transform="translate(80 10)" fill="#616161"/>
    <rect id="Rectangle-17" data-name="Rectangle" width="2" height="6" rx="1" transform="translate(85 10)" fill="#616161"/>
    <rect id="Rectangle-18" data-name="Rectangle" width="2" height="6" rx="1" transform="translate(90 10)" fill="#616161"/>
    <rect id="Rectangle-19" data-name="Rectangle" width="2" height="4" rx="1" transform="translate(95 11)" fill="#616161"/>
    <rect id="Rectangle-20" data-name="Rectangle" width="2" height="4" rx="1" transform="translate(100 11)" fill="#616161"/>
    <rect id="Rectangle-21" data-name="Rectangle" width="2" height="6" rx="1" transform="translate(105 10)" fill="#616161"/>
    <rect id="Rectangle-22" data-name="Rectangle" width="2" height="6" rx="1" transform="translate(110 10)" fill="#616161"/>
    <rect id="Rectangle-23" data-name="Rectangle" width="2" height="6" rx="1" transform="translate(115 10)" fill="#616161"/>
    <rect id="Rectangle-24" data-name="Rectangle" width="2" height="10" rx="1" transform="translate(120 8)" fill="#616161"/>
    <rect id="Rectangle-25" data-name="Rectangle" width="2" height="13" rx="1" transform="translate(125 7)" fill="#616161"/>
    <rect id="Rectangle-26" data-name="Rectangle" width="2" height="6" rx="1" transform="translate(130 10)" fill="#616161"/>
    <rect id="Rectangle-27" data-name="Rectangle" width="2" height="6" rx="1" transform="translate(134 10)" fill="#616161"/>
    <rect id="Rectangle-28" data-name="Rectangle" width="2" height="10" rx="1" transform="translate(138 8)" fill="#616161"/>
    <rect id="Rectangle-29" data-name="Rectangle" width="2" height="6" rx="1" transform="translate(142 10)" fill="#616161"/>
    <rect id="Rectangle-30" data-name="Rectangle" width="2" height="12" rx="1" transform="translate(30 7)" fill="#616161"/>
    <rect id="Rectangle-31" data-name="Rectangle" width="2" height="4" rx="1" transform="translate(-15 11)" fill="#616161"/>
    <rect id="Rectangle-32" data-name="Rectangle" width="2" height="6" rx="1" transform="translate(-10 10)" fill="#616161"/>
    <rect id="Rectangle-33" data-name="Rectangle" width="2" height="8" rx="1" transform="translate(-5 9)" fill="#616161"/>
    <rect id="Rectangle-34" data-name="Rectangle" width="2" height="4" rx="1" transform="translate(-20 11)" fill="#616161"/>
  </g>
</svg>
