<svg xmlns="http://www.w3.org/2000/svg" xmlns:xlink="http://www.w3.org/1999/xlink" id="svg" version="1.1" width="400" height="418.1818181818182" viewBox="0, 0, 400,418.1818181818182"><g id="svgg"><path id="path0" d="M187.000 19.459 C 185.898 19.782,182.125 20.180,178.600 20.344 C 173.707 20.571,171.965 20.796,171.200 21.300 C 170.555 21.724,168.849 22.058,166.400 22.239 C 163.933 22.421,162.111 22.779,161.206 23.260 C 160.346 23.716,158.985 24.000,157.653 24.000 C 156.204 24.000,155.076 24.259,154.219 24.788 C 153.518 25.221,151.877 25.701,150.572 25.853 C 149.267 26.005,147.750 26.442,147.200 26.824 C 146.650 27.206,145.310 27.629,144.222 27.763 C 143.134 27.897,142.144 28.158,142.022 28.343 C 141.581 29.013,140.024 29.600,138.688 29.600 C 137.832 29.600,137.054 29.898,136.600 30.400 C 136.202 30.840,135.446 31.200,134.920 31.200 C 134.394 31.200,133.118 31.650,132.085 32.200 C 131.052 32.750,129.720 33.200,129.126 33.200 C 128.530 33.200,127.811 33.532,127.523 33.939 C 127.235 34.346,126.364 34.796,125.587 34.941 C 124.810 35.085,123.867 35.563,123.491 36.002 C 123.115 36.441,122.384 36.800,121.865 36.800 C 121.347 36.800,120.492 37.173,119.967 37.629 C 119.441 38.085,118.523 38.555,117.926 38.675 C 117.329 38.794,116.534 39.231,116.158 39.646 C 115.783 40.061,115.125 40.400,114.696 40.400 C 114.267 40.400,113.381 40.850,112.727 41.400 C 112.073 41.950,111.146 42.400,110.666 42.400 C 110.185 42.400,109.568 42.760,109.293 43.200 C 109.018 43.640,108.579 44.000,108.318 44.000 C 107.816 44.000,105.364 45.562,103.469 47.089 C 102.847 47.590,101.992 48.000,101.569 48.000 C 101.146 48.000,100.800 48.162,100.800 48.360 C 100.800 48.700,99.215 49.836,96.821 51.211 C 96.236 51.547,95.497 52.043,95.179 52.315 C 93.267 53.944,88.953 57.196,88.700 57.198 C 88.535 57.199,88.085 57.473,87.700 57.806 C 87.021 58.395,83.419 61.636,81.800 63.116 C 81.360 63.519,79.841 64.827,78.424 66.024 C 74.680 69.187,68.671 75.258,65.048 79.535 C 63.315 81.583,61.111 84.100,60.150 85.129 C 57.701 87.751,57.200 88.357,57.198 88.700 C 57.197 88.865,56.252 90.194,55.098 91.654 C 53.944 93.114,52.770 94.644,52.490 95.054 C 51.815 96.040,50.594 97.893,49.558 99.500 C 49.098 100.215,48.559 100.800,48.360 100.800 C 48.162 100.800,48.000 101.168,48.000 101.618 C 48.000 102.068,47.581 102.855,47.070 103.366 C 46.558 103.878,45.907 104.860,45.621 105.548 C 45.336 106.237,44.945 106.800,44.751 106.800 C 44.558 106.800,44.400 107.056,44.400 107.369 C 44.400 107.682,43.950 108.473,43.400 109.127 C 42.850 109.781,42.400 110.591,42.400 110.927 C 42.400 111.263,41.950 112.073,41.400 112.727 C 40.850 113.381,40.400 114.267,40.400 114.696 C 40.400 115.125,40.040 115.802,39.600 116.200 C 39.160 116.598,38.800 117.221,38.800 117.584 C 38.800 117.947,38.350 118.855,37.800 119.600 C 37.250 120.345,36.800 121.256,36.800 121.624 C 36.800 121.991,36.440 122.750,36.000 123.309 C 35.560 123.869,35.200 124.625,35.200 124.989 C 35.200 125.862,34.422 127.318,33.742 127.720 C 33.444 127.896,33.200 128.527,33.200 129.123 C 33.200 129.719,32.750 131.052,32.200 132.085 C 31.650 133.118,31.200 134.415,31.200 134.968 C 31.200 135.562,30.874 136.146,30.400 136.400 C 29.789 136.727,29.600 137.238,29.600 138.560 C 29.600 139.711,29.320 140.649,28.764 141.354 C 28.296 141.950,27.798 143.377,27.632 144.602 C 27.469 145.804,27.035 147.119,26.668 147.525 C 26.301 147.931,25.996 148.789,25.990 149.431 C 25.977 151.111,25.328 153.673,24.841 153.975 C 24.611 154.117,24.261 155.681,24.063 157.452 C 23.865 159.222,23.429 161.105,23.095 161.635 C 22.733 162.208,22.373 164.132,22.208 166.368 C 22.032 168.749,21.692 170.499,21.284 171.121 C 20.795 171.867,20.567 173.673,20.345 178.553 C 20.177 182.259,19.788 185.935,19.431 187.200 C 18.529 190.394,18.519 210.181,19.418 213.036 C 19.787 214.207,20.160 217.585,20.342 221.400 C 20.569 226.172,20.809 228.054,21.286 228.800 C 21.681 229.419,22.034 231.241,22.211 233.582 C 22.385 235.879,22.776 237.920,23.207 238.782 C 23.597 239.562,24.034 241.455,24.179 242.989 C 24.323 244.523,24.624 245.891,24.849 246.030 C 25.323 246.323,25.977 248.892,25.990 250.516 C 25.996 251.130,26.342 252.120,26.759 252.716 C 27.177 253.312,27.626 254.670,27.756 255.733 C 27.887 256.796,28.355 258.125,28.797 258.687 C 29.273 259.293,29.600 260.312,29.600 261.192 C 29.600 262.168,29.874 262.924,30.400 263.400 C 30.840 263.798,31.200 264.519,31.200 265.002 C 31.200 265.486,31.622 266.674,32.137 267.644 C 32.653 268.613,33.201 270.080,33.355 270.903 C 33.510 271.727,33.779 272.400,33.954 272.400 C 34.385 272.400,35.200 274.252,35.200 275.231 C 35.200 275.668,35.452 276.122,35.759 276.240 C 36.067 276.358,36.515 277.232,36.754 278.182 C 36.993 279.133,37.439 280.006,37.744 280.123 C 38.049 280.240,38.415 280.956,38.557 281.713 C 38.699 282.471,39.172 283.413,39.608 283.807 C 40.044 284.201,40.400 284.875,40.400 285.304 C 40.400 285.733,40.850 286.619,41.400 287.273 C 41.950 287.927,42.400 288.813,42.400 289.243 C 42.400 289.673,42.665 290.127,42.988 290.251 C 43.311 290.375,43.797 291.089,44.068 291.838 C 44.339 292.587,44.677 293.200,44.820 293.200 C 44.962 293.200,45.403 293.920,45.800 294.800 C 46.197 295.680,46.652 296.400,46.812 296.400 C 46.972 296.400,47.339 296.985,47.628 297.700 C 47.917 298.415,48.399 299.150,48.699 299.332 C 48.999 299.515,49.419 300.055,49.632 300.532 C 49.846 301.010,50.469 302.030,51.016 302.800 C 51.564 303.570,52.235 304.544,52.506 304.965 C 52.778 305.385,53.403 306.195,53.896 306.765 C 55.001 308.041,58.800 313.178,58.800 313.395 C 58.800 313.482,59.565 314.333,60.500 315.287 C 61.435 316.241,63.365 318.412,64.788 320.111 C 66.211 321.810,67.516 323.200,67.688 323.200 C 67.860 323.200,68.000 323.363,68.000 323.561 C 68.000 324.144,75.130 331.073,80.600 335.807 C 82.360 337.330,84.391 339.166,85.113 339.888 C 85.836 340.610,86.599 341.200,86.810 341.200 C 87.021 341.200,87.418 341.560,87.693 342.000 C 87.968 342.440,88.394 342.800,88.641 342.800 C 89.053 342.800,90.649 343.933,93.200 346.036 C 95.615 348.027,96.150 348.400,96.591 348.400 C 96.849 348.400,97.483 348.850,98.000 349.400 C 98.517 349.950,99.150 350.400,99.408 350.400 C 99.665 350.400,100.202 350.760,100.600 351.200 C 100.998 351.640,101.552 352.000,101.831 352.000 C 102.110 352.000,102.873 352.450,103.527 353.000 C 104.181 353.550,104.870 354.003,105.058 354.007 C 105.484 354.016,108.778 356.162,109.634 356.988 C 109.982 357.325,110.586 357.600,110.976 357.600 C 111.366 357.600,112.219 358.050,112.873 358.600 C 113.527 359.150,114.409 359.600,114.835 359.600 C 115.260 359.600,115.915 359.959,116.291 360.398 C 116.667 360.837,117.554 361.305,118.261 361.438 C 118.969 361.571,119.857 362.021,120.236 362.440 C 120.614 362.858,121.339 363.200,121.846 363.200 C 122.354 363.200,123.091 363.539,123.484 363.953 C 123.878 364.368,124.787 364.832,125.504 364.986 C 126.221 365.140,127.067 365.524,127.384 365.841 C 127.700 366.158,128.785 366.571,129.794 366.759 C 130.803 366.948,131.937 367.369,132.314 367.696 C 132.691 368.023,133.600 368.403,134.332 368.542 C 135.065 368.680,136.125 369.155,136.686 369.596 C 137.248 370.038,138.289 370.400,139.000 370.400 C 139.711 370.400,140.766 370.773,141.346 371.229 C 141.985 371.731,143.261 372.147,144.587 372.284 C 145.991 372.428,147.017 372.776,147.449 373.255 C 147.923 373.777,148.677 374.000,149.977 374.000 C 151.040 374.000,152.499 374.341,153.398 374.799 C 154.260 375.239,156.253 375.758,157.827 375.953 C 159.401 376.149,161.119 376.578,161.644 376.908 C 162.225 377.271,164.067 377.594,166.334 377.730 C 168.527 377.860,170.425 378.187,170.934 378.520 C 171.513 378.899,174.106 379.241,178.737 379.550 C 182.641 379.810,186.051 380.228,186.537 380.506 C 187.789 381.223,211.832 381.210,213.089 380.492 C 213.632 380.181,216.818 379.828,221.270 379.585 C 225.524 379.353,228.669 379.012,228.822 378.765 C 229.219 378.121,231.887 377.620,234.969 377.610 C 236.863 377.603,237.947 377.410,238.403 376.997 C 238.778 376.658,240.541 376.209,242.426 375.973 C 244.272 375.742,245.880 375.394,245.999 375.201 C 246.384 374.578,248.405 374.000,250.197 374.000 C 251.300 374.000,252.191 373.752,252.616 373.327 C 252.986 372.957,254.255 372.523,255.436 372.363 C 256.627 372.201,258.057 371.699,258.646 371.236 C 259.290 370.729,260.292 370.400,261.193 370.400 C 262.088 370.400,263.033 370.092,263.572 369.625 C 264.063 369.198,265.036 368.729,265.733 368.581 C 266.430 368.434,267.561 367.973,268.247 367.557 C 268.933 367.141,269.987 366.800,270.589 366.800 C 271.192 366.800,272.219 366.350,272.873 365.800 C 273.527 365.250,274.470 364.800,274.969 364.800 C 275.468 364.800,276.202 364.440,276.600 364.000 C 276.998 363.560,277.722 363.200,278.208 363.200 C 278.694 363.200,279.521 362.865,280.046 362.455 C 280.571 362.045,281.450 361.575,282.000 361.409 C 282.550 361.244,283.360 360.792,283.800 360.407 C 284.240 360.021,285.132 359.579,285.782 359.424 C 286.432 359.270,287.207 358.796,287.505 358.372 C 287.802 357.947,288.463 357.600,288.974 357.600 C 289.484 357.600,290.138 357.315,290.427 356.967 C 290.928 356.364,292.303 355.550,295.051 354.231 C 295.740 353.900,296.409 353.353,296.539 353.015 C 296.669 352.677,297.006 352.400,297.287 352.399 C 297.569 352.399,298.790 351.678,300.000 350.797 C 301.210 349.916,302.785 348.924,303.500 348.592 C 304.215 348.261,304.800 347.824,304.800 347.622 C 304.800 347.419,305.130 347.149,305.534 347.021 C 305.938 346.893,306.973 346.150,307.834 345.370 C 308.695 344.590,309.905 343.683,310.521 343.355 C 311.138 343.026,311.948 342.494,312.321 342.172 C 312.945 341.635,316.588 338.359,318.000 337.066 C 318.330 336.764,319.948 335.365,321.595 333.958 C 326.448 329.812,332.689 323.378,337.372 317.692 C 337.608 317.407,338.655 316.283,339.700 315.195 C 340.745 314.107,341.600 313.042,341.600 312.828 C 341.600 312.615,341.844 312.296,342.142 312.120 C 342.439 311.944,342.914 311.350,343.197 310.800 C 343.480 310.250,343.951 309.530,344.245 309.200 C 346.055 307.167,347.200 305.636,347.200 305.247 C 347.200 305.001,347.389 304.800,347.620 304.800 C 347.852 304.800,348.307 304.162,348.633 303.383 C 348.959 302.603,349.490 301.864,349.813 301.740 C 350.136 301.616,350.400 301.264,350.400 300.957 C 350.400 300.651,350.715 300.083,351.100 299.695 C 351.485 299.306,352.038 298.459,352.329 297.812 C 352.620 297.164,353.205 296.392,353.629 296.095 C 354.053 295.798,354.400 295.278,354.400 294.940 C 354.400 294.603,354.760 293.869,355.200 293.309 C 355.640 292.750,356.000 292.057,356.000 291.769 C 356.000 291.481,356.331 291.010,356.735 290.723 C 357.140 290.435,357.604 289.660,357.768 289.000 C 357.931 288.340,358.410 287.478,358.832 287.084 C 359.255 286.691,359.600 286.051,359.600 285.662 C 359.600 285.273,360.050 284.345,360.600 283.600 C 361.150 282.855,361.600 281.947,361.600 281.584 C 361.600 281.221,361.942 280.614,362.360 280.236 C 362.779 279.857,363.233 278.948,363.371 278.214 C 363.509 277.481,363.875 276.670,364.185 276.413 C 364.495 276.155,364.870 275.372,365.017 274.672 C 365.165 273.973,365.605 273.040,365.994 272.600 C 366.383 272.160,366.828 271.090,366.983 270.221 C 367.139 269.353,367.611 268.204,368.033 267.667 C 368.455 267.131,368.800 266.183,368.800 265.562 C 368.800 264.940,369.135 264.109,369.544 263.716 C 369.964 263.311,370.399 262.143,370.546 261.029 C 370.688 259.945,371.104 258.727,371.470 258.323 C 371.836 257.918,372.274 256.568,372.443 255.323 C 372.622 254.006,372.998 252.921,373.343 252.728 C 373.726 252.514,374.035 251.435,374.214 249.698 C 374.366 248.214,374.807 246.460,375.194 245.800 C 375.581 245.140,376.006 243.359,376.139 241.842 C 376.279 240.240,376.636 238.802,376.990 238.411 C 377.396 237.963,377.685 236.481,377.856 233.969 C 378.011 231.697,378.386 229.644,378.800 228.800 C 379.311 227.759,379.551 225.877,379.734 221.467 C 379.869 218.203,380.259 214.417,380.602 213.052 C 381.382 209.940,381.282 188.455,380.475 185.800 C 380.207 184.920,379.878 181.590,379.742 178.400 C 379.565 174.209,379.303 172.156,378.801 171.000 C 378.416 170.116,378.001 167.841,377.873 165.918 C 377.730 163.761,377.400 162.066,377.007 161.466 C 376.658 160.934,376.222 159.155,376.037 157.513 C 375.853 155.872,375.431 154.095,375.099 153.564 C 374.766 153.034,374.379 151.543,374.238 150.251 C 374.084 148.843,373.665 147.500,373.191 146.897 C 372.687 146.257,372.400 145.280,372.400 144.207 C 372.400 143.110,372.128 142.208,371.619 141.621 C 371.189 141.126,370.715 139.904,370.565 138.907 C 370.416 137.909,369.957 136.757,369.547 136.347 C 369.136 135.936,368.800 135.084,368.800 134.454 C 368.800 133.824,368.446 132.858,368.013 132.308 C 367.581 131.758,367.109 130.572,366.965 129.672 C 366.821 128.773,366.365 127.731,365.952 127.356 C 365.538 126.982,365.200 126.278,365.200 125.792 C 365.200 125.306,364.851 124.464,364.425 123.922 C 363.998 123.380,363.523 122.411,363.368 121.768 C 363.214 121.126,362.753 120.278,362.344 119.884 C 361.935 119.491,361.600 118.752,361.600 118.243 C 361.600 117.734,361.150 116.831,360.600 116.238 C 360.050 115.644,359.600 114.724,359.600 114.193 C 359.600 113.657,359.265 113.049,358.847 112.825 C 358.432 112.603,357.974 111.787,357.828 111.011 C 357.683 110.235,357.396 109.600,357.190 109.600 C 356.984 109.600,356.408 108.856,355.908 107.948 C 355.409 107.039,354.730 105.805,354.400 105.206 C 354.070 104.606,353.485 103.807,353.100 103.429 C 352.715 103.052,352.400 102.514,352.400 102.234 C 352.400 101.954,351.950 101.201,351.400 100.562 C 350.851 99.923,350.401 99.194,350.400 98.943 C 350.400 98.691,350.136 98.384,349.813 98.260 C 349.490 98.136,348.959 97.397,348.633 96.617 C 348.307 95.838,347.852 95.200,347.620 95.200 C 347.389 95.200,347.200 94.957,347.200 94.659 C 347.200 94.362,346.651 93.507,345.980 92.759 C 343.854 90.391,343.721 90.220,343.197 89.200 C 342.914 88.650,342.439 88.056,342.142 87.880 C 341.844 87.704,341.600 87.303,341.600 86.989 C 341.600 86.675,341.150 86.124,340.600 85.763 C 340.050 85.403,339.600 84.956,339.600 84.770 C 339.600 84.584,338.898 83.716,338.040 82.840 C 337.181 81.965,335.418 80.015,334.121 78.509 C 332.824 77.002,331.007 74.989,330.082 74.036 C 329.157 73.083,328.400 72.145,328.400 71.952 C 328.400 71.758,328.234 71.600,328.032 71.600 C 327.829 71.600,326.918 70.862,326.007 69.961 C 325.097 69.059,323.053 67.214,321.466 65.861 C 319.879 64.507,317.881 62.770,317.025 62.000 C 315.248 60.400,313.311 58.682,312.321 57.828 C 311.948 57.506,311.138 56.978,310.521 56.654 C 309.905 56.330,308.711 55.428,307.868 54.650 C 307.026 53.871,306.007 53.129,305.605 53.002 C 305.203 52.874,304.773 52.506,304.650 52.185 C 304.526 51.863,304.174 51.600,303.868 51.600 C 303.368 51.600,301.201 50.117,299.600 48.680 C 299.270 48.383,298.415 47.907,297.700 47.622 C 296.985 47.336,296.400 46.947,296.400 46.757 C 296.400 46.566,295.815 46.129,295.100 45.784 C 292.657 44.606,291.000 43.607,290.600 43.069 C 290.380 42.774,289.660 42.398,289.000 42.234 C 288.340 42.070,287.478 41.590,287.084 41.168 C 286.691 40.745,285.936 40.400,285.407 40.400 C 284.878 40.400,284.210 40.069,283.923 39.665 C 283.635 39.260,282.874 38.799,282.232 38.640 C 281.589 38.481,280.620 38.002,280.078 37.575 C 279.536 37.149,278.791 36.800,278.424 36.800 C 278.056 36.800,277.145 36.350,276.400 35.800 C 275.655 35.250,274.657 34.800,274.184 34.800 C 273.711 34.800,272.998 34.440,272.600 34.000 C 272.181 33.536,271.355 33.195,270.638 33.188 C 269.957 33.181,268.680 32.732,267.800 32.190 C 266.920 31.648,265.711 31.203,265.114 31.202 C 264.464 31.201,263.867 30.900,263.628 30.452 C 263.345 29.923,262.637 29.648,261.210 29.511 C 260.100 29.404,258.858 29.015,258.451 28.646 C 258.043 28.277,256.783 27.866,255.651 27.732 C 254.519 27.597,253.234 27.176,252.795 26.795 C 252.334 26.396,250.938 25.984,249.498 25.821 C 248.124 25.666,246.683 25.254,246.296 24.904 C 245.858 24.509,244.489 24.179,242.672 24.030 C 241.060 23.898,239.314 23.505,238.776 23.154 C 238.168 22.756,236.368 22.408,234.000 22.228 C 231.654 22.050,229.823 21.697,229.216 21.305 C 228.484 20.834,226.587 20.594,221.816 20.369 C 217.926 20.185,214.613 19.819,213.400 19.437 C 210.598 18.557,190.016 18.573,187.000 19.459 M218.800 49.663 C 219.665 50.072,221.778 50.417,224.331 50.567 C 227.181 50.733,229.003 51.055,230.209 51.604 C 231.249 52.078,232.815 52.401,234.078 52.401 C 235.493 52.402,236.637 52.669,237.510 53.201 C 238.230 53.641,239.400 54.001,240.110 54.002 C 241.746 54.005,244.400 54.731,244.400 55.176 C 244.400 55.362,245.506 55.709,246.858 55.947 C 248.209 56.186,249.609 56.646,249.968 56.971 C 250.327 57.296,251.373 57.682,252.292 57.829 C 253.211 57.976,254.269 58.435,254.644 58.848 C 255.023 59.267,255.872 59.606,256.562 59.612 C 257.243 59.619,258.520 60.068,259.400 60.610 C 260.280 61.152,261.377 61.597,261.838 61.598 C 262.299 61.599,263.002 61.960,263.400 62.400 C 263.798 62.840,264.546 63.200,265.062 63.200 C 265.578 63.200,266.355 63.555,266.790 63.990 C 267.224 64.424,268.079 64.898,268.690 65.042 C 269.300 65.187,270.160 65.621,270.600 66.007 C 271.040 66.392,271.850 66.844,272.400 67.009 C 272.950 67.175,273.829 67.645,274.354 68.055 C 274.879 68.465,275.526 68.800,275.792 68.800 C 276.058 68.800,276.602 69.160,277.000 69.600 C 277.398 70.040,277.952 70.400,278.231 70.400 C 278.510 70.400,279.273 70.850,279.927 71.400 C 280.581 71.950,281.302 72.400,281.529 72.400 C 281.757 72.400,282.190 72.647,282.491 72.948 C 282.792 73.250,283.615 73.794,284.320 74.158 C 285.024 74.523,285.600 74.974,285.600 75.162 C 285.600 75.349,286.140 75.727,286.800 76.000 C 287.460 76.273,288.000 76.633,288.000 76.800 C 288.000 76.967,288.523 77.320,289.163 77.585 C 289.803 77.850,291.156 78.862,292.170 79.833 C 293.184 80.805,294.185 81.600,294.393 81.600 C 294.601 81.600,294.965 81.960,295.200 82.400 C 295.435 82.840,295.833 83.200,296.083 83.200 C 297.665 83.200,313.107 98.678,317.928 105.095 C 318.580 105.963,320.277 107.979,321.384 109.200 C 321.683 109.530,322.152 110.295,322.428 110.900 C 322.703 111.505,323.058 112.000,323.216 112.000 C 323.374 112.000,323.727 112.540,324.000 113.200 C 324.273 113.860,324.651 114.400,324.838 114.400 C 325.026 114.400,325.477 114.976,325.842 115.680 C 326.206 116.385,326.750 117.208,327.052 117.509 C 327.353 117.810,327.600 118.315,327.600 118.631 C 327.600 118.947,328.050 119.597,328.600 120.075 C 329.150 120.553,329.600 121.259,329.600 121.644 C 329.600 122.028,329.902 122.645,330.272 123.015 C 330.977 123.719,331.914 125.277,333.008 127.558 C 333.366 128.305,333.916 129.173,334.229 129.486 C 334.542 129.800,334.917 130.538,335.060 131.128 C 335.204 131.718,335.655 132.629,336.061 133.154 C 336.467 133.679,336.800 134.419,336.800 134.800 C 336.800 135.181,337.143 135.928,337.561 136.460 C 337.980 136.993,338.522 138.166,338.764 139.067 C 339.007 139.969,339.474 140.930,339.803 141.202 C 340.137 141.479,340.400 142.355,340.400 143.187 C 340.400 144.152,340.673 144.923,341.175 145.378 C 341.602 145.764,342.143 146.975,342.378 148.071 C 342.613 149.166,343.052 150.309,343.354 150.611 C 343.656 150.913,344.028 152.159,344.180 153.380 C 344.333 154.601,344.616 155.600,344.810 155.600 C 345.276 155.600,345.995 158.245,345.998 159.969 C 345.999 160.721,346.285 161.652,346.633 162.037 C 346.999 162.441,347.428 164.055,347.651 165.868 C 347.862 167.591,348.336 169.540,348.704 170.200 C 349.169 171.034,349.415 172.620,349.511 175.400 C 349.608 178.219,349.883 179.964,350.441 181.312 C 351.584 184.073,351.707 215.081,350.586 218.000 C 350.198 219.011,349.774 221.640,349.620 224.000 C 349.448 226.624,349.088 228.736,348.661 229.628 C 348.285 230.413,347.821 232.448,347.630 234.150 C 347.439 235.852,347.018 237.550,346.695 237.923 C 346.371 238.295,345.986 239.672,345.840 240.983 C 345.693 242.294,345.321 243.645,345.014 243.985 C 344.706 244.325,344.327 245.560,344.172 246.728 C 344.017 247.897,343.646 249.097,343.347 249.395 C 343.049 249.694,342.613 250.834,342.378 251.929 C 342.143 253.025,341.602 254.236,341.175 254.622 C 340.715 255.039,340.400 255.846,340.400 256.608 C 340.400 257.314,340.063 258.321,339.652 258.846 C 339.241 259.371,338.767 260.430,338.600 261.200 C 338.433 261.970,337.972 263.013,337.576 263.519 C 337.179 264.024,336.736 264.981,336.590 265.646 C 336.444 266.310,336.072 266.951,335.762 267.070 C 335.453 267.188,335.197 267.581,335.194 267.943 C 335.191 268.304,334.927 269.050,334.608 269.600 C 334.288 270.150,333.650 271.320,333.189 272.200 C 331.378 275.658,330.802 276.567,330.213 276.897 C 329.876 277.085,329.600 277.624,329.600 278.094 C 329.600 278.564,329.215 279.358,328.744 279.859 C 327.854 280.807,327.600 281.198,326.092 283.946 C 325.592 284.856,325.029 285.600,324.840 285.600 C 324.652 285.600,324.273 286.140,324.000 286.800 C 323.727 287.460,323.367 288.000,323.200 288.000 C 323.033 288.000,322.689 288.502,322.435 289.115 C 322.181 289.729,321.214 291.064,320.287 292.084 C 319.359 293.103,318.288 294.356,317.907 294.868 C 314.086 300.008,304.256 310.215,299.000 314.501 C 297.460 315.756,295.821 317.147,295.358 317.592 C 294.895 318.036,294.342 318.400,294.130 318.400 C 293.918 318.400,293.372 318.805,292.917 319.300 C 291.472 320.873,289.449 322.400,288.810 322.400 C 288.470 322.400,287.968 322.760,287.693 323.200 C 287.418 323.640,286.931 324.000,286.611 324.000 C 286.290 324.000,285.849 324.335,285.629 324.745 C 285.410 325.155,284.684 325.717,284.015 325.994 C 283.347 326.271,282.800 326.643,282.800 326.822 C 282.800 327.000,282.395 327.273,281.900 327.428 C 281.405 327.583,280.491 328.135,279.869 328.655 C 279.247 329.175,278.453 329.600,278.103 329.600 C 277.753 329.600,277.182 329.874,276.834 330.210 C 275.865 331.142,273.394 332.685,272.341 333.015 C 271.824 333.177,270.971 333.645,270.446 334.055 C 269.921 334.465,269.163 334.800,268.762 334.800 C 268.360 334.800,267.709 335.139,267.316 335.553 C 266.922 335.968,266.027 336.429,265.328 336.579 C 264.628 336.729,263.842 337.109,263.581 337.423 C 263.320 337.737,262.363 338.192,261.453 338.434 C 260.544 338.676,259.530 339.112,259.200 339.403 C 258.870 339.694,257.880 340.060,257.000 340.216 C 256.120 340.371,255.040 340.821,254.600 341.215 C 254.160 341.609,252.945 342.058,251.900 342.211 C 250.855 342.365,250.000 342.622,250.000 342.781 C 250.000 343.283,248.020 344.000,246.635 344.000 C 245.905 344.000,244.879 344.333,244.354 344.740 C 243.802 345.168,242.413 345.579,241.059 345.715 C 239.771 345.845,238.413 346.227,238.040 346.564 C 237.646 346.920,236.023 347.327,234.165 347.535 C 232.407 347.731,230.436 348.162,229.784 348.492 C 229.111 348.833,226.802 349.211,224.436 349.369 C 221.732 349.548,219.839 349.883,219.036 350.323 C 217.145 351.359,183.244 351.353,181.351 350.316 C 180.508 349.855,178.684 349.546,175.751 349.369 C 173.093 349.209,171.044 348.884,170.485 348.534 C 169.981 348.219,168.111 347.795,166.328 347.592 C 164.492 347.382,162.801 346.963,162.427 346.624 C 162.064 346.296,160.694 345.908,159.383 345.762 C 158.072 345.617,156.460 345.184,155.800 344.800 C 155.140 344.415,153.821 344.003,152.869 343.884 C 151.917 343.765,150.832 343.391,150.459 343.053 C 150.085 342.715,149.002 342.314,148.052 342.162 C 147.102 342.010,146.027 341.574,145.662 341.194 C 145.298 340.814,144.145 340.378,143.100 340.227 C 142.055 340.075,141.200 339.787,141.200 339.587 C 141.200 339.386,140.225 338.939,139.034 338.593 C 137.842 338.246,136.666 337.720,136.419 337.423 C 136.173 337.126,135.387 336.774,134.673 336.640 C 133.959 336.506,133.067 336.037,132.691 335.598 C 132.315 335.159,131.686 334.800,131.293 334.800 C 130.900 334.800,130.133 334.487,129.589 334.103 C 128.411 333.274,126.661 332.267,124.968 331.445 C 124.291 331.115,123.504 330.566,123.219 330.223 C 122.935 329.880,122.364 329.600,121.951 329.600 C 121.538 329.600,120.833 329.233,120.384 328.784 C 119.935 328.335,119.170 327.795,118.684 327.582 C 118.198 327.370,116.990 326.568,116.000 325.800 C 115.010 325.032,113.790 324.225,113.290 324.008 C 112.789 323.790,112.275 323.339,112.147 323.006 C 112.019 322.673,111.688 322.400,111.412 322.400 C 110.939 322.400,108.519 320.703,107.200 319.447 C 106.870 319.132,105.430 317.949,104.000 316.817 C 102.570 315.686,100.512 314.004,99.427 313.080 C 96.795 310.839,87.259 301.263,86.000 299.596 C 83.803 296.689,81.129 293.378,80.672 293.000 C 80.406 292.780,79.882 292.150,79.507 291.600 C 79.132 291.050,78.283 289.880,77.621 289.000 C 76.959 288.120,76.233 287.040,76.007 286.600 C 75.781 286.160,74.968 284.990,74.200 284.000 C 73.432 283.010,72.630 281.802,72.418 281.316 C 72.205 280.830,71.665 280.065,71.216 279.616 C 70.767 279.167,70.400 278.462,70.400 278.049 C 70.400 277.636,70.120 277.065,69.777 276.781 C 69.434 276.496,68.885 275.709,68.555 275.032 C 67.733 273.339,66.726 271.589,65.897 270.411 C 65.513 269.867,65.200 269.100,65.200 268.707 C 65.200 268.314,64.841 267.685,64.402 267.309 C 63.963 266.933,63.494 266.041,63.360 265.327 C 63.226 264.613,62.866 263.821,62.561 263.568 C 62.256 263.314,61.807 262.369,61.564 261.467 C 61.322 260.566,60.780 259.393,60.361 258.860 C 59.943 258.328,59.600 257.285,59.600 256.542 C 59.600 255.687,59.307 254.941,58.800 254.507 C 58.360 254.130,57.998 253.367,57.996 252.811 C 57.994 252.255,57.550 250.900,57.009 249.800 C 56.468 248.700,56.019 247.347,56.013 246.794 C 56.006 246.241,55.665 245.161,55.256 244.394 C 54.847 243.627,54.380 241.920,54.219 240.600 C 54.058 239.280,53.650 237.890,53.311 237.511 C 52.960 237.117,52.565 235.574,52.391 233.911 C 52.224 232.310,51.800 230.448,51.450 229.772 C 51.054 229.008,50.721 226.970,50.569 224.372 C 50.418 221.785,50.073 219.668,49.663 218.800 C 48.659 216.679,48.660 183.316,49.664 181.200 C 50.087 180.310,50.399 178.333,50.523 175.769 C 50.658 172.966,50.957 171.200,51.506 169.969 C 51.939 168.996,52.404 166.959,52.538 165.442 C 52.681 163.812,53.035 162.403,53.403 161.997 C 53.745 161.619,54.131 160.340,54.260 159.155 C 54.389 157.970,54.740 156.608,55.038 156.128 C 55.337 155.649,55.697 154.479,55.837 153.528 C 55.978 152.578,56.431 151.206,56.845 150.480 C 57.259 149.753,57.709 148.457,57.847 147.598 C 57.984 146.739,58.435 145.731,58.848 145.356 C 59.262 144.982,59.600 144.246,59.600 143.720 C 59.600 143.194,60.050 141.918,60.600 140.885 C 61.150 139.852,61.600 138.714,61.600 138.357 C 61.600 138.000,61.949 137.264,62.375 136.722 C 62.802 136.180,63.278 135.230,63.433 134.611 C 63.589 133.991,64.050 133.150,64.458 132.742 C 64.866 132.334,65.200 131.664,65.200 131.254 C 65.200 130.844,65.535 130.079,65.945 129.554 C 66.355 129.029,66.823 128.176,66.985 127.659 C 67.315 126.606,68.858 124.135,69.790 123.166 C 70.126 122.818,70.400 122.233,70.400 121.866 C 70.400 121.500,70.740 120.860,71.156 120.444 C 71.571 120.029,72.567 118.516,73.369 117.082 C 74.171 115.648,75.091 114.374,75.413 114.250 C 75.736 114.126,76.000 113.777,76.000 113.475 C 76.000 113.172,76.355 112.602,76.790 112.209 C 77.224 111.816,77.699 111.113,77.845 110.647 C 77.992 110.181,78.491 109.417,78.956 108.949 C 79.907 107.990,81.409 106.211,82.600 104.630 C 83.040 104.046,83.805 103.099,84.300 102.526 C 84.795 101.952,85.200 101.348,85.200 101.182 C 85.200 100.741,98.948 87.029,100.705 85.717 C 101.527 85.103,102.435 84.285,102.723 83.900 C 103.010 83.515,103.504 83.200,103.819 83.200 C 104.135 83.200,104.618 82.840,104.893 82.400 C 105.168 81.960,105.587 81.600,105.824 81.600 C 106.061 81.600,106.631 81.195,107.089 80.700 C 108.594 79.075,109.787 78.118,110.647 77.847 C 111.113 77.700,111.816 77.224,112.209 76.790 C 112.602 76.355,113.160 76.000,113.448 76.000 C 113.736 76.000,114.163 75.642,114.397 75.205 C 114.632 74.767,115.255 74.301,115.782 74.169 C 116.310 74.036,117.052 73.584,117.433 73.164 C 117.813 72.744,118.295 72.400,118.504 72.400 C 118.713 72.400,119.419 71.950,120.073 71.400 C 120.727 70.850,121.580 70.400,121.969 70.400 C 122.358 70.400,123.002 70.040,123.400 69.600 C 123.798 69.160,124.338 68.800,124.600 68.800 C 124.862 68.800,125.387 68.456,125.767 68.036 C 126.148 67.616,126.926 67.155,127.498 67.011 C 128.069 66.868,128.980 66.402,129.522 65.975 C 130.064 65.549,130.816 65.200,131.193 65.200 C 131.569 65.200,132.308 64.827,132.833 64.371 C 133.359 63.915,134.277 63.445,134.874 63.325 C 135.471 63.206,136.266 62.769,136.642 62.354 C 137.017 61.939,137.703 61.600,138.165 61.600 C 138.628 61.600,139.852 61.150,140.885 60.600 C 141.918 60.050,143.268 59.600,143.885 59.600 C 144.550 59.600,145.199 59.294,145.476 58.850 C 145.761 58.394,146.627 57.997,147.679 57.839 C 148.632 57.696,149.950 57.225,150.606 56.792 C 151.263 56.359,152.343 56.004,153.006 56.003 C 153.669 56.001,154.904 55.629,155.749 55.176 C 156.595 54.723,158.212 54.249,159.343 54.122 C 160.474 53.996,161.714 53.620,162.097 53.287 C 162.504 52.934,164.083 52.559,165.897 52.387 C 167.604 52.225,169.578 51.792,170.284 51.425 C 171.135 50.982,173.026 50.678,175.884 50.524 C 178.258 50.397,180.394 50.140,180.631 49.954 C 182.321 48.630,216.074 48.373,218.800 49.663 M209.137 97.563 C 208.552 98.023,207.756 98.400,207.368 98.400 C 206.259 98.400,202.423 102.574,202.137 104.091 C 202.001 104.811,201.600 105.734,201.245 106.142 C 200.662 106.812,200.581 111.373,200.400 153.542 L 200.200 200.200 166.342 200.400 C 135.950 200.580,132.408 200.666,131.742 201.245 C 131.334 201.600,130.379 202.008,129.621 202.151 C 127.395 202.572,124.586 205.777,124.010 208.554 C 123.755 209.782,123.378 210.890,123.173 211.017 C 122.604 211.368,122.728 213.730,123.400 215.338 C 123.730 216.128,124.000 217.203,124.000 217.728 C 124.000 218.757,127.732 223.200,128.596 223.200 C 128.869 223.200,129.607 223.605,130.236 224.100 L 131.380 225.000 174.390 225.000 L 217.400 225.000 218.300 224.100 C 218.795 223.605,219.435 223.200,219.722 223.200 C 220.516 223.200,223.042 220.729,223.400 219.601 C 223.574 219.052,224.005 218.392,224.358 218.134 C 224.942 217.707,225.000 212.558,225.000 161.132 L 225.000 104.600 223.908 103.000 C 222.652 101.160,222.652 101.160,220.828 99.585 C 220.073 98.933,219.188 98.400,218.859 98.400 C 218.531 98.400,217.915 98.085,217.490 97.700 C 216.228 96.558,210.533 96.465,209.137 97.563 " stroke="none" fill="#050505" fill-rule="evenodd"/></g></svg>
