<svg xmlns="http://www.w3.org/2000/svg" width="17.089" height="15.532" viewBox="0 0 17.089 15.532">
  <g id="Group_542" data-name="Group 542" transform="translate(-1.727 -2.75)">
    <g id="Group_541" data-name="Group 541" transform="translate(2 3)">
      <path id="Path_912" data-name="Path 912" d="M10.276,4.24a1.073,1.073,0,0,0-.941.545L3.386,15.17a1.085,1.085,0,0,0,.941,1.622H16.216a1.084,1.084,0,0,0,.94-1.622L11.217,4.785A1.072,1.072,0,0,0,10.276,4.24Zm5.94,13.792H4.327A2.325,2.325,0,0,1,2.31,14.555L8.261,4.168A2.3,2.3,0,0,1,10.276,3h0a2.3,2.3,0,0,1,2.016,1.17l5.94,10.385a2.325,2.325,0,0,1-2.017,3.477Z" transform="translate(-2 -3)" fill="#f63e02" stroke="#f63e02" stroke-width="0.5" fill-rule="evenodd"/>
    </g>
    <path id="Path_913" data-name="Path 913" d="M11.874,13.366a.62.62,0,0,1-.62-.62V10.184a.62.62,0,1,1,1.24,0v2.562A.62.62,0,0,1,11.874,13.366Z" transform="translate(-1.605 -1.138)" fill="#f63e02" stroke="#f63e02" stroke-width="0.5" fill-rule="evenodd"/>
    <path id="Path_914" data-name="Path 914" d="M11.832,17.152a.827.827,0,0,1-.008-1.653h.008a.827.827,0,1,1,0,1.653Z" transform="translate(-1.561 -2.168)" fill="#f63e02" stroke="#f63e02" stroke-width="0.5" fill-rule="evenodd"/>
  </g>
</svg>
