<svg xmlns="http://www.w3.org/2000/svg" width="14.747" height="15.056" viewBox="0 0 14.747 15.056">
  <g id="Group_435" data-name="Group 435" transform="translate(-2.25 -2.412)">
    <path id="Path_802" data-name="Path 802" d="M12.742,3.579H6.511A3.167,3.167,0,0,0,3,7v6.66a3.2,3.2,0,0,0,3.511,3.48h6.224a3.169,3.169,0,0,0,3.511-3.424V7A3.155,3.155,0,0,0,12.742,3.579Z" transform="translate(0 -0.417)" fill="none" stroke="#f63e02" stroke-linecap="round" stroke-linejoin="round" stroke-width="1.5" fill-rule="evenodd"/>
    <path id="Path_8022" data-name="Path 8022" d="M-3.185-2.8H-3a.376.376,0,0,0,.35-.161L-1.6-4.5a.516.516,0,0,1,.207-.161A.775.775,0,0,1-1.113-4.7h.938l-1.4,1.9a.841.841,0,0,1-.147.172.933.933,0,0,1-.168.115.921.921,0,0,1,.413.336L-.049,0h-.98A.536.536,0,0,1-1.3-.053.641.641,0,0,1-1.463-.2L-2.527-1.834a.4.4,0,0,0-.147-.133.564.564,0,0,0-.245-.042h-.266V0H-4.27V-4.7h1.085Zm5.761.357H4.249V-.455a2.4,2.4,0,0,1-.763.385,3.046,3.046,0,0,1-.861.119A2.967,2.967,0,0,1,1.564-.133a2.423,2.423,0,0,1-.819-.5A2.24,2.24,0,0,1,.22-1.4a2.423,2.423,0,0,1-.186-.956A2.643,2.643,0,0,1,.21-3.329a2.16,2.16,0,0,1,.5-.763A2.248,2.248,0,0,1,1.5-4.585,2.885,2.885,0,0,1,2.527-4.76a2.652,2.652,0,0,1,1.039.186,2.376,2.376,0,0,1,.718.451l-.315.476a.3.3,0,0,1-.2.144.339.339,0,0,1-.252-.059Q3.395-3.64,3.279-3.7a1.824,1.824,0,0,0-.234-.095,1.418,1.418,0,0,0-.252-.056A2.265,2.265,0,0,0,2.5-3.864a1.377,1.377,0,0,0-.556.109,1.155,1.155,0,0,0-.42.308,1.425,1.425,0,0,0-.266.48,1.916,1.916,0,0,0-.095.616,1.939,1.939,0,0,0,.105.662,1.387,1.387,0,0,0,.294.49,1.256,1.256,0,0,0,.452.3A1.561,1.561,0,0,0,2.6-.791a1.558,1.558,0,0,0,.665-.14v-.707H2.793A.213.213,0,0,1,2.635-1.7a.188.188,0,0,1-.059-.137Z" transform="translate(9.616 12.296)" fill="#f63e02"/>
  </g>
</svg>
