<svg xmlns="http://www.w3.org/2000/svg" width="44.703" height="49.911" viewBox="0 0 44.703 49.911">
  <g transform="translate(-291.149 -307.035)">
    <path id="man-on-squat-position-turning-waist" d="M57.873.415c-3.759-1.727-8.451,2.327-10.914,4.9a2.425,2.425,0,0,0-.557.925l-.43.038C45.4,5.007,43.232.562,41.086.243a20.679,20.679,0,0,0-6.849.132c-.7-.026-6.929-.218-9.514,1.006a.425.425,0,0,0-.053.03c-.683.455-.828,1.411-.431,2.841a11.485,11.485,0,0,0,.683,1.8,28.113,28.113,0,0,0,2.3,5.308c-4.415,3.466-9.262,8.361-8.667,15.656a3.954,3.954,0,0,0,1.625,2.907c1.886,1.445,5.15,1.855,8.256,1.855a48.917,48.917,0,0,0,7.775-.69c.183.314.369.609.557.889-.29,1.037-1.226,4.389-1.8,6.465-.33,1.189-1.792,3.773-4.116,7.274a1.764,1.764,0,0,0,1.392,2.738l10.2.459H42.5a1.1,1.1,0,0,0,1.063-.789A1.141,1.141,0,0,0,43.59,48l.678-.206a1.065,1.065,0,0,0,.217-1.943l-6.35-3.618a43.422,43.422,0,0,1,3.6-4.764c6.922-7.041,6.7-10.174,6.388-11.089a27.292,27.292,0,0,1,1.759-2.433c1.893-2.163.33-8.593,0-9.835a7.6,7.6,0,0,1,1.253-1.252,9.723,9.723,0,0,0,8.252-.384,5.549,5.549,0,0,0,2.817-5.241A7.5,7.5,0,0,0,57.873.415ZM27.651,12.095a26.108,26.108,0,0,0,4.215,5.444,2.331,2.331,0,0,0,1.291.65,2.34,2.34,0,0,0-.306,1.388c.03.326.066.65.1.972-.16,0-.6.011-.6.011a4.3,4.3,0,0,1-2.5-.732,13.868,13.868,0,0,0-7.558-2.448A28.6,28.6,0,0,1,27.651,12.095ZM19.4,26.943a13.516,13.516,0,0,1,2.3-8.7,9.9,9.9,0,0,1,2.192.108,13.794,13.794,0,0,1,5.5,2.176,5.17,5.17,0,0,0,2.5.861c-1.127,2.688-6.152,8.166-7.2,9.289a8.837,8.837,0,0,1-4-1.432A3.1,3.1,0,0,1,19.4,26.943Zm6.333,3.865c.673-.733,1.815-2,2.984-3.4,2.273-2.727,3.641-4.743,4.081-6.009l.27,0A28.028,28.028,0,0,0,35.781,30.3,44.078,44.078,0,0,1,25.733,30.808ZM44.067,46.585a.22.22,0,0,1-.045.4l-.6.183a1.128,1.128,0,0,0-.345-.325.407.407,0,0,0-.043-.023l-5.506-2.539a.544.544,0,0,1-.228-.791c.111-.17.235-.358.366-.555Zm-2.936-9.7a53,53,0,0,0-4.539,6.145,1.388,1.388,0,0,0,.581,2.019l5.479,2.527a.256.256,0,0,1,.1.3.251.251,0,0,1-.271.191l-10.2-.459a.92.92,0,0,1-.726-1.428c1.678-2.528,3.773-5.884,4.226-7.515.486-1.751,1.228-4.409,1.622-5.821a8.314,8.314,0,0,0,1.82,1.755,2.824,2.824,0,0,0,1.521.552,1.5,1.5,0,0,0,.387-.049c1.4-.373,3.395-3.266,6.06-7.311l.193-.292C47.259,28.825,46.229,31.7,41.13,36.885Zm17.9-25.169a8.877,8.877,0,0,1-7.777.27.416.416,0,0,0-.422.05,8.021,8.021,0,0,0-1.751,1.756.423.423,0,0,0-.056.347c.557,2.009,1.685,7.587.228,9.253a29.985,29.985,0,0,0-1.956,2.714c-.26.39-.53.8-.806,1.22-1.846,2.8-4.375,6.641-5.573,6.96a1.7,1.7,0,0,1-1.222-.389c-3.107-2.077-5.207-8.187-5.843-12.984-.062-.461-.115-.937-.159-1.413a1.494,1.494,0,0,1,.855-1.491c1.129-.45,5.492-2.609,6.991-3.355a2,2,0,0,1-.652,1.226,3.343,3.343,0,0,1-.842.587L36.632,18.2a.422.422,0,0,0-.231.38,15.263,15.263,0,0,0,.251,2.652,16.986,16.986,0,0,0,3.037,6.7,8.455,8.455,0,0,0,1.717,1.6.422.422,0,0,0,.611-.148.44.44,0,0,0-.155-.563A7.448,7.448,0,0,1,40.519,27.6,36.008,36.008,0,0,1,43.384,23l.024-.029c.578-.782.963-1.226.967-1.23a.422.422,0,0,0-.636-.554c-.014.016-.314.361-.787.986a15.551,15.551,0,0,0-5.536-1.432,15.268,15.268,0,0,1-.164-1.915l3.176-1.609a4.179,4.179,0,0,0,1.053-.74,2.442,2.442,0,0,0,.838-2.372,1.02,1.02,0,0,0-.058-.159,1.205,1.205,0,0,0-.195-.326,2.335,2.335,0,0,0-2.481-.655l-4.876,1.66A37.226,37.226,0,0,1,31.5,9.3l5.134-3.54,3.072-.548a.433.433,0,0,0,.364-.408.422.422,0,0,0-.5-.425L30.7,5.961l-.139-1.326a.438.438,0,0,0-.444-.4.422.422,0,0,0-.4.465L30,7.318c.284,2.7,4.053,7.843,4.214,8.06a.422.422,0,0,0,.476.149l5.171-1.761a1.475,1.475,0,0,1,1.267.151c-1.53.76-5.851,2.9-6.9,3.313a1.573,1.573,0,0,1-1.765-.3,25.511,25.511,0,0,1-4.319-5.678,27.763,27.763,0,0,1-2.414-5.476.434.434,0,0,0-.029-.074c-.592-1.186-1.176-3.126-.578-3.578,2.518-1.164,9.075-.911,9.141-.908a.436.436,0,0,0,.111-.01,19.971,19.971,0,0,1,6.594-.133c.759.113,1.776,1.16,2.864,2.948a26.858,26.858,0,0,1,1.5,2.865.423.423,0,0,0,.424.253l.541-.048a2.416,2.416,0,0,0,1.406,2.091l2.387,1.091a.423.423,0,0,0,.587-.288.433.433,0,0,0-.25-.487L48.045,8.418A1.571,1.571,0,0,1,47.569,5.9c2.307-2.408,6.669-6.222,9.952-4.714a6.66,6.66,0,0,1,3.848,6.061A4.725,4.725,0,0,1,59.029,11.716ZM39.948,26.877a16.735,16.735,0,0,1-2.329-5.262,14.593,14.593,0,0,1,4.825,1.248A37,37,0,0,0,39.948,26.877ZM30.835,7.23,30.79,6.8l3.837-.685L31.167,8.5A5.441,5.441,0,0,1,30.835,7.23Z" transform="translate(273.14 307.535)" fill="#0e112c"/>
    <path id="man-on-squat-position-turning-waist_-_Outline" data-name="man-on-squat-position-turning-waist - Outline" d="M55.928-.5h0a5.121,5.121,0,0,1,2.154.461,7.994,7.994,0,0,1,4.63,7.27,6.04,6.04,0,0,1-3.1,5.7,11.137,11.137,0,0,1-4.846,1.17,9.747,9.747,0,0,1-3.533-.662,7.216,7.216,0,0,0-.8.8,31.093,31.093,0,0,1,.781,4.406c.261,2.72-.061,4.617-.955,5.64a25.093,25.093,0,0,0-1.591,2.19,5.455,5.455,0,0,1-.565,3.36A28.978,28.978,0,0,1,42.1,37.815a40.266,40.266,0,0,0-3.248,4.252l5.88,3.35a1.565,1.565,0,0,1-.319,2.856l-.421.128a1.6,1.6,0,0,1-1.494,1.01h-.073l-10.2-.46a2.264,2.264,0,0,1-1.786-3.514A36.781,36.781,0,0,0,34.487,38.3c.563-2.026,1.451-5.209,1.741-6.246q-.137-.211-.268-.425a49.778,49.778,0,0,1-7.521.64c-3.983,0-6.863-.659-8.56-1.959a4.436,4.436,0,0,1-1.819-3.264,14.593,14.593,0,0,1,.5-5.214,15.938,15.938,0,0,1,2.035-4.365,28.028,28.028,0,0,1,5.989-6.248,28.274,28.274,0,0,1-2.131-5,11.908,11.908,0,0,1-.7-1.844c-.461-1.661-.248-2.8.635-3.391a.928.928,0,0,1,.116-.065c1.886-.893,5.46-1.08,8.126-1.08.747,0,1.306.016,1.56.024a20.28,20.28,0,0,1,3.853-.35,21.294,21.294,0,0,1,3.113.225c2.109.313,4.067,3.806,5.015,5.779a2.941,2.941,0,0,1,.424-.562,26.429,26.429,0,0,1,4.091-3.527A9.652,9.652,0,0,1,55.928-.5ZM54.764,12.251a9.314,9.314,0,0,0,4.048-.985,4.238,4.238,0,0,0,2.057-4.018,6.163,6.163,0,0,0-3.556-5.611,3.349,3.349,0,0,0-1.409-.3c-2.851,0-6.219,3.072-7.974,4.9a1.071,1.071,0,0,0,.323,1.721l2.372,1.085a.922.922,0,0,1-.369,1.767.916.916,0,0,1-.382-.083L47.486,9.64a2.9,2.9,0,0,1-1.629-2.005l-.066.006c-.028,0-.054,0-.08,0a.922.922,0,0,1-.847-.555,26.523,26.523,0,0,0-1.464-2.8c-1.154-1.9-2.054-2.645-2.511-2.713a19.3,19.3,0,0,0-2.821-.2,18.349,18.349,0,0,0-3.591.329.934.934,0,0,1-.238.022c-.009,0-.627-.025-1.565-.025-1.995,0-5.56.111-7.265.849a2.039,2.039,0,0,0,.058,1.084,8.794,8.794,0,0,0,.674,1.855.94.94,0,0,1,.062.161,27.39,27.39,0,0,0,2.367,5.365A25.012,25.012,0,0,0,32.8,16.576a.991.991,0,0,0,.711.3,1.428,1.428,0,0,0,.522-.108c.58-.229,2.209-1.01,3.777-1.775L34.846,16a.922.922,0,0,1-1.039-.326c-.41-.556-4.015-5.514-4.308-8.3l-.275-2.619a.922.922,0,0,1,.869-1.017h.047a.934.934,0,0,1,.92.849l.083.792,8.342-1.488a.922.922,0,0,1,1.084.925.931.931,0,0,1-.776.893l-2.966.529-4.7,3.238A37.687,37.687,0,0,0,34.9,14.034l4.521-1.54a2.8,2.8,0,0,1,.9-.149,2.869,2.869,0,0,1,2.11.941,1.65,1.65,0,0,1,.277.448l0,.009a1.507,1.507,0,0,1,.086.238,2.923,2.923,0,0,1-.97,2.856,4.676,4.676,0,0,1-1.178.83l-2.89,1.464c.015.333.042.759.092,1.16a16.44,16.44,0,0,1,4.951,1.255c.339-.434.545-.672.556-.684a.922.922,0,0,1,1.39,1.211s-.381.441-.942,1.2l-.034.043a35.548,35.548,0,0,0-2.65,4.211,6.7,6.7,0,0,0,1.02.882.937.937,0,0,1,.31,1.212.922.922,0,0,1-1.333.322,8.953,8.953,0,0,1-1.82-1.694,17.481,17.481,0,0,1-3.138-6.9,15.708,15.708,0,0,1-.264-2.763.917.917,0,0,1,.505-.83l1.22-.618c-1.239.6-2.364,1.128-2.88,1.335a.994.994,0,0,0-.557.987c.043.47.1.938.157,1.392a30.514,30.514,0,0,0,1.961,7.387,11.642,11.642,0,0,0,3.664,5.248,1.639,1.639,0,0,0,.773.326.172.172,0,0,0,.042,0c.187-.05.782-.38,2.271-2.365,1-1.337,2.07-2.957,3.012-4.385.254-.385.54-.819.809-1.224a30.292,30.292,0,0,1,2-2.767c1.1-1.26.469-5.9-.333-8.79a.922.922,0,0,1,.121-.758,8.458,8.458,0,0,1,1.867-1.879.93.93,0,0,1,.555-.186.9.9,0,0,1,.375.081A7.924,7.924,0,0,0,54.764,12.251ZM34.85,6.383,36.128,5.5,34.6,5.774ZM31.436,7.711l1.009-.7-1.109.2A3.637,3.637,0,0,0,31.436,7.711Zm1.033,10.807a2.892,2.892,0,0,1-.952-.621,26.305,26.305,0,0,1-4-5.056,28.569,28.569,0,0,0-4.222,4.084,14.764,14.764,0,0,1,6.846,2.486,3.8,3.8,0,0,0,2.206.649h.05c-.016-.152-.031-.3-.043-.436A2.827,2.827,0,0,1,32.469,18.518Zm-1.32,3.276a5.764,5.764,0,0,1-2.027-.845,13.291,13.291,0,0,0-5.3-2.1,10.328,10.328,0,0,0-1.549-.123c-.107,0-.2,0-.285.005A12.868,12.868,0,0,0,19.9,26.9a2.594,2.594,0,0,0,1.1,1.95,7.983,7.983,0,0,0,3.515,1.294C25.728,28.834,29.734,24.414,31.149,21.794Zm10.54,1.274a14.4,14.4,0,0,0-3.382-.858,16.435,16.435,0,0,0,1.6,3.7C40.554,24.772,41.184,23.8,41.689,23.067ZM35.027,29.91a28.507,28.507,0,0,1-2.262-7.247A34.282,34.282,0,0,1,29.1,27.725c-.829.995-1.643,1.92-2.308,2.659.5.027,1.034.04,1.583.04A48.325,48.325,0,0,0,35.027,29.91Zm12.706-2.417a2.318,2.318,0,0,0-.079-.95l-.017-.049c-.171.258-.348.526-.517.782Zm-6.988,8.158a3.287,3.287,0,0,1-1.8-.637,7.679,7.679,0,0,1-1.312-1.137c-.409,1.464-.972,3.483-1.371,4.921-.378,1.36-1.822,3.937-4.292,7.658a.42.42,0,0,0,.332.652l9.018.406L36.963,45.5a1.888,1.888,0,0,1-.79-2.746,53.443,53.443,0,0,1,4.593-6.214l.008-.009q.676-.688,1.257-1.32a2.594,2.594,0,0,1-.769.37A2.009,2.009,0,0,1,40.745,35.651ZM40.277,45l-2.454-1.4-.106.163a.036.036,0,0,0-.005.035.038.038,0,0,0,.024.028Z" transform="translate(273.14 307.535)" fill="#0e112c"/>
  </g>
</svg>
